<?xml version="1.0" standalone="no"?>
<!DOCTYPE svg PUBLIC "-//W3C//DTD SVG 1.1//EN" "http://www.w3.org/Graphics/SVG/1.1/DTD/svg11.dtd" >
<svg xmlns="http://www.w3.org/2000/svg" xmlns:xlink="http://www.w3.org/1999/xlink" version="1.1">
<metadata>
Created by FontForge 20170731 at Fri Dec 31 12:46:00 2021
 By Aleksey,,,
Copyright 2021, Kris Sowersby, Klim Type Foundry.
</metadata>
<defs>
<font id="TiemposFine-Regular" horiz-adv-x="0" >
  <font-face 
    font-family="Tiempos Fine"
    font-weight="400"
    font-stretch="normal"
    units-per-em="2048"
    panose-1="2 2 5 3 6 3 3 6 4 3"
    ascent="1638"
    descent="-410"
    x-height="1073"
    cap-height="1438"
    bbox="-337 -469 2433 1948"
    underline-thickness="61"
    underline-position="-265"
    unicode-range="U+0020-FB02"
  />
<missing-glyph horiz-adv-x="1966" 
d="M184 0v1597h1598v-1597h-1598zM412 1462l571 -571l571 571h-1142zM891 799l-563 563v-1126zM1075 799l563 -563v1126zM983 707l-571 -572h1142z" />
    <glyph glyph-name="uniFB01" unicode="fi" horiz-adv-x="1181" 
d="M547 0h-514v23q83 5 112 21.5t29 72.5v870h-149v12l149 72v64q0 149 61 257t162.5 160t231.5 52q136 0 216.5 -42.5t80.5 -123.5q0 -38 -21 -69.5t-51 -45.5h-141q8 33 8 82q0 75 -31 123.5t-100 48.5q-89 0 -138 -85t-49 -232v-207h422l185 41h8v-977q0 -56 29 -72.5
t112 -21.5v-23h-512v23q83 5 112 21.5t29 72.5v870h-385v-870q0 -56 30 -72.5t114 -21.5v-23z" />
    <glyph glyph-name="uniFB02" unicode="fl" horiz-adv-x="1181" 
d="M547 23v-23h-514v23q83 5 112 21.5t29 72.5v870h-149v12l149 72v113q0 192 121.5 306t302.5 114q69 0 136.5 -18t109.5 -46l170 64h4v-1487q0 -56 29 -72.5t112 -21.5v-23h-512v23q83 5 112 21.5t29 72.5v1313q-49 145 -186 145q-99 0 -149 -76.5t-50 -216.5v-229h250
v-66h-250v-870q0 -56 30 -72.5t114 -21.5z" />
    <glyph glyph-name="f_f_h" unicode="ffh" horiz-adv-x="2449" 
d="M403 1053h385v131q0 54 13 108h-119q14 47 14 97q0 155 -121 155q-77 0 -124.5 -68t-47.5 -198v-225zM547 0h-514v23q83 5 112 21.5t29 72.5v870h-149v12l149 72v37q0 218 119.5 341.5t312.5 123.5q99 0 170 -36t92 -93q58 76 148 118t196 42q69 0 136.5 -18t109.5 -46
l170 64h4v-717q73 86 169.5 146.5t205.5 60.5q142 0 213.5 -84t71.5 -246v-647q0 -56 29 -72.5t112 -21.5v-23h-512v23q83 5 112 21.5t29 72.5v624q0 112 -43 163.5t-137 51.5q-132 0 -250 -86v-753q0 -56 29 -72.5t113 -21.5v-23h-512v23q83 5 112 21.5t29 72.5v1313
q-49 145 -186 145q-99 0 -149 -76.5t-50 -216.5v-229h250v-66h-250v-870q0 -56 29 -72.5t112 -21.5v-23h-512v23q83 5 112 21.5t29 72.5v870h-385v-870q0 -56 30 -72.5t114 -21.5v-23z" />
    <glyph glyph-name="f_f_k" unicode="ffk" horiz-adv-x="2365" 
d="M403 1053h385v131q0 54 13 108h-119q14 47 14 97q0 155 -121 155q-77 0 -124.5 -68t-47.5 -198v-225zM1657 573l344 330q46 46 54 65q5 11 5 23q0 29 -39 42t-118 20v20h432v-20q-131 -13 -242 -117l-256 -242l547 -686v-8h-273zM547 0h-514v23q83 5 112 21.5t29 72.5
v870h-149v12l149 72v37q0 218 119.5 341.5t312.5 123.5q99 0 170 -36t92 -93q58 76 148 118t196 42q69 0 136.5 -18t109.5 -46l170 64h4v-1487q0 -56 29 -72.5t113 -21.5v-23h-512v23q83 5 112 21.5t29 72.5v1313q-49 145 -186 145q-99 0 -149 -76.5t-50 -216.5v-229h250
v-66h-250v-870q0 -56 29 -72.5t112 -21.5v-23h-512v23q83 5 112 21.5t29 72.5v870h-385v-870q0 -56 30 -72.5t114 -21.5v-23z" />
    <glyph glyph-name="f_f" unicode="ff" horiz-adv-x="1280" 
d="M403 1053h385v112q0 64 13 127h-119q14 47 14 97q0 155 -121 155q-77 0 -124.5 -68t-47.5 -198v-225zM547 0h-514v23q83 5 112 21.5t29 72.5v870h-149v12l149 72v37q0 218 119.5 341.5t312.5 123.5q96 0 166 -34.5t94 -88.5q108 154 316 154q110 0 172.5 -43.5
t62.5 -112.5q0 -36 -17.5 -67t-45.5 -46h-131q10 45 10 88q0 156 -90 156q-60 0 -92.5 -60t-32.5 -173v-293h258v-66h-258v-868q0 -56 35.5 -71t150.5 -25v-23h-557v23q83 5 112 21.5t29 72.5v870h-385v-870q0 -56 30 -72.5t114 -21.5v-23z" />
    <glyph glyph-name="f_h" unicode="fh" horiz-adv-x="1835" 
d="M547 23v-23h-514v23q83 5 112 21.5t29 72.5v870h-149v12l149 72v113q0 192 121.5 306t302.5 114q69 0 136.5 -18t109.5 -46l170 64h4v-717q73 86 170 146.5t207 60.5q282 0 282 -330v-647q0 -56 29 -72.5t113 -21.5v-23h-512v23q83 5 112 21.5t29 72.5v624
q0 112 -43 163.5t-137 51.5q-132 0 -250 -86v-753q0 -56 29 -72.5t112 -21.5v-23h-512v23q83 5 112 21.5t29 72.5v1313q-49 145 -186 145q-99 0 -149 -76.5t-50 -216.5v-229h250v-66h-250v-870q0 -56 30 -72.5t114 -21.5z" />
    <glyph glyph-name="f_f_b" unicode="ffb" horiz-adv-x="2428" 
d="M1829 -20q-117 0 -233 32t-193 97v1321q-49 145 -186 145q-99 0 -149 -76.5t-50 -216.5v-229h250v-66h-250v-870q0 -56 29 -72.5t112 -21.5v-23h-512v23q83 5 112 21.5t29 72.5v870h-385v-870q0 -56 30 -72.5t114 -21.5v-23h-514v23q83 5 112 21.5t29 72.5v870h-149v12
l149 72v37q0 218 119.5 341.5t312.5 123.5q99 0 170 -36t92 -93q58 76 148 118t196 42q69 0 136.5 -18t109.5 -46l170 64h4v-711q62 88 152.5 144.5t202.5 56.5q184 0 289.5 -134.5t105.5 -359.5q0 -171 -71.5 -313t-198.5 -224.5t-283 -82.5zM403 1053h385v131q0 54 13 108
h-119q14 47 14 97q0 155 -121 155q-77 0 -124.5 -68t-47.5 -198v-225zM1835 10q94 0 167 66.5t111.5 179.5t38.5 252q0 132 -32.5 231.5t-104.5 160.5t-176 61q-123 0 -207 -87v-591q0 -131 55 -202t148 -71z" />
    <glyph glyph-name="f_f_i" unicode="ffi" horiz-adv-x="1796" 
d="M403 1053h385v82q0 87 21 157h-127q14 47 14 97q0 155 -121 155q-77 0 -124.5 -68t-47.5 -198v-225zM547 0h-514v23q83 5 112 21.5t29 72.5v870h-149v12l149 72v37q0 218 119.5 341.5t312.5 123.5q105 0 178.5 -41t87.5 -102q61 85 157.5 129.5t213.5 44.5
q136 0 216.5 -42.5t80.5 -123.5q0 -37 -21.5 -68.5t-50.5 -46.5h-141q8 33 8 82q0 75 -31 123.5t-100 48.5q-89 0 -137.5 -85t-48.5 -232v-207h422l184 41h8v-977q0 -56 29 -72.5t113 -21.5v-23h-512v23q83 5 112 21.5t29 72.5v870h-385v-870q0 -56 29 -72.5t112 -21.5v-23
h-512v23q83 5 112 21.5t29 72.5v870h-385v-870q0 -56 30 -72.5t114 -21.5v-23z" />
    <glyph glyph-name="f_f_j" unicode="ffj" horiz-adv-x="1771" 
d="M1632 119q0 -107 -27.5 -194.5t-81.5 -156.5t-116 -120t-150 -105l-6 8q94 118 123 239t29 296v901h-385v-870q0 -56 29 -72.5t112 -21.5v-23h-512v23q83 5 112 21.5t29 72.5v870h-385v-870q0 -56 30 -72.5t114 -21.5v-23h-514v23q83 5 112 21.5t29 72.5v870h-149v12
l149 72v37q0 218 119.5 341.5t312.5 123.5q105 0 178.5 -41t87.5 -102q61 85 157.5 129.5t213.5 44.5q136 0 216.5 -42.5t80.5 -123.5q0 -37 -21.5 -68.5t-50.5 -46.5h-141q8 33 8 82q0 75 -31 123.5t-100 48.5q-89 0 -137.5 -85t-48.5 -232v-207h422l184 41h8v-975z
M403 1053h385v82q0 87 21 157h-127q14 47 14 97q0 155 -121 155q-77 0 -124.5 -68t-47.5 -198v-225z" />
    <glyph glyph-name="f_k" unicode="fk" horiz-adv-x="1751" 
d="M547 23v-23h-514v23q83 5 112 21.5t29 72.5v870h-149v12l149 72v113q0 192 121.5 306t302.5 114q69 0 136.5 -18t109.5 -46l170 64h4v-1487q0 -56 29 -72.5t112 -21.5v-23h-512v23q83 5 112 21.5t29 72.5v1313q-49 145 -186 145q-99 0 -149 -76.5t-50 -216.5v-229h250
v-66h-250v-870q0 -56 30 -72.5t114 -21.5zM1042 573l344 330l9.5 9.5l9.5 9.5t8 8.5t8.5 9t7 8t6 8.5t4.5 8t4 9t2 8.5t1 9.5q0 29 -39.5 42t-118.5 20v20h432v-20q-130 -14 -241 -117l-256 -242l546 -686v-8h-272z" />
    <glyph glyph-name="f_b" unicode="fb" horiz-adv-x="1814" 
d="M1214 -20q-117 0 -233 32t-193 97v1321q-49 145 -186 145q-99 0 -149 -76.5t-50 -216.5v-229h250v-66h-250v-870q0 -56 30 -72.5t114 -21.5v-23h-514v23q83 5 112 21.5t29 72.5v870h-149v12l149 72v113q0 192 121.5 306t302.5 114q69 0 136.5 -18t109.5 -46l170 64h4
v-711q62 88 152 144.5t202 56.5q184 0 289.5 -134.5t105.5 -359.5q0 -171 -71.5 -313t-198.5 -224.5t-283 -82.5zM1221 10q94 0 167 66.5t111.5 179.5t38.5 252q0 132 -32 231.5t-104 160.5t-177 61q-123 0 -207 -87v-591q0 -131 55 -202t148 -71z" />
    <glyph glyph-name="f_f_idieresis" unicode="ff&#xef;" horiz-adv-x="1796" 
d="M403 1053h385v112q0 64 13 127h-119q14 47 14 97q0 155 -121 155q-77 0 -124.5 -68t-47.5 -198v-225zM1563 1380q0 57 39.5 97.5t95.5 40.5q58 0 98.5 -40.5t40.5 -97.5t-40.5 -97t-98.5 -40q-56 0 -95.5 40t-39.5 97zM547 0h-514v23q83 5 112 21.5t29 72.5v870h-149v12
l149 72v37q0 218 119.5 341.5t312.5 123.5q96 0 167 -34.5t93 -88.5q111 154 322 154q117 0 184.5 -43.5t67.5 -112.5q0 -36 -18.5 -66.5t-45.5 -46.5h-137q10 45 10 88q0 68 -22.5 112t-71.5 44q-66 0 -101.5 -59.5t-35.5 -173.5v-293h422l184 41h8v-977q0 -56 29 -72.5
t113 -21.5v-23h-512v23q83 5 112 21.5t29 72.5v870h-385v-870q0 -56 29 -72.5t112 -21.5v-23h-512v23q83 5 112 21.5t29 72.5v870h-385v-870q0 -56 30 -72.5t114 -21.5v-23z" />
    <glyph glyph-name="f_f_l" unicode="ffl" horiz-adv-x="1796" 
d="M403 1053h385v131q0 54 13 108h-119q14 47 14 97q0 155 -121 155q-77 0 -124.5 -68t-47.5 -198v-225zM547 0h-514v23q83 5 112 21.5t29 72.5v870h-149v12l149 72v37q0 218 119.5 341.5t312.5 123.5q99 0 170 -36t92 -93q58 76 148 118t196 42q69 0 136.5 -18t109.5 -46
l170 64h4v-1487q0 -56 29 -72.5t113 -21.5v-23h-512v23q83 5 112 21.5t29 72.5v1313q-49 145 -186 145q-99 0 -149 -76.5t-50 -216.5v-229h250v-66h-250v-870q0 -56 29 -72.5t112 -21.5v-23h-512v23q83 5 112 21.5t29 72.5v870h-385v-870q0 -56 30 -72.5t114 -21.5v-23z" />
    <glyph glyph-name="f_j" unicode="fj" horiz-adv-x="1157" 
d="M1018 119q0 -107 -27.5 -194.5t-81.5 -156.5t-116 -120t-150 -105l-6 8q94 118 122.5 239t28.5 296v901h-385v-870q0 -56 30 -72.5t114 -21.5v-23h-514v23q83 5 112 21.5t29 72.5v870h-149v12l149 72v64q0 149 61 257t162.5 160t231.5 52q136 0 216.5 -42.5t80.5 -123.5
q0 -38 -21 -69.5t-51 -45.5h-141q8 33 8 82q0 75 -31 123.5t-100 48.5q-89 0 -138 -85t-49 -232v-207h422l185 41h8v-975z" />
    <glyph glyph-name="f_idieresis" unicode="f&#xef;" horiz-adv-x="1181" 
d="M948 1380q0 57 39.5 97.5t95.5 40.5q58 0 99 -40.5t41 -97.5t-41 -97t-99 -40q-56 0 -95.5 40t-39.5 97zM547 0h-514v23q83 5 112 21.5t29 72.5v870h-149v12l149 72v94q0 208 110 323.5t289 115.5q119 0 185.5 -43.5t66.5 -112.5q0 -36 -18 -66.5t-45 -46.5h-135
q10 45 10 88q0 68 -23.5 112t-72.5 44q-66 0 -102 -60t-36 -173v-293h422l185 41h8v-977q0 -56 29 -72.5t112 -21.5v-23h-512v23q83 5 112 21.5t29 72.5v870h-385v-870q0 -56 30 -72.5t114 -21.5v-23z" />
    <glyph glyph-name=".notdef" horiz-adv-x="1966" 
d="M184 0v1597h1598v-1597h-1598zM412 1462l571 -571l571 571h-1142zM891 799l-563 563v-1126zM1075 799l563 -563v1126zM983 707l-571 -572h1142z" />
    <glyph glyph-name=".null" 
 />
    <glyph glyph-name="nonmarkingreturn" horiz-adv-x="682" 
 />
    <glyph glyph-name="space" unicode=" " horiz-adv-x="413" 
 />
    <glyph glyph-name="exclam" unicode="!" horiz-adv-x="514" 
d="M264 414h-18l-144 1024h308zM98 137q0 66 46.5 112t111.5 46q66 0 112 -46t46 -112t-46 -111.5t-112 -45.5q-65 0 -111.5 45.5t-46.5 111.5z" />
    <glyph glyph-name="quotedbl" unicode="&#x22;" horiz-adv-x="598" 
d="M449 948h-5l-69 305l-10.5 45.5t-12 54t-8.5 48t-4 43.5q0 53 27 87t79 34q51 0 78 -34t27 -87q0 -34 -33 -191zM154 948h-4l-70 305l-10.5 45.5t-12 54t-8.5 48t-4 43.5q0 52 27.5 86.5t79.5 34.5q51 0 77.5 -34t26.5 -87q0 -34 -33 -191z" />
    <glyph glyph-name="numbersign" unicode="#" horiz-adv-x="1118" 
d="M932 479h-225l-156 -489l-37 12l152 477h-367l-156 -489l-37 12l152 477h-217v41h229l129 410h-213v41h226l155 489l37 -12l-151 -477h366l156 489l37 -12l-152 -477h217v-41h-229l-129 -410h213v-41zM678 520l129 410h-367l-129 -410h367z" />
    <glyph glyph-name="dollar" unicode="$" horiz-adv-x="1073" 
d="M270 1163q0 -56 20 -100t61.5 -77t83.5 -55t106 -48l92 534q-47 13 -88 13q-127 0 -201 -76.5t-74 -190.5zM506 10q136 0 221.5 79.5t85.5 205.5q0 69 -21.5 122.5t-63.5 92t-87 64t-109 51.5l-102 -607q33 -8 76 -8zM502 -20q-28 0 -78 4l-37 -211h-37l37 215
q-99 12 -182.5 45.5t-138.5 79.5l-15 360h21q30 -164 115 -283.5t206 -160.5l105 610q-156 61 -197 82q-149 75 -196 187q-27 63 -27 143q0 175 133 291t338 116q45 0 88 -6l35 199h37l-35 -205q135 -25 260 -107l2 -307h-18q-25 138 -91 235.5t-161 137.5l-91 -537
q160 -64 216 -96q159 -90 201 -230q16 -56 16 -122q0 -129 -70 -231t-185 -155.5t-251 -53.5z" />
    <glyph glyph-name="percent" unicode="%" horiz-adv-x="1363" 
d="M168 -20l979 1478h51l-979 -1478h-51zM59 1147q0 134 94.5 222.5t215.5 88.5t214 -88.5t93 -222.5t-93 -222.5t-214 -88.5t-215.5 88.5t-94.5 222.5zM219 1147q0 -120 40 -202.5t110 -82.5q69 0 109 82.5t40 202.5t-40 202.5t-109 82.5q-70 0 -110 -82.5t-40 -202.5z
M1305 291q0 -134 -93.5 -222.5t-214.5 -88.5t-215 88.5t-94 222.5t94 222.5t215 88.5t214.5 -88.5t93.5 -222.5zM1147 291q0 119 -40.5 201.5t-109.5 82.5q-70 0 -109.5 -82t-39.5 -202q0 -121 39.5 -203t109.5 -82q69 0 109.5 82.5t40.5 202.5z" />
    <glyph glyph-name="ampersand" unicode="&#x26;" horiz-adv-x="1441" 
d="M582 864l20 -22q117 51 163 131.5t46 200.5q0 108 -51.5 180.5t-149.5 72.5q-88 0 -142 -62t-54 -169q0 -22 3.5 -44.5t7.5 -40.5t13.5 -39.5t15.5 -35.5t19.5 -35t20.5 -31t23 -30t21.5 -26.5t23 -26.5t20.5 -23zM631 74q153 0 278 98q-22 22 -92 100l-424 476
q-135 -88 -135 -289q0 -171 106 -278t267 -107zM1102 0q-63 37 -164 141q-171 -161 -418 -161q-127 0 -235 44.5t-178 136t-70 212.5q0 263 342 389l-14 16q-138 159 -138 316q0 152 114 258t282 106q166 0 267 -83t101 -208q0 -67 -28 -121t-82.5 -94t-117.5 -69t-149 -56
l441 -487q80 141 80 305q0 75 -54 103t-159 28v25h477v-25q-105 0 -153 -30t-62 -117q-28 -174 -109 -312l53 -59q105 -116 186 -172.5t154 -62.5v-23h-366z" />
    <glyph glyph-name="quotesingle" unicode="'" horiz-adv-x="303" 
d="M154 948h-4l-70 305l-10.5 45.5t-12 54t-8.5 48t-4 43.5q0 52 27.5 86.5t79.5 34.5q51 0 77.5 -34t26.5 -87q0 -34 -33 -191z" />
    <glyph glyph-name="parenleft" unicode="(" horiz-adv-x="708" 
d="M123 643q0 255 129.5 493t370.5 441h26q-177 -191 -250 -424t-73 -510t73 -510t250 -424h-26q-241 203 -370.5 441t-129.5 493z" />
    <glyph glyph-name="parenright" unicode=")" horiz-adv-x="708" 
d="M86 1577q241 -203 370.5 -441t129.5 -493t-129.5 -493t-370.5 -441h-27q177 192 250.5 425t73.5 509t-73.5 509t-250.5 425h27z" />
    <glyph glyph-name="asterisk" unicode="*" horiz-adv-x="841" 
d="M702 1284l-274 -92l274 -94q41 -12 56 -42t-2 -59q-18 -28 -48 -30.5t-65 26.5l-219 191l57 -283q9 -43 -9 -68.5t-50 -25.5q-34 0 -52.5 25.5t-9.5 68.5l58 283l-217 -191q-35 -29 -65 -26.5t-48 30.5q-17 29 -3.5 59.5t54.5 41.5l275 94l-275 92q-41 13 -54.5 43
t3.5 57q18 29 48 31.5t65 -26.5l217 -191l-58 285q-9 43 9.5 68.5t52.5 25.5q32 0 50 -25.5t9 -68.5l-57 -285l219 191q35 29 65 26.5t48 -31.5q16 -27 1.5 -57t-55.5 -43z" />
    <glyph glyph-name="plus" unicode="+" horiz-adv-x="1155" 
d="M1026 717h-426v-426h-45v426h-426v45h426v426h45v-426h426v-45z" />
    <glyph glyph-name="comma" unicode="," horiz-adv-x="438" 
d="M254 2h-64q-47 10 -79.5 44t-32.5 85q0 62 41 100.5t102 38.5q72 0 113 -52t41 -132q0 -129 -93 -222t-231 -104v13q86 23 140.5 85.5t62.5 143.5z" />
    <glyph glyph-name="hyphen" unicode="-" horiz-adv-x="655" 
d="M594 578h-533v84h533v-84z" />
    <glyph glyph-name="period" unicode="." horiz-adv-x="438" 
d="M61 137q0 66 46 112t112 46q65 0 111.5 -46t46.5 -112t-46.5 -111.5t-111.5 -45.5q-66 0 -112 45.5t-46 111.5z" />
    <glyph glyph-name="slash" unicode="/" horiz-adv-x="776" 
d="M719 1577l-615 -1866h-47l615 1866h47z" />
    <glyph glyph-name="zero" unicode="0" horiz-adv-x="1261" 
d="M631 -20q-169 0 -299.5 100.5t-199.5 268t-69 370.5t69 370.5t199.5 268t299.5 100.5q168 0 299 -100.5t199.5 -267.5t68.5 -371t-68.5 -371t-199.5 -267.5t-299 -100.5zM631 8q70 0 124 41t87.5 108t54.5 162t29 192t8 208t-8 208t-29 192t-54.5 162t-87.5 108t-124 41
q-59 0 -106.5 -28t-79.5 -79.5t-55 -117t-36 -148t-18.5 -164.5t-5.5 -174t5.5 -174t18.5 -164.5t36 -148t55 -117t79.5 -79.5t106.5 -28z" />
    <glyph glyph-name="one" unicode="1" horiz-adv-x="778" 
d="M750 0h-699v29q56 3 91.5 6t63 11t41.5 17t23 27.5t11 39t2 54.5v1004h-246v16l92 17q135 23 228 80t159 157h12v-1274q0 -34 2.5 -54.5t11.5 -38.5t22.5 -27.5t40.5 -17.5t60 -11t85 -6v-29z" />
    <glyph glyph-name="two" unicode="2" horiz-adv-x="1064" 
d="M217 207h447q69 0 107 5.5t77.5 27t70.5 63t70 115.5h21l-76 -418h-926v16l369 396q182 192 249.5 319t67.5 273q0 130 -71 208t-203 78q-102 0 -192 -50.5t-150 -135.5l-17 12q36 68 80 125t104.5 108t140.5 80t171 29q175 0 281 -100t106 -266q0 -78 -36 -161
t-89.5 -153t-136 -152.5t-153 -143.5t-164 -142t-148.5 -133z" />
    <glyph glyph-name="three" unicode="3" horiz-adv-x="1036" 
d="M543 821q192 -9 318 -115.5t126 -271.5q0 -100 -44 -186.5t-116 -144.5t-164 -90.5t-188 -32.5q-213 0 -340 83.5t-127 202.5q0 52 30.5 93.5t72.5 60.5h139q-23 -51 -23 -137q0 -121 68 -197t182 -76q130 0 204.5 99.5t74.5 250.5q0 160 -112 255.5t-288 95.5h-65l-6 14
q88 27 153 56.5t119 70.5t81.5 96.5t27.5 124.5q0 102 -61 166t-173 64q-91 0 -172.5 -49t-134.5 -132l-14 8q61 142 179.5 235t272.5 93q150 0 241 -83.5t91 -213.5q0 -71 -34 -131.5t-89 -101.5t-112.5 -67t-116.5 -40z" />
    <glyph glyph-name="four" unicode="4" horiz-adv-x="1200" 
d="M670 174v283h-652v10l742 971h147v-940h250v-41h-250v-283q0 -87 32 -114t144 -31v-29h-589v29q110 4 143 31.5t33 113.5zM96 498h574v749z" />
    <glyph glyph-name="five" unicode="5" horiz-adv-x="1015" 
d="M483 10q126 0 206.5 95t80.5 235q0 194 -163.5 294.5t-467.5 102.5l119 701h518q59 0 83.5 14t58.5 76h18l-57 -311h-621l-47 -281q127 -2 236.5 -19t206.5 -53t165.5 -89.5t108 -134t39.5 -181.5q0 -206 -143.5 -342.5t-356.5 -136.5q-206 0 -330.5 83.5t-124.5 202.5
q0 53 30 94t73 60h139q-25 -55 -25 -137q0 -121 69 -197t185 -76z" />
    <glyph glyph-name="six" unicode="6" horiz-adv-x="1159" 
d="M608 -20q-154 0 -280 85t-195.5 227.5t-69.5 311.5q0 163 62.5 309t175 256.5t274 185.5t353.5 99l12 -18q-274 -67 -430.5 -257t-187.5 -454q58 68 148.5 116t211.5 48q82 0 157 -27.5t134 -78.5t94 -130t35 -174q0 -108 -41.5 -202.5t-110 -159t-158 -101t-184.5 -36.5
zM610 10q125 0 197 107.5t72 271.5q0 172 -95.5 279.5t-253.5 107.5q-120 0 -213 -78q-4 -66 -4 -98q0 -265 80 -427.5t217 -162.5z" />
    <glyph glyph-name="seven" unicode="7" horiz-adv-x="997" 
d="M881 1210h-633q-72 0 -111 -38.5t-84 -139.5h-24l88 406h874v-8l-588 -1430h-184z" />
    <glyph glyph-name="eight" unicode="8" horiz-adv-x="1120" 
d="M559 -20q-214 0 -357 103.5t-143 264.5q0 66 27.5 123.5t76.5 100t106.5 73t125.5 51.5q-63 31 -109 62.5t-88 76t-63.5 104.5t-21.5 134t33.5 144t91 123.5t142.5 85.5t181 32q200 0 320 -92.5t120 -239.5q0 -61 -28 -114.5t-74 -91t-97 -63t-106 -40.5
q65 -29 109.5 -52.5t97 -61.5t84 -78.5t53 -99.5t21.5 -128q0 -176 -141.5 -296.5t-360.5 -120.5zM305 1171q0 -44 12.5 -81.5t38 -68t54.5 -55t72 -47.5t80 -40.5t89 -40.5l21 -9q149 109 149 308q0 131 -70 213t-192 82q-114 0 -184 -72.5t-70 -188.5zM561 8q137 0 219 76
t82 217q0 41 -11 78t-28 64.5t-47 54t-56.5 44.5t-69.5 39.5t-73 34.5t-79 34t-78 34q-160 -107 -160 -334q0 -148 83 -245t218 -97z" />
    <glyph glyph-name="nine" unicode="9" horiz-adv-x="1159" 
d="M551 1458q154 0 280 -85t195.5 -227.5t69.5 -311.5q0 -163 -62.5 -309t-175 -256.5t-274 -185.5t-353.5 -99l-12 18q274 67 431 257.5t188 453.5q-58 -68 -149 -116t-212 -48q-111 0 -205 46.5t-154.5 141.5t-60.5 221q0 108 41.5 203t110 159t158 101t184.5 37z
M549 1427q-125 0 -196.5 -107t-71.5 -271q0 -172 95 -279.5t253 -107.5q122 0 213 77q4 66 4 99q0 265 -80 427t-217 162z" />
    <glyph glyph-name="colon" unicode=":" horiz-adv-x="438" 
d="M61 821q0 66 46 112t112 46q65 0 111.5 -46t46.5 -112t-46.5 -111.5t-111.5 -45.5q-66 0 -112 45.5t-46 111.5zM61 137q0 66 46 112t112 46q65 0 111.5 -46t46.5 -112t-46.5 -111.5t-111.5 -45.5q-66 0 -112 45.5t-46 111.5z" />
    <glyph glyph-name="semicolon" unicode=";" horiz-adv-x="438" 
d="M61 821q0 66 46 112t112 46q65 0 111.5 -46t46.5 -112t-46.5 -111.5t-111.5 -45.5q-66 0 -112 45.5t-46 111.5zM254 2h-64q-47 10 -79.5 44t-32.5 85q0 62 41 100.5t102 38.5q72 0 113 -52t41 -132q0 -129 -93 -222t-231 -104v13q86 23 140.5 85.5t62.5 143.5z" />
    <glyph glyph-name="less" unicode="&#x3c;" horiz-adv-x="892" 
d="M129 733v17l635 387v-64l-557 -332l557 -331v-64z" />
    <glyph glyph-name="equal" unicode="=" horiz-adv-x="1155" 
d="M129 860v45h897v-45h-897zM129 573v45h897v-45h-897z" />
    <glyph glyph-name="greater" unicode="&#x3e;" horiz-adv-x="892" 
d="M764 750v-17l-635 -387v64l557 331l-557 332v64z" />
    <glyph glyph-name="question" unicode="?" horiz-adv-x="897" 
d="M647 1204q0 105 -52 165.5t-146 60.5q-62 0 -108.5 -35.5t-67.5 -85.5t-21 -105q0 -81 20 -131h-170q-28 15 -45.5 47t-17.5 68q0 114 118 192t287 78q185 0 299.5 -92t114.5 -248q0 -51 -16.5 -97.5t-40 -82t-66 -75.5t-77 -67t-91.5 -67q-32 -21 -54 -38.5t-45 -40
t-36 -46t-22 -52.5t-8.5 -63.5t10.5 -74.5h-11q-58 35 -95.5 89.5t-37.5 119.5q0 54 21 100.5t54.5 81t74 67t80.5 66t73.5 70t54.5 87t21 109.5zM260 137q0 66 46 112t112 46q65 0 111 -46t46 -112t-46 -111.5t-111 -45.5q-66 0 -112 45.5t-46 111.5z" />
    <glyph glyph-name="at" unicode="@" horiz-adv-x="1753" 
d="M1208 102q-75 0 -127.5 31.5t-75.5 85t-28 123t14 145.5q-171 -383 -352 -383q-88 0 -141.5 68t-53.5 190q0 110 47 221.5t121.5 196t172.5 138t194 53.5q107 0 168 -72l166 74h10l-55 -180l-111 -437q-55 -223 64 -223q89 0 165.5 94t118 232.5t41.5 277.5
q0 128 -35 235.5t-102.5 187.5t-174 124.5t-241.5 44.5q-138 0 -261 -48.5t-216 -133.5t-161 -197.5t-103 -245t-35 -270.5q0 -154 47.5 -281.5t132 -213.5t203 -133.5t258.5 -47.5q176 0 312.5 35.5t261.5 114.5l6 -10q-112 -93 -271.5 -149t-337.5 -56q-225 0 -397 85
t-269 248t-97 384q0 187 71.5 360.5t194 303t295.5 207t366 77.5q161 0 292 -47t219.5 -131.5t136 -202t47.5 -256.5q0 -118 -40.5 -232t-106 -198.5t-154 -136.5t-179.5 -52zM725 217q59 0 130.5 88.5t136 235.5t108.5 319q-9 39 -39 61.5t-72 22.5q-68 0 -133.5 -56
t-112.5 -141t-75.5 -187.5t-28.5 -194.5q0 -68 22 -108t64 -40z" />
    <glyph glyph-name="A" unicode="A" horiz-adv-x="1449" 
d="M870 602l-247 649l-240 -649h487zM412 23v-23h-422v23q69 7 107.5 26t56.5 72l446 1188l-55 143h252l518 -1352q29 -70 145 -77v-23h-586v23q93 3 133 24t40 64q0 28 -21 82l-143 372h-512l-138 -370q-16 -50 -16 -78q0 -47 46.5 -69t148.5 -25z" />
    <glyph glyph-name="B" unicode="B" horiz-adv-x="1306" 
d="M55 0v23q112 11 142 35t30 108v1106q0 84 -30 108t-142 35v23h582q245 0 375.5 -86t130.5 -248q0 -80 -37 -145.5t-98 -107t-131 -66.5t-144 -33q133 -5 245 -48.5t182.5 -126t70.5 -188.5q0 -179 -145 -284t-392 -105h-639zM588 1401h-119v-639h119q319 0 319 325
q0 149 -84 231.5t-235 82.5zM623 725h-154v-543q0 -84 43 -114.5t145 -30.5h21q152 0 229.5 95.5t77.5 258.5q0 156 -89.5 245t-272.5 89z" />
    <glyph glyph-name="C" unicode="C" horiz-adv-x="1308" 
d="M791 1430q-113 0 -204 -58t-148 -155.5t-87 -220.5t-30 -259q0 -148 30.5 -278.5t87.5 -231.5t146.5 -160t199.5 -59q156 0 278.5 121t170.5 340h18l-28 -373q-190 -116 -455 -116q-209 0 -370.5 89.5t-249 250.5t-87.5 368q0 172 57.5 318t156 244t231 153t280.5 55
q233 0 416 -119l2 -315h-18q-34 180 -144.5 293t-252.5 113z" />
    <glyph glyph-name="D" unicode="D" horiz-adv-x="1484" 
d="M55 0v23q112 11 142 35t30 108v1106q0 84 -30 108t-142 35v23h576q158 0 289 -36t222.5 -98.5t154.5 -149.5t92.5 -188t29.5 -214q0 -170 -58 -313t-158.5 -238t-235 -148t-287.5 -53h-625zM596 1401h-127v-1213q0 -90 39 -120.5t133 -30.5h39q212 0 345.5 179t133.5 503
q0 114 -19.5 213.5t-63.5 186.5t-108.5 149t-159.5 97.5t-212 35.5z" />
    <glyph glyph-name="E" unicode="E" horiz-adv-x="1273" 
d="M1169 0h-1114v23q112 11 142 35t30 108v1106q0 84 -30 108t-142 35v23h1094l10 -355h-20q-32 98 -66 160t-77.5 97t-91.5 48t-118 13h-317v-639h295q94 0 133 52t51 157h23v-457h-23q-12 106 -51 158.5t-133 52.5h-295v-549q0 -81 44 -110t149 -29h161q259 0 394 383h20z
" />
    <glyph glyph-name="F" unicode="F" horiz-adv-x="1173" 
d="M227 166v1106q0 84 -30 108t-142 35v23h1057l10 -369h-18q-32 104 -66 169.5t-77.5 101.5t-91 48.5t-117.5 12.5h-283v-639h254q93 0 131.5 52t50.5 157h23v-457h-23q-12 106 -50.5 158.5t-131.5 52.5h-254v-549q0 -88 46 -114.5t204 -38.5v-23h-664v23q112 11 142 35
t30 108z" />
    <glyph glyph-name="G" unicode="G" horiz-adv-x="1443" 
d="M1028 504q0 36 -4.5 58t-13.5 38t-30.5 24.5t-48.5 13t-75 9.5v25h574v-25q-113 -11 -143 -34.5t-30 -108.5v-379q-101 -68 -225.5 -106.5t-253.5 -38.5q-159 0 -294 55t-226.5 150.5t-143 224.5t-51.5 276q0 225 98 402t267 273.5t379 96.5q235 0 418 -119v-315h-19
q-32 181 -144 293.5t-265 112.5q-151 0 -260.5 -94t-162 -247.5t-52.5 -345.5q0 -117 17.5 -224t55 -199.5t91.5 -161t130.5 -107.5t167.5 -39q156 0 244 76v416z" />
    <glyph glyph-name="H" unicode="H" horiz-adv-x="1609" 
d="M641 23v-23h-586v23q112 11 142 35t30 108v1106q0 84 -30 108t-142 35v23h586v-23q-112 -11 -142 -35t-30 -108v-510h672v510q0 84 -30 108t-142 35v23h585v-23q-112 -11 -142 -35t-30 -108v-1106q0 -84 30 -108t142 -35v-23h-585v23q112 11 142 35t30 108v559h-672v-559
q0 -84 30 -108t142 -35z" />
    <glyph glyph-name="I" unicode="I" horiz-adv-x="696" 
d="M469 1272v-1106q0 -84 30 -108t142 -35v-23h-586v23q112 11 142 35t30 108v1106q0 84 -30 108t-142 35v23h586v-23q-112 -11 -142 -35t-30 -108z" />
    <glyph glyph-name="J" unicode="J" horiz-adv-x="1026" 
d="M578 1272q0 84 -30 108t-142 35v23h585v-23q-112 -11 -142 -35t-30 -108v-850q0 -220 -115.5 -331t-324.5 -111q-173 0 -284 69.5t-111 196.5q0 42 20 82t49 63h166q-16 -59 -16 -127q0 -126 50 -192t138 -66q187 0 187 334v932z" />
    <glyph glyph-name="K" unicode="K" horiz-adv-x="1413" 
d="M807 307l-311 428l526 545q47 51 47 80q0 28 -37 37.5t-153 17.5v23h458v-23q-70 -3 -119.5 -27.5t-103.5 -78.5l-434 -441l459 -622q77 -105 148.5 -162.5t150.5 -60.5v-23h-383q-32 25 -75.5 76.5t-75.5 95.5t-97 135zM469 1272v-1106q0 -84 30 -108t142 -35v-23h-586
v23q112 11 142 35t30 108v1106q0 84 -30 108t-142 35v23h586v-23q-112 -11 -142 -35t-30 -108z" />
    <glyph glyph-name="L" unicode="L" horiz-adv-x="1216" 
d="M1118 0h-1063v23q112 11 142 35t30 108v1106q0 84 -30 108t-142 35v23h586v-23q-112 -11 -142 -35t-30 -108v-1096q0 -81 44 -110t149 -29h108q124 0 223.5 90.5t173.5 300.5h21z" />
    <glyph glyph-name="M" unicode="M" horiz-adv-x="1853" 
d="M1409 203l-115 1014l-424 -1227h-26l-479 1227l-117 -1041q-10 -87 31 -116t170 -37v-23h-437v23q92 5 134 30t49 92l131 1117q0 74 -44.5 110.5t-142.5 42.5v23h410q4 -44 31 -121l372 -971l330 971q3 10 10 30.5t10 30.5t6.5 26.5t4.5 33.5h401v-23q-106 -6 -145 -41
t-39 -112l127 -1117q9 -71 42.5 -94t125.5 -28v-23h-598v23q37 2 62 5.5t47.5 9.5t35 14.5t23.5 22t13 31.5t4.5 42t-3.5 55z" />
    <glyph glyph-name="N" unicode="N" horiz-adv-x="1517" 
d="M1309 -20h-33l-995 1243v-1053q0 -87 47.5 -113t197.5 -34v-23h-487v23q62 5 95 11.5t59 22t34.5 42t8.5 71.5v1108q-58 68 -105 101t-100 36v23h395l838 -1076v906q0 87 -46.5 113t-197.5 34v23h485v-23q-62 -5 -95 -11.5t-58.5 -22t-34 -42t-8.5 -71.5v-1288z" />
    <glyph glyph-name="O" unicode="O" horiz-adv-x="1445" 
d="M731 1458q151 0 276 -58.5t205.5 -157t124 -226t43.5 -268.5q0 -165 -52 -309t-141.5 -244t-212.5 -157.5t-261 -57.5q-151 0 -276 58.5t-205.5 157t-124.5 226t-44 268.5q0 220 89 396.5t241.5 274t337.5 97.5zM713 1430q-95 0 -170 -57t-122.5 -154.5t-72 -223.5
t-24.5 -270q0 -136 24.5 -261t72 -228.5t128 -165.5t182.5 -62q95 0 170 57t122.5 154.5t72 223.5t24.5 270q0 136 -24.5 261t-72 228.5t-128 165.5t-182.5 62z" />
    <glyph glyph-name="P" unicode="P" horiz-adv-x="1226" 
d="M55 1438h570q266 0 413.5 -115t147.5 -285q0 -190 -147.5 -303.5t-415.5 -113.5h-154v-445q0 -88 46 -114.5t204 -38.5v-23h-664v23q112 11 142 35t30 108v1106q0 84 -30 108t-142 35v23zM469 1401v-742h104q180 0 270.5 97t90.5 274q0 164 -93 267.5t-268 103.5h-104z
" />
    <glyph glyph-name="Q" unicode="Q" horiz-adv-x="1445" 
d="M1057 -373q-174 0 -297 180l-117 177q-136 13 -247.5 75.5t-183 159t-110.5 217.5t-39 254q0 220 89 396.5t241.5 274t337.5 97.5q151 0 276 -58.5t205.5 -157t124 -226t43.5 -268.5q0 -292 -150 -498t-386 -256l143 -123q41 -36 65 -56t66 -48.5t84 -42t86 -13.5v-6
q-38 -33 -99.5 -55.5t-131.5 -22.5zM713 1430q-95 0 -170 -57t-122.5 -154.5t-72 -223.5t-24.5 -270q0 -136 24.5 -261t72 -228.5t128 -165.5t182.5 -62q95 0 170 57t122.5 154.5t72 223.5t24.5 270q0 136 -24.5 261t-72 228.5t-128 165.5t-182.5 62z" />
    <glyph glyph-name="R" unicode="R" horiz-adv-x="1417" 
d="M578 1401h-109v-696h117q168 0 254 92.5t86 263.5q0 150 -89 245t-259 95zM55 1438h586q255 0 396 -102.5t141 -272.5q0 -64 -23 -119.5t-59 -94.5t-84.5 -70.5t-96 -49.5t-96.5 -29l334 -467q146 -205 291 -210v-23h-385q-87 68 -240 307l-233 359h-117v-500
q0 -84 30 -108t142 -35v-23h-586v23q112 11 142 35t30 108v1106q0 84 -30 108t-142 35v23z" />
    <glyph glyph-name="S" unicode="S" horiz-adv-x="1087" 
d="M557 1430q-127 0 -198.5 -76t-71.5 -189q0 -59 25 -106t67.5 -79t97.5 -58.5t116 -51t121.5 -50.5t115.5 -61.5t97.5 -79.5t67.5 -110.5t25 -148.5q0 -129 -70 -231t-185.5 -155.5t-252.5 -53.5q-134 0 -250 37t-186 96l-15 360h21q38 -203 155.5 -333t280.5 -130
q135 0 217 78.5t82 204.5q0 71 -25 126.5t-67 92t-96.5 66t-114.5 53.5t-120.5 48.5t-115 56.5t-96.5 73t-67 102.5t-25 139.5q0 176 132.5 291.5t338.5 115.5q202 0 385 -119l2 -307h-20q-32 181 -132 289.5t-239 108.5z" />
    <glyph glyph-name="T" unicode="T" horiz-adv-x="1341" 
d="M57 1438h1225l31 -449h-19q-39 124 -74.5 201t-79.5 125.5t-95 67t-123 18.5h-129v-1239q0 -43 9 -68.5t35 -40t56.5 -20t89.5 -10.5v-23h-627v23q60 5 91 10.5t58 20t36.5 40t9.5 68.5v1239h-133q-140 0 -217.5 -85.5t-153.5 -326.5h-20z" />
    <glyph glyph-name="U" unicode="U" horiz-adv-x="1472" 
d="M432 1272v-729q0 -226 95.5 -350.5t277.5 -124.5q89 0 165.5 28.5t135.5 84.5t93 149t34 213v725q0 87 -46.5 113t-195.5 34v23h484v-23q-119 -9 -157 -35t-38 -112v-756q0 -127 -41.5 -229.5t-113.5 -167.5t-167.5 -100t-205.5 -35q-259 0 -409 138.5t-150 397.5v756
q0 44 -6 68t-27 40t-51.5 22.5t-90.5 12.5v23h588v-23q-114 -11 -144 -35t-30 -108z" />
    <glyph glyph-name="V" unicode="V" horiz-adv-x="1417" 
d="M1427 1438v-23q-64 -5 -101.5 -30t-63.5 -93l-523 -1310h-28l-561 1308q-30 71 -63.5 93.5t-96.5 31.5v23h596v-23q-89 -5 -134.5 -21.5t-45.5 -56.5q0 -37 26 -96l385 -956l365 940q26 66 26 110q0 22 -15 37t-44.5 23.5t-60.5 12.5t-76 7v23h415z" />
    <glyph glyph-name="W" unicode="W" horiz-adv-x="1955" 
d="M1305 -18l-322 921l-319 -921h-25l-489 1308q-30 71 -63.5 93.5t-96.5 31.5v23h585v-23q-86 -5 -130 -21.5t-44 -56.5q0 -23 25 -100l317 -911l218 643l-113 321q-30 71 -62 94t-92 31v23h578v-23q-91 -5 -136.5 -21.5t-45.5 -56.5q0 -23 22 -100l299 -911l313 899
q25 80 25 110q0 22 -15 37t-44.5 23.5t-61.5 12.5t-78 7v23h416v-23q-64 -5 -102 -30t-64 -93l-471 -1310h-24z" />
    <glyph glyph-name="X" unicode="X" horiz-adv-x="1415" 
d="M469 23v-23h-485v23q71 2 124.5 29.5t104.5 99.5l391 544l-387 623q-57 93 -172 96v23h606v-23q-83 0 -123.5 -13.5t-40.5 -45.5q0 -27 50 -109l243 -393l275 379q49 64 49 108q0 42 -53.5 57t-151.5 17v23h453v-23q-61 -2 -105 -27t-90 -88l-352 -485l430 -694
q57 -95 176 -98v-23h-614v23q79 0 122.5 13.5t43.5 51.5q0 29 -41 96l-293 471l-312 -440q-34 -46 -48.5 -72t-14.5 -47q0 -41 57 -56t158 -17z" />
    <glyph glyph-name="Y" unicode="Y" horiz-adv-x="1320" 
d="M1042 1184q64 108 64 155q0 40 -52 55.5t-153 20.5v23h430v-23q-64 -4 -99 -29.5t-75 -93.5l-389 -665v-465q0 -43 9 -68.5t35 -40t56.5 -20t89.5 -10.5v-23h-614v23q60 5 90 10.5t57 20t36.5 40t9.5 68.5v461l-404 667q-25 42 -35 57t-27.5 34t-35 25t-45.5 9v23h583
v-23q-98 -5 -144 -21t-46 -51q0 -32 43 -106l330 -553z" />
    <glyph glyph-name="Z" unicode="Z" horiz-adv-x="1210" 
d="M459 1401q-70 0 -117.5 -12.5t-91.5 -48.5t-78 -101.5t-66 -169.5h-18l10 369h1043v-17l-830 -1384h445q123 0 222 91t175 300h21l-70 -428h-1069v16l831 1385h-407z" />
    <glyph glyph-name="bracketleft" unicode="[" horiz-adv-x="651" 
d="M340 1430v-1571q0 -74 43.5 -94.5t179.5 -28.5v-25h-389v1866h389v-25q-59 -4 -87.5 -6.5t-60.5 -10t-45 -20t-21.5 -33t-8.5 -52.5z" />
    <glyph glyph-name="backslash" unicode="\" horiz-adv-x="776" 
d="M672 -289l-615 1866h47l615 -1866h-47z" />
    <glyph glyph-name="bracketright" unicode="]" horiz-adv-x="651" 
d="M311 -141v1571q0 32 -8.5 52.5t-21.5 33t-45 20t-60.5 10t-87.5 6.5v25h389v-1866h-389v25q136 8 179.5 28.5t43.5 94.5z" />
    <glyph glyph-name="asciicircum" unicode="^" horiz-adv-x="950" 
d="M532 1577l338 -594h-43l-352 520l-354 -520h-43l338 594h116z" />
    <glyph glyph-name="underscore" unicode="_" horiz-adv-x="655" 
d="M594 -246h-533v84h533v-84z" />
    <glyph glyph-name="grave" unicode="`" horiz-adv-x="1024" 
d="M324 1563h266l110 -351h-12l-364 342v9z" />
    <glyph glyph-name="a" unicode="a" horiz-adv-x="1032" 
d="M868 770v-565q0 -109 95 -109q41 0 77 19l4 -9q-38 -58 -94 -90t-121 -32q-77 0 -127 48t-61 128q-60 -74 -142.5 -125t-179.5 -51q-115 0 -191.5 70.5t-76.5 183.5q0 110 78 181t219 120l291 102v180q0 111 -41 176.5t-129 65.5q-77 0 -116.5 -55.5t-39.5 -147.5
q0 -72 19 -125l-137 -18q-36 9 -61 43.5t-25 79.5q0 113 115 183.5t276 70.5q184 0 276 -78.5t92 -245.5zM453 102q110 0 186 76v436l-211 -88q-78 -33 -119 -85t-41 -136q0 -91 50.5 -147t134.5 -56z" />
    <glyph glyph-name="b" unicode="b" horiz-adv-x="1150" 
d="M125 1411l-135 78v8l356 107h8v-711q62 88 152.5 144.5t202.5 56.5q184 0 289.5 -134.5t105.5 -359.5q0 -171 -71.5 -313t-198.5 -224.5t-283 -82.5q-117 0 -233 32t-193 97v1302zM557 10q94 0 166.5 66.5t110.5 179t38 252.5q0 203 -78.5 328t-232.5 125
q-123 0 -207 -87v-591q0 -131 55 -202t148 -71z" />
    <glyph glyph-name="c" unicode="c" horiz-adv-x="927" 
d="M514 1061q-77 0 -138 -57t-93.5 -153.5t-32.5 -215.5q0 -229 94.5 -360.5t251.5 -131.5q192 0 297 172l8 -4q-34 -149 -141.5 -240t-261.5 -91q-202 0 -326.5 150t-124.5 378q0 163 67.5 298t185 211.5t259.5 76.5q145 0 233.5 -59.5t88.5 -162.5q0 -43 -20.5 -80
t-51.5 -55h-131q8 54 8 92q0 41 -9 80t-28 74t-54 56.5t-81 21.5z" />
    <glyph glyph-name="d" unicode="d" horiz-adv-x="1181" 
d="M791 -20h-9l6 198q-134 -198 -337 -198q-180 0 -296 142t-116 359q0 267 153 440t390 173q56 0 113 -17.5t93 -46.5v381l-135 78v8l357 107h8v-1432q0 -41 8 -58t37 -27t98 -15v-19zM582 1063q-144 0 -228 -134t-84 -345q0 -132 34.5 -235.5t108.5 -168.5t179 -65
q117 0 196 82v594q0 131 -55 201.5t-151 70.5z" />
    <glyph glyph-name="e" unicode="e" horiz-adv-x="972" 
d="M942 311q-36 -146 -149.5 -238.5t-272.5 -92.5q-213 0 -343 150t-130 378q0 163 65.5 298t177.5 211.5t245 76.5q186 0 289.5 -116t103.5 -296v-16h-676v-33q0 -228 99.5 -359t264.5 -131q206 0 318 172zM508 1061q-103 0 -171.5 -103t-82.5 -258h463q0 105 -20.5 183.5
t-68.5 128t-120 49.5z" />
    <glyph glyph-name="f" unicode="f" horiz-adv-x="665" 
d="M403 119q0 -20 3.5 -34t16 -24t22.5 -15.5t37.5 -10t45.5 -6.5t62 -6v-23h-557v23q83 5 112 21.5t29 72.5v870h-149v12l149 72v94q0 208 108 323.5t285 115.5q111 0 173.5 -43.5t62.5 -112.5q0 -36 -17.5 -67t-44.5 -46h-133q10 45 10 88q0 156 -90 156q-60 0 -92.5 -60
t-32.5 -173v-293h261v-66h-261v-868z" />
    <glyph glyph-name="g" unicode="g" horiz-adv-x="1034" 
d="M496 420q90 0 136 83.5t46 219.5q0 149 -52 246.5t-149 97.5q-90 0 -136 -83t-46 -216q0 -152 52 -250t149 -98zM1038 -37q0 -124 -79 -220.5t-212 -148t-294 -51.5q-126 0 -228.5 28t-165.5 85.5t-63 134.5q0 138 215 213q-63 23 -103 72t-40 114q0 138 196 252
q-86 40 -138 113.5t-52 173.5q0 159 118.5 262t296.5 103q102 0 187 -39l313 26v-106h-14l-211 33q137 -99 137 -250q0 -157 -120 -261t-296 -104q-113 0 -202 41q-78 -78 -78 -147q0 -76 92 -76h405q336 0 336 -248zM672 2h-445q-63 -52 -63 -166q0 -122 85.5 -194
t231.5 -72q105 0 190.5 28.5t141 91.5t55.5 150q0 162 -196 162z" />
    <glyph glyph-name="h" unicode="h" horiz-adv-x="1214" 
d="M827 117v624q0 112 -43 163.5t-137 51.5q-132 0 -250 -86v-753q0 -56 29 -72.5t113 -21.5v-23h-512v23q83 5 112 21.5t29 72.5v1294l-135 78v8l356 107h8v-717q73 86 170 146.5t207 60.5q140 0 211.5 -84t71.5 -246v-647q0 -56 29 -72.5t112 -21.5v-23h-512v23
q83 5 112 21.5t29 72.5z" />
    <glyph glyph-name="i" unicode="i" horiz-adv-x="567" 
d="M283 1239q-62 0 -104 42t-42 101q0 61 42 103.5t104 42.5q64 0 105.5 -42.5t41.5 -103.5q0 -60 -42 -101.5t-105 -41.5zM403 1094v-977q0 -56 30 -72.5t114 -21.5v-23h-514v23q83 5 112 21.5t29 72.5v784l-135 78v8l356 107h8z" />
    <glyph glyph-name="j" unicode="j" horiz-adv-x="518" 
d="M258 1239q-62 0 -103.5 42t-41.5 101q0 61 41.5 103.5t103.5 42.5q64 0 106 -42.5t42 -103.5q0 -59 -42 -101t-106 -42zM152 901l-136 78v8l355 107h8v-975q0 -107 -27.5 -194.5t-81.5 -156.5t-116 -120t-150 -105l-6 8q94 119 124 240.5t30 294.5v815z" />
    <glyph glyph-name="k" unicode="k" horiz-adv-x="1132" 
d="M399 1604v-1487q0 -56 29 -72.5t113 -21.5v-23h-512v23q83 5 112 21.5t29 72.5v1294l-135 78v8l356 107h8zM424 573l344 330q3 3 10 10.5t10 10.5t8.5 9.5t8 10t6.5 9t6 9.5t4 9t3 10t1 10q0 29 -38.5 42t-116.5 20v20h430v-20q-129 -14 -240 -117l-256 -242l547 -686v-8
h-272z" />
    <glyph glyph-name="l" unicode="l" horiz-adv-x="563" 
d="M399 1604v-1487q0 -56 29 -72.5t113 -21.5v-23h-512v23q83 5 112 21.5t29 72.5v1294l-135 78v8l356 107h8z" />
    <glyph glyph-name="m" unicode="m" horiz-adv-x="1824" 
d="M1667 117q0 -56 29.5 -72.5t113.5 -21.5v-23h-512v23q84 5 113 21.5t29 72.5v624q0 112 -41 163.5t-129 51.5q-60 0 -123 -23.5t-111 -62.5v-753q0 -57 28.5 -73t111.5 -21v-23h-508v23q83 5 111 21t28 73v624q0 113 -40.5 164t-129.5 51q-123 0 -234 -86v-753
q0 -56 29 -72.5t113 -21.5v-23h-512v23q83 5 112 21.5t29 72.5v784l-135 78v8l364 107h9l-9 -207q69 86 162 146.5t199 60.5q109 0 178.5 -53.5t91.5 -155.5q69 86 162.5 147.5t198.5 61.5q272 0 272 -330v-647z" />
    <glyph glyph-name="n" unicode="n" horiz-adv-x="1220" 
d="M834 117v624q0 112 -43.5 163.5t-137.5 51.5q-132 0 -250 -86v-753q0 -56 30 -72.5t114 -21.5v-23h-514v23q83 5 112 21.5t29 72.5v784l-135 78v8l364 107h9l-9 -207q73 86 170 146.5t207 60.5q283 0 283 -330v-647q0 -56 29 -72.5t112 -21.5v-23h-512v23q84 5 113 21.5
t29 72.5z" />
    <glyph glyph-name="o" unicode="o" horiz-adv-x="1097" 
d="M553 1094q146 0 260 -69.5t176 -190t62 -271.5q0 -172 -67.5 -306t-183 -205.5t-257.5 -71.5q-145 0 -259 69t-176.5 190.5t-62.5 272.5q0 258 146 420t362 162zM553 8q122 0 189 132.5t67 359.5q0 153 -27.5 278t-89.5 206t-149 81q-121 0 -187.5 -132t-66.5 -360
q0 -153 27.5 -278t89 -206t147.5 -81z" />
    <glyph glyph-name="p" unicode="p" horiz-adv-x="1181" 
d="M588 10q94 0 166.5 66.5t110.5 179t38 252.5q0 203 -78.5 328t-232.5 125q-123 0 -207 -87v-591q0 -131 55 -202t148 -71zM385 -315q0 -56 35.5 -71.5t148.5 -25.5v-22h-555v22q83 5 112.5 21.5t29.5 73.5v1218l-136 78v8l365 107h8l-8 -201q62 88 152 144.5t202 56.5
q184 0 290 -134.5t106 -359.5q0 -172 -68.5 -313.5t-193 -224t-279.5 -82.5q-58 0 -115 17.5t-94 49.5v-362z" />
    <glyph glyph-name="q" unicode="q" horiz-adv-x="1150" 
d="M582 1094q87 0 162.5 -33.5t129.5 -87.5l148 121h8l-12 -254v-1157q0 -56 30 -73t113 -22v-22h-557v22q113 10 148.5 25.5t35.5 71.5v493q-134 -198 -337 -198q-180 0 -296 142t-116 359q0 267 153 440t390 173zM584 1063q-145 0 -229.5 -134t-84.5 -345
q0 -132 34.5 -235.5t108.5 -168.5t179 -65q117 0 196 82v594q0 131 -55 201.5t-149 70.5z" />
    <glyph glyph-name="r" unicode="r" horiz-adv-x="786" 
d="M403 780q69 162 131.5 238t149.5 76q55 0 82 -27v-193h-33q-112 0 -191 -22.5t-139 -89.5v-643q0 -20 3.5 -34t16 -24t22.5 -15.5t37.5 -10t45.5 -6.5t62 -6v-23h-557v23q83 5 112 21.5t29 72.5v784l-135 78v8l364 107h9z" />
    <glyph glyph-name="s" unicode="s" horiz-adv-x="899" 
d="M428 -20q-100 0 -195.5 27.5t-156.5 72.5l-13 297h19q34 -161 131.5 -264t224.5 -103q91 0 152 55.5t61 151.5q0 57 -31 100t-80.5 69.5t-109.5 50.5t-119.5 51t-109 61.5t-80.5 91.5t-31 133q0 145 107.5 232.5t263.5 87.5q165 0 301 -86v-258h-17q-19 126 -99.5 220.5
t-194.5 94.5q-86 0 -138.5 -51t-52.5 -133q0 -59 31.5 -102.5t81.5 -70.5t111 -50t121.5 -50t110.5 -62t81.5 -93t31.5 -136q0 -152 -112.5 -244.5t-288.5 -92.5z" />
    <glyph glyph-name="t" unicode="t" horiz-adv-x="694" 
d="M360 1319v-266h285v-66h-285v-674q0 -200 168 -200q94 0 162 51l6 -8q-46 -73 -121 -124.5t-169 -51.5q-125 0 -199 75t-74 232v700h-133v14q99 49 196 136t154 182h10z" />
    <glyph glyph-name="u" unicode="u" horiz-adv-x="1173" 
d="M1010 866v-694q0 -41 8 -58t36.5 -27t96.5 -15v-19l-371 -73h-8l8 192q-70 -82 -162 -137t-190 -55q-133 0 -210 81t-77 244v590q0 57 -24.5 78.5t-112.5 34.5v16l369 68h8l-10 -234v-524q0 -221 190 -221q58 0 117.5 19.5t101.5 57.5v705q0 58 -23.5 79t-111.5 34v16
l365 68h8z" />
    <glyph glyph-name="v" unicode="v" horiz-adv-x="1103" 
d="M1100 1073v-20q-57 -9 -85 -31.5t-50 -75.5l-385 -964h-25l-426 970q-24 52 -47 71.5t-78 29.5v20h516v-20q-79 -5 -113 -20.5t-34 -49.5q0 -23 12 -57l264 -674l254 672q12 34 12 59q0 35 -39 50t-126 20v20h350z" />
    <glyph glyph-name="w" unicode="w" horiz-adv-x="1583" 
d="M1061 -18l-260 688l-260 -688h-25l-387 970q-22 51 -46 71t-79 30v20h492v-20q-71 -5 -102.5 -21t-31.5 -49q0 -20 13 -57l235 -654l168 453l-86 227q-19 49 -43.5 70t-77.5 31v20h494v-20q-78 -4 -111.5 -21t-33.5 -51q0 -15 12 -55l225 -654l227 652q11 33 11 49
q0 39 -38 57t-126 23v20h348v-20q-58 -9 -86.5 -31.5t-48.5 -75.5l-359 -964h-24z" />
    <glyph glyph-name="x" unicode="x" horiz-adv-x="1120" 
d="M373 23v-23h-379v23q118 18 199 129l276 366l-291 422q-36 53 -66.5 78t-80.5 35v20h501v-20q-70 -4 -99.5 -18t-29.5 -42t39 -86l183 -262l196 258q41 58 41 90q0 28 -35.5 41.5t-109.5 18.5v20h350v-20q-53 -8 -91 -36.5t-79 -80.5l-252 -322l334 -481
q36 -50 70.5 -75.5t85.5 -34.5v-23h-510v23q68 3 97.5 17t29.5 42q0 26 -39 84l-221 319l-230 -315q-41 -55 -41 -88q0 -53 152 -59z" />
    <glyph glyph-name="y" unicode="y" horiz-adv-x="1099" 
d="M555 -16l-426 968q-24 52 -47 71.5t-78 29.5v20h516v-20q-79 -5 -113 -20.5t-34 -49.5q0 -23 12 -57l266 -690l250 684q14 35 14 63q0 35 -40 50t-125 20v20h350v-20q-57 -9 -85 -31.5t-50 -75.5l-439 -1143q-53 -132 -106.5 -192t-134.5 -60q-51 0 -92.5 29.5
t-53.5 75.5v76q85 -23 131 -23q85 0 143.5 39t100.5 137z" />
    <glyph glyph-name="z" unicode="z" horiz-adv-x="999" 
d="M57 0v10l621 1022h-236q-130 0 -205.5 -77.5t-130.5 -245.5h-16l33 430h6l57 -70h748v-10l-606 -1022h266q115 0 196 79.5t138 264.5h16l-35 -381h-852z" />
    <glyph glyph-name="braceleft" unicode="{" horiz-adv-x="710" 
d="M102 639v14q170 28 170 205v457q0 121 95.5 191.5t259.5 70.5v-18q-90 -10 -136.5 -56.5t-46.5 -144.5v-479q0 -172 -294 -234q49 -11 87.5 -23t79 -32t67 -44t43.5 -58.5t17 -75.5v-480q0 -98 46.5 -144t136.5 -56v-19q-164 0 -259.5 70.5t-95.5 191.5v459
q0 177 -170 205z" />
    <glyph glyph-name="bar" unicode="|" horiz-adv-x="413" 
d="M229 1577v-1866h-45v1866h45z" />
    <glyph glyph-name="braceright" unicode="}" horiz-adv-x="710" 
d="M608 653v-14q-170 -28 -170 -205v-459q0 -122 -95 -192t-259 -70v19q90 10 136 56t46 144v480q0 51 24.5 91.5t69.5 67t92 43.5t109 31q-295 62 -295 234v479q0 98 -46 144.5t-136 56.5v18q164 0 259 -70t95 -192v-457q0 -177 170 -205z" />
    <glyph glyph-name="asciitilde" unicode="~" horiz-adv-x="907" 
d="M846 766q-42 -136 -101 -201t-147 -65q-57 0 -116 29.5t-113.5 59t-100.5 29.5q-126 0 -192 -122l-15 6q44 136 103 202t145 66q45 0 92.5 -19t81.5 -41.5t77.5 -41.5t80.5 -19q127 0 190 123z" />
    <glyph glyph-name="uni00A0" unicode="&#xa0;" horiz-adv-x="413" 
 />
    <glyph glyph-name="exclamdown" unicode="&#xa1;" horiz-adv-x="514" 
d="M256 911q-65 0 -111.5 46t-46.5 112t46.5 112t111.5 46q66 0 112 -46t46 -112t-46 -112t-112 -46zM246 793h18l146 -1024h-308z" />
    <glyph glyph-name="cent" unicode="&#xa2;" horiz-adv-x="1067" 
d="M287 649q0 -163 51 -278.5t143 -171.5l178 874q-35 12 -77 12q-128 0 -211.5 -125.5t-83.5 -310.5zM561 -20q-43 0 -84 6l-43 -211h-39l45 219q-167 41 -263.5 184.5t-96.5 339.5q0 166 72.5 303.5t199 217t279.5 79.5q27 0 39 -2l43 213h39l-45 -215q121 -15 194.5 -73
t73.5 -148q0 -44 -22.5 -82.5t-55.5 -56.5h-131q16 58 16 98q0 144 -86 203l-180 -875q67 -33 154 -33q205 0 319 179l8 -4q-38 -153 -154 -247.5t-282 -94.5z" />
    <glyph glyph-name="sterling" unicode="&#xa3;" horiz-adv-x="1306" 
d="M973 -25q-34 0 -69.5 6t-62.5 12.5t-66 24t-58.5 26t-62 34l-55 33t-59 38.5t-53.5 35q-101 -204 -270 -204q-88 0 -142.5 50.5t-54.5 127.5q0 85 59.5 134.5t143.5 49.5q54 0 148 -23v11q3 42 7.5 102t11 142t9.5 128h-211l13 37h202q3 45 17 207q21 255 154 383.5
t341 128.5q142 0 229 -53t87 -154q0 -46 -29.5 -87t-64.5 -56h-138q21 68 21 143q0 183 -121 183q-32 0 -58.5 -13.5t-47 -41.5t-36.5 -60t-29.5 -80t-23 -89.5t-20.5 -100.5l-57 -310h354l-12 -37h-348l-37 -198q-17 -106 -58 -228q17 -5 77 -22.5t83.5 -24t73.5 -19.5
t78.5 -18.5t64.5 -10.5t64 -5q98 0 155.5 44t57.5 136q0 34 -9 64l11 2q86 -80 86 -182q0 -122 -81 -193.5t-214 -71.5zM180 37q140 0 180 221q-84 43 -159 43q-63 0 -104.5 -37.5t-41.5 -101.5q0 -56 36.5 -90.5t88.5 -34.5z" />
    <glyph glyph-name="yen" unicode="&#xa5;" horiz-adv-x="1316" 
d="M956 23v-23h-614v23q60 5 90 10.5t57 20t36.5 40t9.5 68.5v274h-340v37h340v186h-340v37h317l-367 594q-44 72 -69.5 95.5t-77.5 29.5v23h588v-23q-189 -9 -189 -76q0 -34 43 -102l312 -520l278 467q57 98 57 151q0 22 -15 37t-44.5 23.5t-62 12.5t-80.5 7v23h432v-23
q-63 -5 -99 -29.5t-77 -93.5l-355 -596h334v-37h-354v-186h354v-37h-354v-274q0 -43 9 -68.5t35 -40t56.5 -20t89.5 -10.5z" />
    <glyph glyph-name="brokenbar" unicode="&#xa6;" horiz-adv-x="413" 
d="M229 1577v-770h-45v770h45zM229 481v-770h-45v770h45z" />
    <glyph glyph-name="section" unicode="&#xa7;" horiz-adv-x="1067" 
d="M655 686q-23 31 -64 84.5t-63 82.5t-55.5 75.5t-50.5 76t-39.5 70.5t-31 73t-15 69t-2.5 72t16 71q-190 -136 -190 -391q0 -157 61.5 -297.5t177.5 -296.5q23 -31 71.5 -94t71 -93t60.5 -84.5t54.5 -86.5t37.5 -79t26 -82.5t4 -77.5t-15 -81q84 57 137 154t53 235
q0 158 -63 300t-181 300zM365 338q-123 169 -188.5 318t-65.5 313q0 142 67 255.5t175 173.5t233 60q151 0 232 -56.5t81 -146.5q0 -73 -80 -106h-137v51q0 221 -158 221q-73 0 -111 -45t-38 -110q0 -49 19 -102.5t57 -113.5t72 -107t88.5 -117t82.5 -109q124 -170 189 -318
t65 -313q0 -141 -66.5 -254.5t-174.5 -174t-234 -60.5q-151 0 -232 56.5t-81 145.5q0 76 80 109h137v-51q0 -224 158 -224q73 0 111 45.5t38 112.5q0 49 -19 102.5t-56.5 113t-72 106t-89 116.5t-82.5 109z" />
    <glyph glyph-name="dieresis" unicode="&#xa8;" horiz-adv-x="1024" 
d="M324 1243q-54 0 -94 39.5t-40 93.5t40 93.5t94 39.5q55 0 94 -39.5t39 -93.5t-39 -93.5t-94 -39.5zM698 1243q-54 0 -92.5 39.5t-38.5 93.5t38.5 93.5t92.5 39.5q55 0 95.5 -39.5t40.5 -93.5t-40.5 -93.5t-95.5 -39.5z" />
    <glyph glyph-name="copyright" unicode="&#xa9;" horiz-adv-x="1622" 
d="M811 -20q-209 0 -378 99.5t-262 268t-93 371.5t93 371.5t262 268t378 99.5t378 -99.5t262 -268t93 -371.5t-93 -371.5t-262 -268t-378 -99.5zM811 1423q-150 0 -280.5 -55.5t-222 -150.5t-143.5 -224.5t-52 -273.5q0 -193 88.5 -354t249 -256t360.5 -95t361 95t249 256
t88 354q0 144 -52 273.5t-143 224.5t-221.5 150.5t-281.5 55.5zM848 317q187 0 262 271h18l-18 -223q-69 -36 -131.5 -55t-142.5 -19q-184 0 -304 117t-120 297q0 102 36 188t96 142.5t137.5 88t162.5 31.5q160 0 262 -84v-199h-16q-21 109 -85.5 182.5t-152.5 73.5
q-81 0 -141 -56t-88.5 -143.5t-28.5 -191.5q0 -187 69 -303.5t185 -116.5z" />
    <glyph glyph-name="ordfeminine" unicode="&#xaa;" horiz-adv-x="745" 
d="M592 1253v-338q0 -69 53 -69q26 0 53 12l2 -8q-57 -78 -137 -78q-51 0 -81.5 31t-39.5 84q-92 -113 -202 -113q-73 0 -119.5 44.5t-46.5 115.5q0 124 182 186l182 64v104q0 148 -98 148q-44 0 -66 -31.5t-22 -81.5q0 -45 10 -84l-98 -14q-53 18 -53 78q0 70 69.5 112.5
t173.5 42.5q121 0 179.5 -49.5t58.5 -155.5zM332 858q58 0 106 45v258l-119 -49q-49 -22 -72.5 -51t-23.5 -80q0 -56 30 -89.5t79 -33.5zM123 637v31h500v-31h-500z" />
    <glyph glyph-name="guillemotleft" unicode="&#xab;" horiz-adv-x="851" 
d="M369 555v12l405 398h12l-202 -404l202 -403h-12zM66 555v12l405 398h12l-202 -404l202 -403h-12z" />
    <glyph glyph-name="registered" unicode="&#xae;" horiz-adv-x="1054" 
d="M526 526q-200 0 -332.5 135.5t-132.5 329.5q0 196 132.5 331.5t332.5 135.5q133 0 240.5 -63t167 -169.5t59.5 -234.5q0 -195 -133 -330t-334 -135zM526 1423q-186 0 -308 -125t-122 -307q0 -181 122.5 -305.5t307.5 -124.5q187 0 309.5 124.5t122.5 305.5
q0 182 -122.5 307t-309.5 125zM516 1219h-47v-224h47q52 0 80.5 28t28.5 81q0 51 -29.5 83t-79.5 32zM311 1241h226q92 0 141 -38t49 -99q0 -50 -35 -79.5t-86 -39.5l90 -145q21 -34 41 -49t56 -15v-16h-144q-39 27 -67 82l-72 131h-41v-148q0 -30 12 -39.5t45 -9.5v-16
h-215v16q35 0 47.5 9.5t12.5 39.5v349q0 32 -11.5 40t-48.5 11v16z" />
    <glyph glyph-name="macron" unicode="&#xaf;" horiz-adv-x="1024" 
d="M229 1280v63h566v-63h-566z" />
    <glyph glyph-name="degree" unicode="&#xb0;" horiz-adv-x="520" 
d="M260 1458q92 0 155.5 -62.5t63.5 -154.5t-63.5 -155.5t-155.5 -63.5t-155.5 63.5t-63.5 155.5t63.5 154.5t155.5 62.5zM260 1055q78 0 132 54t54 132q0 77 -54 130.5t-132 53.5q-77 0 -131.5 -54t-54.5 -130q0 -78 54.5 -132t131.5 -54z" />
    <glyph glyph-name="plusminus" unicode="&#xb1;" horiz-adv-x="1155" 
d="M1026 860h-426v-323h-45v323h-426v45h426v324h45v-324h426v-45zM129 348v45h897v-45h-897z" />
    <glyph glyph-name="uni00B2" unicode="&#xb2;" horiz-adv-x="765" 
d="M264 889h209q63 0 97 17.5t61 76.5h10l-23 -229h-495v12l182 188q86 91 118 144t32 116q0 60 -35 96t-96 36q-100 0 -168 -86l-11 8q38 79 104.5 133.5t158.5 54.5q98 0 151 -51.5t53 -140.5q0 -28 -9 -55t-19.5 -48.5t-36 -49t-41.5 -43.5t-55 -45.5t-56.5 -42.5
t-65.5 -46t-65 -45z" />
    <glyph glyph-name="uni00B3" unicode="&#xb3;" horiz-adv-x="747" 
d="M395 1151q104 -6 166 -52t62 -132q0 -94 -83 -158t-192 -64q-105 0 -169 43t-64 103q0 26 13.5 47t31.5 29h96q-12 -18 -12 -58q0 -60 29.5 -99.5t80.5 -39.5q55 0 89 41t34 109q0 78 -47 122.5t-133 44.5h-25l-4 13q160 51 160 162q0 43 -25.5 69.5t-76.5 26.5
q-94 0 -150 -94l-18 10q33 81 93.5 132.5t149.5 51.5q81 0 124.5 -41t43.5 -106q0 -33 -15 -60.5t-43 -46t-54.5 -30.5t-61.5 -23z" />
    <glyph glyph-name="acute" unicode="&#xb4;" horiz-adv-x="1024" 
d="M434 1563h266v-9l-364 -342h-12z" />
    <glyph glyph-name="paragraph" unicode="&#xb6;" horiz-adv-x="1218" 
d="M641 477v932q-79 -1 -138.5 -42.5t-93 -109.5t-49.5 -145.5t-16 -161.5t16 -163t49.5 -150t93.5 -115t138 -45zM641 -403v849q-129 0 -233.5 39.5t-172.5 108t-104.5 160t-36.5 196.5q0 216 145 352t402 136h506v-25q-114 -3 -161.5 -32t-47.5 -117v-1667h-47v1810h-203
v-1810h-47z" />
    <glyph glyph-name="periodcentered" unicode="&#xb7;" horiz-adv-x="448" 
d="M61 621q0 69 47 115t115 46q69 0 116.5 -46t47.5 -115q0 -70 -47.5 -117t-116.5 -47q-68 0 -115 47t-47 117z" />
    <glyph glyph-name="cedilla" unicode="&#xb8;" horiz-adv-x="1024" 
d="M330 -453l-4 23q106 3 165.5 38t59.5 89q0 51 -41 74t-131 26l102 207h25l-41 -98q100 -2 161.5 -41.5t61.5 -114.5q0 -69 -47.5 -115.5t-126 -67t-184.5 -20.5z" />
    <glyph glyph-name="uni00B9" unicode="&#xb9;" horiz-adv-x="669" 
d="M397 1458h17v-610q0 -45 28 -57t117 -17v-20h-450v20q91 5 118 17t27 57v452h-145v19q196 20 288 139z" />
    <glyph glyph-name="ordmasculine" unicode="&#xba;" horiz-adv-x="751" 
d="M373 772q-135 0 -224.5 91.5t-89.5 236.5q0 160 92 259t228 99q135 0 224 -92.5t89 -237.5q0 -159 -92 -257.5t-227 -98.5zM379 799q71 0 108 79t37 218q0 92 -15 165.5t-50 122t-86 48.5q-72 0 -109 -79t-37 -218q0 -144 38.5 -240t113.5 -96zM125 637v31h500v-31h-500z
" />
    <glyph glyph-name="guillemotright" unicode="&#xbb;" horiz-adv-x="851" 
d="M483 567v-12l-405 -397h-12l202 403l-202 404h12zM786 567v-12l-405 -397h-12l202 403l-202 404h12z" />
    <glyph glyph-name="onequarter" unicode="&#xbc;" horiz-adv-x="1368" 
d="M397 1458h17v-610q0 -45 28 -57t117 -17v-20h-450v20q91 5 118 17t27 57v452h-145v19q196 20 288 139zM168 -20l979 1478h51l-979 -1478h-51zM1231 0h-373v20q72 5 93.5 16.5t21.5 55.5v133h-338v19l397 461h86v-443h158v-37h-158v-133q0 -44 20.5 -55.5t92.5 -16.5v-20z
M694 262h279v318z" />
    <glyph glyph-name="onehalf" unicode="&#xbd;" horiz-adv-x="1339" 
d="M168 -20l979 1478h51l-979 -1478h-51zM397 1458h17v-610q0 -45 28 -57t117 -17v-20h-450v20q91 5 118 17t27 57v452h-145v19q196 20 288 139zM870 135h209q63 0 97 17.5t61 76.5h10l-22 -229h-496v12l182 189q86 91 118 144t32 116q0 60 -35 95.5t-96 35.5
q-100 0 -168 -86l-10 8q38 79 104.5 133.5t157.5 54.5q98 0 151.5 -51.5t53.5 -140.5q0 -27 -9 -54.5t-19.5 -49t-36 -49t-42 -44t-55 -45.5t-57 -42t-65.5 -46t-65 -45z" />
    <glyph glyph-name="threequarters" unicode="&#xbe;" horiz-adv-x="1368" 
d="M168 -20l979 1478h51l-979 -1478h-51zM395 1151q104 -6 166 -52t62 -132q0 -94 -83 -158t-192 -64q-105 0 -169 43t-64 103q0 26 13.5 47t31.5 29h96q-12 -18 -12 -58q0 -60 29.5 -99.5t80.5 -39.5q55 0 89 41t34 109q0 78 -47 122.5t-133 44.5h-25l-4 13q160 51 160 162
q0 43 -25.5 69.5t-76.5 26.5q-94 0 -150 -94l-18 10q33 81 93.5 132.5t149.5 51.5q81 0 124.5 -41t43.5 -106q0 -33 -15 -60.5t-43 -46t-54.5 -30.5t-61.5 -23zM1231 0h-373v20q72 5 93.5 16.5t21.5 55.5v133h-338v19l397 461h86v-443h158v-37h-158v-133q0 -44 20.5 -55.5
t92.5 -16.5v-20zM694 262h279v318z" />
    <glyph glyph-name="questiondown" unicode="&#xbf;" horiz-adv-x="897" 
d="M637 1069q0 -66 -46 -112t-112 -46q-65 0 -111 46t-46 112t46 112t111 46q66 0 112 -46t46 -112zM250 2q0 -105 52 -165t147 -60q62 0 108 35t67 85t21 105q0 81 -20 131h170q28 -15 45.5 -47t17.5 -68q0 -114 -118 -192t-287 -78q-185 0 -299.5 92t-114.5 248
q0 51 16.5 97.5t40 82t66 75.5t77 67t91.5 67q31 21 53.5 38.5t45.5 40.5t36 46.5t22 52.5t8.5 63.5t-10.5 74.5h11q58 -35 95.5 -89.5t37.5 -119.5q0 -54 -21 -100.5t-54.5 -81t-73.5 -67t-80.5 -66.5t-74 -70.5t-54.5 -87t-21 -109.5z" />
    <glyph glyph-name="Agrave" unicode="&#xc0;" horiz-adv-x="1449" 
d="M389 1839h266l103 -305h-8l-361 299v6zM870 602l-247 649l-240 -649h487zM412 23v-23h-422v23q69 7 107.5 26t56.5 72l446 1188l-55 143h252l518 -1352q29 -70 145 -77v-23h-586v23q93 3 133 24t40 64q0 28 -21 82l-143 372h-512l-138 -370q-16 -50 -16 -78
q0 -47 46.5 -69t148.5 -25z" />
    <glyph glyph-name="Aacute" unicode="&#xc1;" horiz-adv-x="1449" 
d="M723 1839h266v-6l-360 -299h-8zM870 602l-247 649l-240 -649h487zM412 23v-23h-422v23q69 7 107.5 26t56.5 72l446 1188l-55 143h252l518 -1352q29 -70 145 -77v-23h-586v23q93 3 133 24t40 64q0 28 -21 82l-143 372h-512l-138 -370q-16 -50 -16 -78q0 -47 46.5 -69
t148.5 -25z" />
    <glyph glyph-name="Acircumflex" unicode="&#xc2;" horiz-adv-x="1449" 
d="M776 1839l262 -305h-10l-334 166l-334 -166h-10l262 305h164zM870 602l-247 649l-240 -649h487zM412 23v-23h-422v23q69 7 107.5 26t56.5 72l446 1188l-55 143h252l518 -1352q29 -70 145 -77v-23h-586v23q93 3 133 24t40 64q0 28 -21 82l-143 372h-512l-138 -370
q-16 -50 -16 -78q0 -47 46.5 -69t148.5 -25z" />
    <glyph glyph-name="Atilde" unicode="&#xc3;" horiz-adv-x="1449" 
d="M1036 1802q-41 -139 -89.5 -203.5t-121.5 -64.5q-38 0 -78 18.5t-68.5 40t-64.5 40t-67 18.5q-45 0 -88 -32t-74 -89l-12 6q41 140 89.5 204t121.5 64q48 0 97.5 -29t95.5 -58t85 -29q45 0 88.5 32t73.5 88zM870 602l-247 649l-240 -649h487zM412 23v-23h-422v23
q69 7 107.5 26t56.5 72l446 1188l-55 143h252l518 -1352q29 -70 145 -77v-23h-586v23q93 3 133 24t40 64q0 28 -21 82l-143 372h-512l-138 -370q-16 -50 -16 -78q0 -47 46.5 -69t148.5 -25z" />
    <glyph glyph-name="Adieresis" unicode="&#xc4;" horiz-adv-x="1449" 
d="M492 1548q-56 0 -96 41t-40 97q0 57 39.5 97t96.5 40q58 0 97.5 -40t39.5 -97q0 -56 -39.5 -97t-97.5 -41zM891 1548q-56 0 -95.5 41t-39.5 97q0 57 39 97t96 40q58 0 97.5 -40t39.5 -97q0 -56 -39.5 -97t-97.5 -41zM870 602l-247 649l-240 -649h487zM412 23v-23h-422v23
q69 7 107.5 26t56.5 72l446 1188l-55 143h252l518 -1352q29 -70 145 -77v-23h-586v23q93 3 133 24t40 64q0 28 -21 82l-143 372h-512l-138 -370q-16 -50 -16 -78q0 -47 46.5 -69t148.5 -25z" />
    <glyph glyph-name="Aring" unicode="&#xc5;" horiz-adv-x="1449" 
d="M676 1872q81 0 134.5 -53t53.5 -133t-53.5 -133.5t-134.5 -53.5t-135 53.5t-54 133.5t53.5 133t135.5 53zM676 1538q63 0 105 42.5t42 105.5t-42 105t-105 42t-105.5 -42t-42.5 -105t42.5 -105.5t105.5 -42.5zM870 602l-247 649l-240 -649h487zM412 23v-23h-422v23
q69 7 107.5 26t56.5 72l446 1188l-55 143h252l518 -1352q29 -70 145 -77v-23h-586v23q93 3 133 24t40 64q0 28 -21 82l-143 372h-512l-138 -370q-16 -50 -16 -78q0 -47 46.5 -69t148.5 -25z" />
    <glyph glyph-name="AE" unicode="&#xc6;" horiz-adv-x="2023" 
d="M979 1348l-453 -734h453v734zM422 23v-23h-432v23q72 5 112.5 33t94.5 112l710 1151q-18 46 -69.5 67t-155.5 29v23h1216l11 -355h-19q-32 98 -66 160t-77.5 97t-91.5 48t-117 13h-319v-639h297q93 0 132.5 52.5t49.5 156.5h24v-457h-24q-10 105 -49.5 158t-132.5 53
h-297v-549q0 -81 43.5 -110t148.5 -29h162q260 0 393 383h23l-68 -420h-1116v23q48 5 75 10t49 13.5t31.5 24.5t14 37.5t4.5 57.5v409h-477l-223 -362q-46 -71 -46 -109q0 -37 44 -56t145 -25z" />
    <glyph glyph-name="Ccedilla" unicode="&#xc7;" horiz-adv-x="1308" 
d="M911 -250q0 -69 -47.5 -115.5t-126 -67t-184.5 -20.5l-4 23q106 3 165.5 38t59.5 89q0 51 -41 74t-131 26l92 187q-286 25 -458.5 217t-172.5 487q0 172 57.5 318t156 244t231 153t280.5 55q233 0 416 -119l2 -315h-18q-34 180 -144.5 293t-252.5 113q-113 0 -204 -58
t-148 -155.5t-87 -220.5t-30 -259q0 -148 30.5 -278.5t87.5 -231.5t146.5 -160t199.5 -59q156 0 278.5 121t170.5 340h18l-28 -373q-190 -116 -455 -116q-35 0 -51 2l-31 -76q100 -2 161.5 -41.5t61.5 -114.5z" />
    <glyph glyph-name="Egrave" unicode="&#xc8;" horiz-adv-x="1273" 
d="M408 1839h266l102 -305h-8l-360 299v6zM1169 0h-1114v23q112 11 142 35t30 108v1106q0 84 -30 108t-142 35v23h1094l10 -355h-20q-32 98 -66 160t-77.5 97t-91.5 48t-118 13h-317v-639h295q94 0 133 52t51 157h23v-457h-23q-12 106 -51 158.5t-133 52.5h-295v-549
q0 -81 44 -110t149 -29h161q259 0 394 383h20z" />
    <glyph glyph-name="Eacute" unicode="&#xc9;" horiz-adv-x="1273" 
d="M711 1839h266v-6l-361 -299h-8zM1169 0h-1114v23q112 11 142 35t30 108v1106q0 84 -30 108t-142 35v23h1094l10 -355h-20q-32 98 -66 160t-77.5 97t-91.5 48t-118 13h-317v-639h295q94 0 133 52t51 157h23v-457h-23q-12 106 -51 158.5t-133 52.5h-295v-549q0 -81 44 -110
t149 -29h161q259 0 394 383h20z" />
    <glyph glyph-name="Ecircumflex" unicode="&#xca;" horiz-adv-x="1273" 
d="M762 1839l262 -305h-10l-334 166l-334 -166h-10l262 305h164zM1169 0h-1114v23q112 11 142 35t30 108v1106q0 84 -30 108t-142 35v23h1094l10 -355h-20q-32 98 -66 160t-77.5 97t-91.5 48t-118 13h-317v-639h295q94 0 133 52t51 157h23v-457h-23q-12 106 -51 158.5
t-133 52.5h-295v-549q0 -81 44 -110t149 -29h161q259 0 394 383h20z" />
    <glyph glyph-name="Edieresis" unicode="&#xcb;" horiz-adv-x="1273" 
d="M477 1548q-56 0 -95.5 41t-39.5 97q0 57 39 97t96 40q58 0 97.5 -40t39.5 -97q0 -56 -39.5 -97t-97.5 -41zM877 1548q-56 0 -96 41t-40 97q0 57 39.5 97t96.5 40q58 0 97.5 -40t39.5 -97q0 -56 -39.5 -97t-97.5 -41zM1169 0h-1114v23q112 11 142 35t30 108v1106
q0 84 -30 108t-142 35v23h1094l10 -355h-20q-32 98 -66 160t-77.5 97t-91.5 48t-118 13h-317v-639h295q94 0 133 52t51 157h23v-457h-23q-12 106 -51 158.5t-133 52.5h-295v-549q0 -81 44 -110t149 -29h161q259 0 394 383h20z" />
    <glyph glyph-name="Igrave" unicode="&#xcc;" horiz-adv-x="696" 
d="M78 1839h266l102 -305h-8l-360 299v6zM469 1272v-1106q0 -84 30 -108t142 -35v-23h-586v23q112 11 142 35t30 108v1106q0 84 -30 108t-142 35v23h586v-23q-112 -11 -142 -35t-30 -108z" />
    <glyph glyph-name="Iacute" unicode="&#xcd;" horiz-adv-x="696" 
d="M381 1839h266v-6l-360 -299h-8zM469 1272v-1106q0 -84 30 -108t142 -35v-23h-586v23q112 11 142 35t30 108v1106q0 84 -30 108t-142 35v23h586v-23q-112 -11 -142 -35t-30 -108z" />
    <glyph glyph-name="Icircumflex" unicode="&#xce;" horiz-adv-x="696" 
d="M424 1839l244 -307h-11l-309 166l-307 -166h-10l241 307h152zM469 1272v-1106q0 -84 30 -108t142 -35v-23h-586v23q112 11 142 35t30 108v1106q0 84 -30 108t-142 35v23h586v-23q-112 -11 -142 -35t-30 -108z" />
    <glyph glyph-name="Idieresis" unicode="&#xcf;" horiz-adv-x="696" 
d="M147 1548q-56 0 -95.5 41t-39.5 97q0 57 39 97t96 40q58 0 98 -40t40 -97q0 -56 -40 -97t-98 -41zM547 1548q-56 0 -95.5 41t-39.5 97q0 57 39 97t96 40q58 0 97.5 -40t39.5 -97q0 -56 -39.5 -97t-97.5 -41zM469 1272v-1106q0 -84 30 -108t142 -35v-23h-586v23
q112 11 142 35t30 108v1106q0 84 -30 108t-142 35v23h586v-23q-112 -11 -142 -35t-30 -108z" />
    <glyph glyph-name="Eth" unicode="&#xd0;" horiz-adv-x="1507" 
d="M700 0h-624v23q112 11 142 35t30 108v559h-148v37h148v510q0 84 -30 108t-142 35v23h575q197 0 350.5 -54.5t248 -150t142.5 -217.5t48 -264q0 -170 -58.5 -313t-158.5 -238t-235 -148t-288 -53zM662 37h38q212 0 346 179t134 503q0 114 -20 213.5t-63.5 186.5
t-108.5 149t-160 97.5t-212 35.5h-127v-639h285v-37h-285v-537q0 -90 39.5 -120.5t133.5 -30.5z" />
    <glyph glyph-name="Ntilde" unicode="&#xd1;" horiz-adv-x="1517" 
d="M1141 1802q-41 -139 -89.5 -203.5t-121.5 -64.5q-38 0 -78 18.5t-68.5 40t-65 40t-67.5 18.5q-45 0 -88 -32t-74 -89l-12 6q41 140 89.5 204t121.5 64q38 0 78 -18t68.5 -40t65 -40t67.5 -18q45 0 87.5 31.5t73.5 88.5zM1309 -20h-33l-995 1243v-1053q0 -87 47.5 -113
t197.5 -34v-23h-487v23q62 5 95 11.5t59 22t34.5 42t8.5 71.5v1108q-58 68 -105 101t-100 36v23h395l838 -1076v906q0 87 -46.5 113t-197.5 34v23h485v-23q-62 -5 -95 -11.5t-58.5 -22t-34 -42t-8.5 -71.5v-1288z" />
    <glyph glyph-name="Ograve" unicode="&#xd2;" horiz-adv-x="1445" 
d="M455 1839h266l102 -305h-8l-360 299v6zM731 1458q151 0 276 -58.5t205.5 -157t124 -226t43.5 -268.5q0 -165 -52 -309t-141.5 -244t-212.5 -157.5t-261 -57.5q-151 0 -276 58.5t-205.5 157t-124.5 226t-44 268.5q0 220 89 396.5t241.5 274t337.5 97.5zM713 1430
q-95 0 -170 -57t-122.5 -154.5t-72 -223.5t-24.5 -270q0 -136 24.5 -261t72 -228.5t128 -165.5t182.5 -62q95 0 170 57t122.5 154.5t72 223.5t24.5 270q0 136 -24.5 261t-72 228.5t-128 165.5t-182.5 62z" />
    <glyph glyph-name="Oacute" unicode="&#xd3;" horiz-adv-x="1445" 
d="M758 1839h266v-6l-360 -299h-9zM731 1458q151 0 276 -58.5t205.5 -157t124 -226t43.5 -268.5q0 -165 -52 -309t-141.5 -244t-212.5 -157.5t-261 -57.5q-151 0 -276 58.5t-205.5 157t-124.5 226t-44 268.5q0 220 89 396.5t241.5 274t337.5 97.5zM713 1430q-95 0 -170 -57
t-122.5 -154.5t-72 -223.5t-24.5 -270q0 -136 24.5 -261t72 -228.5t128 -165.5t182.5 -62q95 0 170 57t122.5 154.5t72 223.5t24.5 270q0 136 -24.5 261t-72 228.5t-128 165.5t-182.5 62z" />
    <glyph glyph-name="Ocircumflex" unicode="&#xd4;" horiz-adv-x="1445" 
d="M809 1839l262 -305h-10l-334 166l-334 -166h-10l262 305h164zM731 1458q151 0 276 -58.5t205.5 -157t124 -226t43.5 -268.5q0 -165 -52 -309t-141.5 -244t-212.5 -157.5t-261 -57.5q-151 0 -276 58.5t-205.5 157t-124.5 226t-44 268.5q0 220 89 396.5t241.5 274
t337.5 97.5zM713 1430q-95 0 -170 -57t-122.5 -154.5t-72 -223.5t-24.5 -270q0 -136 24.5 -261t72 -228.5t128 -165.5t182.5 -62q95 0 170 57t122.5 154.5t72 223.5t24.5 270q0 136 -24.5 261t-72 228.5t-128 165.5t-182.5 62z" />
    <glyph glyph-name="Otilde" unicode="&#xd5;" horiz-adv-x="1445" 
d="M1083 1802q-41 -139 -89.5 -203.5t-121.5 -64.5q-38 0 -78 18.5t-68.5 40t-64.5 40t-67 18.5q-45 0 -88 -32t-74 -89l-12 6q41 140 89.5 204t121.5 64q48 0 97.5 -29t95.5 -58t85 -29q45 0 88.5 32t73.5 88zM731 1458q151 0 276 -58.5t205.5 -157t124 -226t43.5 -268.5
q0 -165 -52 -309t-141.5 -244t-212.5 -157.5t-261 -57.5q-151 0 -276 58.5t-205.5 157t-124.5 226t-44 268.5q0 220 89 396.5t241.5 274t337.5 97.5zM713 1430q-95 0 -170 -57t-122.5 -154.5t-72 -223.5t-24.5 -270q0 -136 24.5 -261t72 -228.5t128 -165.5t182.5 -62
q95 0 170 57t122.5 154.5t72 223.5t24.5 270q0 136 -24.5 261t-72 228.5t-128 165.5t-182.5 62z" />
    <glyph glyph-name="Odieresis" unicode="&#xd6;" horiz-adv-x="1445" 
d="M524 1548q-56 0 -95.5 41t-39.5 97q0 57 39 97t96 40q58 0 98 -40t40 -97q0 -56 -40 -97t-98 -41zM924 1548q-56 0 -96 41t-40 97q0 57 39.5 97t96.5 40q58 0 97.5 -40t39.5 -97q0 -56 -39.5 -97t-97.5 -41zM731 1458q151 0 276 -58.5t205.5 -157t124 -226t43.5 -268.5
q0 -165 -52 -309t-141.5 -244t-212.5 -157.5t-261 -57.5q-151 0 -276 58.5t-205.5 157t-124.5 226t-44 268.5q0 220 89 396.5t241.5 274t337.5 97.5zM713 1430q-95 0 -170 -57t-122.5 -154.5t-72 -223.5t-24.5 -270q0 -136 24.5 -261t72 -228.5t128 -165.5t182.5 -62
q95 0 170 57t122.5 154.5t72 223.5t24.5 270q0 136 -24.5 261t-72 228.5t-128 165.5t-182.5 62z" />
    <glyph glyph-name="multiply" unicode="&#xd7;" horiz-adv-x="999" 
d="M815 393l-315 316l-316 -316l-32 33l315 315l-315 316l32 33l316 -316l315 316l33 -33l-316 -316l316 -315z" />
    <glyph glyph-name="Oslash" unicode="&#xd8;" horiz-adv-x="1445" 
d="M324 725q0 -258 79 -453l621 926q-112 232 -311 232q-95 0 -170 -57t-122.5 -154.5t-72 -223.5t-24.5 -270zM731 8q95 0 170 57t122.5 154.5t72 223.5t24.5 270q0 254 -78 444l-620 -924q113 -225 309 -225zM713 -20q-220 0 -381 120l-135 -202l-31 20l137 205
q-115 98 -177.5 247.5t-62.5 319.5q0 220 89 396.5t241.5 274t337.5 97.5q222 0 385 -125l119 178l31 -22l-121 -178q114 -98 174.5 -246t60.5 -317q0 -165 -52 -309t-141.5 -244t-212.5 -157.5t-261 -57.5z" />
    <glyph glyph-name="Ugrave" unicode="&#xd9;" horiz-adv-x="1472" 
d="M518 1839h266l103 -305h-8l-361 299v6zM432 1272v-729q0 -226 95.5 -350.5t277.5 -124.5q89 0 165.5 28.5t135.5 84.5t93 149t34 213v725q0 87 -46.5 113t-195.5 34v23h484v-23q-119 -9 -157 -35t-38 -112v-756q0 -127 -41.5 -229.5t-113.5 -167.5t-167.5 -100
t-205.5 -35q-259 0 -409 138.5t-150 397.5v756q0 44 -6 68t-27 40t-51.5 22.5t-90.5 12.5v23h588v-23q-114 -11 -144 -35t-30 -108z" />
    <glyph glyph-name="Uacute" unicode="&#xda;" horiz-adv-x="1472" 
d="M821 1839h266v-6l-360 -299h-8zM432 1272v-729q0 -226 95.5 -350.5t277.5 -124.5q89 0 165.5 28.5t135.5 84.5t93 149t34 213v725q0 87 -46.5 113t-195.5 34v23h484v-23q-119 -9 -157 -35t-38 -112v-756q0 -127 -41.5 -229.5t-113.5 -167.5t-167.5 -100t-205.5 -35
q-259 0 -409 138.5t-150 397.5v756q0 44 -6 68t-27 40t-51.5 22.5t-90.5 12.5v23h588v-23q-114 -11 -144 -35t-30 -108z" />
    <glyph glyph-name="Ucircumflex" unicode="&#xdb;" horiz-adv-x="1472" 
d="M872 1839l263 -305h-11l-333 166l-334 -166h-11l263 305h163zM432 1272v-729q0 -226 95.5 -350.5t277.5 -124.5q89 0 165.5 28.5t135.5 84.5t93 149t34 213v725q0 87 -46.5 113t-195.5 34v23h484v-23q-119 -9 -157 -35t-38 -112v-756q0 -127 -41.5 -229.5t-113.5 -167.5
t-167.5 -100t-205.5 -35q-259 0 -409 138.5t-150 397.5v756q0 44 -6 68t-27 40t-51.5 22.5t-90.5 12.5v23h588v-23q-114 -11 -144 -35t-30 -108z" />
    <glyph glyph-name="Udieresis" unicode="&#xdc;" horiz-adv-x="1472" 
d="M588 1548q-56 0 -95.5 41t-39.5 97q0 57 39 97t96 40q58 0 97.5 -40t39.5 -97q0 -56 -39.5 -97t-97.5 -41zM987 1548q-56 0 -95.5 41t-39.5 97q0 57 39 97t96 40q58 0 97.5 -40t39.5 -97q0 -56 -39.5 -97t-97.5 -41zM432 1272v-729q0 -226 95.5 -350.5t277.5 -124.5
q89 0 165.5 28.5t135.5 84.5t93 149t34 213v725q0 87 -46.5 113t-195.5 34v23h484v-23q-119 -9 -157 -35t-38 -112v-756q0 -127 -41.5 -229.5t-113.5 -167.5t-167.5 -100t-205.5 -35q-259 0 -409 138.5t-150 397.5v756q0 44 -6 68t-27 40t-51.5 22.5t-90.5 12.5v23h588v-23
q-114 -11 -144 -35t-30 -108z" />
    <glyph glyph-name="Yacute" unicode="&#xdd;" horiz-adv-x="1320" 
d="M721 1839h266v-6l-360 -299h-9zM1042 1184q64 108 64 155q0 40 -52 55.5t-153 20.5v23h430v-23q-64 -4 -99 -29.5t-75 -93.5l-389 -665v-465q0 -43 9 -68.5t35 -40t56.5 -20t89.5 -10.5v-23h-614v23q60 5 90 10.5t57 20t36.5 40t9.5 68.5v461l-404 667q-25 42 -35 57
t-27.5 34t-35 25t-45.5 9v23h583v-23q-98 -5 -144 -21t-46 -51q0 -32 43 -106l330 -553z" />
    <glyph glyph-name="Thorn" unicode="&#xde;" horiz-adv-x="1243" 
d="M469 1272v-107h156q135 0 243.5 -32t177 -87.5t104.5 -127.5t36 -154q0 -189 -147.5 -302.5t-415.5 -113.5h-154v-172q0 -88 46 -114.5t204 -38.5v-23h-664v23q112 11 142 35t30 108v1106q0 84 -30 108t-142 35v23h586v-23q-112 -11 -142 -35t-30 -108zM469 1128v-741
h104q180 0 270.5 97t90.5 274q0 164 -93 267t-268 103h-104z" />
    <glyph glyph-name="germandbls" unicode="&#xdf;" horiz-adv-x="1300" 
d="M535 377q36 -162 126 -264.5t207 -102.5q95 0 147 58.5t52 152.5q0 58 -25.5 104t-66.5 76.5t-90.5 57.5t-99.5 54t-91 58.5t-66.5 78.5t-25.5 106q0 53 27 104.5t66 97.5t78 96t66 120t27 151q0 121 -55.5 187.5t-163.5 66.5q-118 0 -181 -105t-63 -288v-1186h-370v23
q83 5 112 21.5t29 72.5v870h-149v12l149 72v47q0 116 38 210t103.5 153.5t149.5 91t178 31.5q175 0 286 -85.5t111 -215.5q0 -68 -34.5 -122t-83.5 -88t-97.5 -63t-83 -63.5t-34.5 -73.5q0 -34 29.5 -66t77 -59t105 -55.5t115 -64.5t105 -78.5t77 -104t29.5 -133.5
q0 -155 -112.5 -253.5t-268.5 -98.5q-200 0 -336 100l-12 297h19z" />
    <glyph glyph-name="agrave" unicode="&#xe0;" horiz-adv-x="1032" 
d="M231 1563h267l110 -351h-12l-365 342v9zM868 770v-565q0 -109 95 -109q41 0 77 19l4 -9q-38 -58 -94 -90t-121 -32q-77 0 -127 48t-61 128q-60 -74 -142.5 -125t-179.5 -51q-115 0 -191.5 70.5t-76.5 183.5q0 110 78 181t219 120l291 102v180q0 111 -41 176.5t-129 65.5
q-77 0 -116.5 -55.5t-39.5 -147.5q0 -72 19 -125l-137 -18q-36 9 -61 43.5t-25 79.5q0 113 115 183.5t276 70.5q184 0 276 -78.5t92 -245.5zM453 102q110 0 186 76v436l-211 -88q-78 -33 -119 -85t-41 -136q0 -91 50.5 -147t134.5 -56z" />
    <glyph glyph-name="aacute" unicode="&#xe1;" horiz-adv-x="1032" 
d="M539 1563h266v-9l-365 -342h-12zM868 770v-565q0 -109 95 -109q41 0 77 19l4 -9q-38 -58 -94 -90t-121 -32q-77 0 -127 48t-61 128q-60 -74 -142.5 -125t-179.5 -51q-115 0 -191.5 70.5t-76.5 183.5q0 110 78 181t219 120l291 102v180q0 111 -41 176.5t-129 65.5
q-77 0 -116.5 -55.5t-39.5 -147.5q0 -72 19 -125l-137 -18q-36 9 -61 43.5t-25 79.5q0 113 115 183.5t276 70.5q184 0 276 -78.5t92 -245.5zM453 102q110 0 186 76v436l-211 -88q-78 -33 -119 -85t-41 -136q0 -91 50.5 -147t134.5 -56z" />
    <glyph glyph-name="acircumflex" unicode="&#xe2;" horiz-adv-x="1032" 
d="M596 1563l221 -351h-12l-299 215l-299 -215h-12l221 351h180zM868 770v-565q0 -109 95 -109q41 0 77 19l4 -9q-38 -58 -94 -90t-121 -32q-77 0 -127 48t-61 128q-60 -74 -142.5 -125t-179.5 -51q-115 0 -191.5 70.5t-76.5 183.5q0 110 78 181t219 120l291 102v180
q0 111 -41 176.5t-129 65.5q-77 0 -116.5 -55.5t-39.5 -147.5q0 -72 19 -125l-137 -18q-36 9 -61 43.5t-25 79.5q0 113 115 183.5t276 70.5q184 0 276 -78.5t92 -245.5zM453 102q110 0 186 76v436l-211 -88q-78 -33 -119 -85t-41 -136q0 -91 50.5 -147t134.5 -56z" />
    <glyph glyph-name="atilde" unicode="&#xe3;" horiz-adv-x="1032" 
d="M846 1495q-42 -137 -90.5 -198.5t-120.5 -61.5q-49 0 -101.5 29.5t-100.5 58.5t-87 29q-46 0 -89.5 -32t-72.5 -89l-12 6q41 137 89 198.5t120 61.5q39 0 80.5 -18t72 -39.5t68 -39.5t68.5 -18q46 0 89 31.5t72 87.5zM868 770v-565q0 -109 95 -109q41 0 77 19l4 -9
q-38 -58 -94 -90t-121 -32q-77 0 -127 48t-61 128q-60 -74 -142.5 -125t-179.5 -51q-115 0 -191.5 70.5t-76.5 183.5q0 110 78 181t219 120l291 102v180q0 111 -41 176.5t-129 65.5q-77 0 -116.5 -55.5t-39.5 -147.5q0 -72 19 -125l-137 -18q-36 9 -61 43.5t-25 79.5
q0 113 115 183.5t276 70.5q184 0 276 -78.5t92 -245.5zM453 102q110 0 186 76v436l-211 -88q-78 -33 -119 -85t-41 -136q0 -91 50.5 -147t134.5 -56z" />
    <glyph glyph-name="adieresis" unicode="&#xe4;" horiz-adv-x="1032" 
d="M315 1243q-54 0 -93.5 39.5t-39.5 93.5t39.5 93.5t93.5 39.5q55 0 94.5 -39.5t39.5 -93.5t-39.5 -93.5t-94.5 -39.5zM690 1243q-54 0 -92.5 39.5t-38.5 93.5t38.5 93.5t92.5 39.5q55 0 95 -39.5t40 -93.5t-40 -93.5t-95 -39.5zM868 770v-565q0 -109 95 -109q41 0 77 19
l4 -9q-38 -58 -94 -90t-121 -32q-77 0 -127 48t-61 128q-60 -74 -142.5 -125t-179.5 -51q-115 0 -191.5 70.5t-76.5 183.5q0 110 78 181t219 120l291 102v180q0 111 -41 176.5t-129 65.5q-77 0 -116.5 -55.5t-39.5 -147.5q0 -72 19 -125l-137 -18q-36 9 -61 43.5t-25 79.5
q0 113 115 183.5t276 70.5q184 0 276 -78.5t92 -245.5zM453 102q110 0 186 76v436l-211 -88q-78 -33 -119 -85t-41 -136q0 -91 50.5 -147t134.5 -56z" />
    <glyph glyph-name="aring" unicode="&#xe5;" horiz-adv-x="1032" 
d="M686 1378q0 -78 -52.5 -131t-131.5 -53t-132 53t-53 131t53 130.5t132 52.5t131.5 -52.5t52.5 -130.5zM358 1378q0 -62 40.5 -103.5t103.5 -41.5q62 0 102.5 41.5t40.5 103.5t-40 103t-103 41t-103.5 -41t-40.5 -103zM868 770v-565q0 -109 95 -109q41 0 77 19l4 -9
q-38 -58 -94 -90t-121 -32q-77 0 -127 48t-61 128q-60 -74 -142.5 -125t-179.5 -51q-115 0 -191.5 70.5t-76.5 183.5q0 110 78 181t219 120l291 102v180q0 111 -41 176.5t-129 65.5q-77 0 -116.5 -55.5t-39.5 -147.5q0 -72 19 -125l-137 -18q-36 9 -61 43.5t-25 79.5
q0 113 115 183.5t276 70.5q184 0 276 -78.5t92 -245.5zM453 102q110 0 186 76v436l-211 -88q-78 -33 -119 -85t-41 -136q0 -91 50.5 -147t134.5 -56z" />
    <glyph glyph-name="ae" unicode="&#xe6;" horiz-adv-x="1533" 
d="M1503 311q-36 -146 -149.5 -238.5t-272.5 -92.5q-128 0 -228 57.5t-163 159.5q-63 -88 -159.5 -150.5t-211.5 -62.5t-191.5 70.5t-76.5 183.5q0 110 78 181t219 120l273 98q11 62 38 131q-2 79 -21 143.5t-63 108t-106 43.5q-77 0 -116.5 -55.5t-39.5 -147.5
q0 -72 19 -125l-137 -18q-36 9 -61 43.5t-25 79.5q0 113 115 183.5t276 70.5q203 0 293 -125q128 125 303 125q187 0 291 -116t104 -296v-16h-678v-33q0 -227 100 -358.5t265 -131.5q209 0 317 172zM1071 1061q-105 0 -173.5 -103t-82.5 -258h463q0 105 -20.5 183.5t-68 128
t-118.5 49.5zM457 106q118 0 223 109q-70 128 -70 293q0 50 6 96l-182 -76q-81 -33 -123.5 -85.5t-42.5 -137.5q0 -90 52 -144.5t137 -54.5z" />
    <glyph glyph-name="ccedilla" unicode="&#xe7;" horiz-adv-x="927" 
d="M655 -250q0 -69 -47.5 -115.5t-126 -67t-184.5 -20.5l-4 23q106 3 165.5 38t59.5 89q0 51 -41 74t-131 26l92 187q-178 23 -284.5 168.5t-106.5 355.5q0 163 67.5 298t185 211.5t259.5 76.5q145 0 233.5 -59.5t88.5 -162.5q0 -43 -20.5 -80t-51.5 -55h-131q8 54 8 92
q0 41 -9 80t-28 74t-54 56.5t-81 21.5q-77 0 -138 -57t-93.5 -153.5t-32.5 -215.5q0 -229 94.5 -360.5t251.5 -131.5q192 0 297 172l8 -4q-34 -149 -141.5 -240t-261.5 -91q-23 0 -35 2l-31 -76q100 -2 161.5 -41.5t61.5 -114.5z" />
    <glyph glyph-name="egrave" unicode="&#xe8;" horiz-adv-x="972" 
d="M270 1563h267l110 -351h-12l-365 342v9zM942 311q-36 -146 -149.5 -238.5t-272.5 -92.5q-213 0 -343 150t-130 378q0 163 65.5 298t177.5 211.5t245 76.5q186 0 289.5 -116t103.5 -296v-16h-676v-33q0 -228 99.5 -359t264.5 -131q206 0 318 172zM508 1061
q-103 0 -171.5 -103t-82.5 -258h463q0 105 -20.5 183.5t-68.5 128t-120 49.5z" />
    <glyph glyph-name="eacute" unicode="&#xe9;" horiz-adv-x="972" 
d="M578 1563h266v-9l-365 -342h-12zM942 311q-36 -146 -149.5 -238.5t-272.5 -92.5q-213 0 -343 150t-130 378q0 163 65.5 298t177.5 211.5t245 76.5q186 0 289.5 -116t103.5 -296v-16h-676v-33q0 -228 99.5 -359t264.5 -131q206 0 318 172zM508 1061q-103 0 -171.5 -103
t-82.5 -258h463q0 105 -20.5 183.5t-68.5 128t-120 49.5z" />
    <glyph glyph-name="ecircumflex" unicode="&#xea;" horiz-adv-x="972" 
d="M627 1563l221 -351h-12l-299 215l-299 -215h-13l221 351h181zM942 311q-36 -146 -149.5 -238.5t-272.5 -92.5q-213 0 -343 150t-130 378q0 163 65.5 298t177.5 211.5t245 76.5q186 0 289.5 -116t103.5 -296v-16h-676v-33q0 -228 99.5 -359t264.5 -131q206 0 318 172z
M508 1061q-103 0 -171.5 -103t-82.5 -258h463q0 105 -20.5 183.5t-68.5 128t-120 49.5z" />
    <glyph glyph-name="edieresis" unicode="&#xeb;" horiz-adv-x="972" 
d="M346 1243q-54 0 -93.5 39.5t-39.5 93.5t39.5 93.5t93.5 39.5q55 0 94 -39.5t39 -93.5t-39 -93.5t-94 -39.5zM721 1243q-54 0 -92.5 39.5t-38.5 93.5t38.5 93.5t92.5 39.5q55 0 95 -39.5t40 -93.5t-40 -93.5t-95 -39.5zM942 311q-36 -146 -149.5 -238.5t-272.5 -92.5
q-213 0 -343 150t-130 378q0 163 65.5 298t177.5 211.5t245 76.5q186 0 289.5 -116t103.5 -296v-16h-676v-33q0 -228 99.5 -359t264.5 -131q206 0 318 172zM508 1061q-103 0 -171.5 -103t-82.5 -258h463q0 105 -20.5 183.5t-68.5 128t-120 49.5z" />
    <glyph glyph-name="igrave" unicode="&#xec;" horiz-adv-x="567" 
d="M20 1563h267l110 -351h-12l-365 342v9zM403 1094v-977q0 -56 30 -72.5t114 -21.5v-23h-514v23q83 5 112 21.5t29 72.5v784l-135 78v8l356 107h8z" />
    <glyph glyph-name="iacute" unicode="&#xed;" horiz-adv-x="567" 
d="M328 1563h266v-9l-365 -342h-12zM403 1094v-977q0 -56 30 -72.5t114 -21.5v-23h-514v23q83 5 112 21.5t29 72.5v784l-135 78v8l356 107h8z" />
    <glyph glyph-name="icircumflex" unicode="&#xee;" horiz-adv-x="567" 
d="M369 1563l200 -353h-12l-270 217l-271 -217h-10l199 353h164zM403 1094v-977q0 -56 30 -72.5t114 -21.5v-23h-514v23q83 5 112 21.5t29 72.5v784l-135 78v8l356 107h8z" />
    <glyph glyph-name="idieresis" unicode="&#xef;" horiz-adv-x="567" 
d="M-31 1380q0 57 39.5 97.5t95.5 40.5q58 0 99 -40.5t41 -97.5t-41 -97t-99 -40q-56 0 -95.5 40t-39.5 97zM334 1380q0 57 40 97.5t97 40.5q58 0 97.5 -40.5t39.5 -97.5t-39.5 -97t-97.5 -40q-57 0 -97 40t-40 97zM403 1094v-977q0 -56 30 -72.5t114 -21.5v-23h-514v23
q83 5 112 21.5t29 72.5v784l-135 78v8l356 107h8z" />
    <glyph glyph-name="eth" unicode="&#xf0;" horiz-adv-x="1097" 
d="M543 -20q-145 0 -259 70t-176.5 192t-62.5 272q0 128 39.5 237.5t107.5 184t158.5 116.5t192.5 42q71 0 132 -36t101 -95q-21 93 -77.5 196t-139.5 195l-323 -121l-13 31l312 114q-140 146 -299 207l20 19q215 -59 387 -185l205 76l10 -31l-184 -69q183 -147 280 -355
t97 -436q0 -277 -144.5 -450.5t-363.5 -173.5zM553 8q122 0 189 132.5t67 359.5q0 153 -27.5 278t-89.5 206t-149 81q-121 0 -187.5 -132t-66.5 -360q0 -153 27.5 -278t89 -206t147.5 -81z" />
    <glyph glyph-name="ntilde" unicode="&#xf1;" horiz-adv-x="1220" 
d="M971 1495q-42 -137 -90.5 -198.5t-120.5 -61.5q-49 0 -101.5 29.5t-100.5 58.5t-87 29q-46 0 -89.5 -32t-72.5 -89l-12 6q41 137 89 198.5t120 61.5q39 0 80.5 -18t72 -39.5t68 -39.5t68.5 -18q46 0 89 31.5t72 87.5zM834 117v624q0 112 -43.5 163.5t-137.5 51.5
q-132 0 -250 -86v-753q0 -56 30 -72.5t114 -21.5v-23h-514v23q83 5 112 21.5t29 72.5v784l-135 78v8l364 107h9l-9 -207q73 86 170 146.5t207 60.5q283 0 283 -330v-647q0 -56 29 -72.5t112 -21.5v-23h-512v23q84 5 113 21.5t29 72.5z" />
    <glyph glyph-name="ograve" unicode="&#xf2;" horiz-adv-x="1097" 
d="M270 1563h267l110 -351h-12l-365 342v9zM553 1094q146 0 260 -69.5t176 -190t62 -271.5q0 -172 -67.5 -306t-183 -205.5t-257.5 -71.5q-145 0 -259 69t-176.5 190.5t-62.5 272.5q0 258 146 420t362 162zM553 8q122 0 189 132.5t67 359.5q0 153 -27.5 278t-89.5 206
t-149 81q-121 0 -187.5 -132t-66.5 -360q0 -153 27.5 -278t89 -206t147.5 -81z" />
    <glyph glyph-name="oacute" unicode="&#xf3;" horiz-adv-x="1097" 
d="M588 1563h266v-9l-365 -342h-12zM553 1094q146 0 260 -69.5t176 -190t62 -271.5q0 -172 -67.5 -306t-183 -205.5t-257.5 -71.5q-145 0 -259 69t-176.5 190.5t-62.5 272.5q0 258 146 420t362 162zM553 8q122 0 189 132.5t67 359.5q0 153 -27.5 278t-89.5 206t-149 81
q-121 0 -187.5 -132t-66.5 -360q0 -153 27.5 -278t89 -206t147.5 -81z" />
    <glyph glyph-name="ocircumflex" unicode="&#xf4;" horiz-adv-x="1097" 
d="M639 1563l221 -351h-12l-299 215l-299 -215h-12l221 351h180zM553 1094q146 0 260 -69.5t176 -190t62 -271.5q0 -172 -67.5 -306t-183 -205.5t-257.5 -71.5q-145 0 -259 69t-176.5 190.5t-62.5 272.5q0 258 146 420t362 162zM553 8q122 0 189 132.5t67 359.5
q0 153 -27.5 278t-89.5 206t-149 81q-121 0 -187.5 -132t-66.5 -360q0 -153 27.5 -278t89 -206t147.5 -81z" />
    <glyph glyph-name="otilde" unicode="&#xf5;" horiz-adv-x="1097" 
d="M901 1495q-42 -137 -90.5 -198.5t-120.5 -61.5q-49 0 -101.5 29.5t-100.5 58.5t-87 29q-46 0 -89 -32t-72 -89l-13 6q41 137 89 198.5t120 61.5q39 0 80.5 -18t72 -39.5t68 -39.5t68.5 -18q46 0 89.5 31.5t72.5 87.5zM553 1094q146 0 260 -69.5t176 -190t62 -271.5
q0 -172 -67.5 -306t-183 -205.5t-257.5 -71.5q-145 0 -259 69t-176.5 190.5t-62.5 272.5q0 258 146 420t362 162zM553 8q122 0 189 132.5t67 359.5q0 153 -27.5 278t-89.5 206t-149 81q-121 0 -187.5 -132t-66.5 -360q0 -153 27.5 -278t89 -206t147.5 -81z" />
    <glyph glyph-name="odieresis" unicode="&#xf6;" horiz-adv-x="1097" 
d="M360 1243q-54 0 -93.5 39.5t-39.5 93.5t39.5 93.5t93.5 39.5q55 0 94.5 -39.5t39.5 -93.5t-39.5 -93.5t-94.5 -39.5zM735 1243q-54 0 -92.5 39.5t-38.5 93.5t38.5 93.5t92.5 39.5q55 0 95 -39.5t40 -93.5t-40 -93.5t-95 -39.5zM553 1094q146 0 260 -69.5t176 -190
t62 -271.5q0 -172 -67.5 -306t-183 -205.5t-257.5 -71.5q-145 0 -259 69t-176.5 190.5t-62.5 272.5q0 258 146 420t362 162zM553 8q122 0 189 132.5t67 359.5q0 153 -27.5 278t-89.5 206t-149 81q-121 0 -187.5 -132t-66.5 -360q0 -153 27.5 -278t89 -206t147.5 -81z" />
    <glyph glyph-name="divide" unicode="&#xf7;" horiz-adv-x="1155" 
d="M578 989q-29 0 -50.5 21.5t-21.5 50.5q0 30 21 51t51 21q31 0 51 -20.5t20 -51.5q0 -30 -20.5 -51t-50.5 -21zM129 717v45h897v-45h-897zM578 346q-29 0 -50.5 21.5t-21.5 50.5q0 30 21 50.5t51 20.5q31 0 51 -20t20 -51q0 -30 -20.5 -51t-50.5 -21z" />
    <glyph glyph-name="oslash" unicode="&#xf8;" horiz-adv-x="1097" 
d="M289 573q0 -204 47 -344l418 637q-72 199 -211 199q-121 0 -187.5 -132t-66.5 -360zM553 8q122 0 189 132.5t67 359.5q0 191 -41 321l-418 -635q70 -178 203 -178zM543 -20q-156 0 -277 79l-102 -155l-33 16l107 162q-92 71 -142.5 183t-50.5 247q0 258 146 420t362 162
q168 0 291 -90l106 159l33 -16l-111 -166q86 -73 132.5 -181t46.5 -237q0 -172 -67.5 -306t-183 -205.5t-257.5 -71.5z" />
    <glyph glyph-name="ugrave" unicode="&#xf9;" horiz-adv-x="1173" 
d="M309 1563h266l111 -351h-12l-365 342v9zM1010 866v-694q0 -41 8 -58t36.5 -27t96.5 -15v-19l-371 -73h-8l8 192q-70 -82 -162 -137t-190 -55q-133 0 -210 81t-77 244v590q0 57 -24.5 78.5t-112.5 34.5v16l369 68h8l-10 -234v-524q0 -221 190 -221q58 0 117.5 19.5
t101.5 57.5v705q0 58 -23.5 79t-111.5 34v16l365 68h8z" />
    <glyph glyph-name="uacute" unicode="&#xfa;" horiz-adv-x="1173" 
d="M618 1563h267v-9l-365 -342h-12zM1010 866v-694q0 -41 8 -58t36.5 -27t96.5 -15v-19l-371 -73h-8l8 192q-70 -82 -162 -137t-190 -55q-133 0 -210 81t-77 244v590q0 57 -24.5 78.5t-112.5 34.5v16l369 68h8l-10 -234v-524q0 -221 190 -221q58 0 117.5 19.5t101.5 57.5
v705q0 58 -23.5 79t-111.5 34v16l365 68h8z" />
    <glyph glyph-name="ucircumflex" unicode="&#xfb;" horiz-adv-x="1173" 
d="M674 1563l221 -351h-12l-299 215l-299 -215h-13l222 351h180zM1010 866v-694q0 -41 8 -58t36.5 -27t96.5 -15v-19l-371 -73h-8l8 192q-70 -82 -162 -137t-190 -55q-133 0 -210 81t-77 244v590q0 57 -24.5 78.5t-112.5 34.5v16l369 68h8l-10 -234v-524q0 -221 190 -221
q58 0 117.5 19.5t101.5 57.5v705q0 58 -23.5 79t-111.5 34v16l365 68h8z" />
    <glyph glyph-name="udieresis" unicode="&#xfc;" horiz-adv-x="1173" 
d="M393 1243q-54 0 -93.5 39.5t-39.5 93.5t39.5 93.5t93.5 39.5q55 0 94 -39.5t39 -93.5t-39 -93.5t-94 -39.5zM768 1243q-54 0 -92.5 39.5t-38.5 93.5t38.5 93.5t92.5 39.5q55 0 95 -39.5t40 -93.5t-40 -93.5t-95 -39.5zM1010 866v-694q0 -41 8 -58t36.5 -27t96.5 -15v-19
l-371 -73h-8l8 192q-70 -82 -162 -137t-190 -55q-133 0 -210 81t-77 244v590q0 57 -24.5 78.5t-112.5 34.5v16l369 68h8l-10 -234v-524q0 -221 190 -221q58 0 117.5 19.5t101.5 57.5v705q0 58 -23.5 79t-111.5 34v16l365 68h8z" />
    <glyph glyph-name="yacute" unicode="&#xfd;" horiz-adv-x="1099" 
d="M643 1563h266v-9l-364 -342h-13zM555 -16l-426 968q-24 52 -47 71.5t-78 29.5v20h516v-20q-79 -5 -113 -20.5t-34 -49.5q0 -23 12 -57l266 -690l250 684q14 35 14 63q0 35 -40 50t-125 20v20h350v-20q-57 -9 -85 -31.5t-50 -75.5l-439 -1143q-53 -132 -106.5 -192
t-134.5 -60q-51 0 -92.5 29.5t-53.5 75.5v76q85 -23 131 -23q85 0 143.5 39t100.5 137z" />
    <glyph glyph-name="thorn" unicode="&#xfe;" horiz-adv-x="1173" 
d="M580 10q94 0 166.5 66.5t110.5 179t38 252.5q0 203 -78.5 328t-232.5 125q-123 0 -207 -87v-591q0 -131 55 -202t148 -71zM561 -412v-22h-555v22q83 5 112 21.5t29 73.5v1728l-135 78v8l357 107h8v-711q62 88 152 144.5t202 56.5q184 0 289.5 -134.5t105.5 -359.5
q0 -172 -68 -313.5t-192.5 -224t-279.5 -82.5q-58 0 -115 17.5t-94 49.5v-362q0 -56 35.5 -71.5t148.5 -25.5z" />
    <glyph glyph-name="ydieresis" unicode="&#xff;" horiz-adv-x="1099" 
d="M418 1243q-54 0 -93.5 39.5t-39.5 93.5t39.5 93.5t93.5 39.5q55 0 94 -39.5t39 -93.5t-39 -93.5t-94 -39.5zM793 1243q-54 0 -92.5 39.5t-38.5 93.5t38.5 93.5t92.5 39.5q55 0 95 -39.5t40 -93.5t-40 -93.5t-95 -39.5zM555 -16l-426 968q-24 52 -47 71.5t-78 29.5v20h516
v-20q-79 -5 -113 -20.5t-34 -49.5q0 -23 12 -57l266 -690l250 684q14 35 14 63q0 35 -40 50t-125 20v20h350v-20q-57 -9 -85 -31.5t-50 -75.5l-439 -1143q-53 -132 -106.5 -192t-134.5 -60q-51 0 -92.5 29.5t-53.5 75.5v76q85 -23 131 -23q85 0 143.5 39t100.5 137z" />
    <glyph glyph-name="Amacron" unicode="&#x100;" horiz-adv-x="1449" 
d="M387 1577v65h606v-65h-606zM870 602l-247 649l-240 -649h487zM412 23v-23h-422v23q69 7 107.5 26t56.5 72l446 1188l-55 143h252l518 -1352q29 -70 145 -77v-23h-586v23q93 3 133 24t40 64q0 28 -21 82l-143 372h-512l-138 -370q-16 -50 -16 -78q0 -47 46.5 -69
t148.5 -25z" />
    <glyph glyph-name="amacron" unicode="&#x101;" horiz-adv-x="1032" 
d="M229 1280v63h566v-63h-566zM868 770v-565q0 -109 95 -109q41 0 77 19l4 -9q-38 -58 -94 -90t-121 -32q-77 0 -127 48t-61 128q-60 -74 -142.5 -125t-179.5 -51q-115 0 -191.5 70.5t-76.5 183.5q0 110 78 181t219 120l291 102v180q0 111 -41 176.5t-129 65.5
q-77 0 -116.5 -55.5t-39.5 -147.5q0 -72 19 -125l-137 -18q-36 9 -61 43.5t-25 79.5q0 113 115 183.5t276 70.5q184 0 276 -78.5t92 -245.5zM453 102q110 0 186 76v436l-211 -88q-78 -33 -119 -85t-41 -136q0 -91 50.5 -147t134.5 -56z" />
    <glyph glyph-name="Abreve" unicode="&#x102;" horiz-adv-x="1449" 
d="M694 1534q-128 0 -211.5 82t-83.5 229h11q10 -47 40 -81.5t72 -52t84.5 -25t87.5 -7.5q44 0 86 7.5t85 25t73 52t39 81.5h12q0 -147 -84 -229t-211 -82zM870 602l-247 649l-240 -649h487zM412 23v-23h-422v23q69 7 107.5 26t56.5 72l446 1188l-55 143h252l518 -1352
q29 -70 145 -77v-23h-586v23q93 3 133 24t40 64q0 28 -21 82l-143 372h-512l-138 -370q-16 -50 -16 -78q0 -47 46.5 -69t148.5 -25z" />
    <glyph glyph-name="abreve" unicode="&#x103;" horiz-adv-x="1032" 
d="M506 1212q-119 0 -185.5 91t-66.5 260h14q11 -101 77 -151t161 -50q94 0 159 50t76 151h15q0 -169 -66 -260t-184 -91zM868 770v-565q0 -109 95 -109q41 0 77 19l4 -9q-38 -58 -94 -90t-121 -32q-77 0 -127 48t-61 128q-60 -74 -142.5 -125t-179.5 -51
q-115 0 -191.5 70.5t-76.5 183.5q0 110 78 181t219 120l291 102v180q0 111 -41 176.5t-129 65.5q-77 0 -116.5 -55.5t-39.5 -147.5q0 -72 19 -125l-137 -18q-36 9 -61 43.5t-25 79.5q0 113 115 183.5t276 70.5q184 0 276 -78.5t92 -245.5zM453 102q110 0 186 76v436
l-211 -88q-78 -33 -119 -85t-41 -136q0 -91 50.5 -147t134.5 -56z" />
    <glyph glyph-name="Aogonek" unicode="&#x104;" horiz-adv-x="1449" 
d="M803 -432q-78 0 -127 45.5t-49 118.5q0 162 299 280q5 2 20.5 8t20.5 8t18 8t17.5 9t14 9t13.5 11.5t9 12.5t6.5 15.5t1.5 17.5q0 28 -21 82l-143 372h-512l-138 -370q-16 -50 -16 -78q0 -47 46.5 -69t148.5 -25v-23h-422v23q69 7 107.5 26t56.5 72l446 1188l-55 143h252
l518 -1352q29 -70 145 -77v-23h-524q-164 -80 -164 -229q0 -53 29.5 -85t83.5 -32q82 0 168 74l6 -9q-113 -151 -256 -151zM870 602l-247 649l-240 -649h487z" />
    <glyph glyph-name="aogonek" unicode="&#x105;" horiz-adv-x="1032" 
d="M774 -432q-78 0 -127 45.5t-49 118.5q0 136 238 252q-79 2 -131 48.5t-64 127.5q-60 -74 -142.5 -125t-179.5 -51q-115 0 -191.5 70.5t-76.5 183.5q0 110 78 181t219 120l291 102v180q0 111 -41 176.5t-129 65.5q-77 0 -116.5 -55.5t-39.5 -147.5q0 -72 19 -125l-137 -18
q-36 9 -61 43.5t-25 79.5q0 113 115 183.5t276 70.5q184 0 276 -78.5t92 -245.5v-565q0 -109 95 -109q41 0 77 19l4 -9l-1 -1h-1l-1 -1l-1 -1h-1l-1 -1h-1l-1 -1l-2 -1q-151 -97 -201 -143q-89 -85 -90 -186q0 -53 29.5 -85t83.5 -32q82 0 168 74l6 -9q-113 -151 -256 -151z
M453 102q110 0 186 76v436l-211 -88q-78 -33 -119 -85t-41 -136q0 -91 50.5 -147t134.5 -56z" />
    <glyph glyph-name="Cacute" unicode="&#x106;" horiz-adv-x="1308" 
d="M809 1839h266v-6l-360 -299h-8zM791 1430q-113 0 -204 -58t-148 -155.5t-87 -220.5t-30 -259q0 -148 30.5 -278.5t87.5 -231.5t146.5 -160t199.5 -59q156 0 278.5 121t170.5 340h18l-28 -373q-190 -116 -455 -116q-209 0 -370.5 89.5t-249 250.5t-87.5 368
q0 172 57.5 318t156 244t231 153t280.5 55q233 0 416 -119l2 -315h-18q-34 180 -144.5 293t-252.5 113z" />
    <glyph glyph-name="cacute" unicode="&#x107;" horiz-adv-x="927" 
d="M582 1563h266v-9l-365 -342h-12zM514 1061q-77 0 -138 -57t-93.5 -153.5t-32.5 -215.5q0 -229 94.5 -360.5t251.5 -131.5q192 0 297 172l8 -4q-34 -149 -141.5 -240t-261.5 -91q-202 0 -326.5 150t-124.5 378q0 163 67.5 298t185 211.5t259.5 76.5q145 0 233.5 -59.5
t88.5 -162.5q0 -43 -20.5 -80t-51.5 -55h-131q8 54 8 92q0 41 -9 80t-28 74t-54 56.5t-81 21.5z" />
    <glyph glyph-name="Ccircumflex" unicode="&#x108;" horiz-adv-x="1308" 
d="M860 1839l262 -305h-10l-334 166l-334 -166h-10l262 305h164zM791 1430q-113 0 -204 -58t-148 -155.5t-87 -220.5t-30 -259q0 -148 30.5 -278.5t87.5 -231.5t146.5 -160t199.5 -59q156 0 278.5 121t170.5 340h18l-28 -373q-190 -116 -455 -116q-209 0 -370.5 89.5
t-249 250.5t-87.5 368q0 172 57.5 318t156 244t231 153t280.5 55q233 0 416 -119l2 -315h-18q-34 180 -144.5 293t-252.5 113z" />
    <glyph glyph-name="ccircumflex" unicode="&#x109;" horiz-adv-x="927" 
d="M635 1563l221 -351h-12l-299 215l-299 -215h-13l222 351h180zM514 1061q-77 0 -138 -57t-93.5 -153.5t-32.5 -215.5q0 -229 94.5 -360.5t251.5 -131.5q192 0 297 172l8 -4q-34 -149 -141.5 -240t-261.5 -91q-202 0 -326.5 150t-124.5 378q0 163 67.5 298t185 211.5
t259.5 76.5q145 0 233.5 -59.5t88.5 -162.5q0 -43 -20.5 -80t-51.5 -55h-131q8 54 8 92q0 41 -9 80t-28 74t-54 56.5t-81 21.5z" />
    <glyph glyph-name="Cdotaccent" unicode="&#x10a;" horiz-adv-x="1308" 
d="M778 1544q-62 0 -103.5 42.5t-41.5 103.5q0 59 41.5 101t103.5 42q64 0 106 -42t42 -101q0 -61 -42 -103.5t-106 -42.5zM791 1430q-113 0 -204 -58t-148 -155.5t-87 -220.5t-30 -259q0 -148 30.5 -278.5t87.5 -231.5t146.5 -160t199.5 -59q156 0 278.5 121t170.5 340h18
l-28 -373q-190 -116 -455 -116q-209 0 -370.5 89.5t-249 250.5t-87.5 368q0 172 57.5 318t156 244t231 153t280.5 55q233 0 416 -119l2 -315h-18q-34 180 -144.5 293t-252.5 113z" />
    <glyph glyph-name="cdotaccent" unicode="&#x10b;" horiz-adv-x="927" 
d="M545 1239q-62 0 -104 42t-42 101q0 61 42 103.5t104 42.5q64 0 105.5 -42.5t41.5 -103.5q0 -60 -42 -101.5t-105 -41.5zM514 1061q-77 0 -138 -57t-93.5 -153.5t-32.5 -215.5q0 -229 94.5 -360.5t251.5 -131.5q192 0 297 172l8 -4q-34 -149 -141.5 -240t-261.5 -91
q-202 0 -326.5 150t-124.5 378q0 163 67.5 298t185 211.5t259.5 76.5q145 0 233.5 -59.5t88.5 -162.5q0 -43 -20.5 -80t-51.5 -55h-131q8 54 8 92q0 41 -9 80t-28 74t-54 56.5t-81 21.5z" />
    <glyph glyph-name="Ccaron" unicode="&#x10c;" horiz-adv-x="1308" 
d="M1122 1839l-262 -305h-164l-262 305h10l334 -166l334 166h10zM791 1430q-113 0 -204 -58t-148 -155.5t-87 -220.5t-30 -259q0 -148 30.5 -278.5t87.5 -231.5t146.5 -160t199.5 -59q156 0 278.5 121t170.5 340h18l-28 -373q-190 -116 -455 -116q-209 0 -370.5 89.5
t-249 250.5t-87.5 368q0 172 57.5 318t156 244t231 153t280.5 55q233 0 416 -119l2 -315h-18q-34 180 -144.5 293t-252.5 113z" />
    <glyph glyph-name="ccaron" unicode="&#x10d;" horiz-adv-x="927" 
d="M858 1565l-221 -351h-180l-221 351h12l299 -215l299 215h12zM514 1061q-77 0 -138 -57t-93.5 -153.5t-32.5 -215.5q0 -229 94.5 -360.5t251.5 -131.5q192 0 297 172l8 -4q-34 -149 -141.5 -240t-261.5 -91q-202 0 -326.5 150t-124.5 378q0 163 67.5 298t185 211.5
t259.5 76.5q145 0 233.5 -59.5t88.5 -162.5q0 -43 -20.5 -80t-51.5 -55h-131q8 54 8 92q0 41 -9 80t-28 74t-54 56.5t-81 21.5z" />
    <glyph glyph-name="Dcaron" unicode="&#x10e;" horiz-adv-x="1484" 
d="M1030 1839l-262 -305h-164l-262 305h10l334 -166l334 166h10zM55 0v23q112 11 142 35t30 108v1106q0 84 -30 108t-142 35v23h576q158 0 289 -36t222.5 -98.5t154.5 -149.5t92.5 -188t29.5 -214q0 -170 -58 -313t-158.5 -238t-235 -148t-287.5 -53h-625zM596 1401h-127
v-1213q0 -90 39 -120.5t133 -30.5h39q212 0 345.5 179t133.5 503q0 114 -19.5 213.5t-63.5 186.5t-108.5 149t-159.5 97.5t-212 35.5z" />
    <glyph glyph-name="dcaron" unicode="&#x10f;" horiz-adv-x="1181" 
d="M1356 1573l-246 -430h-8l37 438h217v-8zM791 -20h-9l6 198q-134 -198 -337 -198q-180 0 -296 142t-116 359q0 267 153 440t390 173q56 0 113 -17.5t93 -46.5v381l-135 78v8l357 107h8v-1432q0 -41 8 -58t37 -27t98 -15v-19zM582 1063q-144 0 -228 -134t-84 -345
q0 -132 34.5 -235.5t108.5 -168.5t179 -65q117 0 196 82v594q0 131 -55 201.5t-151 70.5z" />
    <glyph glyph-name="Dcroat" unicode="&#x110;" horiz-adv-x="1507" 
d="M700 0h-624v23q112 11 142 35t30 108v559h-148v37h148v510q0 84 -30 108t-142 35v23h575q197 0 350.5 -54.5t248 -150t142.5 -217.5t48 -264q0 -170 -58.5 -313t-158.5 -238t-235 -148t-288 -53zM662 37h38q212 0 346 179t134 503q0 114 -20 213.5t-63.5 186.5
t-108.5 149t-160 97.5t-212 35.5h-127v-639h285v-37h-285v-537q0 -90 39.5 -120.5t133.5 -30.5z" />
    <glyph glyph-name="dcroat" unicode="&#x111;" horiz-adv-x="1183" 
d="M791 -20h-9l6 198q-134 -198 -337 -198q-180 0 -296 142t-116 359q0 267 153 440t390 173q56 0 113 -17.5t93 -46.5v219h-256v35h256v127l-135 78v8l357 107h8v-320h117v-35h-117v-1077q0 -41 8 -58t37 -27t98 -15v-19zM582 1063q-144 0 -228 -134t-84 -345
q0 -132 34.5 -235.5t108.5 -168.5t179 -65q117 0 196 82v594q0 131 -55 201.5t-151 70.5z" />
    <glyph glyph-name="Emacron" unicode="&#x112;" horiz-adv-x="1273" 
d="M373 1577v65h606v-65h-606zM1169 0h-1114v23q112 11 142 35t30 108v1106q0 84 -30 108t-142 35v23h1094l10 -355h-20q-32 98 -66 160t-77.5 97t-91.5 48t-118 13h-317v-639h295q94 0 133 52t51 157h23v-457h-23q-12 106 -51 158.5t-133 52.5h-295v-549q0 -81 44 -110
t149 -29h161q259 0 394 383h20z" />
    <glyph glyph-name="emacron" unicode="&#x113;" horiz-adv-x="972" 
d="M252 1280v63h565v-63h-565zM942 311q-36 -146 -149.5 -238.5t-272.5 -92.5q-213 0 -343 150t-130 378q0 163 65.5 298t177.5 211.5t245 76.5q186 0 289.5 -116t103.5 -296v-16h-676v-33q0 -228 99.5 -359t264.5 -131q206 0 318 172zM508 1061q-103 0 -171.5 -103
t-82.5 -258h463q0 105 -20.5 183.5t-68.5 128t-120 49.5z" />
    <glyph glyph-name="Ebreve" unicode="&#x114;" horiz-adv-x="1273" 
d="M680 1534q-128 0 -211.5 82t-83.5 229h10q10 -47 40 -81.5t72.5 -52t85 -25t87.5 -7.5q44 0 86 7.5t85 25t73 52t39 81.5h12q0 -147 -84 -229t-211 -82zM1169 0h-1114v23q112 11 142 35t30 108v1106q0 84 -30 108t-142 35v23h1094l10 -355h-20q-32 98 -66 160t-77.5 97
t-91.5 48t-118 13h-317v-639h295q94 0 133 52t51 157h23v-457h-23q-12 106 -51 158.5t-133 52.5h-295v-549q0 -81 44 -110t149 -29h161q259 0 394 383h20z" />
    <glyph glyph-name="ebreve" unicode="&#x115;" horiz-adv-x="972" 
d="M545 1212q-119 0 -185.5 91t-66.5 260h14q11 -101 77 -151t161 -50q94 0 159 50t76 151h15q0 -169 -66 -260t-184 -91zM942 311q-36 -146 -149.5 -238.5t-272.5 -92.5q-213 0 -343 150t-130 378q0 163 65.5 298t177.5 211.5t245 76.5q186 0 289.5 -116t103.5 -296v-16
h-676v-33q0 -228 99.5 -359t264.5 -131q206 0 318 172zM508 1061q-103 0 -171.5 -103t-82.5 -258h463q0 105 -20.5 183.5t-68.5 128t-120 49.5z" />
    <glyph glyph-name="Edotaccent" unicode="&#x116;" horiz-adv-x="1273" 
d="M678 1544q-62 0 -104 42.5t-42 103.5q0 59 42 101t104 42q64 0 105.5 -41.5t41.5 -101.5q0 -61 -41.5 -103.5t-105.5 -42.5zM1169 0h-1114v23q112 11 142 35t30 108v1106q0 84 -30 108t-142 35v23h1094l10 -355h-20q-32 98 -66 160t-77.5 97t-91.5 48t-118 13h-317v-639
h295q94 0 133 52t51 157h23v-457h-23q-12 106 -51 158.5t-133 52.5h-295v-549q0 -81 44 -110t149 -29h161q259 0 394 383h20z" />
    <glyph glyph-name="edotaccent" unicode="&#x117;" horiz-adv-x="972" 
d="M530 1239q-62 0 -103.5 42t-41.5 101q0 61 41.5 103.5t103.5 42.5q64 0 106 -42.5t42 -103.5q0 -59 -42 -101t-106 -42zM942 311q-36 -146 -149.5 -238.5t-272.5 -92.5q-213 0 -343 150t-130 378q0 163 65.5 298t177.5 211.5t245 76.5q186 0 289.5 -116t103.5 -296v-16
h-676v-33q0 -228 99.5 -359t264.5 -131q206 0 318 172zM508 1061q-103 0 -171.5 -103t-82.5 -258h463q0 105 -20.5 183.5t-68.5 128t-120 49.5z" />
    <glyph glyph-name="Eogonek" unicode="&#x118;" horiz-adv-x="1273" 
d="M1055 -281q-113 -151 -256 -151q-78 0 -127 45.5t-49 118.5q0 148 276 268h-844v23q112 11 142 35t30 108v1106q0 84 -30 108t-142 35v23h1094l10 -355h-20q-32 98 -66 160t-77.5 97t-91.5 48t-118 13h-317v-639h295q94 0 133 52t51 157h23v-457h-23q-12 106 -51 158.5
t-133 52.5h-295v-549q0 -81 44 -110t149 -29h161q259 0 394 383h20l-68 -420h-237q-85 -45 -124.5 -99.5t-39.5 -129.5q0 -53 29.5 -85t83.5 -32q82 0 168 74z" />
    <glyph glyph-name="eogonek" unicode="&#x119;" horiz-adv-x="972" 
d="M797 -281q-113 -151 -256 -151q-78 0 -126 44.5t-48 115.5q0 148 249 262q-42 -10 -96 -10q-213 0 -343 150t-130 378q0 163 65.5 298t177.5 211.5t245 76.5q186 0 289.5 -116t103.5 -296v-16h-676v-33q0 -228 99.5 -359t264.5 -131q206 0 318 172l8 -4
q-25 -102 -95.5 -183.5t-146.5 -115.5q-97 -47 -143.5 -104t-46.5 -137q0 -53 29.5 -85t83.5 -32q85 0 168 74zM508 1061q-103 0 -171.5 -103t-82.5 -258h463q0 105 -20.5 183.5t-68.5 128t-120 49.5z" />
    <glyph glyph-name="Ecaron" unicode="&#x11a;" horiz-adv-x="1273" 
d="M1024 1839l-262 -305h-164l-262 305h10l334 -166l334 166h10zM1169 0h-1114v23q112 11 142 35t30 108v1106q0 84 -30 108t-142 35v23h1094l10 -355h-20q-32 98 -66 160t-77.5 97t-91.5 48t-118 13h-317v-639h295q94 0 133 52t51 157h23v-457h-23q-12 106 -51 158.5
t-133 52.5h-295v-549q0 -81 44 -110t149 -29h161q259 0 394 383h20z" />
    <glyph glyph-name="ecaron" unicode="&#x11b;" horiz-adv-x="972" 
d="M840 1565l-222 -351h-180l-221 351h12l299 -215l299 215h13zM942 311q-36 -146 -149.5 -238.5t-272.5 -92.5q-213 0 -343 150t-130 378q0 163 65.5 298t177.5 211.5t245 76.5q186 0 289.5 -116t103.5 -296v-16h-676v-33q0 -228 99.5 -359t264.5 -131q206 0 318 172z
M508 1061q-103 0 -171.5 -103t-82.5 -258h463q0 105 -20.5 183.5t-68.5 128t-120 49.5z" />
    <glyph glyph-name="Gcircumflex" unicode="&#x11c;" horiz-adv-x="1443" 
d="M864 1839l262 -305h-10l-334 166l-333 -166h-11l262 305h164zM1028 504q0 36 -4.5 58t-13.5 38t-30.5 24.5t-48.5 13t-75 9.5v25h574v-25q-113 -11 -143 -34.5t-30 -108.5v-379q-101 -68 -225.5 -106.5t-253.5 -38.5q-159 0 -294 55t-226.5 150.5t-143 224.5t-51.5 276
q0 225 98 402t267 273.5t379 96.5q235 0 418 -119v-315h-19q-32 181 -144 293.5t-265 112.5q-151 0 -260.5 -94t-162 -247.5t-52.5 -345.5q0 -117 17.5 -224t55 -199.5t91.5 -161t130.5 -107.5t167.5 -39q156 0 244 76v416z" />
    <glyph glyph-name="gcircumflex" unicode="&#x11d;" horiz-adv-x="1034" 
d="M586 1563l221 -351h-12l-299 215l-299 -215h-13l222 351h180zM496 420q90 0 136 83.5t46 219.5q0 149 -52 246.5t-149 97.5q-90 0 -136 -83t-46 -216q0 -152 52 -250t149 -98zM1038 -37q0 -124 -79 -220.5t-212 -148t-294 -51.5q-126 0 -228.5 28t-165.5 85.5t-63 134.5
q0 138 215 213q-63 23 -103 72t-40 114q0 138 196 252q-86 40 -138 113.5t-52 173.5q0 159 118.5 262t296.5 103q102 0 187 -39l313 26v-106h-14l-211 33q137 -99 137 -250q0 -157 -120 -261t-296 -104q-113 0 -202 41q-78 -78 -78 -147q0 -76 92 -76h405q336 0 336 -248z
M672 2h-445q-63 -52 -63 -166q0 -122 85.5 -194t231.5 -72q105 0 190.5 28.5t141 91.5t55.5 150q0 162 -196 162z" />
    <glyph glyph-name="Gbreve" unicode="&#x11e;" horiz-adv-x="1443" 
d="M782 1534q-128 0 -211.5 82t-83.5 229h11q10 -47 40 -81.5t72 -52t84.5 -25t87.5 -7.5q44 0 86 7.5t85 25t73 52t39 81.5h12q0 -147 -84 -229t-211 -82zM1028 504q0 36 -4.5 58t-13.5 38t-30.5 24.5t-48.5 13t-75 9.5v25h574v-25q-113 -11 -143 -34.5t-30 -108.5v-379
q-101 -68 -225.5 -106.5t-253.5 -38.5q-159 0 -294 55t-226.5 150.5t-143 224.5t-51.5 276q0 225 98 402t267 273.5t379 96.5q235 0 418 -119v-315h-19q-32 181 -144 293.5t-265 112.5q-151 0 -260.5 -94t-162 -247.5t-52.5 -345.5q0 -117 17.5 -224t55 -199.5t91.5 -161
t130.5 -107.5t167.5 -39q156 0 244 76v416z" />
    <glyph glyph-name="gbreve" unicode="&#x11f;" horiz-adv-x="1034" 
d="M496 1212q-119 0 -185.5 91t-66.5 260h14q11 -101 77 -151t161 -50q94 0 159 50t76 151h14q0 -169 -65.5 -260t-183.5 -91zM496 420q90 0 136 83.5t46 219.5q0 149 -52 246.5t-149 97.5q-90 0 -136 -83t-46 -216q0 -152 52 -250t149 -98zM1038 -37q0 -124 -79 -220.5
t-212 -148t-294 -51.5q-126 0 -228.5 28t-165.5 85.5t-63 134.5q0 138 215 213q-63 23 -103 72t-40 114q0 138 196 252q-86 40 -138 113.5t-52 173.5q0 159 118.5 262t296.5 103q102 0 187 -39l313 26v-106h-14l-211 33q137 -99 137 -250q0 -157 -120 -261t-296 -104
q-113 0 -202 41q-78 -78 -78 -147q0 -76 92 -76h405q336 0 336 -248zM672 2h-445q-63 -52 -63 -166q0 -122 85.5 -194t231.5 -72q105 0 190.5 28.5t141 91.5t55.5 150q0 162 -196 162z" />
    <glyph glyph-name="Gdotaccent" unicode="&#x120;" horiz-adv-x="1443" 
d="M780 1544q-62 0 -103.5 42.5t-41.5 103.5q0 59 41.5 101t103.5 42q64 0 106 -42t42 -101q0 -61 -42 -103.5t-106 -42.5zM1028 504q0 36 -4.5 58t-13.5 38t-30.5 24.5t-48.5 13t-75 9.5v25h574v-25q-113 -11 -143 -34.5t-30 -108.5v-379q-101 -68 -225.5 -106.5
t-253.5 -38.5q-159 0 -294 55t-226.5 150.5t-143 224.5t-51.5 276q0 225 98 402t267 273.5t379 96.5q235 0 418 -119v-315h-19q-32 181 -144 293.5t-265 112.5q-151 0 -260.5 -94t-162 -247.5t-52.5 -345.5q0 -117 17.5 -224t55 -199.5t91.5 -161t130.5 -107.5t167.5 -39
q156 0 244 76v416z" />
    <glyph glyph-name="gdotaccent" unicode="&#x121;" horiz-adv-x="1034" 
d="M492 1239q-62 0 -104 42t-42 101q0 61 42 103.5t104 42.5q64 0 105.5 -42.5t41.5 -103.5q0 -60 -41.5 -101.5t-105.5 -41.5zM496 420q90 0 136 83.5t46 219.5q0 149 -52 246.5t-149 97.5q-90 0 -136 -83t-46 -216q0 -152 52 -250t149 -98zM1038 -37q0 -124 -79 -220.5
t-212 -148t-294 -51.5q-126 0 -228.5 28t-165.5 85.5t-63 134.5q0 138 215 213q-63 23 -103 72t-40 114q0 138 196 252q-86 40 -138 113.5t-52 173.5q0 159 118.5 262t296.5 103q102 0 187 -39l313 26v-106h-14l-211 33q137 -99 137 -250q0 -157 -120 -261t-296 -104
q-113 0 -202 41q-78 -78 -78 -147q0 -76 92 -76h405q336 0 336 -248zM672 2h-445q-63 -52 -63 -166q0 -122 85.5 -194t231.5 -72q105 0 190.5 28.5t141 91.5t55.5 150q0 162 -196 162z" />
    <glyph glyph-name="uni0122" unicode="&#x122;" horiz-adv-x="1443" 
d="M1028 504q0 36 -4.5 58t-13.5 38t-30.5 24.5t-48.5 13t-75 9.5v25h574v-25q-113 -11 -143 -34.5t-30 -108.5v-379q-101 -68 -225.5 -106.5t-253.5 -38.5q-159 0 -294 55t-226.5 150.5t-143 224.5t-51.5 276q0 225 98 402t267 273.5t379 96.5q235 0 418 -119v-315h-19
q-32 181 -144 293.5t-265 112.5q-151 0 -260.5 -94t-162 -247.5t-52.5 -345.5q0 -117 17.5 -224t55 -199.5t91.5 -161t130.5 -107.5t167.5 -39q156 0 244 76v416zM821 -307h-104q-37 9 -57.5 36.5t-20.5 63.5q0 50 38.5 82.5t94.5 32.5q67 0 108.5 -44t41.5 -114
q0 -88 -72.5 -153.5t-194.5 -65.5v14q73 7 119.5 52.5t46.5 95.5z" />
    <glyph glyph-name="uni0123" unicode="&#x123;" horiz-adv-x="1034" 
d="M440 1452h105q37 -9 57.5 -36.5t20.5 -63.5q0 -50 -39 -82.5t-95 -32.5q-67 0 -108 44t-41 114q0 88 72 153.5t194 65.5v-15q-73 -7 -119.5 -52t-46.5 -95zM496 420q90 0 136 83.5t46 219.5q0 149 -52 246.5t-149 97.5q-90 0 -136 -83t-46 -216q0 -152 52 -250t149 -98z
M1038 -37q0 -124 -79 -220.5t-212 -148t-294 -51.5q-126 0 -228.5 28t-165.5 85.5t-63 134.5q0 138 215 213q-63 23 -103 72t-40 114q0 138 196 252q-86 40 -138 113.5t-52 173.5q0 159 118.5 262t296.5 103q102 0 187 -39l313 26v-106h-14l-211 33q137 -99 137 -250
q0 -157 -120 -261t-296 -104q-113 0 -202 41q-78 -78 -78 -147q0 -76 92 -76h405q336 0 336 -248zM672 2h-445q-63 -52 -63 -166q0 -122 85.5 -194t231.5 -72q105 0 190.5 28.5t141 91.5t55.5 150q0 162 -196 162z" />
    <glyph glyph-name="Hcircumflex" unicode="&#x124;" horiz-adv-x="1609" 
d="M887 1839l262 -305h-10l-334 166l-334 -166h-10l262 305h164zM641 23v-23h-586v23q112 11 142 35t30 108v1106q0 84 -30 108t-142 35v23h586v-23q-112 -11 -142 -35t-30 -108v-510h672v510q0 84 -30 108t-142 35v23h585v-23q-112 -11 -142 -35t-30 -108v-1106
q0 -84 30 -108t142 -35v-23h-585v23q112 11 142 35t30 108v559h-672v-559q0 -84 30 -108t142 -35z" />
    <glyph glyph-name="hcircumflex" unicode="&#x125;" horiz-adv-x="1214" 
d="M680 1948l262 -306h-10l-334 166l-334 -166h-10l262 306h164zM827 117v624q0 112 -43 163.5t-137 51.5q-132 0 -250 -86v-753q0 -56 29 -72.5t113 -21.5v-23h-512v23q83 5 112 21.5t29 72.5v1294l-135 78v8l356 107h8v-717q73 86 170 146.5t207 60.5q140 0 211.5 -84
t71.5 -246v-647q0 -56 29 -72.5t112 -21.5v-23h-512v23q83 5 112 21.5t29 72.5z" />
    <glyph glyph-name="Hbar" unicode="&#x126;" horiz-adv-x="1650" 
d="M1161 762v289h-672v-289h672zM662 23v-23h-586v23q112 11 142 35t30 108v885h-148v36h148v185q0 84 -30 108t-142 35v23h586v-23q-112 -11 -142.5 -35t-30.5 -108v-185h672v185q0 84 -30 108t-142 35v23h586v-23q-112 -11 -142 -35t-30 -108v-185h147v-36h-147v-885
q0 -84 30 -108t142 -35v-23h-586v23q112 11 142 35t30 108v559h-672v-559q0 -84 30.5 -108t142.5 -35z" />
    <glyph glyph-name="hbar" unicode="&#x127;" horiz-adv-x="1218" 
d="M539 23v-23h-512v23q83 5 112 21.5t29 72.5v1132h-115v35h115v127l-135 78v8l356 107h8v-320h258v-35h-258v-362q73 86 170 146.5t207 60.5q140 0 211.5 -84t71.5 -246v-647q0 -56 29 -72.5t112 -21.5v-23h-512v23q83 5 112 21.5t29 72.5v624q0 112 -43 163.5t-137 51.5
q-132 0 -250 -86v-753q0 -56 29 -72.5t113 -21.5z" />
    <glyph glyph-name="Itilde" unicode="&#x128;" horiz-adv-x="696" 
d="M678 1802q-38 -141 -83.5 -206.5t-113.5 -65.5q-35 0 -72 18.5t-63 41t-60 41t-63 18.5q-41 0 -80.5 -32.5t-68.5 -90.5l-11 8q38 141 83 205.5t112 64.5q35 0 72 -18.5t63 -40.5t60 -40.5t63 -18.5q42 0 82 32.5t68 89.5zM469 1272v-1106q0 -84 30 -108t142 -35v-23
h-586v23q112 11 142 35t30 108v1106q0 84 -30 108t-142 35v23h586v-23q-112 -11 -142 -35t-30 -108z" />
    <glyph glyph-name="itilde" unicode="&#x129;" horiz-adv-x="567" 
d="M645 1495q-42 -137 -90.5 -198.5t-120.5 -61.5q-49 0 -101.5 29.5t-100.5 58.5t-87 29q-46 0 -89 -32t-72 -89l-13 6q41 137 89 198.5t120 61.5q39 0 80.5 -18t72 -39.5t68 -39.5t68.5 -18q46 0 89.5 31.5t72.5 87.5zM403 1094v-977q0 -56 30 -72.5t114 -21.5v-23h-514
v23q83 5 112 21.5t29 72.5v784l-135 78v8l356 107h8z" />
    <glyph glyph-name="Imacron" unicode="&#x12a;" horiz-adv-x="696" 
d="M43 1577v65h606v-65h-606zM469 1272v-1106q0 -84 30 -108t142 -35v-23h-586v23q112 11 142 35t30 108v1106q0 84 -30 108t-142 35v23h586v-23q-112 -11 -142 -35t-30 -108z" />
    <glyph glyph-name="imacron" unicode="&#x12b;" horiz-adv-x="567" 
d="M49 1282v61h486v-61h-486zM403 1094v-977q0 -56 30 -72.5t114 -21.5v-23h-514v23q83 5 112 21.5t29 72.5v784l-135 78v8l356 107h8z" />
    <glyph glyph-name="Ibreve" unicode="&#x12c;" horiz-adv-x="696" 
d="M354 1532q-119 0 -196.5 82.5t-77.5 230.5h10q9 -48 37 -83t67.5 -52.5t78.5 -25t81 -7.5q41 0 80 7.5t78.5 25t67.5 52.5t36 83h13q0 -148 -78.5 -230.5t-196.5 -82.5zM469 1272v-1106q0 -84 30 -108t142 -35v-23h-586v23q112 11 142 35t30 108v1106q0 84 -30 108
t-142 35v23h586v-23q-112 -11 -142 -35t-30 -108z" />
    <glyph glyph-name="ibreve" unicode="&#x12d;" horiz-adv-x="567" 
d="M295 1212q-110 0 -172 91t-62 260h13q11 -101 71.5 -151t149.5 -50q88 0 148.5 50.5t70.5 150.5h14q0 -169 -61.5 -260t-171.5 -91zM403 1094v-977q0 -56 30 -72.5t114 -21.5v-23h-514v23q83 5 112 21.5t29 72.5v784l-135 78v8l356 107h8z" />
    <glyph glyph-name="Iogonek" unicode="&#x12e;" horiz-adv-x="696" 
d="M565 -281q-113 -151 -256 -151q-78 0 -127 45.5t-49 118.5q0 148 277 268h-355v23q112 11 142 35t30 108v1106q0 84 -30 108t-142 35v23h586v-23q-112 -11 -142 -35t-30 -108v-1106q0 -84 30 -108t142 -35v-23h-199q-84 -45 -123.5 -99t-39.5 -130q0 -53 29 -85t83 -32
q85 0 168 74z" />
    <glyph glyph-name="iogonek" unicode="&#x12f;" horiz-adv-x="567" 
d="M283 1239q-62 0 -104 42t-42 101q0 61 42 103.5t104 42.5q64 0 105.5 -42.5t41.5 -103.5q0 -60 -42 -101.5t-105 -41.5zM496 -281q-113 -151 -256 -151q-78 0 -127.5 45.5t-49.5 118.5q0 148 277 268h-307v23q83 5 112 21.5t29 72.5v784l-135 78v8l356 107h8v-977
q0 -56 30 -72.5t114 -21.5v-23h-176q-82 -45 -122 -100.5t-40 -128.5q0 -53 29.5 -85t83.5 -32q84 0 167 74z" />
    <glyph glyph-name="Idotaccent" unicode="&#x130;" horiz-adv-x="696" 
d="M348 1544q-62 0 -103.5 42.5t-41.5 103.5q0 59 41.5 101t103.5 42q64 0 106 -42t42 -101q0 -61 -42 -103.5t-106 -42.5zM469 1272v-1106q0 -84 30 -108t142 -35v-23h-586v23q112 11 142 35t30 108v1106q0 84 -30 108t-142 35v23h586v-23q-112 -11 -142 -35t-30 -108z" />
    <glyph glyph-name="dotlessi" unicode="&#x131;" horiz-adv-x="567" 
d="M403 1094v-977q0 -56 30 -72.5t114 -21.5v-23h-514v23q83 5 112 21.5t29 72.5v784l-135 78v8l356 107h8z" />
    <glyph glyph-name="IJ" unicode="&#x132;" horiz-adv-x="1720" 
d="M469 1272v-1106q0 -84 30 -108t142 -35v-23h-586v23q112 11 142 35t30 108v1106q0 84 -30 108t-142 35v23h586v-23q-112 -11 -142 -35t-30 -108zM1272 1272q0 84 -30 108t-142 35v23h586v-23q-112 -11 -142.5 -35t-30.5 -108v-850q0 -220 -115.5 -331t-324.5 -111
q-173 0 -284 69.5t-111 196.5q0 42 20.5 82t49.5 63h165q-16 -59 -16 -127q0 -126 50 -192t138 -66q187 0 187 334v932z" />
    <glyph glyph-name="ij" unicode="&#x133;" horiz-adv-x="1081" 
d="M821 1239q-62 0 -103.5 42t-41.5 101q0 61 41.5 103.5t103.5 42.5q64 0 106 -42.5t42 -103.5q0 -59 -42 -101t-106 -42zM283 1239q-62 0 -104 42t-42 101q0 61 42 103.5t104 42.5q64 0 105.5 -42.5t41.5 -103.5q0 -60 -42 -101.5t-105 -41.5zM715 901l-135 78v8l354 107
h8v-975q0 -107 -27.5 -194.5t-81.5 -156.5t-116 -120t-150 -105l-6 8q94 119 124 240.5t30 294.5v815zM403 1094v-977q0 -56 30 -72.5t114 -21.5v-23h-514v23q83 5 112 21.5t29 72.5v784l-135 78v8l356 107h8z" />
    <glyph glyph-name="Jcircumflex" unicode="&#x134;" horiz-adv-x="1026" 
d="M780 1839l262 -305h-10l-334 166l-333 -166h-11l262 305h164zM578 1272q0 84 -30 108t-142 35v23h585v-23q-112 -11 -142 -35t-30 -108v-850q0 -220 -115.5 -331t-324.5 -111q-173 0 -284 69.5t-111 196.5q0 42 20 82t49 63h166q-16 -59 -16 -127q0 -126 50 -192t138 -66
q187 0 187 334v932z" />
    <glyph glyph-name="jcircumflex" unicode="&#x135;" horiz-adv-x="518" 
d="M340 1563l201 -353h-13l-270 217l-270 -217h-11l199 353h164zM152 901l-136 78v8l355 107h8v-975q0 -107 -27.5 -194.5t-81.5 -156.5t-116 -120t-150 -105l-6 8q94 119 124 240.5t30 294.5v815z" />
    <glyph glyph-name="uni0136" unicode="&#x136;" horiz-adv-x="1413" 
d="M807 307l-311 428l526 545q47 51 47 80q0 28 -37 37.5t-153 17.5v23h458v-23q-70 -3 -119.5 -27.5t-103.5 -78.5l-434 -441l459 -622q77 -105 148.5 -162.5t150.5 -60.5v-23h-383q-32 25 -75.5 76.5t-75.5 95.5t-97 135zM469 1272v-1106q0 -84 30 -108t142 -35v-23h-586
v23q112 11 142 35t30 108v1106q0 84 -30 108t-142 35v23h586v-23q-112 -11 -142 -35t-30 -108zM770 -307h-104q-37 9 -57.5 36.5t-20.5 63.5q0 50 38.5 82.5t94.5 32.5q67 0 108 -44t41 -114q0 -88 -72 -153.5t-194 -65.5v14q73 7 119.5 52.5t46.5 95.5z" />
    <glyph glyph-name="uni0137" unicode="&#x137;" horiz-adv-x="1132" 
d="M399 1604v-1487q0 -56 29 -72.5t113 -21.5v-23h-512v23q83 5 112 21.5t29 72.5v1294l-135 78v8l356 107h8zM424 573l344 330q3 3 10 10.5t10 10.5t8.5 9.5t8 10t6.5 9t6 9.5t4 9t3 10t1 10q0 29 -38.5 42t-116.5 20v20h430v-20q-129 -14 -240 -117l-256 -242l547 -686v-8
h-272zM651 -307h-104q-37 9 -57.5 36.5t-20.5 63.5q0 50 38.5 82.5t94.5 32.5q67 0 108.5 -44t41.5 -114q0 -88 -72.5 -153.5t-194.5 -65.5v14q73 7 119.5 52.5t46.5 95.5z" />
    <glyph glyph-name="kgreenlandic" unicode="&#x138;" horiz-adv-x="1134" 
d="M403 1094v-977q0 -56 30 -72.5t114 -21.5v-23h-514v23q83 5 112 21.5t29 72.5v784l-135 78v8l356 107h8zM424 573l346 330q3 3 10 10.5t10 10.5t8.5 9.5t8 10t6.5 9t6 9.5t4 9t3 10t1 10q0 29 -38.5 42t-116.5 20v20h430v-20q-129 -14 -240 -117l-258 -242l549 -686v-8
h-272z" />
    <glyph glyph-name="Lacute" unicode="&#x139;" horiz-adv-x="1216" 
d="M444 1839h267v-6l-361 -299h-8zM1118 0h-1063v23q112 11 142 35t30 108v1106q0 84 -30 108t-142 35v23h586v-23q-112 -11 -142 -35t-30 -108v-1096q0 -81 44 -110t149 -29h108q124 0 223.5 90.5t173.5 300.5h21z" />
    <glyph glyph-name="lacute" unicode="&#x13a;" horiz-adv-x="563" 
d="M319 1935h267v-6l-361 -299h-8zM399 1604v-1487q0 -56 29 -72.5t113 -21.5v-23h-512v23q83 5 112 21.5t29 72.5v1294l-135 78v8l356 107h8z" />
    <glyph glyph-name="uni013B" unicode="&#x13b;" horiz-adv-x="1216" 
d="M1118 0h-1063v23q112 11 142 35t30 108v1106q0 84 -30 108t-142 35v23h586v-23q-112 -11 -142 -35t-30 -108v-1096q0 -81 44 -110t149 -29h108q124 0 223.5 90.5t173.5 300.5h21zM662 -307h-105q-37 9 -57.5 36.5t-20.5 63.5q0 50 38.5 82.5t94.5 32.5q67 0 108.5 -44
t41.5 -114q0 -88 -72 -153.5t-194 -65.5v14q73 7 119.5 52.5t46.5 95.5z" />
    <glyph glyph-name="uni013C" unicode="&#x13c;" horiz-adv-x="563" 
d="M399 1604v-1487q0 -56 29 -72.5t113 -21.5v-23h-512v23q83 5 112 21.5t29 72.5v1294l-135 78v8l356 107h8zM324 -307h-105q-37 9 -57.5 36.5t-20.5 63.5q0 50 38.5 82.5t94.5 32.5q67 0 108.5 -44t41.5 -114q0 -88 -72 -153.5t-194 -65.5v14q73 7 119.5 52.5t46.5 95.5z
" />
    <glyph glyph-name="Lcaron" unicode="&#x13d;" horiz-adv-x="1216" 
d="M1118 0h-1063v23q112 11 142 35t30 108v1106q0 84 -30 108t-142 35v23h586v-23q-112 -11 -142 -35t-30 -108v-1096q0 -81 44 -110t149 -29h108q124 0 223.5 90.5t173.5 300.5h21zM1051 1427l-246 -430h-8l37 439h217v-9z" />
    <glyph glyph-name="lcaron" unicode="&#x13e;" horiz-adv-x="563" 
d="M399 1604v-1487q0 -56 29 -72.5t113 -21.5v-23h-512v23q83 5 112 21.5t29 72.5v1294l-135 78v8l356 107h8zM735 1571l-246 -430h-8l37 438h217v-8z" />
    <glyph glyph-name="Ldot" unicode="&#x13f;" horiz-adv-x="1220" 
d="M1118 0h-1063v23q112 11 142 35t30 108v1106q0 84 -30 108t-142 35v23h586v-23q-112 -11 -142 -35t-30 -108v-1096q0 -81 44 -110t149 -29h108q124 0 223.5 90.5t173.5 300.5h21zM846 801q0 66 44.5 110.5t110.5 44.5q64 0 110 -45t46 -110q0 -64 -46.5 -110t-109.5 -46
q-66 0 -110.5 45.5t-44.5 110.5z" />
    <glyph glyph-name="ldot" unicode="&#x140;" horiz-adv-x="790" 
d="M399 1604v-1487q0 -56 29 -72.5t113 -21.5v-23h-512v23q83 5 112 21.5t29 72.5v1294l-135 78v8l356 107h8zM522 766q0 63 43.5 106t106.5 43q60 0 103.5 -43.5t43.5 -105.5q0 -61 -43.5 -104.5t-103.5 -43.5q-63 0 -106.5 43t-43.5 105z" />
    <glyph glyph-name="Lslash" unicode="&#x141;" horiz-adv-x="1236" 
d="M1139 0h-1063v23q112 11 142 35t30 108v465l-148 -64v45l148 64v596q0 84 -30 108t-142 35v23h586v-23q-112 -11 -142.5 -35t-30.5 -108v-508l312 133v-45l-312 -133v-543q0 -81 44 -110t149 -29h109q124 0 223.5 90.5t173.5 300.5h20z" />
    <glyph glyph-name="lslash" unicode="&#x142;" horiz-adv-x="593" 
d="M551 0h-512v23q83 5 112 21.5t29 72.5v702l-155 -88v43l155 88v549l-135 78v8l356 107h9v-631l165 94v-43l-165 -94v-813q0 -56 29 -72.5t112 -21.5v-23z" />
    <glyph glyph-name="Nacute" unicode="&#x143;" horiz-adv-x="1517" 
d="M809 1839h266v-6l-360 -299h-8zM1309 -20h-33l-995 1243v-1053q0 -87 47.5 -113t197.5 -34v-23h-487v23q62 5 95 11.5t59 22t34.5 42t8.5 71.5v1108q-58 68 -105 101t-100 36v23h395l838 -1076v906q0 87 -46.5 113t-197.5 34v23h485v-23q-62 -5 -95 -11.5t-58.5 -22
t-34 -42t-8.5 -71.5v-1288z" />
    <glyph glyph-name="nacute" unicode="&#x144;" horiz-adv-x="1220" 
d="M659 1563h267v-9l-365 -342h-12zM834 117v624q0 112 -43.5 163.5t-137.5 51.5q-132 0 -250 -86v-753q0 -56 30 -72.5t114 -21.5v-23h-514v23q83 5 112 21.5t29 72.5v784l-135 78v8l364 107h9l-9 -207q73 86 170 146.5t207 60.5q283 0 283 -330v-647q0 -56 29 -72.5
t112 -21.5v-23h-512v23q84 5 113 21.5t29 72.5z" />
    <glyph glyph-name="uni0145" unicode="&#x145;" horiz-adv-x="1517" 
d="M1309 -20h-33l-995 1243v-1053q0 -87 47.5 -113t197.5 -34v-23h-487v23q62 5 95 11.5t59 22t34.5 42t8.5 71.5v1108q-58 68 -105 101t-100 36v23h395l838 -1076v906q0 87 -46.5 113t-197.5 34v23h485v-23q-62 -5 -95 -11.5t-58.5 -22t-34 -42t-8.5 -71.5v-1288zM836 -307
h-105q-37 9 -57.5 36.5t-20.5 63.5q0 50 38.5 82.5t94.5 32.5q67 0 108.5 -44t41.5 -114q0 -88 -72 -153.5t-194 -65.5v14q73 7 119.5 52.5t46.5 95.5z" />
    <glyph glyph-name="uni0146" unicode="&#x146;" horiz-adv-x="1220" 
d="M834 117v624q0 112 -43.5 163.5t-137.5 51.5q-132 0 -250 -86v-753q0 -56 30 -72.5t114 -21.5v-23h-514v23q83 5 112 21.5t29 72.5v784l-135 78v8l364 107h9l-9 -207q73 86 170 146.5t207 60.5q283 0 283 -330v-647q0 -56 29 -72.5t112 -21.5v-23h-512v23q84 5 113 21.5
t29 72.5zM668 -307h-105q-37 9 -57.5 36.5t-20.5 63.5q0 50 38.5 82.5t94.5 32.5q67 0 108.5 -44t41.5 -114q0 -88 -72 -153.5t-194 -65.5v14q73 7 119.5 52.5t46.5 95.5z" />
    <glyph glyph-name="Ncaron" unicode="&#x147;" horiz-adv-x="1517" 
d="M1141 1839l-262 -305h-164l-262 305h10l334 -166l333 166h11zM1309 -20h-33l-995 1243v-1053q0 -87 47.5 -113t197.5 -34v-23h-487v23q62 5 95 11.5t59 22t34.5 42t8.5 71.5v1108q-58 68 -105 101t-100 36v23h395l838 -1076v906q0 87 -46.5 113t-197.5 34v23h485v-23
q-62 -5 -95 -11.5t-58.5 -22t-34 -42t-8.5 -71.5v-1288z" />
    <glyph glyph-name="ncaron" unicode="&#x148;" horiz-adv-x="1220" 
d="M936 1565l-221 -351h-180l-222 351h13l299 -215l299 215h12zM834 117v624q0 112 -43.5 163.5t-137.5 51.5q-132 0 -250 -86v-753q0 -56 30 -72.5t114 -21.5v-23h-514v23q83 5 112 21.5t29 72.5v784l-135 78v8l364 107h9l-9 -207q73 86 170 146.5t207 60.5q283 0 283 -330
v-647q0 -56 29 -72.5t112 -21.5v-23h-512v23q84 5 113 21.5t29 72.5z" />
    <glyph glyph-name="Eng" unicode="&#x14a;" horiz-adv-x="1517" 
d="M969 -457l-8 6q231 198 231 537l-911 1131v-1047q0 -87 47.5 -113t197.5 -34v-23h-487v23q62 5 95 11.5t59 22t34.5 42t8.5 71.5v1106q-61 70 -107 103t-98 36v23h395l838 -1076v906q0 87 -46.5 113t-197.5 34v23h485v-23q-62 -5 -95 -11.5t-58.5 -22t-34 -42t-8.5 -71.5
v-1151q0 -138 -42 -244.5t-113 -181t-185 -148.5z" />
    <glyph glyph-name="eng" unicode="&#x14b;" horiz-adv-x="1202" 
d="M1063 119q0 -107 -27.5 -194.5t-81.5 -156.5t-116 -120t-150 -105l-6 8q94 118 123 239t29 296v655q0 112 -43.5 163.5t-137.5 51.5q-132 0 -250 -86v-753q0 -56 30 -72.5t114 -21.5v-23h-514v23q83 5 112 21.5t29 72.5v784l-135 78v8l364 107h9l-9 -207q73 86 170 146.5
t207 60.5q283 0 283 -330v-645z" />
    <glyph glyph-name="Omacron" unicode="&#x14c;" horiz-adv-x="1445" 
d="M420 1577v65h606v-65h-606zM731 1458q151 0 276 -58.5t205.5 -157t124 -226t43.5 -268.5q0 -165 -52 -309t-141.5 -244t-212.5 -157.5t-261 -57.5q-151 0 -276 58.5t-205.5 157t-124.5 226t-44 268.5q0 220 89 396.5t241.5 274t337.5 97.5zM713 1430q-95 0 -170 -57
t-122.5 -154.5t-72 -223.5t-24.5 -270q0 -136 24.5 -261t72 -228.5t128 -165.5t182.5 -62q95 0 170 57t122.5 154.5t72 223.5t24.5 270q0 136 -24.5 261t-72 228.5t-128 165.5t-182.5 62z" />
    <glyph glyph-name="omacron" unicode="&#x14d;" horiz-adv-x="1097" 
d="M276 1280v63h566v-63h-566zM553 1094q146 0 260 -69.5t176 -190t62 -271.5q0 -172 -67.5 -306t-183 -205.5t-257.5 -71.5q-145 0 -259 69t-176.5 190.5t-62.5 272.5q0 258 146 420t362 162zM553 8q122 0 189 132.5t67 359.5q0 153 -27.5 278t-89.5 206t-149 81
q-121 0 -187.5 -132t-66.5 -360q0 -153 27.5 -278t89 -206t147.5 -81z" />
    <glyph glyph-name="Obreve" unicode="&#x14e;" horiz-adv-x="1445" 
d="M727 1534q-128 0 -211.5 82t-83.5 229h10q10 -47 40 -81.5t72.5 -52t85 -25t87.5 -7.5q44 0 86 7.5t85 25t73 52t39 81.5h12q0 -147 -84 -229t-211 -82zM731 1458q151 0 276 -58.5t205.5 -157t124 -226t43.5 -268.5q0 -165 -52 -309t-141.5 -244t-212.5 -157.5
t-261 -57.5q-151 0 -276 58.5t-205.5 157t-124.5 226t-44 268.5q0 220 89 396.5t241.5 274t337.5 97.5zM713 1430q-95 0 -170 -57t-122.5 -154.5t-72 -223.5t-24.5 -270q0 -136 24.5 -261t72 -228.5t128 -165.5t182.5 -62q95 0 170 57t122.5 154.5t72 223.5t24.5 270
q0 136 -24.5 261t-72 228.5t-128 165.5t-182.5 62z" />
    <glyph glyph-name="obreve" unicode="&#x14f;" horiz-adv-x="1097" 
d="M549 1212q-119 0 -185.5 91t-66.5 260h14q11 -101 77 -151t161 -50q94 0 159 50t76 151h15q0 -169 -66 -260t-184 -91zM553 1094q146 0 260 -69.5t176 -190t62 -271.5q0 -172 -67.5 -306t-183 -205.5t-257.5 -71.5q-145 0 -259 69t-176.5 190.5t-62.5 272.5
q0 258 146 420t362 162zM553 8q122 0 189 132.5t67 359.5q0 153 -27.5 278t-89.5 206t-149 81q-121 0 -187.5 -132t-66.5 -360q0 -153 27.5 -278t89 -206t147.5 -81z" />
    <glyph glyph-name="Ohungarumlaut" unicode="&#x150;" horiz-adv-x="1445" 
d="M649 1839h223v-8l-329 -297h-13zM958 1839h226v-8l-330 -297h-12zM731 1458q151 0 276 -58.5t205.5 -157t124 -226t43.5 -268.5q0 -165 -52 -309t-141.5 -244t-212.5 -157.5t-261 -57.5q-151 0 -276 58.5t-205.5 157t-124.5 226t-44 268.5q0 220 89 396.5t241.5 274
t337.5 97.5zM713 1430q-95 0 -170 -57t-122.5 -154.5t-72 -223.5t-24.5 -270q0 -136 24.5 -261t72 -228.5t128 -165.5t182.5 -62q95 0 170 57t122.5 154.5t72 223.5t24.5 270q0 136 -24.5 261t-72 228.5t-128 165.5t-182.5 62z" />
    <glyph glyph-name="ohungarumlaut" unicode="&#x151;" horiz-adv-x="1097" 
d="M461 1563h223v-9l-326 -342h-16zM770 1563h225v-9l-325 -342h-17zM553 1094q146 0 260 -69.5t176 -190t62 -271.5q0 -172 -67.5 -306t-183 -205.5t-257.5 -71.5q-145 0 -259 69t-176.5 190.5t-62.5 272.5q0 258 146 420t362 162zM553 8q122 0 189 132.5t67 359.5
q0 153 -27.5 278t-89.5 206t-149 81q-121 0 -187.5 -132t-66.5 -360q0 -153 27.5 -278t89 -206t147.5 -81z" />
    <glyph glyph-name="OE" unicode="&#x152;" horiz-adv-x="2060" 
d="M887 37h127v1212q0 90 -39 121t-133 31h-39q-212 0 -345.5 -179t-133.5 -503q0 -114 19.5 -213.5t63.5 -186.5t108.5 -149t159.5 -97.5t212 -35.5zM852 0q-197 0 -350.5 54.5t-248 150t-142.5 217.5t-48 264q0 170 58.5 313t158.5 238t235 148t288 53h1132l11 -355h-21
q-31 98 -65 160t-77 97t-91 48t-117 13h-320v-639h297q93 0 132 52.5t51 156.5h22v-457h-22q-12 106 -51 158.5t-132 52.5h-297v-549q0 -81 44 -110t149 -29h162q258 0 393 383h22l-67 -420h-1106z" />
    <glyph glyph-name="oe" unicode="&#x153;" horiz-adv-x="1742" 
d="M1710 311q-36 -146 -149 -238.5t-271 -92.5q-117 0 -210 54t-158 148q-71 -94 -169.5 -148t-209.5 -54q-145 0 -259 69t-176.5 190.5t-62.5 272.5q0 258 146 420t362 162q120 0 220.5 -57t168.5 -152q68 96 162.5 152.5t198.5 56.5q187 0 291 -116t104 -296v-16h-678v-33
q0 -227 100 -358.5t264 -131.5q210 0 318 172zM553 8q122 0 189 132.5t67 359.5q0 153 -27.5 278t-89.5 206t-149 81q-121 0 -187.5 -132t-66.5 -360q0 -153 27.5 -278t89 -206t147.5 -81zM1278 1061q-104 0 -173 -103.5t-83 -257.5h463q0 105 -20.5 183.5t-68 128
t-118.5 49.5z" />
    <glyph glyph-name="Racute" unicode="&#x154;" horiz-adv-x="1417" 
d="M688 1839h266v-6l-360 -299h-8zM578 1401h-109v-696h117q168 0 254 92.5t86 263.5q0 150 -89 245t-259 95zM55 1438h586q255 0 396 -102.5t141 -272.5q0 -64 -23 -119.5t-59 -94.5t-84.5 -70.5t-96 -49.5t-96.5 -29l334 -467q146 -205 291 -210v-23h-385q-87 68 -240 307
l-233 359h-117v-500q0 -84 30 -108t142 -35v-23h-586v23q112 11 142 35t30 108v1106q0 84 -30 108t-142 35v23z" />
    <glyph glyph-name="racute" unicode="&#x155;" horiz-adv-x="786" 
d="M514 1563h266v-9l-364 -342h-13zM403 780q69 162 131.5 238t149.5 76q55 0 82 -27v-193h-33q-112 0 -191 -22.5t-139 -89.5v-643q0 -20 3.5 -34t16 -24t22.5 -15.5t37.5 -10t45.5 -6.5t62 -6v-23h-557v23q83 5 112 21.5t29 72.5v784l-135 78v8l364 107h9z" />
    <glyph glyph-name="uni0156" unicode="&#x156;" horiz-adv-x="1417" 
d="M578 1401h-109v-696h117q168 0 254 92.5t86 263.5q0 150 -89 245t-259 95zM55 1438h586q255 0 396 -102.5t141 -272.5q0 -64 -23 -119.5t-59 -94.5t-84.5 -70.5t-96 -49.5t-96.5 -29l334 -467q146 -205 291 -210v-23h-385q-87 68 -240 307l-233 359h-117v-500
q0 -84 30 -108t142 -35v-23h-586v23q112 11 142 35t30 108v1106q0 84 -30 108t-142 35v23zM788 -307h-104q-37 9 -57.5 36.5t-20.5 63.5q0 50 38.5 82.5t94.5 32.5q67 0 108.5 -44t41.5 -114q0 -88 -72 -153.5t-194 -65.5v14q73 7 119 52t46 96z" />
    <glyph glyph-name="uni0157" unicode="&#x157;" horiz-adv-x="786" 
d="M403 780q69 162 131.5 238t149.5 76q55 0 82 -27v-193h-33q-112 0 -191 -22.5t-139 -89.5v-643q0 -20 3.5 -34t16 -24t22.5 -15.5t37.5 -10t45.5 -6.5t62 -6v-23h-557v23q83 5 112 21.5t29 72.5v784l-135 78v8l364 107h9zM344 -307h-104q-37 9 -57.5 36.5t-20.5 63.5
q0 50 38.5 82.5t94.5 32.5q67 0 108 -44t41 -114q0 -88 -72 -153.5t-194 -65.5v14q73 7 119.5 52.5t46.5 95.5z" />
    <glyph glyph-name="Rcaron" unicode="&#x158;" horiz-adv-x="1417" 
d="M1001 1839l-262 -305h-164l-262 305h11l333 -166l334 166h10zM578 1401h-109v-696h117q168 0 254 92.5t86 263.5q0 150 -89 245t-259 95zM55 1438h586q255 0 396 -102.5t141 -272.5q0 -64 -23 -119.5t-59 -94.5t-84.5 -70.5t-96 -49.5t-96.5 -29l334 -467
q146 -205 291 -210v-23h-385q-87 68 -240 307l-233 359h-117v-500q0 -84 30 -108t142 -35v-23h-586v23q112 11 142 35t30 108v1106q0 84 -30 108t-142 35v23z" />
    <glyph glyph-name="rcaron" unicode="&#x159;" horiz-adv-x="786" 
d="M793 1565l-222 -351h-180l-221 351h12l299 -215l299 215h13zM403 780q69 162 131.5 238t149.5 76q55 0 82 -27v-193h-33q-112 0 -191 -22.5t-139 -89.5v-643q0 -20 3.5 -34t16 -24t22.5 -15.5t37.5 -10t45.5 -6.5t62 -6v-23h-557v23q83 5 112 21.5t29 72.5v784l-135 78v8
l364 107h9z" />
    <glyph glyph-name="Sacute" unicode="&#x15a;" horiz-adv-x="1087" 
d="M596 1839h266v-6l-360 -299h-8zM557 1430q-127 0 -198.5 -76t-71.5 -189q0 -59 25 -106t67.5 -79t97.5 -58.5t116 -51t121.5 -50.5t115.5 -61.5t97.5 -79.5t67.5 -110.5t25 -148.5q0 -129 -70 -231t-185.5 -155.5t-252.5 -53.5q-134 0 -250 37t-186 96l-15 360h21
q38 -203 155.5 -333t280.5 -130q135 0 217 78.5t82 204.5q0 71 -25 126.5t-67 92t-96.5 66t-114.5 53.5t-120.5 48.5t-115 56.5t-96.5 73t-67 102.5t-25 139.5q0 176 132.5 291.5t338.5 115.5q202 0 385 -119l2 -307h-20q-32 181 -132 289.5t-239 108.5z" />
    <glyph glyph-name="sacute" unicode="&#x15b;" horiz-adv-x="899" 
d="M500 1563h266v-9l-365 -342h-12zM428 -20q-100 0 -195.5 27.5t-156.5 72.5l-13 297h19q34 -161 131.5 -264t224.5 -103q91 0 152 55.5t61 151.5q0 57 -31 100t-80.5 69.5t-109.5 50.5t-119.5 51t-109 61.5t-80.5 91.5t-31 133q0 145 107.5 232.5t263.5 87.5
q165 0 301 -86v-258h-17q-19 126 -99.5 220.5t-194.5 94.5q-86 0 -138.5 -51t-52.5 -133q0 -59 31.5 -102.5t81.5 -70.5t111 -50t121.5 -50t110.5 -62t81.5 -93t31.5 -136q0 -152 -112.5 -244.5t-288.5 -92.5z" />
    <glyph glyph-name="Scircumflex" unicode="&#x15c;" horiz-adv-x="1087" 
d="M643 1839l262 -305h-10l-334 166l-334 -166h-10l262 305h164zM557 1430q-127 0 -198.5 -76t-71.5 -189q0 -59 25 -106t67.5 -79t97.5 -58.5t116 -51t121.5 -50.5t115.5 -61.5t97.5 -79.5t67.5 -110.5t25 -148.5q0 -129 -70 -231t-185.5 -155.5t-252.5 -53.5
q-134 0 -250 37t-186 96l-15 360h21q38 -203 155.5 -333t280.5 -130q135 0 217 78.5t82 204.5q0 71 -25 126.5t-67 92t-96.5 66t-114.5 53.5t-120.5 48.5t-115 56.5t-96.5 73t-67 102.5t-25 139.5q0 176 132.5 291.5t338.5 115.5q202 0 385 -119l2 -307h-20
q-32 181 -132 289.5t-239 108.5z" />
    <glyph glyph-name="scircumflex" unicode="&#x15d;" horiz-adv-x="899" 
d="M553 1563l221 -351h-12l-299 215l-299 -215h-12l221 351h180zM428 -20q-100 0 -195.5 27.5t-156.5 72.5l-13 297h19q34 -161 131.5 -264t224.5 -103q91 0 152 55.5t61 151.5q0 57 -31 100t-80.5 69.5t-109.5 50.5t-119.5 51t-109 61.5t-80.5 91.5t-31 133
q0 145 107.5 232.5t263.5 87.5q165 0 301 -86v-258h-17q-19 126 -99.5 220.5t-194.5 94.5q-86 0 -138.5 -51t-52.5 -133q0 -59 31.5 -102.5t81.5 -70.5t111 -50t121.5 -50t110.5 -62t81.5 -93t31.5 -136q0 -152 -112.5 -244.5t-288.5 -92.5z" />
    <glyph glyph-name="uni015E" unicode="&#x15e;" horiz-adv-x="1087" 
d="M698 -250q0 -69 -47.5 -115.5t-126 -67t-184.5 -20.5l-4 23q106 3 165.5 38t59.5 89q0 51 -41 74t-131 26l90 183q-124 4 -231 40.5t-172 92.5l-15 360h21q38 -203 155.5 -333t280.5 -130q135 0 217 78.5t82 204.5q0 71 -25 126.5t-67 92t-96.5 66t-114.5 53.5
t-120.5 48.5t-115 56.5t-96.5 73t-67 102.5t-25 139.5q0 176 132.5 291.5t338.5 115.5q202 0 385 -119l2 -307h-20q-32 181 -132 289.5t-239 108.5q-127 0 -198.5 -76t-71.5 -189q0 -59 25 -106t67.5 -79t97.5 -58.5t116 -51t121.5 -50.5t115.5 -61.5t97.5 -79.5
t67.5 -110.5t25 -148.5q0 -129 -70 -231t-185.5 -155.5t-252.5 -53.5h-6l-31 -74q100 -2 161.5 -41.5t61.5 -114.5z" />
    <glyph glyph-name="uni015F" unicode="&#x15f;" horiz-adv-x="899" 
d="M606 -250q0 -69 -47.5 -115.5t-126 -67t-184.5 -20.5l-4 23q106 3 165.5 38t59.5 89q0 51 -41 74t-131 26l90 185q-90 4 -173 31t-138 67l-13 297h19q34 -161 131.5 -264t224.5 -103q91 0 152 55.5t61 151.5q0 57 -31 100t-80.5 69.5t-109.5 50.5t-119.5 51t-109 61.5
t-80.5 91.5t-31 133q0 145 107.5 232.5t263.5 87.5q165 0 301 -86v-258h-17q-19 126 -99.5 220.5t-194.5 94.5q-86 0 -138.5 -51t-52.5 -133q0 -59 31.5 -102.5t81.5 -70.5t111 -50t121.5 -50t110.5 -62t81.5 -93t31.5 -136q0 -152 -112.5 -244.5t-288.5 -92.5h-14l-31 -74
q100 -2 161.5 -41.5t61.5 -114.5z" />
    <glyph glyph-name="Scaron" unicode="&#x160;" horiz-adv-x="1087" 
d="M905 1839l-262 -305h-164l-262 305h10l334 -166l334 166h10zM557 1430q-127 0 -198.5 -76t-71.5 -189q0 -59 25 -106t67.5 -79t97.5 -58.5t116 -51t121.5 -50.5t115.5 -61.5t97.5 -79.5t67.5 -110.5t25 -148.5q0 -129 -70 -231t-185.5 -155.5t-252.5 -53.5
q-134 0 -250 37t-186 96l-15 360h21q38 -203 155.5 -333t280.5 -130q135 0 217 78.5t82 204.5q0 71 -25 126.5t-67 92t-96.5 66t-114.5 53.5t-120.5 48.5t-115 56.5t-96.5 73t-67 102.5t-25 139.5q0 176 132.5 291.5t338.5 115.5q202 0 385 -119l2 -307h-20
q-32 181 -132 289.5t-239 108.5z" />
    <glyph glyph-name="scaron" unicode="&#x161;" horiz-adv-x="899" 
d="M774 1565l-221 -351h-180l-221 351h12l299 -215l299 215h12zM428 -20q-100 0 -195.5 27.5t-156.5 72.5l-13 297h19q34 -161 131.5 -264t224.5 -103q91 0 152 55.5t61 151.5q0 57 -31 100t-80.5 69.5t-109.5 50.5t-119.5 51t-109 61.5t-80.5 91.5t-31 133
q0 145 107.5 232.5t263.5 87.5q165 0 301 -86v-258h-17q-19 126 -99.5 220.5t-194.5 94.5q-86 0 -138.5 -51t-52.5 -133q0 -59 31.5 -102.5t81.5 -70.5t111 -50t121.5 -50t110.5 -62t81.5 -93t31.5 -136q0 -152 -112.5 -244.5t-288.5 -92.5z" />
    <glyph glyph-name="uni0162" unicode="&#x162;" horiz-adv-x="1341" 
d="M846 -250q0 -69 -48 -115.5t-126.5 -67t-184.5 -20.5l-4 23q106 3 166 38t60 89q0 51 -41 74t-131 26l100 203h-281v23q60 5 91 10.5t58 20t36.5 40t9.5 68.5v1239h-133q-140 0 -217.5 -85.5t-153.5 -326.5h-20l30 449h1225l31 -449h-19q-39 124 -74.5 201t-79.5 125.5
t-95 67t-123 18.5h-129v-1239q0 -43 9 -68.5t35 -40t56.5 -20t89.5 -10.5v-23h-321l-39 -94q100 -2 161.5 -41.5t61.5 -114.5z" />
    <glyph glyph-name="uni0163" unicode="&#x163;" horiz-adv-x="694" 
d="M561 -250q0 -69 -47.5 -115.5t-126 -67t-184.5 -20.5l-4 23q106 3 165.5 38t59.5 89q0 51 -41 74t-131 26l92 187q-98 18 -154.5 92.5t-56.5 210.5v700h-133v14q99 49 196 136t154 182h10v-266h285v-66h-285v-674q0 -200 168 -200q94 0 162 51l6 -8q-46 -73 -121 -124.5
t-169 -51.5q-25 0 -37 2l-31 -76q100 -2 161.5 -41.5t61.5 -114.5z" />
    <glyph glyph-name="Tcaron" unicode="&#x164;" horiz-adv-x="1341" 
d="M1016 1839l-262 -305h-164l-262 305h10l334 -166l334 166h10zM57 1438h1225l31 -449h-19q-39 124 -74.5 201t-79.5 125.5t-95 67t-123 18.5h-129v-1239q0 -43 9 -68.5t35 -40t56.5 -20t89.5 -10.5v-23h-627v23q60 5 91 10.5t58 20t36.5 40t9.5 68.5v1239h-133
q-140 0 -217.5 -85.5t-153.5 -326.5h-20z" />
    <glyph glyph-name="tcaron" unicode="&#x165;" horiz-adv-x="694" 
d="M711 1589l-246 -430h-8l37 438h217v-8zM360 1319v-266h285v-66h-285v-674q0 -200 168 -200q94 0 162 51l6 -8q-46 -73 -121 -124.5t-169 -51.5q-125 0 -199 75t-74 232v700h-133v14q99 49 196 136t154 182h10z" />
    <glyph glyph-name="Tbar" unicode="&#x166;" horiz-adv-x="1343" 
d="M983 23v-23h-627v23q60 5 91 10.5t58 20t36.5 40t9.5 68.5v563h-240v37h240v639h-133q-140 0 -217.5 -85.5t-153.5 -326.5h-20l30 449h1225l31 -449h-19q-39 124 -74.5 201t-79.5 125.5t-95 67t-123 18.5h-129v-639h237v-37h-237v-563q0 -43 9 -68.5t35 -40t56.5 -20
t89.5 -10.5z" />
    <glyph glyph-name="tbar" unicode="&#x167;" horiz-adv-x="731" 
d="M711 156q-46 -73 -121.5 -124.5t-169.5 -51.5q-125 0 -199 75t-74 232v424h-135v59h135v217h-133v14q99 49 196.5 136t154.5 182h10v-266h284v-66h-284v-217h282v-59h-282v-398q0 -200 168 -200q94 0 162 51z" />
    <glyph glyph-name="Utilde" unicode="&#x168;" horiz-adv-x="1472" 
d="M1135 1802q-41 -139 -89.5 -203.5t-121.5 -64.5q-38 0 -78 18.5t-68.5 40t-65 40t-67.5 18.5q-45 0 -88 -32t-74 -89l-12 6q41 140 89.5 204t121.5 64q38 0 78 -18t68.5 -40t65 -40t67.5 -18q45 0 87.5 31.5t73.5 88.5zM432 1272v-729q0 -226 95.5 -350.5t277.5 -124.5
q89 0 165.5 28.5t135.5 84.5t93 149t34 213v725q0 87 -46.5 113t-195.5 34v23h484v-23q-119 -9 -157 -35t-38 -112v-756q0 -127 -41.5 -229.5t-113.5 -167.5t-167.5 -100t-205.5 -35q-259 0 -409 138.5t-150 397.5v756q0 44 -6 68t-27 40t-51.5 22.5t-90.5 12.5v23h588v-23
q-114 -11 -144 -35t-30 -108z" />
    <glyph glyph-name="utilde" unicode="&#x169;" horiz-adv-x="1173" 
d="M924 1495q-42 -137 -90.5 -198.5t-120.5 -61.5q-49 0 -101.5 29.5t-100.5 58.5t-87 29q-46 0 -89.5 -32t-72.5 -89l-12 6q41 137 89 198.5t120 61.5q39 0 80.5 -18t72 -39.5t68 -39.5t68.5 -18q46 0 89 31.5t72 87.5zM1010 866v-694q0 -41 8 -58t36.5 -27t96.5 -15v-19
l-371 -73h-8l8 192q-70 -82 -162 -137t-190 -55q-133 0 -210 81t-77 244v590q0 57 -24.5 78.5t-112.5 34.5v16l369 68h8l-10 -234v-524q0 -221 190 -221q58 0 117.5 19.5t101.5 57.5v705q0 58 -23.5 79t-111.5 34v16l365 68h8z" />
    <glyph glyph-name="Umacron" unicode="&#x16a;" horiz-adv-x="1472" 
d="M485 1577v65h607v-65h-607zM432 1272v-729q0 -226 95.5 -350.5t277.5 -124.5q89 0 165.5 28.5t135.5 84.5t93 149t34 213v725q0 87 -46.5 113t-195.5 34v23h484v-23q-119 -9 -157 -35t-38 -112v-756q0 -127 -41.5 -229.5t-113.5 -167.5t-167.5 -100t-205.5 -35
q-259 0 -409 138.5t-150 397.5v756q0 44 -6 68t-27 40t-51.5 22.5t-90.5 12.5v23h588v-23q-114 -11 -144 -35t-30 -108z" />
    <glyph glyph-name="umacron" unicode="&#x16b;" horiz-adv-x="1173" 
d="M309 1280v63h565v-63h-565zM1010 866v-694q0 -41 8 -58t36.5 -27t96.5 -15v-19l-371 -73h-8l8 192q-70 -82 -162 -137t-190 -55q-133 0 -210 81t-77 244v590q0 57 -24.5 78.5t-112.5 34.5v16l369 68h8l-10 -234v-524q0 -221 190 -221q58 0 117.5 19.5t101.5 57.5v705
q0 58 -23.5 79t-111.5 34v16l365 68h8z" />
    <glyph glyph-name="Ubreve" unicode="&#x16c;" horiz-adv-x="1472" 
d="M791 1534q-128 0 -211.5 82t-83.5 229h10q10 -47 40 -81.5t72.5 -52t85 -25t87.5 -7.5q44 0 86 7.5t84.5 25t72.5 52t39 81.5h12q0 -147 -83.5 -229t-210.5 -82zM432 1272v-729q0 -226 95.5 -350.5t277.5 -124.5q89 0 165.5 28.5t135.5 84.5t93 149t34 213v725
q0 87 -46.5 113t-195.5 34v23h484v-23q-119 -9 -157 -35t-38 -112v-756q0 -127 -41.5 -229.5t-113.5 -167.5t-167.5 -100t-205.5 -35q-259 0 -409 138.5t-150 397.5v756q0 44 -6 68t-27 40t-51.5 22.5t-90.5 12.5v23h588v-23q-114 -11 -144 -35t-30 -108z" />
    <glyph glyph-name="ubreve" unicode="&#x16d;" horiz-adv-x="1173" 
d="M586 1212q-119 0 -185.5 91t-66.5 260h14q11 -101 77 -151t161 -50q94 0 159 50t76 151h15q0 -169 -66 -260t-184 -91zM1010 866v-694q0 -41 8 -58t36.5 -27t96.5 -15v-19l-371 -73h-8l8 192q-70 -82 -162 -137t-190 -55q-133 0 -210 81t-77 244v590q0 57 -24.5 78.5
t-112.5 34.5v16l369 68h8l-10 -234v-524q0 -221 190 -221q58 0 117.5 19.5t101.5 57.5v705q0 58 -23.5 79t-111.5 34v16l365 68h8z" />
    <glyph glyph-name="Uring" unicode="&#x16e;" horiz-adv-x="1472" 
d="M786 1872q82 0 135.5 -53t53.5 -133t-54 -133.5t-135 -53.5t-134.5 53.5t-53.5 133.5t53.5 133t134.5 53zM786 1538q63 0 105.5 42.5t42.5 105.5t-42.5 105t-105.5 42t-105 -42t-42 -105t42 -105.5t105 -42.5zM432 1272v-729q0 -226 95.5 -350.5t277.5 -124.5
q89 0 165.5 28.5t135.5 84.5t93 149t34 213v725q0 87 -46.5 113t-195.5 34v23h484v-23q-119 -9 -157 -35t-38 -112v-756q0 -127 -41.5 -229.5t-113.5 -167.5t-167.5 -100t-205.5 -35q-259 0 -409 138.5t-150 397.5v756q0 44 -6 68t-27 40t-51.5 22.5t-90.5 12.5v23h588v-23
q-114 -11 -144 -35t-30 -108z" />
    <glyph glyph-name="uring" unicode="&#x16f;" horiz-adv-x="1173" 
d="M764 1378q0 -78 -52.5 -131t-131.5 -53t-132 53t-53 131t53 130.5t132 52.5t131.5 -52.5t52.5 -130.5zM436 1378q0 -62 40.5 -103.5t103.5 -41.5q62 0 102.5 41.5t40.5 103.5t-40 103t-103 41t-103.5 -41t-40.5 -103zM1010 866v-694q0 -41 8 -58t36.5 -27t96.5 -15v-19
l-371 -73h-8l8 192q-70 -82 -162 -137t-190 -55q-133 0 -210 81t-77 244v590q0 57 -24.5 78.5t-112.5 34.5v16l369 68h8l-10 -234v-524q0 -221 190 -221q58 0 117.5 19.5t101.5 57.5v705q0 58 -23.5 79t-111.5 34v16l365 68h8z" />
    <glyph glyph-name="Uhungarumlaut" unicode="&#x170;" horiz-adv-x="1472" 
d="M715 1839h223v-8l-330 -297h-12zM1024 1839h225v-8l-329 -297h-13zM432 1272v-729q0 -226 95.5 -350.5t277.5 -124.5q89 0 165.5 28.5t135.5 84.5t93 149t34 213v725q0 87 -46.5 113t-195.5 34v23h484v-23q-119 -9 -157 -35t-38 -112v-756q0 -127 -41.5 -229.5
t-113.5 -167.5t-167.5 -100t-205.5 -35q-259 0 -409 138.5t-150 397.5v756q0 44 -6 68t-27 40t-51.5 22.5t-90.5 12.5v23h588v-23q-114 -11 -144 -35t-30 -108z" />
    <glyph glyph-name="uhungarumlaut" unicode="&#x171;" horiz-adv-x="1173" 
d="M494 1563h223v-9l-326 -342h-16zM803 1563h225v-9l-326 -342h-16zM1010 866v-694q0 -41 8 -58t36.5 -27t96.5 -15v-19l-371 -73h-8l8 192q-70 -82 -162 -137t-190 -55q-133 0 -210 81t-77 244v590q0 57 -24.5 78.5t-112.5 34.5v16l369 68h8l-10 -234v-524
q0 -221 190 -221q58 0 117.5 19.5t101.5 57.5v705q0 58 -23.5 79t-111.5 34v16l365 68h8z" />
    <glyph glyph-name="Uogonek" unicode="&#x172;" horiz-adv-x="1472" 
d="M799 -432q-80 0 -129 45.5t-49 118.5q0 78 72.5 143.5t189.5 116.5q-65 -12 -131 -12q-259 0 -409 138.5t-150 397.5v756q0 44 -6 68t-27 40t-51.5 22.5t-90.5 12.5v23h588v-23q-114 -11 -144 -35t-30 -108v-729q0 -226 95.5 -350.5t277.5 -124.5q89 0 165.5 28.5
t135.5 84.5t93 149t34 213v725q0 87 -46.5 113t-195.5 34v23h484v-23q-119 -9 -157 -35t-38 -112v-756q0 -190 -87.5 -317.5t-236.5 -180.5q-98 -48 -144 -105.5t-46 -137.5q0 -52 30.5 -84.5t84.5 -32.5q83 0 166 74l8 -9q-113 -151 -256 -151z" />
    <glyph glyph-name="uogonek" unicode="&#x173;" horiz-adv-x="1173" 
d="M688 -432q-78 0 -126 45t-48 119q0 154 258 258l8 182q-70 -82 -162 -137t-190 -55q-133 0 -210 81t-77 244v590q0 57 -24.5 78.5t-112.5 34.5v16l369 68h8l-10 -234v-524q0 -221 190 -221q58 0 117.5 19.5t101.5 57.5v705q0 58 -23.5 79t-111.5 34v16l365 68h8l-8 -226
v-694q0 -41 8 -58t36.5 -27t96.5 -15v-19l-272 -51q-116 -23 -169 -81t-53 -138q0 -59 29.5 -94t83.5 -35q85 0 168 74l8 -9q-113 -151 -258 -151z" />
    <glyph glyph-name="Wcircumflex" unicode="&#x174;" horiz-adv-x="1955" 
d="M1069 1839l262 -305h-10l-334 166l-334 -166h-10l262 305h164zM1305 -18l-322 921l-319 -921h-25l-489 1308q-30 71 -63.5 93.5t-96.5 31.5v23h585v-23q-86 -5 -130 -21.5t-44 -56.5q0 -23 25 -100l317 -911l218 643l-113 321q-30 71 -62 94t-92 31v23h578v-23
q-91 -5 -136.5 -21.5t-45.5 -56.5q0 -23 22 -100l299 -911l313 899q25 80 25 110q0 22 -15 37t-44.5 23.5t-61.5 12.5t-78 7v23h416v-23q-64 -5 -102 -30t-64 -93l-471 -1310h-24z" />
    <glyph glyph-name="wcircumflex" unicode="&#x175;" horiz-adv-x="1583" 
d="M909 1563l221 -351h-12l-299 215l-299 -215h-12l221 351h180zM1061 -18l-260 688l-260 -688h-25l-387 970q-22 51 -46 71t-79 30v20h492v-20q-71 -5 -102.5 -21t-31.5 -49q0 -20 13 -57l235 -654l168 453l-86 227q-19 49 -43.5 70t-77.5 31v20h494v-20q-78 -4 -111.5 -21
t-33.5 -51q0 -15 12 -55l225 -654l227 652q11 33 11 49q0 39 -38 57t-126 23v20h348v-20q-58 -9 -86.5 -31.5t-48.5 -75.5l-359 -964h-24z" />
    <glyph glyph-name="Ycircumflex" unicode="&#x176;" horiz-adv-x="1320" 
d="M776 1839l262 -305h-10l-334 166l-334 -166h-10l262 305h164zM1042 1184q64 108 64 155q0 40 -52 55.5t-153 20.5v23h430v-23q-64 -4 -99 -29.5t-75 -93.5l-389 -665v-465q0 -43 9 -68.5t35 -40t56.5 -20t89.5 -10.5v-23h-614v23q60 5 90 10.5t57 20t36.5 40t9.5 68.5
v461l-404 667q-25 42 -35 57t-27.5 34t-35 25t-45.5 9v23h583v-23q-98 -5 -144 -21t-46 -51q0 -32 43 -106l330 -553z" />
    <glyph glyph-name="ycircumflex" unicode="&#x177;" horiz-adv-x="1099" 
d="M698 1563l222 -351h-13l-299 215l-299 -215h-12l221 351h180zM555 -16l-426 968q-24 52 -47 71.5t-78 29.5v20h516v-20q-79 -5 -113 -20.5t-34 -49.5q0 -23 12 -57l266 -690l250 684q14 35 14 63q0 35 -40 50t-125 20v20h350v-20q-57 -9 -85 -31.5t-50 -75.5l-439 -1143
q-53 -132 -106.5 -192t-134.5 -60q-51 0 -92.5 29.5t-53.5 75.5v76q85 -23 131 -23q85 0 143.5 39t100.5 137z" />
    <glyph glyph-name="Ydieresis" unicode="&#x178;" horiz-adv-x="1320" 
d="M492 1548q-56 0 -96 41t-40 97q0 57 39.5 97t96.5 40q58 0 97.5 -40t39.5 -97q0 -56 -39.5 -97t-97.5 -41zM891 1548q-56 0 -95.5 41t-39.5 97q0 57 39 97t96 40q58 0 97.5 -40t39.5 -97q0 -56 -39.5 -97t-97.5 -41zM1042 1184q64 108 64 155q0 40 -52 55.5t-153 20.5v23
h430v-23q-64 -4 -99 -29.5t-75 -93.5l-389 -665v-465q0 -43 9 -68.5t35 -40t56.5 -20t89.5 -10.5v-23h-614v23q60 5 90 10.5t57 20t36.5 40t9.5 68.5v461l-404 667q-25 42 -35 57t-27.5 34t-35 25t-45.5 9v23h583v-23q-98 -5 -144 -21t-46 -51q0 -32 43 -106l330 -553z" />
    <glyph glyph-name="Zacute" unicode="&#x179;" horiz-adv-x="1210" 
d="M641 1839h266v-6l-360 -299h-8zM459 1401q-70 0 -117.5 -12.5t-91.5 -48.5t-78 -101.5t-66 -169.5h-18l10 369h1043v-17l-830 -1384h445q123 0 222 91t175 300h21l-70 -428h-1069v16l831 1385h-407z" />
    <glyph glyph-name="zacute" unicode="&#x17a;" horiz-adv-x="999" 
d="M567 1563h267v-9l-365 -342h-12zM57 0v10l621 1022h-236q-130 0 -205.5 -77.5t-130.5 -245.5h-16l33 430h6l57 -70h748v-10l-606 -1022h266q115 0 196 79.5t138 264.5h16l-35 -381h-852z" />
    <glyph glyph-name="Zdotaccent" unicode="&#x17b;" horiz-adv-x="1210" 
d="M610 1544q-62 0 -103.5 42.5t-41.5 103.5q0 59 41.5 101t103.5 42q64 0 106 -42t42 -101q0 -61 -42 -103.5t-106 -42.5zM459 1401q-70 0 -117.5 -12.5t-91.5 -48.5t-78 -101.5t-66 -169.5h-18l10 369h1043v-17l-830 -1384h445q123 0 222 91t175 300h21l-70 -428h-1069v16
l831 1385h-407z" />
    <glyph glyph-name="zdotaccent" unicode="&#x17c;" horiz-adv-x="999" 
d="M532 1239q-62 0 -103.5 42t-41.5 101q0 61 41.5 103.5t103.5 42.5q64 0 106 -42.5t42 -103.5q0 -59 -42 -101t-106 -42zM57 0v10l621 1022h-236q-130 0 -205.5 -77.5t-130.5 -245.5h-16l33 430h6l57 -70h748v-10l-606 -1022h266q115 0 196 79.5t138 264.5h16l-35 -381
h-852z" />
    <glyph glyph-name="Zcaron" unicode="&#x17d;" horiz-adv-x="1210" 
d="M954 1839l-262 -305h-164l-262 305h10l334 -166l334 166h10zM459 1401q-70 0 -117.5 -12.5t-91.5 -48.5t-78 -101.5t-66 -169.5h-18l10 369h1043v-17l-830 -1384h445q123 0 222 91t175 300h21l-70 -428h-1069v16l831 1385h-407z" />
    <glyph glyph-name="zcaron" unicode="&#x17e;" horiz-adv-x="999" 
d="M844 1565l-221 -351h-181l-221 351h12l299 -215l299 215h13zM57 0v10l621 1022h-236q-130 0 -205.5 -77.5t-130.5 -245.5h-16l33 430h6l57 -70h748v-10l-606 -1022h266q115 0 196 79.5t138 264.5h16l-35 -381h-852z" />
    <glyph glyph-name="uni0192" unicode="&#x192;" horiz-adv-x="1046" 
d="M106 -324q-103 0 -161 43t-58 115q0 89 103 123h71q-23 -94 -2.5 -176t80.5 -82q53 0 79.5 49t39.5 148l100 784h-188l8 37h187l20 164q70 577 426 577q107 0 163 -42.5t56 -115.5q0 -47 -28.5 -77t-73.5 -43h-72q23 92 2.5 174t-80.5 82q-53 0 -79.5 -49t-39.5 -148
l-69 -522h227l-8 -37h-225l-54 -401q-41 -302 -142 -452.5t-282 -150.5z" />
    <glyph glyph-name="AEacute" unicode="&#x1fc;" horiz-adv-x="2023" 
d="M1343 1839h267v-6l-361 -299h-8zM979 1348l-453 -734h453v734zM422 23v-23h-432v23q72 5 112.5 33t94.5 112l710 1151q-18 46 -69.5 67t-155.5 29v23h1216l11 -355h-19q-32 98 -66 160t-77.5 97t-91.5 48t-117 13h-319v-639h297q93 0 132.5 52.5t49.5 156.5h24v-457h-24
q-10 105 -49.5 158t-132.5 53h-297v-549q0 -81 43.5 -110t148.5 -29h162q260 0 393 383h23l-68 -420h-1116v23q48 5 75 10t49 13.5t31.5 24.5t14 37.5t4.5 57.5v409h-477l-223 -362q-46 -71 -46 -109q0 -37 44 -56t145 -25z" />
    <glyph glyph-name="aeacute" unicode="&#x1fd;" horiz-adv-x="1533" 
d="M850 1563h266v-9l-364 -342h-13zM1503 311q-36 -146 -149.5 -238.5t-272.5 -92.5q-128 0 -228 57.5t-163 159.5q-63 -88 -159.5 -150.5t-211.5 -62.5t-191.5 70.5t-76.5 183.5q0 110 78 181t219 120l273 98q11 62 38 131q-2 79 -21 143.5t-63 108t-106 43.5
q-77 0 -116.5 -55.5t-39.5 -147.5q0 -72 19 -125l-137 -18q-36 9 -61 43.5t-25 79.5q0 113 115 183.5t276 70.5q203 0 293 -125q128 125 303 125q187 0 291 -116t104 -296v-16h-678v-33q0 -227 100 -358.5t265 -131.5q209 0 317 172zM1071 1061q-105 0 -173.5 -103
t-82.5 -258h463q0 105 -20.5 183.5t-68 128t-118.5 49.5zM457 106q118 0 223 109q-70 128 -70 293q0 50 6 96l-182 -76q-81 -33 -123.5 -85.5t-42.5 -137.5q0 -90 52 -144.5t137 -54.5z" />
    <glyph glyph-name="Oslashacute" unicode="&#x1fe;" horiz-adv-x="1445" 
d="M760 1839h266v-6l-360 -299h-9zM324 725q0 -258 79 -453l621 926q-112 232 -311 232q-95 0 -170 -57t-122.5 -154.5t-72 -223.5t-24.5 -270zM731 8q95 0 170 57t122.5 154.5t72 223.5t24.5 270q0 254 -78 444l-620 -924q113 -225 309 -225zM713 -20q-220 0 -381 120
l-135 -202l-31 20l137 205q-115 98 -177.5 247.5t-62.5 319.5q0 220 89 396.5t241.5 274t337.5 97.5q222 0 385 -125l119 178l31 -22l-121 -178q114 -98 174.5 -246t60.5 -317q0 -165 -52 -309t-141.5 -244t-212.5 -157.5t-261 -57.5z" />
    <glyph glyph-name="oslashacute" unicode="&#x1ff;" horiz-adv-x="1097" 
d="M584 1563h266v-9l-365 -342h-12zM289 573q0 -204 47 -344l418 637q-72 199 -211 199q-121 0 -187.5 -132t-66.5 -360zM553 8q122 0 189 132.5t67 359.5q0 191 -41 321l-418 -635q70 -178 203 -178zM543 -20q-156 0 -277 79l-102 -155l-33 16l107 162q-92 71 -142.5 183
t-50.5 247q0 258 146 420t362 162q168 0 291 -90l106 159l33 -16l-111 -166q86 -73 132.5 -181t46.5 -237q0 -172 -67.5 -306t-183 -205.5t-257.5 -71.5z" />
    <glyph glyph-name="uni0218" unicode="&#x218;" horiz-adv-x="1087" 
d="M557 1430q-127 0 -198.5 -76t-71.5 -189q0 -59 25 -106t67.5 -79t97.5 -58.5t116 -51t121.5 -50.5t115.5 -61.5t97.5 -79.5t67.5 -110.5t25 -148.5q0 -129 -70 -231t-185.5 -155.5t-252.5 -53.5q-134 0 -250 37t-186 96l-15 360h21q38 -203 155.5 -333t280.5 -130
q135 0 217 78.5t82 204.5q0 71 -25 126.5t-67 92t-96.5 66t-114.5 53.5t-120.5 48.5t-115 56.5t-96.5 73t-67 102.5t-25 139.5q0 176 132.5 291.5t338.5 115.5q202 0 385 -119l2 -307h-20q-32 181 -132 289.5t-239 108.5zM580 -307h-105q-37 9 -57.5 36.5t-20.5 63.5
q0 50 38.5 82.5t94.5 32.5q67 0 108.5 -44t41.5 -114q0 -88 -72 -153.5t-194 -65.5v14q73 7 119.5 52.5t46.5 95.5z" />
    <glyph glyph-name="uni0219" unicode="&#x219;" horiz-adv-x="899" 
d="M428 -20q-100 0 -195.5 27.5t-156.5 72.5l-13 297h19q34 -161 131.5 -264t224.5 -103q91 0 152 55.5t61 151.5q0 57 -31 100t-80.5 69.5t-109.5 50.5t-119.5 51t-109 61.5t-80.5 91.5t-31 133q0 145 107.5 232.5t263.5 87.5q165 0 301 -86v-258h-17q-19 126 -99.5 220.5
t-194.5 94.5q-86 0 -138.5 -51t-52.5 -133q0 -59 31.5 -102.5t81.5 -70.5t111 -50t121.5 -50t110.5 -62t81.5 -93t31.5 -136q0 -152 -112.5 -244.5t-288.5 -92.5zM496 -307h-105q-37 9 -57.5 36.5t-20.5 63.5q0 50 38.5 82.5t94.5 32.5q67 0 108.5 -44t41.5 -114
q0 -88 -72 -153.5t-194 -65.5v14q73 7 119.5 52.5t46.5 95.5z" />
    <glyph glyph-name="uni021A" unicode="&#x21a;" horiz-adv-x="1341" 
d="M57 1438h1225l31 -449h-19q-39 124 -74.5 201t-79.5 125.5t-95 67t-123 18.5h-129v-1239q0 -43 9 -68.5t35 -40t56.5 -20t89.5 -10.5v-23h-627v23q60 5 91 10.5t58 20t36.5 40t9.5 68.5v1239h-133q-140 0 -217.5 -85.5t-153.5 -326.5h-20zM711 -307h-105
q-37 9 -57.5 36.5t-20.5 63.5q0 50 39 82.5t95 32.5q67 0 108 -44t41 -114q0 -88 -72 -153.5t-194 -65.5v14q73 7 119.5 52.5t46.5 95.5z" />
    <glyph glyph-name="uni021B" unicode="&#x21b;" horiz-adv-x="694" 
d="M360 1319v-266h285v-66h-285v-674q0 -200 168 -200q94 0 162 51l6 -8q-46 -73 -121 -124.5t-169 -51.5q-125 0 -199 75t-74 232v700h-133v14q99 49 196 136t154 182h10zM410 -307h-105q-37 9 -57.5 36.5t-20.5 63.5q0 50 38.5 82.5t94.5 32.5q67 0 108.5 -44t41.5 -114
q0 -88 -72 -153.5t-194 -65.5v14q73 7 119.5 52.5t46.5 95.5z" />
    <glyph glyph-name="uni0237" unicode="&#x237;" horiz-adv-x="518" 
d="M152 901l-136 78v8l355 107h8v-975q0 -107 -27.5 -194.5t-81.5 -156.5t-116 -120t-150 -105l-6 8q94 119 124 240.5t30 294.5v815z" />
    <glyph glyph-name="circumflex" unicode="&#x2c6;" horiz-adv-x="1024" 
d="M602 1563l221 -351h-12l-299 215l-299 -215h-12l221 351h180z" />
    <glyph glyph-name="caron" unicode="&#x2c7;" horiz-adv-x="1024" 
d="M823 1565l-221 -351h-180l-221 351h12l299 -215l299 215h12z" />
    <glyph glyph-name="breve" unicode="&#x2d8;" horiz-adv-x="1024" 
d="M516 1212q-119 0 -185.5 91t-66.5 260h15q11 -101 76.5 -151t160.5 -50q94 0 159.5 50.5t76.5 150.5h14q0 -169 -66 -260t-184 -91z" />
    <glyph glyph-name="dotaccent" unicode="&#x2d9;" horiz-adv-x="1024" 
d="M510 1239q-62 0 -103.5 42t-41.5 101q0 61 41.5 103.5t103.5 42.5q64 0 105.5 -42.5t41.5 -103.5q0 -60 -41.5 -101.5t-105.5 -41.5z" />
    <glyph glyph-name="ring" unicode="&#x2da;" horiz-adv-x="1024" 
d="M696 1378q0 -78 -52.5 -131t-131.5 -53t-131.5 53t-52.5 131t52.5 130.5t131.5 52.5t131.5 -52.5t52.5 -130.5zM369 1378q0 -62 40.5 -103.5t102.5 -41.5t102.5 41.5t40.5 103.5t-40 103t-103 41t-103 -41t-40 -103z" />
    <glyph glyph-name="ogonek" unicode="&#x2db;" horiz-adv-x="1024" 
d="M670 41l2 -8q-121 -53 -176.5 -113.5t-55.5 -148.5q0 -53 29.5 -85t83.5 -32q85 0 168 74l6 -9q-113 -151 -256 -151q-78 0 -127 45.5t-49 118.5q0 52 32 100t87.5 86.5t118.5 68t137 54.5z" />
    <glyph glyph-name="tilde" unicode="&#x2dc;" horiz-adv-x="1024" 
d="M858 1495q-42 -137 -90.5 -198.5t-120.5 -61.5q-49 0 -101.5 29.5t-100.5 58.5t-87 29q-46 0 -89 -32t-72 -89l-13 6q41 137 89 198.5t120 61.5q39 0 80.5 -18t72 -39.5t68 -39.5t68.5 -18q46 0 89.5 31.5t72.5 87.5z" />
    <glyph glyph-name="hungarumlaut" unicode="&#x2dd;" horiz-adv-x="1024" 
d="M309 1563h223v-9l-325 -342h-17zM618 1563h226v-9l-326 -342h-16z" />
    <glyph glyph-name="uni0300" unicode="&#x300;" 
d="M-188 1563h266l110 -351h-12l-364 342v9z" />
    <glyph glyph-name="uni0301" unicode="&#x301;" 
d="M-78 1563h266v-9l-364 -342h-12z" />
    <glyph glyph-name="uni0302" unicode="&#x302;" 
d="M90 1563l221 -351h-12l-299 215l-299 -215h-12l221 351h180z" />
    <glyph glyph-name="uni0303" unicode="&#x303;" 
d="M337 1495q-42 -137 -90.5 -198.5t-120.5 -61.5q-49 0 -101.5 29.5t-100.5 58.5t-87 29q-46 0 -89.5 -32t-72.5 -89l-12 6q41 137 89 198.5t120 61.5q39 0 80.5 -18t72 -39.5t68 -39.5t68.5 -18q46 0 89.5 31.5t72.5 87.5z" />
    <glyph glyph-name="uni0304" unicode="&#x304;" 
d="M-283 1280v63h566v-63h-566z" />
    <glyph glyph-name="uni0306" unicode="&#x306;" 
d="M1 1212q-119 0 -185.5 91t-66.5 260h14q11 -101 77 -151t161 -50q94 0 159.5 50.5t76.5 150.5h14q0 -169 -66 -260t-184 -91z" />
    <glyph glyph-name="uni0307" unicode="&#x307;" 
d="M-1 1239q-62 0 -103.5 42t-41.5 101q0 61 41.5 103.5t103.5 42.5q64 0 105.5 -42.5t41.5 -103.5q0 -60 -42 -101.5t-105 -41.5z" />
    <glyph glyph-name="uni0308" unicode="&#x308;" 
d="M-188 1243q-54 0 -94 39.5t-40 93.5t40 93.5t94 39.5q55 0 94 -39.5t39 -93.5t-39 -93.5t-94 -39.5zM186 1243q-54 0 -92.5 39.5t-38.5 93.5t38.5 93.5t92.5 39.5q55 0 95.5 -39.5t40.5 -93.5t-40.5 -93.5t-95.5 -39.5z" />
    <glyph glyph-name="uni030A" unicode="&#x30a;" 
d="M184 1378q0 -78 -52.5 -131t-131.5 -53t-131.5 53t-52.5 131t52.5 130.5t131.5 52.5t131.5 -52.5t52.5 -130.5zM-143 1378q0 -62 40.5 -103.5t102.5 -41.5t102.5 41.5t40.5 103.5t-40 103t-103 41t-103 -41t-40 -103z" />
    <glyph glyph-name="uni030B" unicode="&#x30b;" 
d="M-208 1563h223v-9l-325 -342h-17zM101 1563h226v-9l-326 -342h-16z" />
    <glyph glyph-name="uni030C" unicode="&#x30c;" 
d="M311 1565l-221 -351h-180l-221 351h12l299 -215l299 215h12z" />
    <glyph glyph-name="uni0312" unicode="&#x312;" 
d="M-41 1452h104q37 -9 57.5 -36.5t20.5 -63.5q0 -50 -38.5 -82.5t-94.5 -32.5q-67 0 -108 44t-41 114q0 88 72 153.5t194 65.5v-15q-73 -7 -119.5 -52t-46.5 -95z" />
    <glyph glyph-name="uni0323" unicode="&#x323;" 
d="M-2 -379q-61 0 -102 42t-41 101t41 101.5t102 42.5q63 0 105 -42t42 -102t-41.5 -101.5t-105.5 -41.5z" />
    <glyph glyph-name="uni0326" unicode="&#x326;" 
d="M41 -307h-104q-37 9 -57.5 36.5t-20.5 63.5q0 50 38.5 82.5t94.5 32.5q67 0 108 -44t41 -114q0 -88 -72 -153.5t-194 -65.5v14q73 7 119.5 52.5t46.5 95.5z" />
    <glyph glyph-name="uni0327" unicode="&#x327;" 
d="M-177 -453l-4 23q106 3 165.5 38t59.5 89q0 51 -41 74t-131 26l102 207h25l-41 -98q100 -2 161.5 -41.5t61.5 -114.5q0 -69 -47.5 -115.5t-126 -67t-184.5 -20.5z" />
    <glyph glyph-name="uni0328" unicode="&#x328;" 
d="M159 41l2 -8q-121 -53 -176.5 -113.5t-55.5 -148.5q0 -53 29.5 -85t83.5 -32q85 0 168 74l6 -9q-113 -151 -256 -151q-78 0 -127 45.5t-49 118.5q0 52 32 100t87.5 86.5t118.5 68t137 54.5z" />
    <glyph glyph-name="Wgrave" unicode="&#x1e80;" horiz-adv-x="1955" 
d="M721 1839h266l103 -305h-9l-360 299v6zM1305 -18l-322 921l-319 -921h-25l-489 1308q-30 71 -63.5 93.5t-96.5 31.5v23h585v-23q-86 -5 -130 -21.5t-44 -56.5q0 -23 25 -100l317 -911l218 643l-113 321q-30 71 -62 94t-92 31v23h578v-23q-91 -5 -136.5 -21.5t-45.5 -56.5
q0 -23 22 -100l299 -911l313 899q25 80 25 110q0 22 -15 37t-44.5 23.5t-61.5 12.5t-78 7v23h416v-23q-64 -5 -102 -30t-64 -93l-471 -1310h-24z" />
    <glyph glyph-name="wgrave" unicode="&#x1e81;" horiz-adv-x="1583" 
d="M569 1563h267l110 -351h-12l-365 342v9zM1061 -18l-260 688l-260 -688h-25l-387 970q-22 51 -46 71t-79 30v20h492v-20q-71 -5 -102.5 -21t-31.5 -49q0 -20 13 -57l235 -654l168 453l-86 227q-19 49 -43.5 70t-77.5 31v20h494v-20q-78 -4 -111.5 -21t-33.5 -51
q0 -15 12 -55l225 -654l227 652q11 33 11 49q0 39 -38 57t-126 23v20h348v-20q-58 -9 -86.5 -31.5t-48.5 -75.5l-359 -964h-24z" />
    <glyph glyph-name="Wacute" unicode="&#x1e82;" horiz-adv-x="1955" 
d="M1016 1839h266v-6l-360 -299h-9zM1305 -18l-322 921l-319 -921h-25l-489 1308q-30 71 -63.5 93.5t-96.5 31.5v23h585v-23q-86 -5 -130 -21.5t-44 -56.5q0 -23 25 -100l317 -911l218 643l-113 321q-30 71 -62 94t-92 31v23h578v-23q-91 -5 -136.5 -21.5t-45.5 -56.5
q0 -23 22 -100l299 -911l313 899q25 80 25 110q0 22 -15 37t-44.5 23.5t-61.5 12.5t-78 7v23h416v-23q-64 -5 -102 -30t-64 -93l-471 -1310h-24z" />
    <glyph glyph-name="wacute" unicode="&#x1e83;" horiz-adv-x="1583" 
d="M870 1563h267v-9l-365 -342h-12zM1061 -18l-260 688l-260 -688h-25l-387 970q-22 51 -46 71t-79 30v20h492v-20q-71 -5 -102.5 -21t-31.5 -49q0 -20 13 -57l235 -654l168 453l-86 227q-19 49 -43.5 70t-77.5 31v20h494v-20q-78 -4 -111.5 -21t-33.5 -51q0 -15 12 -55
l225 -654l227 652q11 33 11 49q0 39 -38 57t-126 23v20h348v-20q-58 -9 -86.5 -31.5t-48.5 -75.5l-359 -964h-24z" />
    <glyph glyph-name="Wdieresis" unicode="&#x1e84;" horiz-adv-x="1955" 
d="M782 1548q-56 0 -95.5 41t-39.5 97q0 57 39 97t96 40q58 0 98 -40t40 -97q0 -56 -40 -97t-98 -41zM1182 1548q-56 0 -95.5 41t-39.5 97q0 57 39 97t96 40q58 0 97.5 -40t39.5 -97q0 -56 -39.5 -97t-97.5 -41zM1305 -18l-322 921l-319 -921h-25l-489 1308
q-30 71 -63.5 93.5t-96.5 31.5v23h585v-23q-86 -5 -130 -21.5t-44 -56.5q0 -23 25 -100l317 -911l218 643l-113 321q-30 71 -62 94t-92 31v23h578v-23q-91 -5 -136.5 -21.5t-45.5 -56.5q0 -23 22 -100l299 -911l313 899q25 80 25 110q0 22 -15 37t-44.5 23.5t-61.5 12.5
t-78 7v23h416v-23q-64 -5 -102 -30t-64 -93l-471 -1310h-24z" />
    <glyph glyph-name="wdieresis" unicode="&#x1e85;" horiz-adv-x="1583" 
d="M629 1243q-54 0 -93.5 39.5t-39.5 93.5t39.5 93.5t93.5 39.5q55 0 94 -39.5t39 -93.5t-39 -93.5t-94 -39.5zM1004 1243q-54 0 -93 39.5t-39 93.5t39 93.5t93 39.5q55 0 95 -39.5t40 -93.5t-40 -93.5t-95 -39.5zM1061 -18l-260 688l-260 -688h-25l-387 970q-22 51 -46 71
t-79 30v20h492v-20q-71 -5 -102.5 -21t-31.5 -49q0 -20 13 -57l235 -654l168 453l-86 227q-19 49 -43.5 70t-77.5 31v20h494v-20q-78 -4 -111.5 -21t-33.5 -51q0 -15 12 -55l225 -654l227 652q11 33 11 49q0 39 -38 57t-126 23v20h348v-20q-58 -9 -86.5 -31.5t-48.5 -75.5
l-359 -964h-24z" />
    <glyph glyph-name="uni1EB8" unicode="&#x1eb8;" horiz-adv-x="1273" 
d="M1169 0h-1114v23q112 11 142 35t30 108v1106q0 84 -30 108t-142 35v23h1094l10 -355h-20q-32 98 -66 160t-77.5 97t-91.5 48t-118 13h-317v-639h295q94 0 133 52t51 157h23v-457h-23q-12 106 -51 158.5t-133 52.5h-295v-549q0 -81 44 -110t149 -29h161q259 0 394 383h20z
M676 -379q-61 0 -102.5 42t-41.5 101t41.5 101.5t102.5 42.5q63 0 105 -42t42 -102t-41.5 -101.5t-105.5 -41.5z" />
    <glyph glyph-name="uni1EB9" unicode="&#x1eb9;" horiz-adv-x="972" 
d="M942 311q-36 -146 -149.5 -238.5t-272.5 -92.5q-213 0 -343 150t-130 378q0 163 65.5 298t177.5 211.5t245 76.5q186 0 289.5 -116t103.5 -296v-16h-676v-33q0 -228 99.5 -359t264.5 -131q206 0 318 172zM508 1061q-103 0 -171.5 -103t-82.5 -258h463q0 105 -20.5 183.5
t-68.5 128t-120 49.5zM528 -379q-61 0 -102 42t-41 101t41 101.5t102 42.5q64 0 106 -42t42 -102q0 -59 -42 -101t-106 -42z" />
    <glyph glyph-name="Ygrave" unicode="&#x1ef2;" horiz-adv-x="1320" 
d="M428 1839h266l103 -305h-9l-360 299v6zM1042 1184q64 108 64 155q0 40 -52 55.5t-153 20.5v23h430v-23q-64 -4 -99 -29.5t-75 -93.5l-389 -665v-465q0 -43 9 -68.5t35 -40t56.5 -20t89.5 -10.5v-23h-614v23q60 5 90 10.5t57 20t36.5 40t9.5 68.5v461l-404 667
q-25 42 -35 57t-27.5 34t-35 25t-45.5 9v23h583v-23q-98 -5 -144 -21t-46 -51q0 -32 43 -106l330 -553z" />
    <glyph glyph-name="ygrave" unicode="&#x1ef3;" horiz-adv-x="1099" 
d="M334 1563h266l111 -351h-13l-364 342v9zM555 -16l-426 968q-24 52 -47 71.5t-78 29.5v20h516v-20q-79 -5 -113 -20.5t-34 -49.5q0 -23 12 -57l266 -690l250 684q14 35 14 63q0 35 -40 50t-125 20v20h350v-20q-57 -9 -85 -31.5t-50 -75.5l-439 -1143q-53 -132 -106.5 -192
t-134.5 -60q-51 0 -92.5 29.5t-53.5 75.5v76q85 -23 131 -23q85 0 143.5 39t100.5 137z" />
    <glyph glyph-name="endash" unicode="&#x2013;" horiz-adv-x="1105" 
d="M1044 586h-983v61h983v-61z" />
    <glyph glyph-name="emdash" unicode="&#x2014;" horiz-adv-x="1966" 
d="M1905 647v-61h-1844v61h1844z" />
    <glyph glyph-name="quoteleft" unicode="&#x2018;" horiz-adv-x="444" 
d="M205 1323h63q48 -10 80.5 -43.5t32.5 -85.5q0 -62 -41 -100.5t-102 -38.5q-71 0 -113.5 52t-42.5 132q0 123 96.5 208.5t229.5 94.5v-12q-81 -23 -138.5 -78.5t-64.5 -128.5z" />
    <glyph glyph-name="quoteright" unicode="&#x2019;" horiz-adv-x="444" 
d="M250 1266h-64q-48 10 -80 43.5t-32 85.5q0 62 41 100.5t102 38.5q71 0 113.5 -52t42.5 -132q0 -123 -96.5 -208.5t-229.5 -94.5v12q81 23 138.5 78.5t64.5 128.5z" />
    <glyph glyph-name="quotesinglbase" unicode="&#x201a;" horiz-adv-x="444" 
d="M250 0h-64q-48 10 -80 43.5t-32 85.5q0 62 41 100.5t102 38.5q71 0 113.5 -52t42.5 -132q0 -123 -96.5 -208.5t-229.5 -94.5v12q81 23 138.5 78.5t64.5 128.5z" />
    <glyph glyph-name="quotedblleft" unicode="&#x201c;" horiz-adv-x="796" 
d="M557 1323h64q48 -10 80 -43.5t32 -85.5q0 -62 -41 -100.5t-102 -38.5q-71 0 -113.5 52t-42.5 132q0 123 96.5 208.5t229.5 94.5v-12q-81 -23 -138.5 -78.5t-64.5 -128.5zM205 1323h63q48 -10 80.5 -43.5t32.5 -85.5q0 -62 -41 -100.5t-102 -38.5q-71 0 -113.5 52
t-42.5 132q0 123 96.5 208.5t229.5 94.5v-12q-81 -23 -138.5 -78.5t-64.5 -128.5z" />
    <glyph glyph-name="quotedblright" unicode="&#x201d;" horiz-adv-x="796" 
d="M250 1266h-64q-48 10 -80 43.5t-32 85.5q0 62 41 100.5t102 38.5q71 0 113.5 -52t42.5 -132q0 -123 -96.5 -208.5t-229.5 -94.5v12q81 23 138.5 78.5t64.5 128.5zM602 1266h-63q-48 10 -80.5 43.5t-32.5 85.5q0 62 41 100.5t102 38.5q71 0 113.5 -52t42.5 -132
q0 -123 -96.5 -208.5t-229.5 -94.5v12q81 23 138.5 78.5t64.5 128.5z" />
    <glyph glyph-name="quotedblbase" unicode="&#x201e;" horiz-adv-x="796" 
d="M250 0h-64q-48 10 -80 43.5t-32 85.5q0 62 41 100.5t102 38.5q71 0 113.5 -52t42.5 -132q0 -123 -96.5 -208.5t-229.5 -94.5v12q81 23 138.5 78.5t64.5 128.5zM602 0h-63q-48 10 -80.5 43.5t-32.5 85.5q0 62 41 100.5t102 38.5q71 0 113.5 -52t42.5 -132
q0 -123 -96.5 -208.5t-229.5 -94.5v12q81 23 138.5 78.5t64.5 128.5z" />
    <glyph glyph-name="dagger" unicode="&#x2020;" horiz-adv-x="733" 
d="M375 1219q0 -63 29.5 -122t68.5 -81v-8q-38 -56 -65 -233t-33 -396h-17q-6 219 -33 396t-65 233v8q39 22 68.5 81t29.5 122q-49 0 -125 -34t-112 -34t-58 21t-22 55t22 55t58 21t112 -34t125 -34q0 49 -33.5 125.5t-33.5 112.5t21 57.5t55 21.5t54.5 -21.5t20.5 -57.5
t-33.5 -112.5t-33.5 -125.5q49 0 125 34t112 34t58 -21t22 -55t-22 -55t-58 -21t-112 34t-125 34z" />
    <glyph glyph-name="daggerdbl" unicode="&#x2021;" horiz-adv-x="741" 
d="M365 967q0 40 -30 74.5t-71 41.5v9q98 56 98 159q-49 0 -125 -33.5t-112 -33.5t-58 21t-22 55q0 35 21.5 56t58.5 21q36 0 112 -33.5t125 -33.5q0 48 -33.5 107.5t-33.5 95.5t21 57.5t55 21.5t54.5 -21.5t20.5 -57.5t-33.5 -95.5t-33.5 -107.5q49 0 125 33.5t112 33.5
q37 0 58.5 -21t21.5 -56q0 -34 -22 -55t-58 -21t-112 33.5t-125 33.5q0 -103 98 -159v-9q-41 -7 -70.5 -41.5t-29.5 -74.5t29.5 -75t70.5 -42v-8q-98 -56 -98 -160q49 0 125 34t112 34q37 0 58.5 -21.5t21.5 -56.5q0 -34 -22 -55t-58 -21t-112 34t-125 34q0 -49 33.5 -108
t33.5 -95q0 -37 -20.5 -58.5t-54.5 -21.5t-55 22t-21 58t33.5 95t33.5 108q-49 0 -125 -34t-112 -34t-58 21t-22 55q0 35 21.5 56.5t58.5 21.5q36 0 112 -34t125 -34q0 104 -98 160v8q41 7 71 42t30 75z" />
    <glyph glyph-name="bullet" unicode="&#x2022;" horiz-adv-x="653" 
d="M61 621q0 109 78 187.5t187 78.5q110 0 188 -78.5t78 -187.5q0 -110 -78 -188.5t-188 -78.5q-109 0 -187 78.5t-78 188.5z" />
    <glyph glyph-name="ellipsis" unicode="&#x2026;" horiz-adv-x="1314" 
d="M61 137q0 66 46 112t112 46q65 0 111.5 -46t46.5 -112t-46.5 -111.5t-111.5 -45.5q-66 0 -112 45.5t-46 111.5zM500 137q0 66 45.5 112t111.5 46q65 0 111.5 -46t46.5 -112t-46.5 -111.5t-111.5 -45.5q-66 0 -111.5 45.5t-45.5 111.5zM938 137q0 66 46 112t112 46
q65 0 111 -46t46 -112t-46 -111.5t-111 -45.5q-66 0 -112 45.5t-46 111.5z" />
    <glyph glyph-name="perthousand" unicode="&#x2030;" horiz-adv-x="2058" 
d="M168 -20l979 1478h51l-979 -1478h-51zM59 1147q0 134 94.5 222.5t215.5 88.5t214 -88.5t93 -222.5t-93 -222.5t-214 -88.5t-215.5 88.5t-94.5 222.5zM219 1147q0 -120 40 -202.5t110 -82.5q69 0 109 82.5t40 202.5t-40 202.5t-109 82.5q-70 0 -110 -82.5t-40 -202.5z
M1305 291q0 -134 -93.5 -222.5t-214.5 -88.5t-215 88.5t-94 222.5t94 222.5t215 88.5t214.5 -88.5t93.5 -222.5zM1999 291q0 -134 -94 -222.5t-215 -88.5q-120 0 -214 88.5t-94 222.5t94 222.5t214 88.5q121 0 215 -88.5t94 -222.5zM1147 291q0 119 -40.5 201.5t-109.5 82.5
q-70 0 -109.5 -82t-39.5 -202q0 -121 39.5 -203t109.5 -82q69 0 109.5 82.5t40.5 202.5zM1839 291q0 120 -39.5 202t-109.5 82q-69 0 -109.5 -82.5t-40.5 -201.5q0 -120 40.5 -202.5t109.5 -82.5q70 0 109.5 82t39.5 203z" />
    <glyph glyph-name="guilsinglleft" unicode="&#x2039;" horiz-adv-x="548" 
d="M66 555v12l405 398h12l-202 -404l202 -403h-12z" />
    <glyph glyph-name="guilsinglright" unicode="&#x203a;" horiz-adv-x="544" 
d="M479 567v-12l-405 -397h-13l203 403l-203 404h13z" />
    <glyph glyph-name="fraction" unicode="&#x2044;" horiz-adv-x="579" 
d="M-225 -20l979 1478h51l-979 -1478h-51z" />
    <glyph glyph-name="Euro" unicode="&#x20ac;" horiz-adv-x="1314" 
d="M1223 90q-97 -55 -193 -82.5t-213 -27.5q-266 0 -431.5 170.5t-190.5 453.5h-154v37h152q-3 27 -3 55q0 60 11 142h-160v36h166q31 176 121.5 310t217 204t269.5 70q126 0 216 -31t167 -94v-319h-16q-37 195 -128.5 306.5t-234.5 111.5q-81 0 -147.5 -45.5t-111.5 -124
t-73 -177t-38 -211.5h514l-27 -36h-492q-2 -31 -2 -93q0 -69 2 -104h439l-25 -37h-412q9 -133 34.5 -238.5t70.5 -188t115 -127t161 -44.5q149 0 251 117.5t159 325.5h20z" />
    <glyph glyph-name="trademark" unicode="&#x2122;" horiz-adv-x="1548" 
d="M629 1438l14 -185h-8q-34 86 -73.5 123t-96.5 37h-41v-504q0 -31 20 -41.5t68 -13.5v-20h-311v20q47 3 66.5 13.5t19.5 41.5v504h-39q-58 0 -98 -37.5t-72 -122.5h-10l12 185h549zM1057 1024l133 360q7 23 12 54h193v-19q-71 -5 -74 -69l55 -453q3 -25 18.5 -33.5
t55.5 -11.5v-18h-287v18q48 3 65 11.5t17 35.5q0 14 -4 64l-43 358l-180 -492h-8l-203 496l-39 -362q-1 -10 -2.5 -24.5t-2.5 -25t-1 -14.5q0 -26 18 -35t68 -12v-18h-195v18q68 3 74 45l53 453q-3 64 -73 69v19h192q1 -9 12 -54z" />
    <glyph glyph-name="uni2153" unicode="&#x2153;" horiz-adv-x="1337" 
d="M168 -20l979 1478h51l-979 -1478h-51zM397 1458h17v-610q0 -45 28 -57t117 -17v-20h-450v20q91 5 118 17t27 57v452h-145v19q196 20 288 139zM1020 385q104 -6 165.5 -52t61.5 -132q0 -94 -82.5 -157.5t-191.5 -63.5q-105 0 -169.5 42.5t-64.5 102.5q0 26 13.5 47
t31.5 29h97q-13 -19 -13 -58q0 -60 30 -99.5t81 -39.5q55 0 89 41t34 109q0 79 -47 123.5t-133 44.5h-25l-4 12q160 51 160 162q0 42 -26 69t-77 27q-93 0 -149 -94l-19 10q33 80 94 132t150 52q81 0 124.5 -41t43.5 -106q0 -33 -15 -60.5t-43 -46t-54.5 -30.5t-61.5 -23z
" />
    <glyph glyph-name="uni2154" unicode="&#x2154;" horiz-adv-x="1415" 
d="M246 -20l979 1478h51l-979 -1478h-51zM264 889h209q63 0 97 17.5t61 76.5h10l-23 -229h-495v12l182 188q86 91 118 144t32 116q0 60 -35 96t-96 36q-100 0 -168 -86l-11 8q38 79 104.5 133.5t158.5 54.5q98 0 151 -51.5t53 -140.5q0 -28 -9 -55t-19.5 -48.5t-36 -49
t-41.5 -43.5t-55 -45.5t-56.5 -42.5t-65.5 -46t-65 -45zM1098 385q104 -6 165.5 -52t61.5 -132q0 -94 -82.5 -157.5t-191.5 -63.5q-105 0 -169.5 42.5t-64.5 102.5q0 26 13.5 47t31.5 29h96q-12 -18 -12 -58q0 -60 30 -99.5t81 -39.5q55 0 89 41t34 109q0 79 -47.5 123.5
t-133.5 44.5h-24l-4 12q159 51 159 162q0 43 -25.5 69.5t-76.5 26.5q-93 0 -149 -94l-19 10q33 80 94 132t150 52q81 0 124.5 -41t43.5 -106q0 -33 -15 -60.5t-43 -46t-54.5 -30.5t-61.5 -23z" />
    <glyph glyph-name="uni215B" unicode="&#x215b;" horiz-adv-x="1368" 
d="M397 1458h17v-610q0 -45 28 -57t117 -17v-20h-450v20q91 5 118 17t27 57v452h-145v19q196 20 288 139zM168 -20l979 1478h51l-979 -1478h-51zM1251 528q0 -53 -46.5 -90.5t-108.5 -50.5q180 -78 180 -201q0 -92 -77 -149t-173 -57q-105 0 -179.5 48.5t-74.5 127.5
q0 108 172 153q-67 31 -105 79t-38 106q0 83 64.5 140.5t162.5 57.5q100 0 161.5 -44.5t61.5 -119.5zM997 438l84 -43q70 47 70 135q0 61 -34.5 97.5t-90.5 36.5q-53 0 -84 -30.5t-31 -76.5q0 -75 86 -119zM1067 242l-111 59q-75 -48 -75 -139q0 -67 40.5 -111.5
t104.5 -44.5q62 0 100.5 33t38.5 84q0 24 -7 42.5t-23 33t-29.5 22.5t-38.5 21z" />
    <glyph glyph-name="uni215C" unicode="&#x215c;" horiz-adv-x="1368" 
d="M168 -20l979 1478h51l-979 -1478h-51zM395 1151q104 -6 166 -52t62 -132q0 -94 -83 -158t-192 -64q-105 0 -169 43t-64 103q0 26 13.5 47t31.5 29h96q-12 -18 -12 -58q0 -60 29.5 -99.5t80.5 -39.5q55 0 89 41t34 109q0 78 -47 122.5t-133 44.5h-25l-4 13q160 51 160 162
q0 43 -25.5 69.5t-76.5 26.5q-94 0 -150 -94l-18 10q33 81 93.5 132.5t149.5 51.5q81 0 124.5 -41t43.5 -106q0 -33 -15 -60.5t-43 -46t-54.5 -30.5t-61.5 -23zM1251 528q0 -53 -46.5 -90.5t-108.5 -50.5q180 -78 180 -201q0 -92 -77 -149t-173 -57q-105 0 -179.5 48.5
t-74.5 127.5q0 108 172 153q-67 31 -105 79t-38 106q0 83 64.5 140.5t162.5 57.5q100 0 161.5 -44.5t61.5 -119.5zM997 438l84 -43q70 47 70 135q0 61 -34.5 97.5t-90.5 36.5q-53 0 -84 -30.5t-31 -76.5q0 -75 86 -119zM1067 242l-111 59q-75 -48 -75 -139
q0 -67 40.5 -111.5t104.5 -44.5q62 0 100.5 33t38.5 84q0 24 -7 42.5t-23 33t-29.5 22.5t-38.5 21z" />
    <glyph glyph-name="uni215D" unicode="&#x215d;" horiz-adv-x="1366" 
d="M164 -20l979 1478h51l-979 -1478h-51zM508 1305h-307l-15 -82q166 -6 265.5 -68t99.5 -178q0 -95 -72.5 -164.5t-173.5 -69.5q-106 0 -168.5 42.5t-62.5 103.5q0 26 13 47t32 29h90q-6 -21 -6 -45q0 -65 27.5 -106.5t91.5 -41.5q55 0 88.5 39.5t33.5 99.5q0 84 -80.5 133
t-230.5 52l60 342h253q36 0 53 7.5t29 31.5h19zM1249 528q0 -53 -46.5 -90.5t-108.5 -50.5q180 -78 180 -201q0 -92 -77 -149t-173 -57q-105 0 -179.5 48.5t-74.5 127.5q0 108 172 153q-67 31 -105 79t-38 106q0 83 64.5 140.5t162.5 57.5q100 0 161.5 -44.5t61.5 -119.5z
M995 438l84 -43q70 47 70 135q0 61 -34.5 97.5t-90.5 36.5q-54 0 -85.5 -30.5t-31.5 -76.5q0 -74 88 -119zM1065 242l-111 59q-75 -48 -75 -139q0 -67 40.5 -111.5t104.5 -44.5q62 0 99.5 32.5t37.5 84.5q0 46 -23.5 70t-72.5 49z" />
    <glyph glyph-name="uni215E" unicode="&#x215e;" horiz-adv-x="1286" 
d="M78 -20l979 1478h51l-979 -1478h-51zM526 1298h-311q-73 0 -113 -106h-20l47 246h494v-21l-334 -663h-103zM1167 528q0 -53 -46.5 -90.5t-108.5 -50.5q182 -79 182 -201q0 -92 -78 -149t-174 -57q-105 0 -179.5 48.5t-74.5 127.5q0 108 172 153q-67 31 -105 79t-38 106
q0 83 64.5 140.5t162.5 57.5q100 0 161.5 -44.5t61.5 -119.5zM913 438l84 -43q70 47 70 135q0 61 -34 97.5t-91 36.5q-53 0 -84 -30.5t-31 -76.5q0 -75 86 -119zM983 242l-111 59q-75 -48 -75 -139q0 -66 41 -111t104 -45q62 0 100.5 33t38.5 84q0 24 -7 42.5t-23 33
t-29.5 22.5t-38.5 21z" />
    <glyph glyph-name="minus" unicode="&#x2212;" horiz-adv-x="1155" 
d="M129 717v45h897v-45h-897z" />
    <glyph glyph-name="approxequal" unicode="&#x2248;" horiz-adv-x="1155" 
d="M129 807v55q127 82 242 82q78 0 205 -40t204 -40q121 0 246 82v-55q-125 -82 -246 -82q-77 0 -204 40t-205 40q-115 0 -242 -82zM129 518v55q127 82 242 82q78 0 205 -40t204 -40q121 0 246 82v-55q-125 -82 -246 -82q-77 0 -204 40t-205 40q-115 0 -242 -82z" />
    <glyph glyph-name="notequal" unicode="&#x2260;" horiz-adv-x="1155" 
d="M1026 573h-545l-192 -251h-58l193 251h-295v45h330l184 242h-514v45h549l190 250h58l-191 -250h291v-45h-326l-184 -242h510v-45z" />
    <glyph glyph-name="lessequal" unicode="&#x2264;" horiz-adv-x="892" 
d="M129 795v16l635 305v-57l-539 -256l539 -256v-58zM129 307v45h635v-45h-635z" />
    <glyph glyph-name="greaterequal" unicode="&#x2265;" horiz-adv-x="892" 
d="M764 811v-16l-635 -306v58l539 256l-539 256v57zM764 352v-45h-635v45h635z" />
    <glyph glyph-name="i.dot" horiz-adv-x="567" 
d="M293 1239q-62 0 -104 42t-42 101q0 61 42 103.5t104 42.5q64 0 105.5 -42.5t41.5 -103.5q0 -60 -42 -101.5t-105 -41.5zM403 1094v-977q0 -56 30 -72.5t114 -21.5v-23h-514v23q83 5 112 21.5t29 72.5v784l-135 78v8l356 107h8z" />
    <glyph glyph-name="uni00200326" horiz-adv-x="1024" 
d="M545 -307h-105q-37 9 -57.5 36.5t-20.5 63.5q0 50 39 82.5t95 32.5q67 0 108 -44t41 -114q0 -88 -72 -153.5t-194 -65.5v14q73 7 119.5 52.5t46.5 95.5z" />
    <glyph glyph-name="bracketleft.cap" horiz-adv-x="651" 
d="M340 1430v-1489q0 -74 43.5 -94.5t179.5 -28.5v-25h-389v1784h389v-25q-59 -4 -87.5 -6.5t-60.5 -10t-45 -20t-21.5 -33t-8.5 -52.5z" />
    <glyph glyph-name="endash.cap" horiz-adv-x="1105" 
d="M1044 731h-983v62h983v-62z" />
    <glyph glyph-name="braceright.cap" horiz-adv-x="710" 
d="M608 694v-14q-170 -28 -170 -205v-418q0 -122 -95 -192t-259 -70v19q90 10 136 56t46 144v439q0 51 24.5 91.5t69.5 67t92 43.5t109 31q-295 62 -295 234v438q0 98 -46 144.5t-136 56.5v18q164 0 259 -70t95 -192v-416q0 -177 170 -205z" />
    <glyph glyph-name="hyphen.cap" horiz-adv-x="655" 
d="M594 723h-533v84h533v-84z" />
    <glyph glyph-name="dotbelow" horiz-adv-x="1024" 
d="M510 -373q-61 0 -102 42.5t-41 101.5t41 101t102 42q64 0 105.5 -42t41.5 -101q0 -60 -42 -102t-105 -42z" />
    <glyph glyph-name="caron.Slovak" horiz-adv-x="1024" 
d="M647 1573l-246 -430h-8l37 438h217v-8z" />
    <glyph glyph-name="commaturn" horiz-adv-x="1024" 
d="M465 1452h104q37 -9 57.5 -36.5t20.5 -63.5q0 -50 -38.5 -82.5t-94.5 -32.5q-67 0 -108 44t-41 114q0 88 72 153.5t194 65.5v-15q-73 -7 -119.5 -52t-46.5 -95z" />
    <glyph glyph-name="slash.cap" horiz-adv-x="776" 
d="M719 1577l-615 -1784h-47l615 1784h47z" />
    <glyph glyph-name="exclamdown.cap" horiz-adv-x="514" 
d="M256 1143q-65 0 -111.5 45.5t-46.5 111.5t46.5 112t111.5 46q66 0 112 -46t46 -112t-46 -111.5t-112 -45.5zM246 1024h18l146 -1024h-308z" />
    <glyph glyph-name="parenright.cap" horiz-adv-x="708" 
d="M86 1577q241 -194 370.5 -421t129.5 -470q0 -245 -129.5 -472t-370.5 -421h-27q92 95 156.5 202.5t100.5 222.5t51.5 228t15.5 240q0 263 -73.5 485.5t-250.5 405.5h27z" />
    <glyph glyph-name="commaaboverightcmb" 
d="M127 1573l-246 -430h-8l37 438h217v-8z" />
    <glyph glyph-name="published" horiz-adv-x="1622" 
d="M811 -20q-209 0 -378 99.5t-262 268t-93 371.5t93 371.5t262 268t378 99.5t378 -99.5t262 -268t93 -371.5t-93 -371.5t-262 -268t-378 -99.5zM811 1423q-150 0 -280.5 -55.5t-222 -150.5t-143.5 -224.5t-52 -273.5q0 -193 88.5 -354t249 -256t360.5 -95t361 95t249 256
t88 354q0 144 -52 273.5t-143 224.5t-221.5 150.5t-281.5 55.5zM856 653h-100v-233q0 -49 30.5 -64t108.5 -18v-23h-401v23q62 2 83 17t21 65v604q0 50 -21 65t-83 17v22h362q154 0 234.5 -67t80.5 -166q0 -113 -79 -177.5t-236 -64.5zM756 1096v-410h75q90 0 138.5 57.5
t48.5 149.5q0 82 -51 142.5t-146 60.5h-65z" />
    <glyph glyph-name="CR" horiz-adv-x="413" 
 />
    <glyph glyph-name="brokenbar.cap" horiz-adv-x="413" 
d="M229 1577v-760h-45v760h45zM229 553v-760h-45v760h45z" />
    <glyph glyph-name="periodcentered.cap" horiz-adv-x="448" 
d="M61 766q0 69 47 115.5t115 46.5q69 0 116.5 -46.5t47.5 -115.5q0 -70 -47.5 -117t-116.5 -47q-68 0 -115 47t-47 117z" />
    <glyph glyph-name="guilsinglleft.cap" horiz-adv-x="548" 
d="M66 725v12l405 398h12l-202 -404l202 -403h-12z" />
    <glyph glyph-name="parenleft.cap" horiz-adv-x="708" 
d="M123 686q0 243 129.5 470t370.5 421h26q-177 -183 -250 -405.5t-73 -485.5q0 -265 73 -487.5t250 -405.5h-26q-241 194 -370.5 421t-129.5 472z" />
    <glyph glyph-name="Edotbelowacute" horiz-adv-x="1273" 
d="M711 1839h266v-6l-361 -299h-8zM1169 0h-1114v23q112 11 142 35t30 108v1106q0 84 -30 108t-142 35v23h1094l10 -355h-20q-32 98 -66 160t-77.5 97t-91.5 48t-118 13h-317v-639h295q94 0 133 52t51 157h23v-457h-23q-12 106 -51 158.5t-133 52.5h-295v-549q0 -81 44 -110
t149 -29h161q259 0 394 383h20zM676 -379q-61 0 -102.5 42t-41.5 101t41.5 101.5t102.5 42.5q63 0 105 -42t42 -102t-41.5 -101.5t-105.5 -41.5z" />
    <glyph glyph-name="questiondown.cap" horiz-adv-x="897" 
d="M637 1300q0 -66 -46 -111.5t-112 -45.5q-65 0 -111 45.5t-46 111.5t46 112t111 46q66 0 112 -46t46 -112zM250 233q0 -105 52 -165t147 -60q62 0 108 35t67 85t21 105q0 82 -20 132h170q28 -15 45.5 -47t17.5 -68q0 -114 -118 -192t-287 -78q-185 0 -299.5 91.5
t-114.5 247.5q0 51 16.5 97.5t40 82t66 76t77.5 67.5t91 67q32 21 54 38.5t45 40t36 46t22 52.5t8.5 63.5t-10.5 74.5h11q58 -35 95.5 -89.5t37.5 -119.5q0 -54 -21 -100.5t-54.5 -81t-73.5 -67t-80.5 -66.5t-74 -70.5t-54.5 -87t-21 -109.5z" />
    <glyph glyph-name="bracketright.cap" horiz-adv-x="651" 
d="M311 -59v1489q0 32 -8.5 52.5t-21.5 33t-45 20t-60.5 10t-87.5 6.5v25h389v-1784h-389v25q136 8 179.5 28.5t43.5 94.5z" />
    <glyph glyph-name="guilsinglright.cap" horiz-adv-x="544" 
d="M479 737v-12l-405 -397h-13l203 403l-203 404h13z" />
    <glyph glyph-name="at.cap" horiz-adv-x="1753" 
d="M1208 256q-75 0 -127.5 31.5t-75.5 85t-28 123t14 145.5q-171 -383 -352 -383q-88 0 -141.5 68t-53.5 190q0 147 78.5 289t203.5 230.5t253 88.5q107 0 168 -71l166 73h10l-55 -180l-111 -436q-55 -223 64 -223q89 0 165.5 94t118 232.5t41.5 277.5q0 128 -35 235.5
t-102.5 187.5t-174 124.5t-241.5 44.5q-138 0 -261 -48.5t-216 -133.5t-161 -197.5t-103 -245t-35 -270.5q0 -154 47.5 -281.5t132 -213.5t203 -133.5t258.5 -47.5q176 0 312.5 35t261.5 114l6 -10q-112 -93 -271.5 -149t-337.5 -56q-225 0 -397 85t-269 248t-97 384
q0 187 71.5 360.5t194 303t295.5 207t366 77.5q161 0 292 -47t219.5 -131.5t136 -202t47.5 -256.5q0 -118 -40.5 -232t-106 -198.5t-154 -136t-179.5 -51.5zM725 371q59 0 130.5 88.5t136 235.5t108.5 319q-9 39 -39 61.5t-72 22.5q-68 0 -133.5 -56t-112.5 -141.5
t-75.5 -188t-28.5 -194.5q0 -68 22 -107.5t64 -39.5z" />
    <glyph glyph-name="guillemotright.cap" horiz-adv-x="851" 
d="M483 737v-12l-405 -397h-12l202 403l-202 404h12zM786 737v-12l-405 -397h-12l202 403l-202 404h12z" />
    <glyph glyph-name="edotbelowacute" horiz-adv-x="972" 
d="M578 1563h266v-9l-365 -342h-12zM942 311q-36 -146 -149.5 -238.5t-272.5 -92.5q-213 0 -343 150t-130 378q0 163 65.5 298t177.5 211.5t245 76.5q186 0 289.5 -116t103.5 -296v-16h-676v-33q0 -228 99.5 -359t264.5 -131q206 0 318 172zM508 1061q-103 0 -171.5 -103
t-82.5 -258h463q0 105 -20.5 183.5t-68.5 128t-120 49.5zM528 -379q-61 0 -102 42t-41 101t41 101.5t102 42.5q64 0 106 -42t42 -102q0 -59 -42 -101t-106 -42z" />
    <glyph glyph-name="backslash.cap" horiz-adv-x="776" 
d="M672 -207l-615 1784h47l615 -1784h-47z" />
    <glyph glyph-name="braceleft.cap" horiz-adv-x="710" 
d="M102 680v14q170 28 170 205v416q0 121 95.5 191.5t259.5 70.5v-18q-90 -10 -136.5 -56.5t-46.5 -144.5v-438q0 -172 -294 -234q49 -11 87.5 -23t79 -32t67 -44t43.5 -58.5t17 -75.5v-439q0 -98 46.5 -144t136.5 -56v-19q-164 0 -259.5 70.5t-95.5 191.5v418
q0 177 -170 205z" />
    <glyph glyph-name="guillemotleft.cap" horiz-adv-x="851" 
d="M369 725v12l405 398h12l-202 -404l202 -403h-12zM66 725v12l405 398h12l-202 -404l202 -403h-12z" />
    <glyph glyph-name="bullet.cap" horiz-adv-x="653" 
d="M61 766q0 109 78 187.5t187 78.5q110 0 188 -78.5t78 -187.5q0 -110 -78 -188t-188 -78q-109 0 -187 78t-78 188z" />
    <glyph glyph-name="emdash.cap" horiz-adv-x="1966" 
d="M1905 793v-62h-1844v62h1844z" />
    <glyph glyph-name="bar.cap" horiz-adv-x="413" 
d="M229 1577v-1784h-45v1784h45z" />
    </font>
</defs>
</svg>
