<svg xmlns="http://www.w3.org/2000/svg">
<defs>
<font id="TodaySansNowPro-Medium" horiz-adv-x="1024" >
  <font-face 
    font-family="TodaySansNow Pro Medium"
    font-weight="500"
    font-stretch="normal"
    units-per-em="2048"
    panose-1="2 0 6 3 2 0 0 2 0 3"
    ascent="1536"
    descent="-512"
    x-height="936"
    cap-height="1366"
    bbox="-348 -563 2617 1872"
    underline-thickness="40"
    underline-position="-413"
    unicode-range="U+0020-FE6A"
  />
<missing-glyph horiz-adv-x="1019" 
d="M901 0h-780v1366h780v-1366zM250 1237v-1106h520v1106h-520z" />
    <glyph glyph-name="IJ" unicode="IJ" horiz-adv-x="1339" 
d="M393 0h-254v1366h254v-1366zM1206 1366v-985q0 -222 -116 -324q-99 -86 -283 -86q-150 0 -275 64l39 203q105 -43 187 -43q63 0 103 19.5t58.5 60t24.5 82t6 106.5v903h256z" />
    <glyph glyph-name="ij" unicode="ij" horiz-adv-x="966" 
d="M381 1225q0 -61 -38 -100.5t-99 -39.5q-62 0 -101 39.5t-39 100.5t39.5 99t100.5 38q60 0 98.5 -39t38.5 -98zM360 0h-239v936h239v-936zM846 936v-1006q0 -113 -17 -190.5t-59 -136.5t-118 -87t-189 -28q-24 0 -54.5 2.5t-48.5 5.5l-18 2l31 172q39 -6 76 -6t64.5 9.5
t44 30t27 41t15 54.5t5.5 58t1 63v1016h240zM866 1225q0 -61 -38 -100.5t-99 -39.5t-100 39t-39 101q0 61 39 99t100 38q60 0 98.5 -39t38.5 -98z" />
    <glyph glyph-name="numero" unicode="No&#x2e;" horiz-adv-x="2314" 
d="M1214 -20l-663 751l-176 199v-930h-234v1346l154 43l651 -738l182 -207v922h234v-1346zM1862 780q-133 0 -222.5 81.5t-89.5 213.5q0 135 92.5 220t227.5 85q130 0 218.5 -85t88.5 -216q0 -133 -90.5 -216t-224.5 -83zM2171 639v-125h-619v125h619zM2003 1065
q0 71 -40 124.5t-108 53.5q-64 0 -99.5 -42t-35.5 -105q0 -75 40 -130t112 -55q63 0 97 44t34 110z" />
    <glyph glyph-name="fi" unicode="fi" horiz-adv-x="1173" 
d="M762 1460l-31 -174q-35 6 -72 6q-62 0 -105.5 -14t-68 -35.5t-37.5 -60t-16.5 -74.5t-3.5 -92v-80h248v-176h-244v-760h-237v760h-187v176h187v113q0 194 120.5 311t315.5 117q58 0 131 -17zM1073 1225q0 -61 -38 -100.5t-99 -39.5t-100 39t-39 101q0 61 39 99t100 38
q60 0 98.5 -39t38.5 -98zM1053 0h-240v936h240v-936z" />
    <glyph glyph-name="fl" unicode="fl" horiz-adv-x="1173" 
d="M762 1460l-31 -174q-35 6 -72 6q-62 0 -105.5 -14t-68 -35.5t-37.5 -60t-16.5 -74.5t-3.5 -92v-80h248v-176h-244v-760h-237v760h-187v176h187v113q0 194 120.5 311t315.5 117q58 0 131 -17zM1055 0h-240v1448h240v-1448z" />
    <glyph glyph-name=".notdef" horiz-adv-x="1019" 
d="M901 0h-780v1366h780v-1366zM250 1237v-1106h520v1106h-520z" />
    <glyph glyph-name=".null" horiz-adv-x="0" 
 />
    <glyph glyph-name="nonmarkingreturn" horiz-adv-x="682" 
 />
    <glyph glyph-name="space" unicode=" " horiz-adv-x="483" 
 />
    <glyph glyph-name="exclam" unicode="!" horiz-adv-x="573" 
d="M449 1366l-48 -995h-170l-59 995h277zM467 123q0 -64 -41.5 -103.5t-103.5 -39.5q-63 0 -104.5 40t-41.5 103q0 65 40 105t106 40q65 0 105 -39.5t40 -105.5z" />
    <glyph glyph-name="quotedbl" unicode="&#x22;" horiz-adv-x="831" 
d="M707 1366l-23 -545h-162l-24 545h209zM334 1366l-25 -545h-162l-22 545h209z" />
    <glyph glyph-name="numbersign" unicode="#" horiz-adv-x="1140" 
d="M96 813l21 135h213l67 418h160l-65 -418h241l66 418h164l-68 -418h211l-21 -135h-211l-40 -250h213l-21 -137h-213l-68 -426h-161l65 426h-241l-66 -426h-162l68 426h-211l20 137h211l41 250h-213zM469 813l-39 -250h242l39 250h-242z" />
    <glyph glyph-name="dollar" unicode="$" horiz-adv-x="1140" 
d="M662 516v-293q120 30 120 144q0 47 -30.5 82t-89.5 67zM500 217v371q-55 23 -89.5 38.5t-83.5 41.5t-79 52.5t-59.5 62t-43.5 79.5t-14 96q0 135 108.5 235.5t260.5 115.5v190h162v-184q203 -19 337 -119l-86 -188q-144 87 -251 102v-326q48 -20 78.5 -34t75.5 -37.5
t73.5 -44t61.5 -50.5t52 -61t31.5 -72t12.5 -86q0 -145 -108.5 -250.5t-276.5 -130.5v-204h-162v198q-128 12 -222.5 43.5t-191.5 96.5l37 225q78 -59 178 -103t199 -57zM500 854v252q-117 -25 -117 -119q0 -40 30 -71.5t87 -61.5z" />
    <glyph glyph-name="percent" unicode="%" horiz-adv-x="1923" 
d="M1815 410q0 -111 -44 -203.5t-130 -149.5t-199 -57q-162 0 -262.5 113.5t-100.5 277.5q0 176 103.5 294t275.5 118q108 0 190.5 -54.5t124.5 -143t42 -195.5zM1329 1343l-561 -1343h-172l561 1343h172zM846 952q0 -175 -100.5 -294t-272.5 -119q-162 0 -262 113.5
t-100 277.5q0 177 102.5 296.5t275.5 119.5q108 0 190.5 -55.5t124.5 -144t42 -194.5zM1614 383q0 43 -9.5 87.5t-29 87.5t-55.5 70t-82 27q-83 0 -124.5 -68.5t-41.5 -158.5q0 -45 10 -90.5t30 -88.5t57.5 -70t86.5 -27q58 0 95 37.5t50 86.5t13 107zM645 922q0 44 -9 89
t-28.5 88t-55.5 70t-83 27q-57 0 -96 -35.5t-54.5 -84.5t-15.5 -105q0 -46 10 -92t30 -89.5t57.5 -70.5t86.5 -27q44 0 76.5 21t49 56.5t24.5 73t8 79.5z" />
    <glyph glyph-name="ampersand" unicode="&#x26;" horiz-adv-x="2164" 
d="M1950 768h-193q-22 -178 -83 -321.5t-161 -248t-245.5 -161.5t-327.5 -57q-203 0 -370 87t-265 248t-98 365q0 158 68 290.5t195 212t288 79.5q148 0 266.5 -77t187.5 -210v-174l-634 -410q72 -98 178 -148t231 -50q127 0 224.5 45t159.5 126.5t98 181t51 222.5h-195v209
h625v-209zM1018 891q-93 172 -270 172q-143 0 -225.5 -100t-82.5 -244q0 -40 9 -83.5t17 -67.5l9 -23z" />
    <glyph glyph-name="quotesingle" unicode="'" horiz-adv-x="458" 
d="M334 1366l-25 -545h-162l-22 545h209z" />
    <glyph glyph-name="parenleft" unicode="(" horiz-adv-x="641" 
d="M588 -338l-162 -68q-7 8 -18.5 22.5t-45.5 64t-65 104t-68.5 140.5t-64.5 174.5t-45.5 204.5t-18.5 233q0 159 33.5 315t81.5 264t96 193.5t81 127.5l34 42l152 -74q-10 -12 -27 -36t-60.5 -106.5t-77 -175.5t-60.5 -242t-27 -308q0 -112 14.5 -221.5t37.5 -193.5
t51 -160t56 -129.5t51 -93t38 -58.5z" />
    <glyph glyph-name="parenright" unicode=")" horiz-adv-x="641" 
d="M215 -406l-162 68q11 13 28.5 38t63 111t80.5 180.5t63.5 243t28.5 302.5q0 116 -14 226.5t-36 194.5t-48.5 158.5t-53.5 126t-49 89t-36 55.5l-14 18l149 74q7 -8 18.5 -22.5t45.5 -64.5t65 -104.5t68.5 -140.5t64.5 -174.5t45.5 -204t18.5 -231.5q0 -160 -33.5 -316.5
t-81.5 -264.5t-96 -193.5t-82 -126.5z" />
    <glyph glyph-name="asterisk" unicode="*" horiz-adv-x="872" 
d="M811 1206l-258 -80l162 -208l-129 -91l-150 230l-151 -230l-129 91l161 208l-258 80l52 152l258 -98l-13 276h158l-12 -276l258 98z" />
    <glyph glyph-name="plus" unicode="+" horiz-adv-x="1140" 
d="M483 47v338h-333v166h333v336h176v-336h332v-166h-332v-338h-176z" />
    <glyph glyph-name="comma" unicode="," horiz-adv-x="464" 
d="M377 252q-22 -149 -77.5 -296.5t-137.5 -268.5l-178 32q159 288 196 551z" />
    <glyph glyph-name="hyphen" unicode="-" horiz-adv-x="643" 
d="M580 602l-23 -203h-494l21 203h496z" />
    <glyph glyph-name="hyphen" unicode="&#xad;" horiz-adv-x="643" 
d="M580 602l-23 -203h-494l21 203h496z" />
    <glyph glyph-name="period" unicode="." horiz-adv-x="444" 
d="M360 119q0 -61 -39.5 -100t-99.5 -39q-61 0 -100 39t-39 100q0 63 38 101t101 38q62 0 100.5 -38t38.5 -101z" />
    <glyph glyph-name="slash" unicode="/" horiz-adv-x="987" 
d="M909 1477l-794 -1876h-185l797 1876h182z" />
    <glyph glyph-name="zero" unicode="0" horiz-adv-x="1140" 
d="M1067 659q0 -103 -14.5 -196.5t-51 -185t-92 -158t-143.5 -107.5t-199 -41q-80 0 -147.5 21.5t-117.5 59t-89 90t-64.5 112t-42 128.5t-23.5 136t-7 137q0 103 16.5 199t55.5 188.5t97 160.5t148 109.5t201 41.5q88 0 161.5 -30.5t124 -84t88 -120.5t58.5 -147t31 -157
t10 -156zM809 647q0 51 -5 108t-21.5 129t-42 128t-71 94.5t-104.5 38.5q-57 0 -101 -32.5t-68 -80.5t-39.5 -111.5t-20 -114.5t-4.5 -101q0 -47 3.5 -94.5t12 -110.5t26.5 -116.5t44.5 -100.5t69 -74t96.5 -27q48 0 86 24t61.5 66t40 89.5t24 104t10.5 98.5t3 83z" />
    <glyph glyph-name="one" unicode="1" horiz-adv-x="1140" 
d="M813 0h-246v1044q-186 -120 -323 -174l-82 154q227 102 575 328l76 -35v-1317z" />
    <glyph glyph-name="two" unicode="2" horiz-adv-x="1140" 
d="M1065 207l-41 -207h-915l-33 131q160 142 330 320q23 24 78 75t93.5 90.5t81.5 91t66 104t23 103.5q0 105 -60.5 162.5t-173.5 57.5q-139 0 -289 -131l-94 159q86 92 195.5 141.5t232.5 49.5q204 0 325.5 -116t121.5 -296q0 -38 -9 -77t-21 -70t-35.5 -68t-41.5 -61.5
t-52 -61t-52.5 -55.5t-57 -56.5t-53.5 -52.5q-105 -108 -254 -233h635z" />
    <glyph glyph-name="three" unicode="3" horiz-adv-x="1140" 
d="M1030 377q0 -122 -70.5 -216.5t-177 -142t-225.5 -47.5q-259 0 -448 158l96 170q141 -131 319 -131q99 0 165.5 55t66.5 154t-77 155t-194 56h-147v178h235q6 2 16 5.5t35 19t44 36t35 57.5t16 81q0 86 -65 135t-154 49q-118 0 -242 -102l-98 155q192 152 403 152
q80 0 153 -22.5t130 -64.5t91 -109.5t34 -151.5q0 -99 -48.5 -166.5t-142.5 -124.5q250 -93 250 -338z" />
    <glyph glyph-name="four" unicode="4" horiz-adv-x="1140" 
d="M1110 518l-25 -182h-194v-336h-238v336h-579l-43 180l712 840l148 -37v-801h219zM655 518v486l-403 -486h403z" />
    <glyph glyph-name="five" unicode="5" horiz-adv-x="1140" 
d="M1018 430q0 -139 -67 -244.5t-179 -160t-250 -54.5q-230 0 -399 113l74 182q150 -96 292 -96q114 0 189.5 70t75.5 182q0 58 -19.5 103.5t-56 76t-81 52t-102.5 33t-111 17t-116 7.5l105 614h614v-207h-416l-47 -244q103 -10 189 -39t156 -81t109.5 -134.5t39.5 -189.5z
" />
    <glyph glyph-name="six" unicode="6" horiz-adv-x="1140" 
d="M1057 438q0 -204 -138.5 -335.5t-343.5 -131.5q-232 0 -361.5 149t-129.5 384q0 159 59 302t162 253t231 192.5t277 137.5l154 -136q-441 -174 -570 -477q59 43 114 61.5t126 18.5q183 0 301.5 -118t118.5 -300zM817 420q0 106 -64.5 180t-168.5 74q-136 0 -246 -123
q-6 -35 -6 -86q0 -76 25.5 -140.5t82.5 -108.5t135 -44q114 0 178 67t64 181z" />
    <glyph glyph-name="seven" unicode="7" horiz-adv-x="1140" 
d="M1100 1217q-224 -426 -590 -1244l-260 54q339 705 555 1091h-666v207h918z" />
    <glyph glyph-name="eight" unicode="8" horiz-adv-x="1140" 
d="M1059 365q0 -97 -42.5 -174t-113 -124t-156.5 -71.5t-178 -24.5q-89 0 -173.5 24.5t-155 70.5t-113.5 122t-43 170q0 235 264 340q-207 103 -207 293q0 87 37.5 158t100 115t140 67t161.5 23q78 0 151.5 -21t134 -61t97 -106.5t36.5 -149.5q0 -112 -54 -184.5
t-161 -116.5q136 -57 205.5 -137t69.5 -213zM774 1012q0 76 -60 124t-136 48q-74 0 -132.5 -43.5t-58.5 -114.5q0 -26 8.5 -50.5t19.5 -42.5t33.5 -38t37 -31t45.5 -28t43 -23l44 -22q76 46 116 96t40 125zM793 340q0 32 -9.5 61.5t-21.5 50.5t-37 43.5t-42 35t-52 30.5
t-51 25t-54 24q-196 -85 -196 -252q0 -97 69 -156t168 -59q95 0 160.5 52.5t65.5 144.5z" />
    <glyph glyph-name="nine" unicode="9" horiz-adv-x="1140" 
d="M1049 825q0 -150 -57 -296t-153.5 -262.5t-226 -204t-272.5 -128.5l-180 123q101 41 180.5 83t160 100.5t141 135.5t95.5 169q-110 -78 -248 -78q-173 0 -286 120t-113 294q0 131 65 240t176 171t242 62q149 0 258.5 -72t163.5 -190.5t54 -266.5zM803 836q0 79 -24 146.5
t-80.5 114t-137.5 46.5q-102 0 -167.5 -70t-65.5 -172q0 -106 65.5 -180t171.5 -74q69 0 122.5 28.5t109.5 84.5q6 38 6 76z" />
    <glyph glyph-name="colon" unicode=":" horiz-adv-x="495" 
d="M412 748q0 -60 -39.5 -100t-100.5 -40q-60 0 -99.5 40t-39.5 100q0 63 38.5 101t100.5 38q63 0 101.5 -38t38.5 -101zM412 139q0 -61 -39 -100t-101 -39q-60 0 -99.5 39t-39.5 100q0 63 38.5 101.5t100.5 38.5q63 0 101.5 -38.5t38.5 -101.5z" />
    <glyph glyph-name="semicolon" unicode=";" horiz-adv-x="495" 
d="M424 748q0 -60 -39 -100t-100 -40q-60 0 -100 40t-40 100q0 63 39 101t101 38q63 0 101 -38t38 -101zM377 252q-22 -149 -77.5 -296.5t-137.5 -268.5l-178 32q159 288 196 551z" />
    <glyph glyph-name="less" unicode="&#x3c;" horiz-adv-x="1140" 
d="M150 555l841 332v-182l-633 -238l633 -238v-182l-841 332v176z" />
    <glyph glyph-name="equal" unicode="=" horiz-adv-x="1140" 
d="M991 561h-841v172h841v-172zM991 203h-841v172h841v-172z" />
    <glyph glyph-name="greater" unicode="&#x3e;" horiz-adv-x="1140" 
d="M991 379l-841 -332v178l632 238l-632 237v187l841 -332v-176z" />
    <glyph glyph-name="question" unicode="?" horiz-adv-x="866" 
d="M799 1032q0 -76 -32 -148t-79 -130t-94.5 -115t-83.5 -125.5t-41 -138.5h-188q-6 73 18 142t63.5 124t80 107t69.5 112t29 119q0 87 -56 139.5t-143 52.5q-57 0 -100.5 -18t-98.5 -57l-80 159q82 70 162 102t183 32t192 -43t144 -126t55 -188zM518 123q0 -63 -40 -103
t-103 -40t-103.5 40t-40.5 103t40.5 103t103.5 40t103 -40t40 -103z" />
    <glyph glyph-name="at" unicode="@" horiz-adv-x="2291" 
d="M2097 670q0 -141 -44.5 -263t-126.5 -212.5t-205 -142.5t-273 -52h-225l26 205q-44 -91 -137.5 -158t-185.5 -67q-122 0 -182 89.5t-60 247.5q0 83 23.5 171.5t71 172t112.5 149.5t154.5 106t189.5 40q159 0 311 -47l-106 -737h51q79 0 144.5 29t110 77t75.5 112
t45 132.5t14 139.5q0 176 -84 303t-228 189.5t-331 62.5q-166 0 -318.5 -63t-267 -172.5t-182.5 -267t-68 -335.5q0 -310 171.5 -471.5t498.5 -161.5q116 0 220.5 16.5t150.5 33.5l47 16l37 -172q-23 -8 -65 -20t-171.5 -32t-257.5 -20q-396 0 -624 205t-228 583
q0 150 39.5 289t110.5 252t171 206t219.5 156t258.5 97.5t285 34.5q171 0 321 -47t264.5 -136t181 -227.5t66.5 -310.5zM1317 776q-41 12 -100 12q-65 0 -119.5 -32t-90.5 -83t-61.5 -115t-37 -125.5t-11.5 -117.5q0 -163 123 -163q34 0 71 24.5t68 62t55 76.5t39 74z" />
    <glyph glyph-name="A" unicode="A" horiz-adv-x="1359" 
d="M1090 0l-148 367h-547l-149 -367h-246l586 1366h196l578 -1366h-270zM479 571h381l-90 228q-51 130 -96 264q-27 -81 -101 -262z" />
    <glyph glyph-name="B" unicode="B" horiz-adv-x="1165" 
d="M1106 381q0 -93 -36 -165t-92.5 -114.5t-135.5 -69.5t-155.5 -36.5t-162.5 -9.5q-127 0 -381 24v1348q233 22 383 22q72 0 138.5 -10.5t131.5 -36t113 -64.5t77.5 -101t29.5 -140q0 -206 -201 -293q136 -35 213.5 -125.5t77.5 -228.5zM762 1001q0 65 -36 111t-90.5 66
t-119.5 20q-86 0 -127 -4v-410h135q58 0 101.5 12.5t69 33t41 50t21 58t5.5 63.5zM842 375q0 118 -76 175.5t-211 57.5h-166v-430q92 -10 160 -10q58 0 106 9.5t92.5 31.5t69.5 64.5t25 101.5z" />
    <glyph glyph-name="C" unicode="C" horiz-adv-x="1247" 
d="M1235 115q-205 -144 -453 -144q-202 0 -363 90.5t-251 251.5t-90 363q0 204 89.5 368t251 257.5t365.5 93.5q242 0 439 -125l-125 -205q-152 96 -312 96q-134 0 -233.5 -62t-150 -167t-50.5 -238q0 -209 128.5 -346t336.5 -137q164 0 313 98z" />
    <glyph glyph-name="D" unicode="D" horiz-adv-x="1437" 
d="M1358 676q0 -166 -68 -310t-198 -241q-182 -135 -607 -135q-137 0 -344 18v1352q246 16 367 16q434 0 639 -190q103 -94 157 -228.5t54 -281.5zM1087 657q0 109 -30.5 196t-84 145.5t-130 97.5t-164.5 56t-191 17l-92 -4v-960q79 -12 172 -12q115 0 207 25.5t163.5 79
t110.5 145t39 214.5z" />
    <glyph glyph-name="E" unicode="E" horiz-adv-x="1046" 
d="M1018 211l-29 -211h-848v1366h783v-209h-533v-344h486v-203h-486v-399h627z" />
    <glyph glyph-name="F" unicode="F" horiz-adv-x="927" 
d="M909 1157h-514v-381h457v-203h-457v-573h-254v1366h768v-209z" />
    <glyph glyph-name="G" unicode="G" horiz-adv-x="1441" 
d="M1329 125q-120 -83 -244 -118.5t-276 -35.5q-213 0 -378 88t-257 251t-92 376q0 206 96 368.5t263 251.5t374 89q301 0 504 -183l-154 -186q-153 141 -360 141q-203 0 -325 -133.5t-122 -337.5q0 -224 136.5 -369t359.5 -145q117 0 225 58v286h-297l21 193h526v-594z" />
    <glyph glyph-name="H" unicode="H" horiz-adv-x="1423" 
d="M1284 0h-254v604h-637v-604h-254v1366h254v-557h637v557h254v-1366z" />
    <glyph glyph-name="I" unicode="I" horiz-adv-x="534" 
d="M393 0h-254v1366h254v-1366z" />
    <glyph glyph-name="J" unicode="J" horiz-adv-x="804" 
d="M672 1366v-985q0 -221 -117 -324q-99 -86 -283 -86q-149 0 -274 64l39 203q105 -43 186 -43q63 0 103 19.5t59 59.5t25 82t6 107v903h256z" />
    <glyph glyph-name="K" unicode="K" horiz-adv-x="1265" 
d="M1278 0h-313l-445 592l-125 -141v-451h-256v1366h256v-627l598 650l267 -48l-558 -596z" />
    <glyph glyph-name="L" unicode="L" horiz-adv-x="995" 
d="M983 217l-31 -217h-815v1366h254v-1149h592z" />
    <glyph glyph-name="M" unicode="M" horiz-adv-x="1810" 
d="M1724 0h-262l-69 625q-5 52 -11 124.5t-9 119t-3 49.5q-1 -2 -20 -48t-47 -111.5t-48 -109.5l-290 -649h-170l-279 633q-101 231 -117 285q0 -50 -26 -293l-70 -625h-225l182 1366h209l297 -686q93 -215 137 -346q3 10 20.5 57t53 136t67.5 161l293 678h209z" />
    <glyph glyph-name="N" unicode="N" horiz-adv-x="1503" 
d="M1214 -20l-659 747q-34 38 -81.5 95t-77.5 94l-31 38q10 -196 10 -329v-625h-234v1346l154 43l623 -707q47 -55 102 -121t86 -105l31 -38q-9 178 -9 313v635h234v-1346z" />
    <glyph glyph-name="O" unicode="O" horiz-adv-x="1572" 
d="M1495 680q0 -209 -90.5 -370.5t-253.5 -250t-373 -88.5q-203 0 -363 93.5t-248.5 256.5t-88.5 365q0 205 95 367.5t261 252t371 89.5q199 0 357.5 -96t245.5 -259.5t87 -359.5zM1223 651q0 79 -19 154.5t-57.5 141.5t-91.5 116t-126 79t-157 29q-195 0 -307.5 -127.5
t-112.5 -324.5q0 -104 31 -197t88 -165.5t145.5 -115t196.5 -42.5q191 0 300.5 129t109.5 323z" />
    <glyph glyph-name="P" unicode="P" horiz-adv-x="1132" 
d="M1081 940q0 -116 -43 -204.5t-118.5 -141.5t-171 -79t-207.5 -26q-59 0 -148 7v-496h-254v1360q205 20 375 20q210 0 348 -69q219 -110 219 -371zM825 924q0 129 -85.5 188t-223.5 59l-123 -6v-471q53 -6 125 -6q61 0 113.5 12.5t97 39t70.5 74t26 110.5z" />
    <glyph glyph-name="Q" unicode="Q" horiz-adv-x="1574" 
d="M1497 680q0 -190 -75.5 -341t-211.5 -245q121 -100 257 -158t311 -94l-189 -176q-357 86 -614 328q-100 -23 -195 -23q-203 0 -363 93.5t-248.5 256.5t-88.5 365q0 205 95 367.5t261 252t371 89.5q199 0 357.5 -96t245.5 -259.5t87 -359.5zM1225 651q0 79 -19 154.5
t-57.5 141.5t-91.5 116t-126 79t-157 29q-195 0 -307.5 -127.5t-112.5 -324.5q0 -104 31 -197t88 -165.5t145.5 -115t196.5 -42.5q191 0 300.5 129t109.5 323z" />
    <glyph glyph-name="R" unicode="R" horiz-adv-x="1218" 
d="M1225 0h-299l-336 530q-78 -10 -197 -10v-520h-254v1360q205 20 371 20q86 0 163 -12t151.5 -41.5t128.5 -75t87 -118t33 -164.5q0 -273 -242 -379zM819 940q0 66 -25 115t-69.5 75.5t-97.5 39t-117 12.5q-24 0 -53 -2t-47 -4l-17 -2v-467h121q71 0 126.5 15.5t88.5 39
t54 55.5t28.5 61.5t7.5 61.5z" />
    <glyph glyph-name="S" unicode="S" horiz-adv-x="1009" 
d="M950 387q0 -126 -66.5 -222.5t-172 -145t-230.5 -48.5q-232 0 -442 144l41 243q81 -80 179.5 -129t201.5 -49q91 0 149 52.5t58 142.5q0 46 -25 83.5t-66 62.5t-93 51t-107 49t-107 57.5t-93 74.5t-66 102.5t-25 139.5q0 121 60 213.5t159 139.5t219 47q205 0 379 -129
l-76 -199q-83 60 -147.5 89.5t-144.5 29.5q-77 0 -130 -44t-53 -126q0 -53 33 -94t85.5 -69.5t116.5 -56t128 -62t116.5 -77.5t85.5 -112t33 -158z" />
    <glyph glyph-name="T" unicode="T" horiz-adv-x="1161" 
d="M1147 1157h-438v-1157h-254v1157h-441v209h1133v-209z" />
    <glyph glyph-name="U" unicode="U" horiz-adv-x="1431" 
d="M1300 1366v-817q0 -145 -30.5 -251.5t-118.5 -186.5q-155 -140 -434 -140q-144 0 -276 46t-210 145q-100 126 -100 387v817h254v-815q0 -194 78 -281q77 -86 254 -86q161 0 239 72q91 84 91 295v815h253z" />
    <glyph glyph-name="V" unicode="V" horiz-adv-x="1329" 
d="M1323 1346l-557 -1346h-201l-557 1346l256 47l283 -711q27 -69 59.5 -158t51.5 -144l18 -54q68 202 129 358l282 709z" />
    <glyph glyph-name="W" unicode="W" horiz-adv-x="1994" 
d="M1982 1346l-534 -1346h-197l-155 391q-82 203 -99 264q-2 -2 -16.5 -44t-38.5 -107.5t-41 -110.5l-153 -393h-199l-539 1346l254 47l316 -801q21 -57 46 -128t40.5 -115.5t17.5 -49.5q2 7 15.5 49t38.5 114t48 130l111 282l-184 472l248 47l301 -779q17 -45 39 -108
t38 -109.5t17 -50.5q1 6 16.5 54.5t38 113.5t37.5 102l299 777z" />
    <glyph glyph-name="X" unicode="X" horiz-adv-x="1333" 
d="M1327 25l-260 -58l-410 557l-415 -557l-240 58l520 680l-485 641l264 47l367 -500l372 500l242 -47l-477 -629z" />
    <glyph glyph-name="Y" unicode="Y" horiz-adv-x="1218" 
d="M1225 1348l-488 -738v-610h-254v610l-485 738l258 45l233 -359q29 -45 63.5 -102.5t54.5 -91.5l20 -35q76 137 137 231l227 357z" />
    <glyph glyph-name="Z" unicode="Z" horiz-adv-x="1222" 
d="M1196 217l-35 -217h-1089l-45 104l772 1051h-693v211h1018l43 -104l-772 -1045h801z" />
    <glyph glyph-name="bracketleft" unicode="[" horiz-adv-x="641" 
d="M580 -225l-19 -158h-422v1829h441l-19 -160h-217v-1511h236z" />
    <glyph glyph-name="backslash" unicode="\" horiz-adv-x="987" 
d="M844 -399l-797 1876h184l795 -1876h-182z" />
    <glyph glyph-name="bracketright" unicode="]" horiz-adv-x="641" 
d="M502 -383h-439l19 158h215v1511h-234l19 162h420v-1831z" />
    <glyph glyph-name="asciicircum" unicode="^" horiz-adv-x="1140" 
d="M86 854l408 682h153l410 -682h-187l-299 516l-301 -516h-184z" />
    <glyph glyph-name="underscore" unicode="_" 
d="M1030 -512h-1036v160h1036v-160z" />
    <glyph glyph-name="grave" unicode="`" 
d="M602 1053l-326 260l211 67l261 -266z" />
    <glyph glyph-name="a" unicode="a" horiz-adv-x="962" 
d="M918 -16q-38 -13 -101 -13q-170 0 -201 113q-83 -60 -141.5 -86.5t-138.5 -26.5q-131 0 -206 78.5t-75 208.5q0 57 19.5 103.5t46.5 78t77 57t87 40t102.5 27t98 17t96.5 12.5q3 0 4.5 0.5t3.5 0.5v27q0 80 -37.5 120.5t-132.5 40.5q-75 0 -147 -25.5t-160 -72.5v180
q200 101 362 101q183 0 281 -101q69 -72 69 -262v-317q0 -29 1 -46.5t6.5 -40.5t16 -36t30.5 -22t49 -9l22 2zM590 201v264q-38 -5 -65 -10t-67 -15t-67 -24t-54 -34.5t-40.5 -50.5t-13.5 -67q0 -58 37 -94.5t94 -36.5q73 0 176 68z" />
    <glyph glyph-name="b" unicode="b" horiz-adv-x="1099" 
d="M1034 487q0 -233 -145 -374.5t-377 -141.5q-61 0 -123.5 11t-108 26.5t-82.5 31.5t-56 27l-19 11v1370h239v-557q13 8 35 20.5t85.5 33t119.5 20.5q129 0 229 -67.5t151.5 -175.5t51.5 -235zM788 461q0 129 -69 215t-195 86q-43 0 -83.5 -13t-59.5 -25l-19 -13v-512
q74 -45 160 -45q125 0 195.5 88t70.5 219z" />
    <glyph glyph-name="c" unicode="c" horiz-adv-x="876" 
d="M870 82q-4 -5 -12.5 -12t-38 -26.5t-64 -34t-91 -26.5t-117.5 -12q-151 0 -261 64t-164 172t-54 248q0 139 62 256t173 185.5t248 68.5q56 0 108.5 -9t88 -22t63 -26t40.5 -22l13 -9l-78 -162q-9 6 -25.5 15t-71.5 24.5t-114 15.5q-87 0 -149 -45.5t-89.5 -111.5
t-27.5 -142q0 -131 72.5 -217t202.5 -86q53 0 104.5 19t77.5 38l25 19z" />
    <glyph glyph-name="d" unicode="d" horiz-adv-x="1122" 
d="M1106 133l-31 -147q-66 -15 -102 -15q-74 0 -130.5 27t-72.5 90q-54 -57 -130.5 -87t-158.5 -30q-99 0 -179 41t-131 110.5t-78 157t-27 183.5q0 101 35 192.5t95.5 160t149.5 109t191 40.5q60 0 103.5 -12t100.5 -42v537h240v-1155q0 -34 1 -52.5t6.5 -43t16 -36.5
t30.5 -21t50 -9zM741 240v465q-79 73 -180 73q-82 0 -141.5 -44.5t-86 -111.5t-26.5 -147q0 -135 69 -220t191 -85q52 0 89.5 16.5t84.5 53.5z" />
    <glyph glyph-name="e" unicode="e" horiz-adv-x="989" 
d="M856 264l84 -129q-153 -164 -405 -164q-219 0 -343 138t-124 352q0 212 131.5 358t341.5 146q64 0 119 -13.5t93.5 -37t70.5 -53.5t52 -63t35 -66t22 -63t11 -53.5t5 -37.5l1 -13l-96 -119h-549q11 -122 88 -202t197 -80q142 0 266 100zM731 598q-6 88 -57.5 138
t-138.5 50t-144 -51t-78 -137h418z" />
    <glyph glyph-name="f" unicode="f" horiz-adv-x="692" 
d="M762 1460l-31 -174q-35 6 -72 6q-62 0 -105.5 -14t-68 -35.5t-37.5 -60t-16.5 -74.5t-3.5 -92v-80h248v-176h-244v-760h-237v760h-187v176h187v113q0 194 120.5 311t315.5 117q58 0 131 -17z" />
    <glyph glyph-name="g" unicode="g" horiz-adv-x="999" 
d="M956 776l-176 15q70 -88 70 -193q0 -152 -113 -245t-268 -93l-80 4q-41 -25 -41 -55q0 -18 21 -32t40.5 -19.5t50.5 -12.5q6 -1 9 -2l72 -16q160 -37 224 -67q154 -71 161 -224v-14q0 -90 -43.5 -162t-114 -114.5t-152 -64.5t-165.5 -22q-62 0 -123.5 10t-123 34
t-108.5 59.5t-76.5 91t-29.5 123.5q0 95 62 165t157 101q-62 39 -62 104q0 52 30 86t83 64q-101 43 -158 124.5t-57 188.5q0 111 58.5 193.5t150 122t199.5 39.5q78 0 200 -31l310 14zM631 604q0 89 -47.5 153t-134.5 64q-81 0 -128 -53.5t-47 -134.5q0 -91 51 -156t140 -65
q81 0 123.5 54.5t42.5 137.5zM696 -219q0 68 -51.5 100t-159.5 56l-143 32q-131 -73 -131 -176q0 -59 42.5 -101t97.5 -58.5t112 -16.5q41 0 80 8.5t74.5 27t57 51.5t21.5 77z" />
    <glyph glyph-name="h" unicode="h" horiz-adv-x="1103" 
d="M989 0h-239v541q0 38 -4 68.5t-14.5 60.5t-28.5 49.5t-47.5 32t-69.5 12.5q-126 0 -224 -123v-641h-239v1448h239v-623q63 66 143.5 103t168.5 37q163 0 248 -119q67 -88 67 -223v-623z" />
    <glyph glyph-name="i" unicode="i" horiz-adv-x="483" 
d="M381 1225q0 -61 -38 -100.5t-99 -39.5q-62 0 -101 39.5t-39 100.5t39.5 99t100.5 38q60 0 98.5 -39t38.5 -98zM360 0h-239v936h239v-936z" />
    <glyph glyph-name="j" unicode="j" horiz-adv-x="483" 
d="M362 936v-1006q0 -113 -17 -190.5t-59 -136.5t-117.5 -87t-188.5 -28q-24 0 -54.5 2.5t-48.5 5.5l-18 2l30 172q39 -6 76 -6q44 0 74.5 15.5t46.5 37.5t25 60t10.5 67t1.5 76v1016h239zM383 1225q0 -61 -38 -100.5t-99 -39.5q-62 0 -101 39.5t-39 100.5t39.5 99t100.5 38
q60 0 98.5 -39t38.5 -98z" />
    <glyph glyph-name="k" unicode="k" horiz-adv-x="1017" 
d="M1032 0h-282l-312 397l-78 -82v-315h-239v1448h239v-879l381 385l244 -45l-375 -377z" />
    <glyph glyph-name="l" unicode="l" horiz-adv-x="483" 
d="M362 0h-239v1448h239v-1448z" />
    <glyph glyph-name="m" unicode="m" horiz-adv-x="1697" 
d="M1591 0h-239v555q0 41 -2.5 69t-11.5 57t-25.5 46t-45 28t-69.5 11q-71 0 -120.5 -32.5t-94.5 -96.5v-637h-240v553q0 49 -5 82.5t-20.5 65t-47 47.5t-80.5 16q-126 0 -215 -127v-637h-240v639q0 185 -61 260l209 66q64 -39 77 -154q56 69 137.5 111.5t168.5 42.5
q96 0 170.5 -41t109.5 -125q77 82 155 124t179 42q74 0 144.5 -29t111.5 -84q55 -74 55 -221v-631z" />
    <glyph glyph-name="n" unicode="n" horiz-adv-x="1110" 
d="M997 0h-239v543q0 48 -7 84.5t-24 69t-50.5 50t-82.5 17.5q-69 0 -121.5 -31.5t-101.5 -91.5v-641h-240v641q0 86 -12 149t-49 109l209 66q64 -36 77 -156q146 156 324 156q175 0 260 -129q57 -88 57 -211v-625z" />
    <glyph glyph-name="o" unicode="o" horiz-adv-x="1128" 
d="M1065 469q0 -222 -136 -360t-364 -138q-219 0 -358 135.5t-139 354.5q0 224 141 364t373 140q143 0 254 -66.5t170 -179t59 -250.5zM821 461q0 61 -15.5 117t-46.5 103.5t-83.5 76t-120.5 28.5q-76 0 -133 -43.5t-85 -109.5t-28 -141q0 -139 72.5 -239.5t202.5 -100.5
q117 0 177 84.5t60 224.5z" />
    <glyph glyph-name="p" unicode="p" horiz-adv-x="1110" 
d="M1047 483q0 -104 -34 -197.5t-94 -163t-149.5 -110.5t-194.5 -41q-98 0 -204 35v-518h-240v1155q0 185 -61 260l209 66q51 -29 65 -95q126 91 285 91q128 0 225 -69.5t145 -177.5t48 -235zM801 465q0 78 -27.5 146t-87 113.5t-139.5 45.5q-87 0 -176 -47v-520
q64 -53 170 -53q85 0 145.5 45t87.5 114.5t27 155.5z" />
    <glyph glyph-name="q" unicode="q" horiz-adv-x="1099" 
d="M977 -512h-240v559q-106 -76 -231 -76q-199 0 -321 136.5t-122 341.5q0 230 145 373t376 143q169 0 393 -70v-1407zM737 227v518q-75 35 -155 35q-128 0 -201.5 -84t-73.5 -213q0 -81 28.5 -151.5t89.5 -118t142 -47.5q49 0 86 14.5t84 46.5z" />
    <glyph glyph-name="r" unicode="r" horiz-adv-x="776" 
d="M774 924l-55 -209q-72 26 -119 26q-31 0 -60 -11.5t-49.5 -26t-45.5 -42t-38 -45.5t-36 -51v-565h-240v641q0 86 -12 149t-49 109l209 66q79 -49 79 -217q29 48 52 79.5t57 66.5t74.5 53t87.5 18q65 0 145 -41z" />
    <glyph glyph-name="s" unicode="s" horiz-adv-x="800" 
d="M745 266q0 -73 -32 -131t-85 -93t-117 -53t-134 -18q-216 0 -354 127l90 162q124 -108 249 -108q132 0 132 100q0 32 -22.5 57t-59 43t-80 35.5t-87 41t-80 53.5t-59 79t-22.5 111q0 139 99.5 216t240.5 77q155 0 297 -86l-70 -172q-118 77 -211 77q-114 0 -114 -92
q0 -32 23 -56.5t60 -42t81.5 -35t89.5 -41.5t82 -55t60 -81.5t23 -114.5z" />
    <glyph glyph-name="t" unicode="t" horiz-adv-x="765" 
d="M770 51q-124 -69 -287 -69q-138 0 -210 72.5t-72 209.5v496h-189v149q60 4 101.5 12t73 25.5t50.5 36.5t34.5 56.5t24.5 72t21 96.5h121v-272h262v-176h-262v-406q0 -37 1.5 -59.5t9 -48.5t21 -40.5t38.5 -24t61 -9.5q25 0 66.5 9t70.5 19l29 9z" />
    <glyph glyph-name="u" unicode="u" horiz-adv-x="1110" 
d="M1092 133l-31 -147q-57 -13 -103 -13q-176 0 -208 136q-132 -138 -293 -138q-180 0 -262 87.5t-82 271.5v606h239v-553q0 -211 166 -211q65 0 110 25t99 79v660h240v-645q0 -34 1 -52t6.5 -42.5t16 -36t30.5 -20.5t50 -9z" />
    <glyph glyph-name="v" unicode="v" horiz-adv-x="972" 
d="M967 913l-379 -913h-211l-371 913l240 41l162 -426q56 -150 86 -254q2 6 13.5 43.5t33 99t39.5 109.5l163 428z" />
    <glyph glyph-name="w" unicode="w" horiz-adv-x="1499" 
d="M1493 913l-369 -913h-206l-173 440l-163 -440h-207l-369 913l232 41l204 -520q15 -38 31 -84t26 -76.5t11 -33.5l4 14q4 13 10.5 32.5t14 43.5t17.5 52t19 52l82 221l-102 258l217 41l197 -522q15 -38 28.5 -80.5t20.5 -65.5l6 -24q20 80 55 172l199 520z" />
    <glyph glyph-name="x" unicode="x" horiz-adv-x="974" 
d="M969 27l-248 -39l-236 334l-239 -340l-238 38l348 461l-323 432l246 41l217 -309l215 309l235 -41l-323 -426z" />
    <glyph glyph-name="y" unicode="y" horiz-adv-x="976" 
d="M969 913l-463 -1093q-142 -332 -404 -332q-60 0 -141 18l35 172q45 -10 84 -10q26 0 50 8.5t42 19t38 33.5t30.5 37.5t28 45.5t23 43t21.5 45l60 131l-361 882l240 41l143 -379q22 -58 46.5 -130.5t38.5 -116.5l14 -43q51 164 102 295l143 374z" />
    <glyph glyph-name="z" unicode="z" horiz-adv-x="894" 
d="M870 178l-32 -178h-787l-24 94l487 666h-440v176h729l33 -92l-488 -666h522z" />
    <glyph glyph-name="braceleft" unicode="{" horiz-adv-x="641" 
d="M557 -383h-113q-146 0 -204 76.5t-58 226.5v299q0 104 -19 147.5t-89 69.5v156q70 25 89 69t19 148v334q0 151 58 228t204 77h113v-158q-103 -1 -136.5 -41.5t-33.5 -146.5v-316q0 -116 -29 -173.5t-129 -100.5q99 -37 128.5 -95.5t29.5 -176.5v-234q0 -35 0.5 -52
t2.5 -45t6 -41.5t12 -32.5t20.5 -28t30 -18.5t42.5 -13t56 -2.5v-156z" />
    <glyph glyph-name="bar" unicode="|" horiz-adv-x="638" 
d="M414 -410h-189v1880h189v-1880z" />
    <glyph glyph-name="braceright" unicode="}" horiz-adv-x="641" 
d="M199 -383h-113v156q57 0 90.5 11t51.5 42t23 70t5 110v234q0 118 29.5 176.5t128.5 95.5q-100 43 -129 100.5t-29 173.5v316q0 51 -5.5 82t-22.5 57.5t-51.5 37.5t-90.5 11v158h113q146 0 204 -77t58 -228v-334q0 -104 19 -148t89 -69v-156q-70 -26 -89 -69.5t-19 -147.5
v-299q0 -150 -58 -226.5t-204 -76.5z" />
    <glyph glyph-name="asciitilde" unicode="~" horiz-adv-x="1140" 
d="M899 659l111 -81q-5 -8 -13 -22.5t-35 -50.5t-55 -63.5t-69 -50t-80 -22.5q-52 0 -106 20t-91 43.5t-83 43.5t-83 20q-28 0 -54.5 -13.5t-43.5 -32t-30.5 -37.5t-20.5 -33l-6 -13l-109 79q3 8 9.5 22.5t29.5 50.5t49 63.5t68.5 50t87.5 22.5q52 0 106 -19.5t91.5 -43
t83.5 -43t83 -19.5q36 0 76 32t62 64z" />
    <glyph glyph-name="nbspace" unicode="&#xa0;" horiz-adv-x="483" 
 />
    <glyph glyph-name="exclamdown" unicode="&#xa1;" horiz-adv-x="573" 
d="M401 823q0 -65 -39 -105t-104 -40q-66 0 -105.5 39.5t-39.5 105.5q0 64 41 104t104 40t103 -40.5t40 -103.5zM399 -414h-274l45 998h172z" />
    <glyph glyph-name="cent" unicode="&#xa2;" horiz-adv-x="1140" 
d="M719 184q44 4 91.5 20t73.5 30l25 14l82 -174q-116 -82 -272 -101v-192h-162v190q-194 29 -305 151t-111 339q0 195 116 332t300 170v186h162v-180q154 -14 282 -107l-90 -168q-8 6 -23 15.5t-65 27.5t-104 23v-576zM557 203v540q-77 -29 -121.5 -99t-44.5 -177
q0 -206 166 -264z" />
    <glyph glyph-name="sterling" unicode="&#xa3;" horiz-adv-x="1140" 
d="M1034 1137q-116 10 -149 10q-43 0 -77.5 -8t-57.5 -18.5t-41 -33t-27.5 -39.5t-18 -51.5t-12 -55.5t-9 -64t-9.5 -66l-17 -104h308v-166h-328l-23 -148q-7 -50 -31.5 -97.5t-45.5 -69.5l-21 -23h594l-35 -203h-960l28 180q106 10 149.5 50.5t63.5 144.5l31 166h-217v166
h238l39 278q7 50 22.5 96t48.5 94.5t79.5 84t120 58.5t165.5 23l153 -6z" />
    <glyph glyph-name="currency" unicode="&#xa4;" horiz-adv-x="1122" 
d="M1044 317l-116 -116q-109 109 -152 159q-101 -63 -213 -63t-213 63q-37 -43 -153 -159l-117 116q117 117 160 154q-66 106 -66 213t66 213q-21 17 -44.5 38t-37 34.5t-42 42.5t-36.5 37l117 116q104 -100 153 -159q105 65 213 65q105 0 213 -65q53 63 152 159l116 -116
q-121 -121 -157 -152q63 -107 63 -213t-63 -213q41 -38 157 -154zM799 684q0 98 -69 167t-167 69q-99 0 -168 -69t-69 -167q0 -99 69 -167t168 -68q98 0 167 68t69 167z" />
    <glyph glyph-name="yen" unicode="&#xa5;" horiz-adv-x="1140" 
d="M104 338l41 176h304v80l-52 92h-293l41 176h154l-246 441l252 45l281 -564l276 564l225 -45l-245 -441h237l-41 -176h-293l-51 -92v-80h344l-41 -176h-303v-338h-245v338h-345z" />
    <glyph glyph-name="brokenbar" unicode="&#xa6;" horiz-adv-x="638" 
d="M225 307h189v-717h-189v717zM225 1470h189v-718h-189v718z" />
    <glyph glyph-name="section" unicode="&#xa7;" horiz-adv-x="1140" 
d="M1006 436q0 -115 -56.5 -198.5t-163.5 -161.5q52 -61 75.5 -112t23.5 -120q0 -112 -59 -193t-150 -119t-201 -38q-127 0 -244 53l39 181q110 -47 193 -47q68 0 116 42.5t48 110.5q0 57 -42.5 110t-125.5 124l-49 41q-48 41 -79.5 70t-72 75t-64 87.5t-40.5 97t-17 114.5
q0 122 52.5 204t160.5 150q-43 59 -62.5 106.5t-19.5 110.5q0 102 57.5 181t145.5 118t188 39q131 0 250 -55l-45 -186q-105 45 -180 45q-68 0 -111 -42t-43 -106q0 -58 44 -113t126 -122l56 -45q55 -45 93 -82t77.5 -88t59.5 -109.5t20 -122.5zM774 408q0 74 -40 133
t-111 125l-154 139q-52 -54 -77 -104t-25 -115q0 -74 29.5 -134t97.5 -122l172 -156q108 100 108 234z" />
    <glyph glyph-name="dieresis" unicode="&#xa8;" 
d="M440 1225q0 -57 -37 -94t-94 -37t-95 37t-38 94q0 56 37 93.5t94 37.5q58 0 95.5 -37t37.5 -94zM846 1225q0 -57 -37 -94t-94 -37q-56 0 -94.5 37.5t-38.5 93.5q0 55 38 93t93 38q58 0 95.5 -37t37.5 -94z" />
    <glyph glyph-name="copyright" unicode="&#xa9;" horiz-adv-x="1449" 
d="M1450 684q0 -202 -100 -367t-268.5 -257.5t-368.5 -92.5q-191 0 -355.5 97.5t-261 263t-96.5 356.5q0 147 58 279.5t156 228t231.5 151.5t279.5 56t279.5 -56t231.5 -151.5t156 -228t58 -279.5zM1307 684q0 157 -77.5 292t-212 214.5t-292.5 79.5q-119 0 -227 -47
t-185.5 -126t-123.5 -187t-46 -226q0 -116 45.5 -224.5t121.5 -188t183 -127.5t224 -48q121 0 230 46t188 124t125.5 187t46.5 231zM952 483l68 -123q-127 -86 -275 -86q-178 0 -297.5 114.5t-119.5 291.5q0 180 121 296t301 116q144 0 264 -74l-78 -127q-94 57 -184 57
q-114 0 -182 -72t-68 -186q0 -117 74.5 -192.5t189.5 -75.5q97 0 186 61z" />
    <glyph glyph-name="ordfeminine" unicode="&#xaa;" horiz-adv-x="667" 
d="M63 975q0 27 7 50.5t21.5 41t30 31t41 24.5t45 18t51 14t50 10t51.5 8.5t46 7.5v2q0 35 -24 63.5t-85 28.5q-37 0 -85.5 -15.5t-77.5 -30.5l-30 -16v121q115 62 228 62q127 0 176 -58.5t49 -165.5v-157q0 -68 10 -88.5t54 -20.5l16 2l-23 -100q-31 -8 -69 -8
q-98 0 -125 69q-37 -25 -55 -36t-53.5 -22t-73.5 -11q-77 0 -126 45t-49 131zM217 977q0 -68 68 -68q11 0 23 2.5t26.5 8.5t23 10t25 12t20.5 10v133q-5 -1 -35 -6t-42.5 -8t-38 -11.5t-37.5 -18t-22.5 -26.5t-10.5 -38zM602 528h-534v125h534v-125z" />
    <glyph glyph-name="guillemotleft" unicode="&#xab;" horiz-adv-x="944" 
d="M881 168l-105 -148l-358 451l358 449l105 -136l-244 -307zM526 168l-106 -148l-357 451l357 449l106 -136l-245 -307z" />
    <glyph glyph-name="logicalnot" unicode="&#xac;" horiz-adv-x="1140" 
d="M991 47h-176v338h-665v166h841v-504z" />
    <glyph glyph-name="registered" unicode="&#xae;" horiz-adv-x="966" 
d="M967 1110q0 -134 -67 -243t-179.5 -169.5t-245.5 -60.5q-196 0 -335.5 136t-139.5 337q0 129 66 238t177 171t240 62q198 0 341 -137.5t143 -333.5zM868 1110q0 160 -112 274.5t-273 114.5q-162 0 -273.5 -114t-111.5 -275q0 -160 110.5 -275.5t268.5 -115.5
q165 0 278 113t113 278zM698 852h-129l-90 195h-69v-195h-109v514q70 8 152 8q56 0 102.5 -12.5t82.5 -49.5t36 -95q0 -98 -96 -140zM567 1204q0 50 -28 68t-76 18h-53v-166h86q32 0 51.5 21.5t19.5 58.5z" />
    <glyph glyph-name="macron" unicode="&#xaf;" 
d="M788 1139h-555v153h555v-153z" />
    <glyph glyph-name="degree" unicode="&#xb0;" horiz-adv-x="733" 
d="M653 1100q0 -125 -83 -203t-203 -78q-122 0 -204.5 76t-82.5 205q0 123 83.5 201.5t203.5 78.5q123 0 204.5 -78t81.5 -202zM510 1100q0 68 -39.5 108.5t-103.5 40.5t-104 -40.5t-40 -108.5q0 -69 40 -109.5t104 -40.5t103.5 41t39.5 109z" />
    <glyph glyph-name="plusminus" unicode="&#xb1;" horiz-adv-x="1140" 
d="M483 258v236h-333v165h333v234h176v-234h332v-165h-332v-236h-176zM991 0h-841v166h841v-166z" />
    <glyph glyph-name="twosuperior" unicode="&#xb2;" horiz-adv-x="782" 
d="M713 864l-29 -153h-592l-22 96q18 16 79 64.5t105.5 87.5t96 91t80 103t28.5 96q0 52 -30.5 79.5t-86.5 27.5q-36 0 -83.5 -18.5t-76.5 -37.5l-30 -18l-56 131q5 5 15 13t41 28.5t63.5 36t81 28.5t94.5 13q130 0 202.5 -69.5t72.5 -184.5q0 -29 -5.5 -56.5t-20.5 -56
t-26 -50t-38 -51t-39 -44t-46.5 -45t-43.5 -38.5t-47.5 -39.5t-41.5 -33.5h355z" />
    <glyph glyph-name="threesuperior" unicode="&#xb3;" horiz-adv-x="782" 
d="M694 940q0 -77 -47.5 -135.5t-117.5 -86.5t-148 -28q-53 0 -102.5 9.5t-82.5 23t-58 27t-36 22.5l-12 10l49 133q3 -3 9.5 -8.5t27.5 -18.5t42.5 -23t54.5 -18.5t65 -8.5q56 0 91.5 28t35.5 80q0 109 -193 109h-45v127h148q3 1 8 3.5t18.5 11.5t23.5 19.5t18 29.5t8 40
q0 47 -30.5 69.5t-80.5 22.5q-36 0 -77 -13t-64 -27l-23 -13l-53 119q5 4 13 9.5t36 21t57 27t73 21t87 9.5q109 0 189.5 -56t80.5 -157q0 -121 -127 -178q78 -22 120 -73t42 -128z" />
    <glyph glyph-name="acute" unicode="&#xb4;" 
d="M748 1313l-324 -260l-148 61l261 266z" />
    <glyph glyph-name="mu" unicode="&#xb5;" horiz-adv-x="1103" 
d="M1087 133l-30 -147q-57 -13 -103 -13q-99 0 -144.5 38.5t-61.5 105.5q-88 -146 -236 -146q-61 0 -121.5 38t-81.5 97q10 -78 10 -198v-170q0 -54 -12 -148h-215q21 115 21 250v1096h239v-553q0 -211 164 -211q70 0 116.5 23t90.5 81v660h240v-612q0 -40 0.5 -60.5
t3.5 -47t9.5 -39t18 -25t29.5 -17t43 -4.5q14 0 20 2z" />
    <glyph glyph-name="paragraph" unicode="&#xb6;" horiz-adv-x="1140" 
d="M1096 1235h-178v-1645h-154v1645h-141v-1645h-154v1090q-40 -4 -59 -4q-154 0 -257.5 96t-103.5 244q0 92 34 160.5t95 109.5t138 60.5t171 19.5h609v-131z" />
    <glyph glyph-name="periodcentered" unicode="&#xb7;" horiz-adv-x="444" 
d="M360 467q0 -61 -39.5 -100t-99.5 -39q-61 0 -100 39t-39 100q0 63 38 101t101 38q62 0 100.5 -38t38.5 -101z" />
    <glyph glyph-name="periodcentered" unicode="&#x2219;" horiz-adv-x="444" 
d="M360 467q0 -61 -39.5 -100t-99.5 -39q-61 0 -100 39t-39 100q0 63 38 101t101 38q62 0 100.5 -38t38.5 -101z" />
    <glyph glyph-name="cedilla" unicode="&#xb8;" 
d="M711 -272q0 -89 -73.5 -137t-176.5 -48q-44 0 -81 4.5t-52 9.5l-15 5l25 112q47 -14 96 -14q51 0 74.5 20t23.5 52q0 26 -21.5 43.5t-59.5 17.5q-18 0 -34 -2t-23 -4l-7 -2l70 215h114l-43 -139q5 0 15.5 1t15.5 1q75 0 113.5 -37t38.5 -98z" />
    <glyph glyph-name="onesuperior" unicode="&#xb9;" horiz-adv-x="604" 
d="M451 711h-203v587q-80 -44 -156 -71l-67 119q84 38 177.5 85t145.5 75l51 28l52 -23v-800z" />
    <glyph glyph-name="ordmasculine" unicode="&#xba;" horiz-adv-x="757" 
d="M686 653v-125h-618v125h618zM526 1079q0 74 -42 130.5t-113 56.5q-67 0 -105.5 -44.5t-38.5 -111.5q0 -78 42.5 -135t117.5 -57q67 0 103 46t36 115zM377 795q-133 0 -222 81.5t-89 213.5q0 135 92 220t227 85q130 0 218.5 -85t88.5 -216q0 -133 -90.5 -216t-224.5 -83z
" />
    <glyph glyph-name="guillemotright" unicode="&#xbb;" horiz-adv-x="944" 
d="M881 469l-359 -449l-106 136l246 307l-246 309l106 148zM524 469l-358 -449l-103 136l242 307l-242 309l103 148z" />
    <glyph glyph-name="onequarter" unicode="&#xbc;" horiz-adv-x="1906" 
d="M571 532h-202v588q-80 -44 -156 -71l-68 118q84 38 177.5 85.5t145.5 75.5l52 28l51 -23v-801zM1432 1333l-764 -1333h-193l764 1333h193zM1847 313l-18 -133h-115v-180h-194v180h-344l-33 148l440 495l131 -26v-484h133zM1524 313v260l-221 -260h221z" />
    <glyph glyph-name="onehalf" unicode="&#xbd;" horiz-adv-x="1906" 
d="M571 532h-202v588q-80 -44 -156 -71l-68 118q84 38 177.5 85.5t145.5 75.5l52 28l51 -23v-801zM1432 1333l-764 -1333h-193l764 1333h193zM1817 154l-29 -154h-592l-22 96q18 15 79.5 64t105.5 88t95.5 91.5t80 103.5t28.5 96q0 52 -30.5 79t-86.5 27q-36 0 -84 -18.5
t-78 -36.5l-29 -19l-55 131q5 5 15 13t41 28.5t63.5 36t81 28.5t94.5 13q129 0 201.5 -69.5t72.5 -184.5q0 -26 -6 -52t-14 -48.5t-24.5 -48t-28.5 -43.5t-36 -43.5t-37 -39t-42 -38.5t-40 -35t-41.5 -34.5t-37.5 -30.5h355z" />
    <glyph glyph-name="threequarters" unicode="&#xbe;" horiz-adv-x="1906" 
d="M715 762q0 -77 -48 -135.5t-118 -86.5t-148 -28q-53 0 -102.5 9.5t-82 23t-57.5 27t-37 22.5l-11 10l49 133q3 -3 9.5 -8.5t27 -19t42 -23.5t54.5 -18.5t65 -8.5q56 0 91.5 28.5t35.5 80.5q0 109 -192 109h-45v127h147q3 1 8 3.5t18.5 11.5t23.5 19.5t18 29.5t8 40
q0 47 -30.5 69.5t-80.5 22.5q-36 0 -76.5 -13t-63.5 -27l-23 -13l-54 119q5 4 13.5 9.5t36 21t57 27t73.5 21t87 9.5q109 0 189.5 -56t80.5 -157q0 -121 -127 -178q78 -22 120 -73t42 -128zM1432 1333l-764 -1333h-193l764 1333h193zM1847 313l-18 -133h-115v-180h-194v180
h-344l-33 148l440 495l131 -26v-484h133zM1524 313v260l-221 -260h221z" />
    <glyph glyph-name="questiondown" unicode="&#xbf;" horiz-adv-x="866" 
d="M68 -80q0 79 31 149.5t77 125.5t92.5 109.5t83.5 125t45 148.5h191v-46q0 -58 -27 -118.5t-65.5 -112.5t-77 -103.5t-65.5 -111t-27 -115.5q0 -87 55.5 -139.5t142.5 -52.5q57 0 100.5 19t100.5 59l78 -162q-82 -70 -161.5 -101.5t-182.5 -31.5q-161 0 -276 100t-115 258
zM352 823q0 63 40.5 103.5t103.5 40.5t103 -40.5t40 -103.5t-40 -103t-103 -40t-103.5 40t-40.5 103z" />
    <glyph glyph-name="Agrave" unicode="&#xc0;" horiz-adv-x="1359" 
d="M1090 0l-148 367h-547l-149 -367h-246l586 1366h196l578 -1366h-270zM479 571h381l-90 228q-51 130 -96 264q-27 -81 -101 -262zM698 1483l-385 258l211 69l320 -266z" />
    <glyph glyph-name="Aacute" unicode="&#xc1;" horiz-adv-x="1359" 
d="M1090 0l-148 367h-547l-149 -367h-246l586 1366h196l578 -1366h-270zM479 571h381l-90 228q-51 130 -96 264q-27 -81 -101 -262zM1049 1741l-385 -258l-146 61l322 266z" />
    <glyph glyph-name="Acircumflex" unicode="&#xc2;" horiz-adv-x="1359" 
d="M1090 0l-148 367h-547l-149 -367h-246l586 1366h196l578 -1366h-270zM754 1817l258 -316l-181 -20l-159 192l-160 -192l-166 20l260 316h148zM479 571h381l-90 228q-51 130 -96 264q-27 -81 -101 -262z" />
    <glyph glyph-name="Atilde" unicode="&#xc3;" horiz-adv-x="1359" 
d="M1090 0l-148 367h-547l-149 -367h-246l586 1366h196l578 -1366h-270zM924 1724l114 -53q-34 -81 -91 -130.5t-138 -49.5q-52 0 -140 40t-128 40q-72 0 -109 -84l-113 55q67 182 236 182q52 0 135.5 -37.5t130.5 -37.5q37 0 60 18t43 57zM479 571h381l-90 228
q-51 130 -96 264q-27 -81 -101 -262z" />
    <glyph glyph-name="Adieresis" unicode="&#xc4;" horiz-adv-x="1359" 
d="M1090 0l-148 367h-547l-149 -367h-246l586 1366h196l578 -1366h-270zM479 571h381l-90 228q-51 130 -96 264q-27 -81 -101 -262zM608 1655q0 -57 -36.5 -94t-94.5 -37q-57 0 -94 37.5t-37 93.5q0 57 37 94t94 37q59 0 95 -36t36 -95zM1014 1655q0 -56 -37 -93.5
t-94 -37.5q-55 0 -93 38t-38 93q0 57 37.5 94t93.5 37q59 0 95 -36t36 -95z" />
    <glyph glyph-name="Aring" unicode="&#xc5;" horiz-adv-x="1359" 
d="M1090 0l-148 367h-547l-149 -367h-246l586 1366h196l578 -1366h-270zM459 1591q0 88 65.5 144.5t153.5 56.5q91 0 157 -56.5t66 -144.5t-65.5 -144t-155.5 -56t-155.5 56t-65.5 144zM479 571h381l-90 228q-51 130 -96 264q-27 -81 -101 -262zM575 1591q0 -43 29.5 -72.5
t73.5 -29.5q45 0 74.5 28.5t29.5 73.5q0 44 -29.5 73.5t-72.5 29.5q-46 0 -75.5 -29.5t-29.5 -73.5z" />
    <glyph glyph-name="AE" unicode="&#xc6;" horiz-adv-x="1892" 
d="M1864 211l-29 -211h-848v403h-471l-254 -403h-270l850 1366h927v-209h-532v-344h485v-201h-485v-401h627zM987 608v590l-371 -590h371z" />
    <glyph glyph-name="Ccedilla" unicode="&#xc7;" horiz-adv-x="1247" 
d="M938 -272q0 -89 -73.5 -137t-176.5 -48q-44 0 -80.5 4.5t-51.5 9.5l-15 5l24 112q48 -14 97 -14q51 0 74.5 20t23.5 52q0 26 -22 43.5t-60 17.5q-18 0 -34 -2t-23 -4l-7 -2l62 195q-265 34 -431.5 226t-166.5 470q0 204 89.5 368t251 257.5t365.5 93.5q242 0 439 -125
l-125 -205q-152 96 -312 96q-134 0 -233.5 -62t-150 -167t-50.5 -238q0 -209 128.5 -346t336.5 -137q164 0 313 98l105 -194q-198 -141 -447 -144l-32 -110q5 0 15 1t15 1q75 0 113.5 -37t38.5 -98z" />
    <glyph glyph-name="Egrave" unicode="&#xc8;" horiz-adv-x="1046" 
d="M1018 211l-29 -211h-848v1366h783v-209h-533v-344h486v-203h-486v-399h627zM582 1503l-385 258l211 70l319 -266z" />
    <glyph glyph-name="Eacute" unicode="&#xc9;" horiz-adv-x="1046" 
d="M1018 211l-29 -211h-848v1366h783v-209h-533v-344h486v-203h-486v-399h627zM895 1761l-385 -258l-145 62l321 266z" />
    <glyph glyph-name="Ecircumflex" unicode="&#xca;" horiz-adv-x="1046" 
d="M1018 211l-29 -211h-848v1366h783v-209h-533v-344h486v-203h-486v-399h627zM598 1837l258 -315l-180 -21l-160 193l-160 -193l-166 21l261 315h147z" />
    <glyph glyph-name="Edieresis" unicode="&#xcb;" horiz-adv-x="1046" 
d="M1018 211l-29 -211h-848v1366h783v-209h-533v-344h486v-203h-486v-399h627zM451 1655q0 -57 -37 -94t-95 -37q-57 0 -94 37.5t-37 93.5q0 57 37 94t94 37q59 0 95.5 -36.5t36.5 -94.5zM856 1655q0 -56 -37 -93.5t-94 -37.5q-55 0 -93 38t-38 93q0 57 37.5 94t93.5 37
q59 0 95 -36t36 -95z" />
    <glyph glyph-name="Igrave" unicode="&#xcc;" horiz-adv-x="534" 
d="M393 0h-254v1366h254v-1366zM305 1503l-385 258l211 70l320 -266z" />
    <glyph glyph-name="Iacute" unicode="&#xcd;" horiz-adv-x="534" 
d="M393 0h-254v1366h254v-1366zM616 1761l-385 -258l-145 62l322 266z" />
    <glyph glyph-name="Icircumflex" unicode="&#xce;" horiz-adv-x="534" 
d="M393 0h-254v1366h254v-1366zM342 1837l258 -315l-180 -21l-160 193l-160 -193l-166 21l261 315h147z" />
    <glyph glyph-name="Idieresis" unicode="&#xcf;" horiz-adv-x="534" 
d="M393 0h-254v1366h254v-1366zM217 1655q0 -57 -36.5 -94t-94.5 -37q-57 0 -94 37.5t-37 93.5q0 57 37 94t94 37q58 0 94.5 -36t36.5 -95zM582 1655q0 -56 -37 -93.5t-94 -37.5q-56 0 -94 38t-38 93q0 57 38 94t94 37q59 0 95 -36t36 -95z" />
    <glyph glyph-name="Eth" unicode="&#xd0;" horiz-adv-x="1437" 
d="M0 604v205h141v551q246 16 367 16q434 0 639 -190q103 -94 157 -228.5t54 -281.5q0 -166 -68 -310t-198 -241q-182 -135 -607 -135q-137 0 -344 18v596h-141zM1087 657q0 109 -30.5 196t-84 145.5t-130 97.5t-164.5 56t-191 17l-92 -4v-356h357v-205h-357v-399
q79 -12 172 -12q115 0 207 25.5t163.5 79t110.5 145t39 214.5z" />
    <glyph glyph-name="Ntilde" unicode="&#xd1;" horiz-adv-x="1503" 
d="M1214 -20l-659 747q-34 38 -81.5 95t-77.5 94l-31 38q10 -196 10 -329v-625h-234v1346l154 43l623 -707q47 -55 102 -121t86 -105l31 -38q-9 178 -9 313v635h234v-1346zM995 1765l115 -53q-34 -81 -91 -130.5t-138 -49.5q-52 0 -140.5 40t-128.5 40q-71 0 -108 -84
l-113 55q67 182 236 182q52 0 135.5 -37.5t130.5 -37.5q37 0 59.5 18t42.5 57z" />
    <glyph glyph-name="Ograve" unicode="&#xd2;" horiz-adv-x="1574" 
d="M1497 680q0 -209 -90.5 -370.5t-253.5 -250t-373 -88.5q-203 0 -363 93.5t-248.5 256.5t-88.5 365q0 205 95 367.5t261 252t371 89.5q199 0 357.5 -96t245.5 -259.5t87 -359.5zM1225 651q0 79 -19 154.5t-57.5 141.5t-91.5 116t-126 79t-157 29q-195 0 -307.5 -127.5
t-112.5 -324.5q0 -104 31 -197t88 -165.5t145.5 -115t196.5 -42.5q191 0 300.5 129t109.5 323zM825 1503l-385 258l211 70l320 -266z" />
    <glyph glyph-name="Oacute" unicode="&#xd3;" horiz-adv-x="1574" 
d="M1497 680q0 -209 -90.5 -370.5t-253.5 -250t-373 -88.5q-203 0 -363 93.5t-248.5 256.5t-88.5 365q0 205 95 367.5t261 252t371 89.5q199 0 357.5 -96t245.5 -259.5t87 -359.5zM1225 651q0 79 -19 154.5t-57.5 141.5t-91.5 116t-126 79t-157 29q-195 0 -307.5 -127.5
t-112.5 -324.5q0 -104 31 -197t88 -165.5t145.5 -115t196.5 -42.5q191 0 300.5 129t109.5 323zM1149 1761l-385 -258l-146 62l322 266z" />
    <glyph glyph-name="Ocircumflex" unicode="&#xd4;" horiz-adv-x="1574" 
d="M1497 680q0 -209 -90.5 -370.5t-253.5 -250t-373 -88.5q-203 0 -363 93.5t-248.5 256.5t-88.5 365q0 205 95 367.5t261 252t371 89.5q199 0 357.5 -96t245.5 -259.5t87 -359.5zM1225 651q0 79 -19 154.5t-57.5 141.5t-91.5 116t-126 79t-157 29q-195 0 -307.5 -127.5
t-112.5 -324.5q0 -104 31 -197t88 -165.5t145.5 -115t196.5 -42.5q191 0 300.5 129t109.5 323zM885 1837l258 -315l-180 -21l-160 193l-160 -193l-166 21l260 315h148z" />
    <glyph glyph-name="Otilde" unicode="&#xd5;" horiz-adv-x="1574" 
d="M1497 680q0 -209 -90.5 -370.5t-253.5 -250t-373 -88.5q-203 0 -363 93.5t-248.5 256.5t-88.5 365q0 205 95 367.5t261 252t371 89.5q199 0 357.5 -96t245.5 -259.5t87 -359.5zM1225 651q0 79 -19 154.5t-57.5 141.5t-91.5 116t-126 79t-157 29q-195 0 -307.5 -127.5
t-112.5 -324.5q0 -104 31 -197t88 -165.5t145.5 -115t196.5 -42.5q191 0 300.5 129t109.5 323zM1053 1765l114 -53q-34 -81 -91 -130.5t-138 -49.5q-52 0 -140 40t-128 40q-72 0 -109 -84l-112 55q67 182 235 182q52 0 135.5 -37.5t130.5 -37.5q37 0 60 18t43 57z" />
    <glyph glyph-name="Odieresis" unicode="&#xd6;" horiz-adv-x="1574" 
d="M1497 680q0 -209 -90.5 -370.5t-253.5 -250t-373 -88.5q-203 0 -363 93.5t-248.5 256.5t-88.5 365q0 205 95 367.5t261 252t371 89.5q199 0 357.5 -96t245.5 -259.5t87 -359.5zM1225 651q0 79 -19 154.5t-57.5 141.5t-91.5 116t-126 79t-157 29q-195 0 -307.5 -127.5
t-112.5 -324.5q0 -104 31 -197t88 -165.5t145.5 -115t196.5 -42.5q191 0 300.5 129t109.5 323zM735 1655q0 -57 -36.5 -94t-94.5 -37q-57 0 -94 37.5t-37 93.5q0 57 37 94t94 37q58 0 94.5 -36t36.5 -95zM1141 1655q0 -56 -37 -93.5t-94 -37.5q-56 0 -93.5 38t-37.5 93
q0 57 37.5 94t93.5 37q58 0 94.5 -36t36.5 -95z" />
    <glyph glyph-name="multiply" unicode="&#xd7;" horiz-adv-x="1140" 
d="M301 82l-117 119l265 264l-267 266l125 125l266 -268l265 264l116 -117l-264 -264l268 -266l-122 -125l-269 268z" />
    <glyph glyph-name="Oslash" unicode="&#xd8;" horiz-adv-x="1574" 
d="M1497 680q0 -209 -90.5 -370.5t-253.5 -250t-373 -88.5q-177 0 -325 74l-111 -149l-223 38l168 228q-100 98 -154.5 233t-54.5 291q0 205 95 367.5t261 252t371 89.5q170 0 315 -74l113 156l217 -45l-166 -230q100 -98 155.5 -233.5t55.5 -288.5zM1126 981l-526 -731
q94 -51 215 -51q191 0 300.5 129t109.5 323q0 185 -99 330zM449 387l528 733q-91 51 -203 51q-195 0 -307.5 -127.5t-112.5 -324.5q0 -189 95 -332z" />
    <glyph glyph-name="Ugrave" unicode="&#xd9;" horiz-adv-x="1431" 
d="M1300 1366v-817q0 -145 -30.5 -251.5t-118.5 -186.5q-155 -140 -434 -140q-144 0 -276 46t-210 145q-100 126 -100 387v817h254v-815q0 -194 78 -281q77 -86 254 -86q161 0 239 72q91 84 91 295v815h253zM735 1483l-385 258l211 69l320 -266z" />
    <glyph glyph-name="Uacute" unicode="&#xda;" horiz-adv-x="1431" 
d="M1300 1366v-817q0 -145 -30.5 -251.5t-118.5 -186.5q-155 -140 -434 -140q-144 0 -276 46t-210 145q-100 126 -100 387v817h254v-815q0 -194 78 -281q77 -86 254 -86q161 0 239 72q91 84 91 295v815h253zM1098 1741l-385 -258l-146 61l322 266z" />
    <glyph glyph-name="Ucircumflex" unicode="&#xdb;" horiz-adv-x="1431" 
d="M1300 1366v-817q0 -145 -30.5 -251.5t-118.5 -186.5q-155 -140 -434 -140q-144 0 -276 46t-210 145q-100 126 -100 387v817h254v-815q0 -194 78 -281q77 -86 254 -86q161 0 239 72q91 84 91 295v815h253zM791 1837l258 -315l-181 -21l-159 193l-160 -193l-166 21l260 315
h148z" />
    <glyph glyph-name="Udieresis" unicode="&#xdc;" horiz-adv-x="1431" 
d="M1300 1366v-817q0 -145 -30.5 -251.5t-118.5 -186.5q-155 -140 -434 -140q-144 0 -276 46t-210 145q-100 126 -100 387v817h254v-815q0 -194 78 -281q77 -86 254 -86q161 0 239 72q91 84 91 295v815h253zM643 1655q0 -57 -36.5 -94t-94.5 -37q-57 0 -94 37.5t-37 93.5
q0 57 37 94t94 37q58 0 94.5 -36t36.5 -95zM1049 1655q0 -56 -37 -93.5t-94 -37.5q-56 0 -94 38t-38 93q0 57 38 94t94 37q58 0 94.5 -36t36.5 -95z" />
    <glyph glyph-name="Yacute" unicode="&#xdd;" horiz-adv-x="1218" 
d="M1225 1348l-488 -738v-610h-254v610l-485 738l258 45l233 -359q29 -45 63.5 -102.5t54.5 -91.5l20 -35q76 137 137 231l227 357zM977 1731l-385 -258l-146 61l322 266z" />
    <glyph glyph-name="Thorn" unicode="&#xde;" horiz-adv-x="1132" 
d="M1081 721q0 -116 -43 -204.5t-118.5 -141.5t-171 -79t-207.5 -26q-71 0 -148 6v-276h-254v1366h252v-211q61 6 123 6q193 0 328 -59q239 -105 239 -381zM825 707q0 128 -85.5 187.5t-223.5 59.5l-123 -6v-475q62 -4 92 -4q340 0 340 238z" />
    <glyph glyph-name="germandbls" unicode="&#xdf;" horiz-adv-x="1089" 
d="M1059 303q0 -147 -106 -232t-259 -85q-149 0 -268 73l53 177q102 -66 183 -66q68 0 107.5 33.5t39.5 99.5q0 34 -22.5 71.5t-56 69.5t-73 71.5t-73 76.5t-56 85t-22.5 97q0 42 23 84.5t55 78t64.5 70t55.5 75t23 79.5q0 62 -45 99.5t-111 37.5q-52 0 -91 -19t-61 -48
t-35.5 -72.5t-17.5 -83t-4 -88.5v-1499h-239v1489q0 91 13 164t45 137t82.5 107t129.5 67.5t182 24.5q171 0 275 -80.5t104 -222.5q0 -62 -33.5 -121.5t-73 -97t-73 -77t-33.5 -67.5q0 -27 33 -67t79.5 -86t93 -98.5t79.5 -120.5t33 -136z" />
    <glyph glyph-name="agrave" unicode="&#xe0;" horiz-adv-x="962" 
d="M918 -16q-38 -13 -101 -13q-170 0 -201 113q-83 -60 -141.5 -86.5t-138.5 -26.5q-131 0 -206 78.5t-75 208.5q0 57 19.5 103.5t46.5 78t77 57t87 40t102.5 27t98 17t96.5 12.5q3 0 4.5 0.5t3.5 0.5v27q0 80 -37.5 120.5t-132.5 40.5q-75 0 -147 -25.5t-160 -72.5v180
q200 101 362 101q183 0 281 -101q69 -72 69 -262v-317q0 -29 1 -46.5t6.5 -40.5t16 -36t30.5 -22t49 -9l22 2zM590 201v264q-38 -5 -65 -10t-67 -15t-67 -24t-54 -34.5t-40.5 -50.5t-13.5 -67q0 -58 37 -94.5t94 -36.5q73 0 176 68zM481 1053l-325 260l211 67l260 -266z" />
    <glyph glyph-name="aacute" unicode="&#xe1;" horiz-adv-x="962" 
d="M918 -16q-38 -13 -101 -13q-170 0 -201 113q-83 -60 -141.5 -86.5t-138.5 -26.5q-131 0 -206 78.5t-75 208.5q0 57 19.5 103.5t46.5 78t77 57t87 40t102.5 27t98 17t96.5 12.5q3 0 4.5 0.5t3.5 0.5v27q0 80 -37.5 120.5t-132.5 40.5q-75 0 -147 -25.5t-160 -72.5v180
q200 101 362 101q183 0 281 -101q69 -72 69 -262v-317q0 -29 1 -46.5t6.5 -40.5t16 -36t30.5 -22t49 -9l22 2zM590 201v264q-38 -5 -65 -10t-67 -15t-67 -24t-54 -34.5t-40.5 -50.5t-13.5 -67q0 -58 37 -94.5t94 -36.5q73 0 176 68zM780 1313l-323 -260l-148 61l260 266z
" />
    <glyph glyph-name="acircumflex" unicode="&#xe2;" horiz-adv-x="962" 
d="M918 -16q-38 -13 -101 -13q-170 0 -201 113q-83 -60 -141.5 -86.5t-138.5 -26.5q-131 0 -206 78.5t-75 208.5q0 57 19.5 103.5t46.5 78t77 57t87 40t102.5 27t98 17t96.5 12.5q3 0 4.5 0.5t3.5 0.5v27q0 80 -37.5 120.5t-132.5 40.5q-75 0 -147 -25.5t-160 -72.5v180
q200 101 362 101q183 0 281 -101q69 -72 69 -262v-317q0 -29 1 -46.5t6.5 -40.5t16 -36t30.5 -22t49 -9l22 2zM590 201v264q-38 -5 -65 -10t-67 -15t-67 -24t-54 -34.5t-40.5 -50.5t-13.5 -67q0 -58 37 -94.5t94 -36.5q73 0 176 68zM551 1407l260 -313l-180 -23l-160 195
l-160 -195l-168 23l260 313h148z" />
    <glyph glyph-name="atilde" unicode="&#xe3;" horiz-adv-x="962" 
d="M918 -16q-38 -13 -101 -13q-170 0 -201 113q-83 -60 -141.5 -86.5t-138.5 -26.5q-131 0 -206 78.5t-75 208.5q0 57 19.5 103.5t46.5 78t77 57t87 40t102.5 27t98 17t96.5 12.5q3 0 4.5 0.5t3.5 0.5v27q0 80 -37.5 120.5t-132.5 40.5q-75 0 -147 -25.5t-160 -72.5v180
q200 101 362 101q183 0 281 -101q69 -72 69 -262v-317q0 -29 1 -46.5t6.5 -40.5t16 -36t30.5 -22t49 -9l22 2zM590 201v264q-38 -5 -65 -10t-67 -15t-67 -24t-54 -34.5t-40.5 -50.5t-13.5 -67q0 -58 37 -94.5t94 -36.5q73 0 176 68zM713 1337l110 -55q-76 -178 -219 -178
q-52 0 -140 40t-128 40q-37 0 -58 -21.5t-40 -62.5l-113 53q33 90 85.5 137t139.5 47q52 0 135.5 -38.5t130.5 -38.5q36 0 56.5 17.5t40.5 59.5z" />
    <glyph glyph-name="adieresis" unicode="&#xe4;" horiz-adv-x="962" 
d="M918 -16q-38 -13 -101 -13q-170 0 -201 113q-83 -60 -141.5 -86.5t-138.5 -26.5q-131 0 -206 78.5t-75 208.5q0 57 19.5 103.5t46.5 78t77 57t87 40t102.5 27t98 17t96.5 12.5q3 0 4.5 0.5t3.5 0.5v27q0 80 -37.5 120.5t-132.5 40.5q-75 0 -147 -25.5t-160 -72.5v180
q200 101 362 101q183 0 281 -101q69 -72 69 -262v-317q0 -29 1 -46.5t6.5 -40.5t16 -36t30.5 -22t49 -9l22 2zM590 201v264q-38 -5 -65 -10t-67 -15t-67 -24t-54 -34.5t-40.5 -50.5t-13.5 -67q0 -58 37 -94.5t94 -36.5q73 0 176 68zM426 1225q0 -57 -37 -94t-94 -37t-95 37
t-38 94q0 56 37 93.5t94 37.5q58 0 95.5 -37t37.5 -94zM831 1225q0 -57 -37 -94t-94 -37q-56 0 -94.5 37.5t-38.5 93.5q0 55 37.5 93t93.5 38q58 0 95.5 -37t37.5 -94z" />
    <glyph glyph-name="aring" unicode="&#xe5;" horiz-adv-x="962" 
d="M918 -16q-38 -13 -101 -13q-170 0 -201 113q-83 -60 -141.5 -86.5t-138.5 -26.5q-131 0 -206 78.5t-75 208.5q0 57 19.5 103.5t46.5 78t77 57t87 40t102.5 27t98 17t96.5 12.5q3 0 4.5 0.5t3.5 0.5v27q0 80 -37.5 120.5t-132.5 40.5q-75 0 -147 -25.5t-160 -72.5v180
q200 101 362 101q183 0 281 -101q69 -72 69 -262v-317q0 -29 1 -46.5t6.5 -40.5t16 -36t30.5 -22t49 -9l22 2zM590 201v264q-38 -5 -65 -10t-67 -15t-67 -24t-54 -34.5t-40.5 -50.5t-13.5 -67q0 -58 37 -94.5t94 -36.5q73 0 176 68zM272 1219q0 88 65.5 143t154.5 55
q91 0 157 -55t66 -143t-66 -144.5t-155 -56.5q-90 0 -156 56.5t-66 144.5zM389 1219q0 -44 29.5 -73.5t73.5 -29.5q45 0 74.5 29t29.5 74q0 44 -29.5 73t-72.5 29q-46 0 -75.5 -29t-29.5 -73z" />
    <glyph glyph-name="ae" unicode="&#xe6;" horiz-adv-x="1521" 
d="M1473 139q-73 -83 -176 -125.5t-216 -42.5q-114 0 -199 39t-161 125q-87 -84 -171 -124t-194 -40q-128 0 -214.5 76.5t-86.5 202.5q0 59 20.5 108t51.5 82t80 59.5t94 41.5t106.5 26.5t104.5 16.5t100 10v27q0 163 -170 163q-129 0 -305 -94v176q186 99 350 99
q96 0 165.5 -30t107.5 -106q73 69 149 102.5t170 33.5q183 0 285.5 -109.5t108.5 -294.5l-78 -112h-555q5 -127 84 -207t204 -80q139 0 265 102zM649 242q-25 63 -32 103.5t-9 115.5q-41 -6 -63.5 -10t-68 -14t-73 -23.5t-58 -33.5t-45.5 -49t-15 -65q0 -61 42 -96t103 -35
q63 0 111 26.5t108 80.5zM1264 598q-6 88 -58 138t-139 50q-86 0 -143 -51t-78 -137h418z" />
    <glyph glyph-name="ccedilla" unicode="&#xe7;" horiz-adv-x="876" 
d="M715 -272q0 -89 -73.5 -137t-176.5 -48q-44 0 -81 4.5t-52 9.5l-15 5l25 112q47 -14 96 -14q51 0 75 20t24 52q0 26 -22 43.5t-60 17.5q-18 0 -34 -2t-23 -4l-7 -2l62 195q-184 27 -284.5 156t-100.5 319q0 139 62 256t173 185.5t248 68.5q56 0 108.5 -9t88 -22t63 -26
t40.5 -22l13 -9l-78 -162q-9 6 -25.5 15t-71.5 24.5t-114 15.5q-87 0 -149 -45.5t-89.5 -111.5t-27.5 -142q0 -131 72.5 -217t202.5 -86q53 0 104.5 19t77.5 38l25 19l79 -162q-4 -4 -12 -11.5t-36 -25.5t-60.5 -32.5t-85.5 -27t-111 -14.5l-33 -110q5 0 15.5 1t15.5 1
q75 0 113.5 -37t38.5 -98z" />
    <glyph glyph-name="egrave" unicode="&#xe8;" horiz-adv-x="989" 
d="M856 264l84 -129q-153 -164 -405 -164q-219 0 -343 138t-124 352q0 212 131.5 358t341.5 146q64 0 119 -13.5t93.5 -37t70.5 -53.5t52 -63t35 -66t22 -63t11 -53.5t5 -37.5l1 -13l-96 -119h-549q11 -122 88 -202t197 -80q142 0 266 100zM731 598q-6 88 -57.5 138
t-138.5 50t-144 -51t-78 -137h418zM545 1053l-326 260l211 67l260 -266z" />
    <glyph glyph-name="eacute" unicode="&#xe9;" horiz-adv-x="989" 
d="M856 264l84 -129q-153 -164 -405 -164q-219 0 -343 138t-124 352q0 212 131.5 358t341.5 146q64 0 119 -13.5t93.5 -37t70.5 -53.5t52 -63t35 -66t22 -63t11 -53.5t5 -37.5l1 -13l-96 -119h-549q11 -122 88 -202t197 -80q142 0 266 100zM731 598q-6 88 -57.5 138
t-138.5 50t-144 -51t-78 -137h418zM834 1313l-324 -260l-148 61l261 266z" />
    <glyph glyph-name="ecircumflex" unicode="&#xea;" horiz-adv-x="989" 
d="M856 264l84 -129q-153 -164 -405 -164q-219 0 -343 138t-124 352q0 212 131.5 358t341.5 146q64 0 119 -13.5t93.5 -37t70.5 -53.5t52 -63t35 -66t22 -63t11 -53.5t5 -37.5l1 -13l-96 -119h-549q11 -122 88 -202t197 -80q142 0 266 100zM731 598q-6 88 -57.5 138
t-138.5 50t-144 -51t-78 -137h418zM614 1407l260 -313l-180 -23l-159 195l-160 -195l-168 23l260 313h147z" />
    <glyph glyph-name="edieresis" unicode="&#xeb;" horiz-adv-x="989" 
d="M856 264l84 -129q-153 -164 -405 -164q-219 0 -343 138t-124 352q0 212 131.5 358t341.5 146q64 0 119 -13.5t93.5 -37t70.5 -53.5t52 -63t35 -66t22 -63t11 -53.5t5 -37.5l1 -13l-96 -119h-549q11 -122 88 -202t197 -80q142 0 266 100zM731 598q-6 88 -57.5 138
t-138.5 50t-144 -51t-78 -137h418zM467 1225q0 -57 -37 -94t-94 -37t-95 37t-38 94q0 56 37 93.5t94 37.5q58 0 95.5 -37t37.5 -94zM872 1225q0 -57 -37 -94t-94 -37q-56 0 -94.5 37.5t-38.5 93.5q0 55 38 93t93 38q58 0 95.5 -37t37.5 -94z" />
    <glyph glyph-name="igrave" unicode="&#xec;" horiz-adv-x="483" 
d="M362 0h-239v936h239v-936zM254 1053l-326 260l211 67l260 -266z" />
    <glyph glyph-name="iacute" unicode="&#xed;" horiz-adv-x="483" 
d="M362 0h-239v936h239v-936zM559 1313l-323 -260l-148 61l260 266z" />
    <glyph glyph-name="icircumflex" unicode="&#xee;" horiz-adv-x="483" 
d="M362 0h-239v936h239v-936zM315 1386l240 -313l-180 -22l-139 194l-140 -194l-168 22l240 313h147z" />
    <glyph glyph-name="idieresis" unicode="&#xef;" horiz-adv-x="483" 
d="M362 0h-239v936h239v-936zM205 1225q0 -57 -35 -94t-90 -37q-54 0 -89.5 37t-35.5 94q0 56 34.5 93.5t88.5 37.5q57 0 92 -37t35 -94zM530 1225q0 -57 -34 -94t-88 -37t-90.5 37t-36.5 94q0 56 35.5 93.5t89.5 37.5q55 0 89.5 -37t34.5 -94z" />
    <glyph glyph-name="eth" unicode="&#xf0;" horiz-adv-x="1128" 
d="M252 1030l-78 119l180 90q-74 39 -176 70l90 174q176 -47 314 -129l233 116l78 -116l-180 -92q172 -145 262 -346.5t90 -423.5q0 -244 -137.5 -382.5t-374.5 -138.5q-224 0 -354.5 137.5t-130.5 354.5q0 209 131.5 351t330.5 142q47 0 87.5 -8t57.5 -16l17 -8
q-59 129 -194 229zM821 444q0 141 -68 234.5t-194 93.5q-117 0 -183.5 -77.5t-66.5 -198.5q0 -144 75.5 -242t199.5 -98q52 0 94 18.5t68 47.5t43.5 68t24.5 77t7 77z" />
    <glyph glyph-name="ntilde" unicode="&#xf1;" horiz-adv-x="1110" 
d="M997 0h-239v543q0 48 -7 84.5t-24 69t-50.5 50t-82.5 17.5q-69 0 -121.5 -31.5t-101.5 -91.5v-641h-240v641q0 86 -12 149t-49 109l209 66q64 -36 77 -156q146 156 324 156q175 0 260 -129q57 -88 57 -211v-625zM774 1337l111 -55q-76 -178 -219 -178q-52 0 -140.5 40
t-128.5 40q-37 0 -58 -21.5t-40 -62.5l-113 53q33 90 86 137t140 47q52 0 135.5 -38.5t130.5 -38.5q36 0 55.5 17.5t40.5 59.5z" />
    <glyph glyph-name="ograve" unicode="&#xf2;" horiz-adv-x="1128" 
d="M1065 469q0 -222 -136 -360t-364 -138q-219 0 -358 135.5t-139 354.5q0 224 141 364t373 140q143 0 254 -66.5t170 -179t59 -250.5zM821 461q0 61 -15.5 117t-46.5 103.5t-83.5 76t-120.5 28.5q-76 0 -133 -43.5t-85 -109.5t-28 -141q0 -139 72.5 -239.5t202.5 -100.5
q117 0 177 84.5t60 224.5zM555 1053l-326 260l211 67l260 -266z" />
    <glyph glyph-name="oacute" unicode="&#xf3;" horiz-adv-x="1128" 
d="M1065 469q0 -222 -136 -360t-364 -138q-219 0 -358 135.5t-139 354.5q0 224 141 364t373 140q143 0 254 -66.5t170 -179t59 -250.5zM821 461q0 61 -15.5 117t-46.5 103.5t-83.5 76t-120.5 28.5q-76 0 -133 -43.5t-85 -109.5t-28 -141q0 -139 72.5 -239.5t202.5 -100.5
q117 0 177 84.5t60 224.5zM881 1313l-324 -260l-147 61l260 266z" />
    <glyph glyph-name="ocircumflex" unicode="&#xf4;" horiz-adv-x="1128" 
d="M1065 469q0 -222 -136 -360t-364 -138q-219 0 -358 135.5t-139 354.5q0 224 141 364t373 140q143 0 254 -66.5t170 -179t59 -250.5zM821 461q0 61 -15.5 117t-46.5 103.5t-83.5 76t-120.5 28.5q-76 0 -133 -43.5t-85 -109.5t-28 -141q0 -139 72.5 -239.5t202.5 -100.5
q117 0 177 84.5t60 224.5zM641 1407l260 -313l-180 -23l-160 195l-160 -195l-168 23l261 313h147z" />
    <glyph glyph-name="otilde" unicode="&#xf5;" horiz-adv-x="1128" 
d="M1065 469q0 -222 -136 -360t-364 -138q-219 0 -358 135.5t-139 354.5q0 224 141 364t373 140q143 0 254 -66.5t170 -179t59 -250.5zM821 461q0 61 -15.5 117t-46.5 103.5t-83.5 76t-120.5 28.5q-76 0 -133 -43.5t-85 -109.5t-28 -141q0 -139 72.5 -239.5t202.5 -100.5
q117 0 177 84.5t60 224.5zM817 1337l111 -55q-76 -178 -219 -178q-52 0 -140.5 40t-128.5 40q-37 0 -58 -21.5t-40 -62.5l-113 53q33 90 86 137t140 47q52 0 135.5 -38.5t130.5 -38.5q36 0 55.5 17.5t40.5 59.5z" />
    <glyph glyph-name="odieresis" unicode="&#xf6;" horiz-adv-x="1128" 
d="M1065 469q0 -222 -136 -360t-364 -138q-219 0 -358 135.5t-139 354.5q0 224 141 364t373 140q143 0 254 -66.5t170 -179t59 -250.5zM821 461q0 61 -15.5 117t-46.5 103.5t-83.5 76t-120.5 28.5q-76 0 -133 -43.5t-85 -109.5t-28 -141q0 -139 72.5 -239.5t202.5 -100.5
q117 0 177 84.5t60 224.5zM510 1225q0 -57 -37 -94t-94 -37t-95 37t-38 94q0 56 37 93.5t94 37.5q58 0 95.5 -37t37.5 -94zM915 1225q0 -57 -37 -94t-94 -37q-56 0 -94.5 37.5t-38.5 93.5q0 55 37.5 93t93.5 38q58 0 95.5 -37t37.5 -94z" />
    <glyph glyph-name="divide" unicode="&#xf7;" horiz-adv-x="1140" 
d="M991 385h-841v166h841v-166zM696 774q0 -57 -35.5 -96t-93.5 -39t-94.5 38.5t-36.5 96.5q0 59 36.5 99t94.5 40q59 0 94 -39.5t35 -99.5zM700 156q0 -58 -37 -95.5t-96 -37.5q-57 0 -95 37.5t-38 95.5q0 60 37 96.5t96 36.5q60 0 96.5 -36.5t36.5 -96.5z" />
    <glyph glyph-name="oslash" unicode="&#xf8;" horiz-adv-x="1128" 
d="M1065 469q0 -222 -136 -360t-364 -138q-133 0 -248 56l-84 -111l-145 43l115 152q-135 135 -135 350q0 224 141 364t373 140q125 0 227 -54l78 105l145 -39l-110 -146q68 -68 105.5 -162t37.5 -200zM821 461q0 104 -41 182l-338 -450q59 -41 142 -41q117 0 177 84.5
t60 224.5zM309 492q0 -108 39 -187l338 445q-55 36 -131 36t-133 -43.5t-85 -109.5t-28 -141z" />
    <glyph glyph-name="ugrave" unicode="&#xf9;" horiz-adv-x="1110" 
d="M1092 133l-31 -147q-57 -13 -103 -13q-176 0 -208 136q-132 -138 -293 -138q-180 0 -262 87.5t-82 271.5v606h239v-553q0 -211 166 -211q65 0 110 25t99 79v660h240v-645q0 -34 1 -52t6.5 -42.5t16 -36t30.5 -20.5t50 -9zM543 1053l-326 260l211 67l260 -266z" />
    <glyph glyph-name="uacute" unicode="&#xfa;" horiz-adv-x="1110" 
d="M1092 133l-31 -147q-57 -13 -103 -13q-176 0 -208 136q-132 -138 -293 -138q-180 0 -262 87.5t-82 271.5v606h239v-553q0 -211 166 -211q65 0 110 25t99 79v660h240v-645q0 -34 1 -52t6.5 -42.5t16 -36t30.5 -20.5t50 -9zM868 1313l-323 -260l-148 61l260 266z" />
    <glyph glyph-name="ucircumflex" unicode="&#xfb;" horiz-adv-x="1110" 
d="M1092 133l-31 -147q-57 -13 -103 -13q-176 0 -208 136q-132 -138 -293 -138q-180 0 -262 87.5t-82 271.5v606h239v-553q0 -211 166 -211q65 0 110 25t99 79v660h240v-645q0 -34 1 -52t6.5 -42.5t16 -36t30.5 -20.5t50 -9zM629 1407l260 -313l-180 -23l-160 195l-160 -195
l-168 23l260 313h148z" />
    <glyph glyph-name="udieresis" unicode="&#xfc;" horiz-adv-x="1110" 
d="M1092 133l-31 -147q-57 -13 -103 -13q-176 0 -208 136q-132 -138 -293 -138q-180 0 -262 87.5t-82 271.5v606h239v-553q0 -211 166 -211q65 0 110 25t99 79v660h240v-645q0 -34 1 -52t6.5 -42.5t16 -36t30.5 -20.5t50 -9zM483 1225q0 -57 -37 -94t-94 -37t-95 37t-38 94
q0 56 37 93.5t94 37.5q58 0 95.5 -37t37.5 -94zM889 1225q0 -57 -37 -94t-94 -37q-56 0 -94.5 37.5t-38.5 93.5q0 55 37.5 93t93.5 38q58 0 95.5 -37t37.5 -94z" />
    <glyph glyph-name="yacute" unicode="&#xfd;" horiz-adv-x="976" 
d="M969 913l-463 -1093q-142 -332 -404 -332q-60 0 -141 18l35 172q45 -10 84 -10q26 0 50 8.5t42 19t38 33.5t30.5 37.5t28 45.5t23 43t21.5 45l60 131l-361 882l240 41l143 -379q67 -179 99 -290q2 7 15.5 49.5t38.5 115t48 130.5l143 374zM805 1313l-324 -260l-147 61
l260 266z" />
    <glyph glyph-name="thorn" unicode="&#xfe;" horiz-adv-x="1089" 
d="M1026 487q0 -140 -57 -257t-166.5 -188t-249.5 -71q-99 0 -203 35v-518h-239v1960h239v-565q60 45 120 63.5t138 18.5q128 0 225 -68.5t145 -176t48 -233.5zM780 469q0 78 -27.5 145t-87 111.5t-139.5 44.5q-87 0 -176 -47v-520q64 -53 170 -53q126 0 193 92.5t67 226.5z
" />
    <glyph glyph-name="ydieresis" unicode="&#xff;" horiz-adv-x="976" 
d="M969 913l-463 -1093q-142 -332 -404 -332q-60 0 -141 18l35 172q45 -10 84 -10q26 0 50 8.5t42 19t38 33.5t30.5 37.5t28 45.5t23 43t21.5 45l60 131l-361 882l240 41l143 -379q67 -179 99 -290q2 7 15.5 49.5t38.5 115t48 130.5l143 374zM418 1225q0 -57 -37 -94
t-94 -37t-95 37t-38 94q0 56 37 93.5t94 37.5q58 0 95.5 -37t37.5 -94zM823 1225q0 -57 -37 -94t-94 -37q-56 0 -94.5 37.5t-38.5 93.5q0 55 37.5 93t93.5 38q58 0 95.5 -37t37.5 -94z" />
    <glyph glyph-name="Amacron" unicode="&#x100;" horiz-adv-x="1359" 
d="M1090 0l-148 367h-547l-149 -367h-246l586 1366h196l578 -1366h-270zM479 571h381l-90 228q-51 130 -96 264q-27 -81 -101 -262zM956 1516h-555v153h555v-153z" />
    <glyph glyph-name="amacron" unicode="&#x101;" horiz-adv-x="962" 
d="M918 -16q-38 -13 -101 -13q-170 0 -201 113q-83 -60 -141.5 -86.5t-138.5 -26.5q-131 0 -206 78.5t-75 208.5q0 57 19.5 103.5t46.5 78t77 57t87 40t102.5 27t98 17t96.5 12.5q3 0 4.5 0.5t3.5 0.5v27q0 80 -37.5 120.5t-132.5 40.5q-75 0 -147 -25.5t-160 -72.5v180
q200 101 362 101q183 0 281 -101q69 -72 69 -262v-317q0 -29 1 -46.5t6.5 -40.5t16 -36t30.5 -22t49 -9l22 2zM590 201v264q-38 -5 -65 -10t-67 -15t-67 -24t-54 -34.5t-40.5 -50.5t-13.5 -67q0 -58 37 -94.5t94 -36.5q73 0 176 68zM754 1139h-555v153h555v-153z" />
    <glyph glyph-name="Abreve" unicode="&#x102;" horiz-adv-x="1359" 
d="M1090 0l-148 367h-547l-149 -367h-246l586 1366h196l578 -1366h-270zM852 1802l145 -16q-6 -139 -90.5 -220t-232.5 -81q-131 0 -219 80.5t-95 218.5l150 18q12 -72 52.5 -119t111.5 -47q84 0 123.5 43.5t54.5 122.5zM479 571h381l-90 228q-51 130 -96 264
q-27 -81 -101 -262z" />
    <glyph glyph-name="abreve" unicode="&#x103;" horiz-adv-x="962" 
d="M918 -16q-38 -13 -101 -13q-170 0 -201 113q-83 -60 -141.5 -86.5t-138.5 -26.5q-131 0 -206 78.5t-75 208.5q0 57 19.5 103.5t46.5 78t77 57t87 40t102.5 27t98 17t96.5 12.5q3 0 4.5 0.5t3.5 0.5v27q0 80 -37.5 120.5t-132.5 40.5q-75 0 -147 -25.5t-160 -72.5v180
q200 101 362 101q183 0 281 -101q69 -72 69 -262v-317q0 -29 1 -46.5t6.5 -40.5t16 -36t30.5 -22t49 -9l22 2zM590 201v264q-38 -5 -65 -10t-67 -15t-67 -24t-54 -34.5t-40.5 -50.5t-13.5 -67q0 -58 37 -94.5t94 -36.5q73 0 176 68zM809 1376q-6 -139 -91 -220t-233 -81
q-133 0 -219.5 80t-93.5 219l150 19q12 -72 52 -119t111 -47q84 0 124 43.5t55 122.5z" />
    <glyph glyph-name="Aogonek" unicode="&#x104;" horiz-adv-x="1359" 
d="M1090 0l-148 367h-547l-149 -367h-246l586 1366h196l578 -1366q-7 -4 -18 -12t-40 -32t-51.5 -47.5t-40.5 -56t-18 -61.5q0 -30 21 -46.5t53 -16.5q25 0 47 4t31 8l10 4l24 -104q-71 -39 -182 -39q-79 0 -137 33.5t-58 101.5q0 47 24 91.5t58.5 74.5t69 53t58.5 34l24 11
h-145zM479 571h381l-90 228q-51 130 -96 264q-27 -81 -101 -262z" />
    <glyph glyph-name="aogonek" unicode="&#x105;" horiz-adv-x="962" 
d="M918 -16q-7 -4 -18 -12t-40 -32t-51.5 -47.5t-40.5 -56t-18 -61.5q0 -30 20.5 -47t52.5 -17q25 0 47 4.5t32 8.5l9 4l25 -105q-71 -39 -182 -39q-79 0 -137 33.5t-58 101.5q0 48 23.5 92t62 76.5t67 51.5t58.5 34q-128 15 -154 111q-83 -60 -141.5 -86.5t-138.5 -26.5
q-131 0 -206 78.5t-75 208.5q0 57 19.5 103.5t46.5 78t77 57t87 40t102.5 27t98 17t96.5 12.5q3 0 4.5 0.5t3.5 0.5v27q0 80 -37.5 120.5t-132.5 40.5q-75 0 -147 -25.5t-160 -72.5v180q200 101 362 101q183 0 281 -101q69 -72 69 -262v-317q0 -29 1 -46.5t6.5 -40.5t16 -36
t30.5 -22t49 -9l22 2zM590 201v264q-38 -5 -65 -10t-67 -15t-67 -24t-54 -34.5t-40.5 -50.5t-13.5 -67q0 -58 37 -94.5t94 -36.5q73 0 176 68z" />
    <glyph glyph-name="Cacute" unicode="&#x106;" horiz-adv-x="1247" 
d="M1235 115q-205 -144 -453 -144q-202 0 -363 90.5t-251 251.5t-90 363q0 204 89.5 368t251 257.5t365.5 93.5q242 0 439 -125l-125 -205q-152 96 -312 96q-134 0 -233.5 -62t-150 -167t-50.5 -238q0 -209 128.5 -346t336.5 -137q164 0 313 98zM1110 1761l-385 -258
l-145 62l321 266z" />
    <glyph glyph-name="cacute" unicode="&#x107;" horiz-adv-x="876" 
d="M870 82q-4 -5 -12.5 -12t-38 -26.5t-64 -34t-91 -26.5t-117.5 -12q-151 0 -261 64t-164 172t-54 248q0 139 62 256t173 185.5t248 68.5q56 0 108.5 -9t88 -22t63 -26t40.5 -22l13 -9l-78 -162q-9 6 -25.5 15t-71.5 24.5t-114 15.5q-87 0 -149 -45.5t-89.5 -111.5
t-27.5 -142q0 -131 72.5 -217t202.5 -86q53 0 104.5 19t77.5 38l25 19zM827 1313l-323 -260l-148 61l260 266z" />
    <glyph glyph-name="Ccircumflex" unicode="&#x108;" horiz-adv-x="1247" 
d="M1235 115q-205 -144 -453 -144q-202 0 -363 90.5t-251 251.5t-90 363q0 204 89.5 368t251 257.5t365.5 93.5q242 0 439 -125l-125 -205q-152 96 -312 96q-134 0 -233.5 -62t-150 -167t-50.5 -238q0 -209 128.5 -346t336.5 -137q164 0 313 98zM825 1837l258 -315l-180 -21
l-160 193l-159 -193l-166 21l260 315h147z" />
    <glyph glyph-name="ccircumflex" unicode="&#x109;" horiz-adv-x="876" 
d="M870 82q-4 -5 -12.5 -12t-38 -26.5t-64 -34t-91 -26.5t-117.5 -12q-151 0 -261 64t-164 172t-54 248q0 139 62 256t173 185.5t248 68.5q56 0 108.5 -9t88 -22t63 -26t40.5 -22l13 -9l-78 -162q-9 6 -25.5 15t-71.5 24.5t-114 15.5q-87 0 -149 -45.5t-89.5 -111.5
t-27.5 -142q0 -131 72.5 -217t202.5 -86q53 0 104.5 19t77.5 38l25 19zM612 1407l260 -313l-180 -23l-160 195l-159 -195l-168 23l260 313h147z" />
    <glyph glyph-name="Cdotaccent" unicode="&#x10a;" horiz-adv-x="1247" 
d="M1235 115q-205 -144 -453 -144q-202 0 -363 90.5t-251 251.5t-90 363q0 204 89.5 368t251 257.5t365.5 93.5q242 0 439 -125l-125 -205q-152 96 -312 96q-134 0 -233.5 -62t-150 -167t-50.5 -238q0 -209 128.5 -346t336.5 -137q164 0 313 98zM897 1667q0 -59 -39 -99
t-98 -40q-61 0 -101.5 39.5t-40.5 99.5q0 61 40 100t100 39t99.5 -39.5t39.5 -99.5z" />
    <glyph glyph-name="cdotaccent" unicode="&#x10b;" horiz-adv-x="876" 
d="M870 82q-4 -5 -12.5 -12t-38 -26.5t-64 -34t-91 -26.5t-117.5 -12q-151 0 -261 64t-164 172t-54 248q0 139 62 256t173 185.5t248 68.5q56 0 108.5 -9t88 -22t63 -26t40.5 -22l13 -9l-78 -162q-9 6 -25.5 15t-71.5 24.5t-114 15.5q-87 0 -149 -45.5t-89.5 -111.5
t-27.5 -142q0 -131 72.5 -217t202.5 -86q53 0 104.5 19t77.5 38l25 19zM666 1225q0 -60 -39 -100t-99 -40q-62 0 -101.5 39.5t-39.5 100.5t39 99t100 38q60 0 100 -39t40 -98z" />
    <glyph glyph-name="Ccaron" unicode="&#x10c;" horiz-adv-x="1247" 
d="M1235 115q-205 -144 -453 -144q-202 0 -363 90.5t-251 251.5t-90 363q0 204 89.5 368t251 257.5t365.5 93.5q242 0 439 -125l-125 -205q-152 96 -312 96q-134 0 -233.5 -62t-150 -167t-50.5 -238q0 -209 128.5 -346t336.5 -137q164 0 313 98zM1069 1796l-258 -315h-149
l-259 315l183 21l157 -193l162 191z" />
    <glyph glyph-name="ccaron" unicode="&#x10d;" horiz-adv-x="876" 
d="M870 82q-4 -5 -12.5 -12t-38 -26.5t-64 -34t-91 -26.5t-117.5 -12q-151 0 -261 64t-164 172t-54 248q0 139 62 256t173 185.5t248 68.5q56 0 108.5 -9t88 -22t63 -26t40.5 -22l13 -9l-78 -162q-9 6 -25.5 15t-71.5 24.5t-114 15.5q-87 0 -149 -45.5t-89.5 -111.5
t-27.5 -142q0 -131 72.5 -217t202.5 -86q53 0 104.5 19t77.5 38l25 19zM866 1386l-258 -315h-149l-260 315l182 21l158 -190l161 188z" />
    <glyph glyph-name="Dcaron" unicode="&#x10e;" horiz-adv-x="1437" 
d="M1358 676q0 -166 -68 -310t-198 -241q-182 -135 -607 -135q-137 0 -344 18v1352q246 16 367 16q434 0 639 -190q103 -94 157 -228.5t54 -281.5zM1087 657q0 109 -30.5 196t-84 145.5t-130 97.5t-164.5 56t-191 17l-92 -4v-960q79 -12 172 -12q115 0 207 25.5t163.5 79
t110.5 145t39 214.5zM975 1796l-258 -315h-150l-258 315l183 21l157 -193l162 191z" />
    <glyph glyph-name="dcaron" unicode="&#x10f;" horiz-adv-x="1333" 
d="M1106 133l-31 -147q-66 -15 -102 -15q-74 0 -130.5 27t-72.5 90q-54 -57 -130.5 -87t-158.5 -30q-99 0 -179 41t-131 110.5t-78 157t-27 183.5q0 101 35 192.5t95.5 160t149.5 109t191 40.5q60 0 103.5 -12t100.5 -42v537h240v-1155q0 -34 1 -52.5t6.5 -43t16 -36.5
t30.5 -21t50 -9zM741 240v465q-79 73 -180 73q-82 0 -141.5 -44.5t-86 -111.5t-26.5 -147q0 -135 69 -220t191 -85q52 0 89.5 16.5t84.5 53.5zM1335 1448q-3 -114 -45.5 -236t-87.5 -188l-139 47q32 74 54.5 179.5t27.5 197.5h190z" />
    <glyph glyph-name="Dcroat" unicode="&#x110;" horiz-adv-x="1437" 
d="M0 604v205h141v551q246 16 367 16q434 0 639 -190q103 -94 157 -228.5t54 -281.5q0 -166 -68 -310t-198 -241q-182 -135 -607 -135q-137 0 -344 18v596h-141zM1087 657q0 109 -30.5 196t-84 145.5t-130 97.5t-164.5 56t-191 17l-92 -4v-356h357v-205h-357v-399
q79 -12 172 -12q115 0 207 25.5t163.5 79t110.5 145t39 214.5z" />
    <glyph glyph-name="dcroat" unicode="&#x111;" horiz-adv-x="1122" 
d="M1106 133l-31 -147q-66 -15 -102 -15q-74 0 -130.5 27t-72.5 90q-54 -57 -130.5 -87t-158.5 -30q-99 0 -179 41t-131 110.5t-78 157t-27 183.5q0 101 35 192.5t95.5 160t149.5 109t191 40.5q60 0 103.5 -12t100.5 -42v199h-424v154h424v184h240v-184h178v-154h-178v-817
q0 -34 1 -52.5t6.5 -43t16 -36.5t30.5 -21t50 -9zM741 240v465q-79 73 -180 73q-82 0 -141.5 -44.5t-86 -111.5t-26.5 -147q0 -135 69 -220t191 -85q52 0 89.5 16.5t84.5 53.5z" />
    <glyph glyph-name="Emacron" unicode="&#x112;" horiz-adv-x="1046" 
d="M1018 211l-29 -211h-848v1366h783v-209h-533v-344h486v-203h-486v-399h627zM801 1536h-555v154h555v-154z" />
    <glyph glyph-name="emacron" unicode="&#x113;" horiz-adv-x="989" 
d="M856 264l84 -129q-153 -164 -405 -164q-219 0 -343 138t-124 352q0 212 131.5 358t341.5 146q64 0 119 -13.5t93.5 -37t70.5 -53.5t52 -63t35 -66t22 -63t11 -53.5t5 -37.5l1 -13l-96 -119h-549q11 -122 88 -202t197 -80q142 0 266 100zM731 598q-6 88 -57.5 138
t-138.5 50t-144 -51t-78 -137h418zM819 1139h-555v153h555v-153z" />
    <glyph glyph-name="Ebreve" unicode="&#x114;" horiz-adv-x="1046" 
d="M1018 211l-29 -211h-848v1366h783v-209h-533v-344h486v-203h-486v-399h627zM711 1802l145 -16q-6 -139 -91 -220t-233 -81q-131 0 -218.5 80.5t-94.5 218.5l150 18q12 -72 52 -119t111 -47q84 0 124 43.5t55 122.5z" />
    <glyph glyph-name="ebreve" unicode="&#x115;" horiz-adv-x="989" 
d="M856 264l84 -129q-153 -164 -405 -164q-219 0 -343 138t-124 352q0 212 131.5 358t341.5 146q64 0 119 -13.5t93.5 -37t70.5 -53.5t52 -63t35 -66t22 -63t11 -53.5t5 -37.5l1 -13l-96 -119h-549q11 -122 88 -202t197 -80q142 0 266 100zM731 598q-6 88 -57.5 138
t-138.5 50t-144 -51t-78 -137h418zM846 1376q-6 -139 -91 -220t-233 -81q-133 0 -219.5 80t-93.5 219l149 19q12 -72 52.5 -119t111.5 -47q84 0 123.5 43.5t54.5 122.5z" />
    <glyph glyph-name="Edotaccent" unicode="&#x116;" horiz-adv-x="1046" 
d="M1018 211l-29 -211h-848v1366h783v-209h-533v-344h486v-203h-486v-399h627zM680 1667q0 -59 -39 -99t-98 -40q-61 0 -101.5 39.5t-40.5 99.5q0 61 40 100t100 39t99.5 -39.5t39.5 -99.5z" />
    <glyph glyph-name="edotaccent" unicode="&#x117;" horiz-adv-x="989" 
d="M856 264l84 -129q-153 -164 -405 -164q-219 0 -343 138t-124 352q0 212 131.5 358t341.5 146q64 0 119 -13.5t93.5 -37t70.5 -53.5t52 -63t35 -66t22 -63t11 -53.5t5 -37.5l1 -13l-96 -119h-549q11 -122 88 -202t197 -80q142 0 266 100zM731 598q-6 88 -57.5 138
t-138.5 50t-144 -51t-78 -137h418zM680 1225q0 -60 -38.5 -100t-98.5 -40q-62 0 -102 39.5t-40 100.5t39.5 99t100.5 38q60 0 99.5 -39t39.5 -98z" />
    <glyph glyph-name="Eogonek" unicode="&#x118;" horiz-adv-x="1046" 
d="M864 0h-723v1366h783v-209h-533v-344h486v-203h-486v-399h627l-29 -211q-7 -4 -18 -12t-40 -32t-51.5 -47.5t-40.5 -56t-18 -61.5q0 -30 21 -46.5t53 -16.5q25 0 47 4t32 8l9 4l25 -104q-72 -39 -183 -39q-79 0 -136.5 33.5t-57.5 101.5q0 47 24 91.5t58.5 74.5t68.5 53
t58 34z" />
    <glyph glyph-name="eogonek" unicode="&#x119;" horiz-adv-x="989" 
d="M856 264l84 -129q-94 -100 -225 -139q-16 -10 -37 -26.5t-51.5 -45.5t-51 -64.5t-20.5 -68.5q0 -30 21 -46.5t53 -16.5q25 0 47 4t32 8l9 4l24 -104q-71 -39 -182 -39q-79 0 -136.5 33.5t-57.5 101.5q0 76 53.5 135.5t122.5 99.5h-6q-219 0 -343 138t-124 352
q0 212 131.5 358t341.5 146q64 0 119 -13.5t93.5 -37t70.5 -53.5t52 -63t35 -66t22 -63t11 -53.5t5 -37.5l1 -13l-96 -119h-549q11 -122 88 -202t197 -80q142 0 266 100zM731 598q-6 88 -57.5 138t-138.5 50t-144 -51t-78 -137h418z" />
    <glyph glyph-name="Ecaron" unicode="&#x11a;" horiz-adv-x="1046" 
d="M1018 211l-29 -211h-848v1366h783v-209h-533v-344h486v-203h-486v-399h627zM870 1796l-258 -315h-149l-258 315l182 21l158 -193l162 191z" />
    <glyph glyph-name="ecaron" unicode="&#x11b;" horiz-adv-x="989" 
d="M856 264l84 -129q-153 -164 -405 -164q-219 0 -343 138t-124 352q0 212 131.5 358t341.5 146q64 0 119 -13.5t93.5 -37t70.5 -53.5t52 -63t35 -66t22 -63t11 -53.5t5 -37.5l1 -13l-96 -119h-549q11 -122 88 -202t197 -80q142 0 266 100zM731 598q-6 88 -57.5 138
t-138.5 50t-144 -51t-78 -137h418zM877 1386l-259 -315h-149l-260 315l182 21l158 -190l162 188z" />
    <glyph glyph-name="Gcircumflex" unicode="&#x11c;" horiz-adv-x="1441" 
d="M1329 125q-120 -83 -244 -118.5t-276 -35.5q-213 0 -378 88t-257 251t-92 376q0 206 96 368.5t263 251.5t374 89q301 0 504 -183l-154 -186q-153 141 -360 141q-203 0 -325 -133.5t-122 -337.5q0 -224 136.5 -369t359.5 -145q117 0 225 58v286h-297l21 193h526v-594z
M887 1837l258 -315l-180 -21l-160 193l-160 -193l-166 21l260 315h148z" />
    <glyph glyph-name="gcircumflex" unicode="&#x11d;" horiz-adv-x="999" 
d="M956 776l-176 15q70 -88 70 -193q0 -152 -113 -245t-268 -93l-80 4q-41 -25 -41 -55q0 -18 21 -32t40.5 -19.5t50.5 -12.5q6 -1 9 -2l72 -16q160 -37 224 -67q154 -71 161 -224v-14q0 -90 -43.5 -162t-114 -114.5t-152 -64.5t-165.5 -22q-62 0 -123.5 10t-123 34
t-108.5 59.5t-76.5 91t-29.5 123.5q0 95 62 165t157 101q-62 39 -62 104q0 52 30 86t83 64q-101 43 -158 124.5t-57 188.5q0 111 58.5 193.5t150 122t199.5 39.5q78 0 200 -31l310 14zM631 604q0 89 -47.5 153t-134.5 64q-81 0 -128 -53.5t-47 -134.5q0 -91 51 -156t140 -65
q81 0 123.5 54.5t42.5 137.5zM696 -219q0 68 -51.5 100t-159.5 56l-143 32q-131 -73 -131 -176q0 -59 42.5 -101t97.5 -58.5t112 -16.5q41 0 80 8.5t74.5 27t57 51.5t21.5 77zM561 1407l260 -313l-180 -23l-160 195l-159 -195l-168 23l260 313h147z" />
    <glyph glyph-name="Gbreve" unicode="&#x11e;" horiz-adv-x="1441" 
d="M1329 125q-120 -83 -244 -118.5t-276 -35.5q-213 0 -378 88t-257 251t-92 376q0 206 96 368.5t263 251.5t374 89q301 0 504 -183l-154 -186q-153 141 -360 141q-203 0 -325 -133.5t-122 -337.5q0 -224 136.5 -369t359.5 -145q117 0 225 58v286h-297l21 193h526v-594z
M969 1802l145 -16q-6 -139 -90.5 -220t-232.5 -81q-131 0 -219 80.5t-95 218.5l150 18q12 -72 52.5 -119t111.5 -47q84 0 123.5 43.5t54.5 122.5z" />
    <glyph glyph-name="gbreve" unicode="&#x11f;" horiz-adv-x="999" 
d="M956 776l-176 15q70 -88 70 -193q0 -152 -113 -245t-268 -93l-80 4q-41 -25 -41 -55q0 -18 21 -32t40.5 -19.5t50.5 -12.5q6 -1 9 -2l72 -16q160 -37 224 -67q154 -71 161 -224v-14q0 -90 -43.5 -162t-114 -114.5t-152 -64.5t-165.5 -22q-62 0 -123.5 10t-123 34
t-108.5 59.5t-76.5 91t-29.5 123.5q0 95 62 165t157 101q-62 39 -62 104q0 52 30 86t83 64q-101 43 -158 124.5t-57 188.5q0 111 58.5 193.5t150 122t199.5 39.5q78 0 200 -31l310 14zM631 604q0 89 -47.5 153t-134.5 64q-81 0 -128 -53.5t-47 -134.5q0 -91 51 -156t140 -65
q81 0 123.5 54.5t42.5 137.5zM696 -219q0 68 -51.5 100t-159.5 56l-143 32q-131 -73 -131 -176q0 -59 42.5 -101t97.5 -58.5t112 -16.5q41 0 80 8.5t74.5 27t57 51.5t21.5 77zM799 1376q-6 -139 -91 -220t-233 -81q-133 0 -219.5 80t-93.5 219l149 19q12 -72 52.5 -119
t111.5 -47q84 0 123.5 43.5t54.5 122.5z" />
    <glyph glyph-name="Gdotaccent" unicode="&#x120;" horiz-adv-x="1441" 
d="M1329 125q-120 -83 -244 -118.5t-276 -35.5q-213 0 -378 88t-257 251t-92 376q0 206 96 368.5t263 251.5t374 89q301 0 504 -183l-154 -186q-153 141 -360 141q-203 0 -325 -133.5t-122 -337.5q0 -224 136.5 -369t359.5 -145q117 0 225 58v286h-297l21 193h526v-594z
M938 1667q0 -59 -39 -99t-98 -40q-61 0 -101.5 39.5t-40.5 99.5q0 61 40 100t100 39t99.5 -39.5t39.5 -99.5z" />
    <glyph glyph-name="gdotaccent" unicode="&#x121;" horiz-adv-x="999" 
d="M956 776l-176 15q70 -88 70 -193q0 -152 -113 -245t-268 -93l-80 4q-41 -25 -41 -55q0 -18 21 -32t40.5 -19.5t50.5 -12.5q6 -1 9 -2l72 -16q160 -37 224 -67q154 -71 161 -224v-14q0 -90 -43.5 -162t-114 -114.5t-152 -64.5t-165.5 -22q-62 0 -123.5 10t-123 34
t-108.5 59.5t-76.5 91t-29.5 123.5q0 95 62 165t157 101q-62 39 -62 104q0 52 30 86t83 64q-101 43 -158 124.5t-57 188.5q0 111 58.5 193.5t150 122t199.5 39.5q78 0 200 -31l310 14zM631 604q0 89 -47.5 153t-134.5 64q-81 0 -128 -53.5t-47 -134.5q0 -91 51 -156t140 -65
q81 0 123.5 54.5t42.5 137.5zM696 -219q0 68 -51.5 100t-159.5 56l-143 32q-131 -73 -131 -176q0 -59 42.5 -101t97.5 -58.5t112 -16.5q41 0 80 8.5t74.5 27t57 51.5t21.5 77zM616 1225q0 -60 -38.5 -100t-98.5 -40q-62 0 -101.5 39.5t-39.5 100.5t39 99t100 38
q60 0 99.5 -39t39.5 -98z" />
    <glyph glyph-name="Gcommaaccent" unicode="&#x122;" horiz-adv-x="1441" 
d="M1329 125q-120 -83 -244 -118.5t-276 -35.5q-213 0 -378 88t-257 251t-92 376q0 206 96 368.5t263 251.5t374 89q301 0 504 -183l-154 -186q-153 141 -360 141q-203 0 -325 -133.5t-122 -337.5q0 -224 136.5 -369t359.5 -145q117 0 225 58v286h-297l21 193h526v-594z
M868 -139q-3 -114 -45.5 -236t-87.5 -188l-151 47q31 72 52 177t26 200h206z" />
    <glyph glyph-name="gcommaaccent" unicode="&#x123;" horiz-adv-x="999" 
d="M956 776l-176 15q70 -88 70 -193q0 -152 -113 -245t-268 -93l-80 4q-41 -25 -41 -55q0 -18 21 -32t40.5 -19.5t50.5 -12.5q6 -1 9 -2l72 -16q160 -37 224 -67q154 -71 161 -224v-14q0 -90 -43.5 -162t-114 -114.5t-152 -64.5t-165.5 -22q-62 0 -123.5 10t-123 34
t-108.5 59.5t-76.5 91t-29.5 123.5q0 95 62 165t157 101q-62 39 -62 104q0 52 30 86t83 64q-101 43 -158 124.5t-57 188.5q0 111 58.5 193.5t150 122t199.5 39.5q78 0 200 -31l310 14zM631 604q0 89 -47.5 153t-134.5 64q-81 0 -128 -53.5t-47 -134.5q0 -91 51 -156t140 -65
q81 0 123.5 54.5t42.5 137.5zM696 -219q0 68 -51.5 100t-159.5 56l-143 32q-131 -73 -131 -176q0 -59 42.5 -101t97.5 -58.5t112 -16.5q41 0 80 8.5t74.5 27t57 51.5t21.5 77zM354 1077q0 124 39 241.5t88 188.5l154 -53q-70 -170 -70 -377h-211z" />
    <glyph glyph-name="Hcircumflex" unicode="&#x124;" horiz-adv-x="1423" 
d="M1284 0h-254v604h-637v-604h-254v1366h254v-557h637v557h254v-1366zM786 1837l258 -315l-180 -21l-159 193l-160 -193l-166 21l260 315h147z" />
    <glyph glyph-name="hcircumflex" unicode="&#x125;" horiz-adv-x="1103" 
d="M989 0h-239v541q0 38 -4 68.5t-14.5 60.5t-28.5 49.5t-47.5 32t-69.5 12.5q-126 0 -224 -123v-641h-239v1448h239v-623q63 66 143.5 103t168.5 37q163 0 248 -119q67 -88 67 -223v-623zM307 1851l258 -315l-176 -20l-160 194l-159 -194l-170 20l260 315h147z" />
    <glyph glyph-name="Hbar" unicode="&#x126;" horiz-adv-x="1423" 
d="M1284 0h-254v604h-637v-604h-254v1016h-151v166h151v184h254v-184h637v184h254v-184h152v-166h-152v-1016zM393 809h637v207h-637v-207z" />
    <glyph glyph-name="hbar" unicode="&#x127;" horiz-adv-x="1103" 
d="M989 0h-239v541q0 38 -4 68.5t-14.5 60.5t-28.5 49.5t-47.5 32t-69.5 12.5q-126 0 -224 -123v-641h-239v1110h-154v154h154v184h239v-184h449v-154h-449v-285q63 66 143.5 103t168.5 37q163 0 248 -119q67 -88 67 -223v-623z" />
    <glyph glyph-name="Itilde" unicode="&#x128;" horiz-adv-x="534" 
d="M393 0h-254v1366h254v-1366zM512 1765l115 -53q-34 -81 -91.5 -130.5t-138.5 -49.5q-52 0 -140 40t-128 40q-72 0 -109 -84l-112 55q67 182 235 182q52 0 136 -37.5t131 -37.5q37 0 59.5 18t42.5 57z" />
    <glyph glyph-name="itilde" unicode="&#x129;" horiz-adv-x="483" 
d="M362 0h-239v936h239v-936zM481 1337l111 -55q-76 -178 -219 -178q-52 0 -140.5 40t-128.5 40q-37 0 -58 -21.5t-40 -62.5l-112 53q33 90 85.5 137t139.5 47q52 0 135.5 -38.5t130.5 -38.5q36 0 55.5 17.5t40.5 59.5z" />
    <glyph glyph-name="Imacron" unicode="&#x12a;" horiz-adv-x="534" 
d="M393 0h-254v1366h254v-1366zM545 1536h-555v154h555v-154z" />
    <glyph glyph-name="imacron" unicode="&#x12b;" horiz-adv-x="483" 
d="M362 0h-239v936h239v-936zM479 1139h-473v153h473v-153z" />
    <glyph glyph-name="Ibreve" unicode="&#x12c;" horiz-adv-x="534" 
d="M393 0h-254v1366h254v-1366zM440 1802l146 -16q-6 -139 -91 -220t-233 -81q-131 0 -218.5 80.5t-94.5 218.5l149 18q12 -72 52.5 -119t111.5 -47q84 0 123.5 43.5t54.5 122.5z" />
    <glyph glyph-name="ibreve" unicode="&#x12d;" horiz-adv-x="483" 
d="M362 0h-239v936h239v-936zM541 1356q-6 -146 -86 -223.5t-217 -77.5q-123 0 -204.5 75t-88.5 224l149 18q6 -37 14.5 -63t24 -51.5t42 -38.5t63.5 -13q35 0 61 9t41 22t26.5 37.5t16.5 44t12 53.5z" />
    <glyph glyph-name="Iogonek" unicode="&#x12e;" horiz-adv-x="534" 
d="M268 0h-129v1366h254v-1366q-6 -4 -15.5 -12t-33.5 -32t-43 -47.5t-34 -56t-15 -61.5q0 -30 21 -46.5t53 -16.5q25 0 47 4t31 8l10 4l24 -104q-71 -39 -182 -39q-79 0 -137 33.5t-58 101.5q0 47 21.5 91.5t51.5 74.5t60.5 53t51.5 34z" />
    <glyph glyph-name="iogonek" unicode="&#x12f;" horiz-adv-x="483" 
d="M236 0h-115v936h239v-936q-5 -4 -13.5 -12t-30.5 -32t-39 -47.5t-30.5 -56t-13.5 -61.5q0 -30 21 -46.5t53 -16.5q25 0 47 4t32 8l9 4l25 -104q-71 -39 -182 -39q-79 0 -137 33.5t-58 101.5q0 47 20 91.5t48.5 74.5t56.5 53t48 34zM381 1225q0 -61 -38 -100.5t-99 -39.5
q-62 0 -101 39.5t-39 100.5t39.5 99t100.5 38q60 0 98.5 -39t38.5 -98z" />
    <glyph glyph-name="Idotaccent" unicode="&#x130;" horiz-adv-x="534" 
d="M393 0h-254v1366h254v-1366zM408 1667q0 -59 -39 -99t-99 -40q-61 0 -101 39.5t-40 99.5q0 61 39.5 100t99.5 39t100 -39.5t40 -99.5z" />
    <glyph glyph-name="dotlessi" unicode="&#x131;" horiz-adv-x="483" 
d="M362 0h-239v936h239v-936z" />
    <glyph glyph-name="Jcircumflex" unicode="&#x134;" horiz-adv-x="804" 
d="M672 1366v-985q0 -221 -117 -324q-99 -86 -283 -86q-149 0 -274 64l39 203q105 -43 186 -43q63 0 103 19.5t59 59.5t25 82t6 107v903h256zM618 1837l259 -315l-181 -21l-159 193l-160 -193l-166 21l260 315h147z" />
    <glyph glyph-name="jcircumflex" unicode="&#x135;" horiz-adv-x="483" 
d="M362 936v-1006q0 -113 -17 -190.5t-59 -136.5t-117.5 -87t-188.5 -28q-24 0 -54.5 2.5t-48.5 5.5l-18 2l30 172q39 -6 76 -6q44 0 74.5 15.5t46.5 37.5t25 60t10.5 67t1.5 76v1016h239zM315 1407l260 -313l-180 -23l-159 195l-160 -195l-168 23l260 313h147z" />
    <glyph glyph-name="Kcommaaccent" unicode="&#x136;" horiz-adv-x="1265" 
d="M1278 0h-313l-445 592l-125 -141v-451h-256v1366h256v-627l598 650l267 -48l-558 -596zM780 -139q-3 -114 -45.5 -236t-87.5 -188l-151 47q31 72 51.5 177t25.5 200h207z" />
    <glyph glyph-name="kcommaaccent" unicode="&#x137;" horiz-adv-x="1017" 
d="M1032 0h-282l-312 397l-78 -82v-315h-239v1448h239v-879l381 385l244 -45l-375 -377zM651 -139q-3 -114 -45.5 -236t-87.5 -188l-139 47q32 74 54.5 179.5t27.5 197.5h190z" />
    <glyph glyph-name="kgreenlandic" unicode="&#x138;" horiz-adv-x="1017" 
d="M1042 0h-297l-299 397l-86 -82v-315h-239v954h239v-385l388 394l243 -45l-383 -386z" />
    <glyph glyph-name="Lacute" unicode="&#x139;" horiz-adv-x="995" 
d="M983 217l-31 -217h-815v1366h254v-1149h592zM688 1761l-385 -258l-145 62l321 266z" />
    <glyph glyph-name="lacute" unicode="&#x13a;" horiz-adv-x="483" 
d="M362 0h-239v1448h239v-1448zM584 1804l-324 -260l-147 62l260 266z" />
    <glyph glyph-name="Lcommaaccent" unicode="&#x13b;" horiz-adv-x="995" 
d="M983 217l-31 -217h-815v1366h254v-1149h592zM647 -139q-3 -114 -45.5 -236t-87.5 -188l-152 47q31 72 52 177t26 200h207z" />
    <glyph glyph-name="lcommaaccent" unicode="&#x13c;" horiz-adv-x="483" 
d="M362 0h-239v1448h239v-1448zM338 -139q-3 -114 -45.5 -236t-87.5 -188l-139 47q32 74 54 179.5t27 197.5h191z" />
    <glyph glyph-name="Lcaron" unicode="&#x13d;" horiz-adv-x="995" 
d="M983 217l-31 -217h-815v1366h254v-1149h592zM874 1366q-3 -114 -45.5 -236t-87.5 -188l-139 47q32 74 54.5 179.5t27.5 197.5h190z" />
    <glyph glyph-name="lcaron" unicode="&#x13e;" horiz-adv-x="714" 
d="M362 0h-239v1448h239v-1448zM717 1448q-3 -114 -45.5 -236t-87.5 -188l-140 47q32 74 54.5 179.5t27.5 197.5h191z" />
    <glyph glyph-name="Ldot" unicode="&#x13f;" horiz-adv-x="995" 
d="M983 217l-31 -217h-815v1366h254v-1149h592zM907 764q0 -59 -39 -99t-98 -40q-61 0 -101 39.5t-40 99.5q0 61 39.5 100t99.5 39t99.5 -39.5t39.5 -99.5z" />
    <glyph glyph-name="ldot" unicode="&#x140;" horiz-adv-x="710" 
d="M362 0h-239v1448h239v-1448zM735 729q0 -59 -39 -99t-98 -40q-61 0 -101 39.5t-40 99.5q0 61 39 99t100 38q60 0 99.5 -38.5t39.5 -98.5z" />
    <glyph glyph-name="Lslash" unicode="&#x141;" horiz-adv-x="995" 
d="M983 217l-31 -217h-815v508l-133 -92v221l133 90v639h254v-508l260 182v-223l-260 -182v-418h592z" />
    <glyph glyph-name="lslash" unicode="&#x142;" horiz-adv-x="483" 
d="M362 0h-239v573l-123 -84v220l123 82v657h239v-543l134 90v-217l-134 -90v-688z" />
    <glyph glyph-name="Nacute" unicode="&#x143;" horiz-adv-x="1503" 
d="M1214 -20l-659 747q-34 38 -81.5 95t-77.5 94l-31 38q10 -196 10 -329v-625h-234v1346l154 43l623 -707q47 -55 102 -121t86 -105l31 -38q-9 178 -9 313v635h234v-1346zM1126 1700l-385 -258l-145 61l322 266z" />
    <glyph glyph-name="nacute" unicode="&#x144;" horiz-adv-x="1110" 
d="M997 0h-239v543q0 48 -7 84.5t-24 69t-50.5 50t-82.5 17.5q-69 0 -121.5 -31.5t-101.5 -91.5v-641h-240v641q0 86 -12 149t-49 109l209 66q64 -36 77 -156q146 156 324 156q175 0 260 -129q57 -88 57 -211v-625zM836 1313l-324 -260l-147 61l260 266z" />
    <glyph glyph-name="Ncommaaccent" unicode="&#x145;" horiz-adv-x="1503" 
d="M1214 -20l-659 747q-34 38 -81.5 95t-77.5 94l-31 38q10 -196 10 -329v-625h-234v1346l154 43l623 -707q47 -55 102 -121t86 -105l31 -38q-9 178 -9 313v635h234v-1346zM879 -139q-3 -113 -45.5 -235.5t-88.5 -188.5l-151 47q31 72 52 177t26 200h207z" />
    <glyph glyph-name="ncommaaccent" unicode="&#x146;" horiz-adv-x="1110" 
d="M997 0h-239v543q0 48 -7 84.5t-24 69t-50.5 50t-82.5 17.5q-69 0 -121.5 -31.5t-101.5 -91.5v-641h-240v641q0 86 -12 149t-49 109l209 66q64 -36 77 -156q146 156 324 156q175 0 260 -129q57 -88 57 -211v-625zM655 -139q-3 -114 -45.5 -236t-87.5 -188l-139 47
q32 74 54.5 179.5t27.5 197.5h190z" />
    <glyph glyph-name="Ncaron" unicode="&#x147;" horiz-adv-x="1503" 
d="M1214 -20l-659 747q-34 38 -81.5 95t-77.5 94l-31 38q10 -196 10 -329v-625h-234v1346l154 43l623 -707q47 -55 102 -121t86 -105l31 -38q-9 178 -9 313v635h234v-1346zM1090 1735l-259 -316h-149l-258 316l182 20l158 -192l162 190z" />
    <glyph glyph-name="ncaron" unicode="&#x148;" horiz-adv-x="1110" 
d="M997 0h-239v543q0 48 -7 84.5t-24 69t-50.5 50t-82.5 17.5q-69 0 -121.5 -31.5t-101.5 -91.5v-641h-240v641q0 86 -12 149t-49 109l209 66q64 -36 77 -156q146 156 324 156q175 0 260 -129q57 -88 57 -211v-625zM883 1386l-258 -315h-150l-260 315l182 21l158 -190
l162 188z" />
    <glyph glyph-name="napostrophe" unicode="&#x149;" horiz-adv-x="1110" 
d="M997 0h-239v543q0 48 -7 84.5t-24 69t-50.5 50t-82.5 17.5q-69 0 -121.5 -31.5t-101.5 -91.5v-641h-240v641q0 86 -12 149t-49 109l209 66q64 -36 77 -156q146 156 324 156q175 0 260 -129q57 -88 57 -211v-625zM256 1434q-3 -114 -45.5 -236t-87.5 -188l-139 47
q32 74 54.5 179.5t27.5 197.5h190z" />
    <glyph glyph-name="Eng" unicode="&#x14a;" horiz-adv-x="1503" 
d="M1362 1366v-1415q0 -197 -101.5 -313.5t-297.5 -116.5q-152 0 -275 63l39 203q105 -43 203 -43q51 0 87.5 14t57.5 36.5t33 59t16 72.5t4 86v64l-573 651q-34 38 -81.5 95t-77.5 94l-31 38q10 -153 10 -329v-625h-234v1346l154 43l623 -707q47 -55 101.5 -121.5
t84.5 -105.5l31 -39q-7 139 -7 321v629h234z" />
    <glyph glyph-name="eng" unicode="&#x14b;" horiz-adv-x="1110" 
d="M997 625v-723q0 -113 -17 -190.5t-59 -137t-118 -87.5t-189 -28q-24 0 -54 2.5t-48 5.5l-18 3l30 172q39 -7 76 -7q44 0 74.5 15.5t46.5 37.5t25 60t10.5 67t1.5 76v652q0 48 -7 84.5t-24 69t-50.5 50t-82.5 17.5q-69 0 -121.5 -31.5t-101.5 -91.5v-641h-240v641
q0 86 -12 149t-49 109l209 66q64 -36 77 -156q146 156 324 156q175 0 260 -129q57 -88 57 -211z" />
    <glyph glyph-name="Omacron" unicode="&#x14c;" horiz-adv-x="1574" 
d="M1497 680q0 -209 -90.5 -370.5t-253.5 -250t-373 -88.5q-203 0 -363 93.5t-248.5 256.5t-88.5 365q0 205 95 367.5t261 252t371 89.5q199 0 357.5 -96t245.5 -259.5t87 -359.5zM1225 651q0 79 -19 154.5t-57.5 141.5t-91.5 116t-126 79t-157 29q-195 0 -307.5 -127.5
t-112.5 -324.5q0 -104 31 -197t88 -165.5t145.5 -115t196.5 -42.5q191 0 300.5 129t109.5 323zM1083 1536h-555v154h555v-154z" />
    <glyph glyph-name="omacron" unicode="&#x14d;" horiz-adv-x="1128" 
d="M1065 469q0 -222 -136 -360t-364 -138q-219 0 -358 135.5t-139 354.5q0 224 141 364t373 140q143 0 254 -66.5t170 -179t59 -250.5zM821 461q0 61 -15.5 117t-46.5 103.5t-83.5 76t-120.5 28.5q-76 0 -133 -43.5t-85 -109.5t-28 -141q0 -139 72.5 -239.5t202.5 -100.5
q117 0 177 84.5t60 224.5zM856 1139h-555v153h555v-153z" />
    <glyph glyph-name="Obreve" unicode="&#x14e;" horiz-adv-x="1574" 
d="M1497 680q0 -209 -90.5 -370.5t-253.5 -250t-373 -88.5q-203 0 -363 93.5t-248.5 256.5t-88.5 365q0 205 95 367.5t261 252t371 89.5q199 0 357.5 -96t245.5 -259.5t87 -359.5zM1225 651q0 79 -19 154.5t-57.5 141.5t-91.5 116t-126 79t-157 29q-195 0 -307.5 -127.5
t-112.5 -324.5q0 -104 31 -197t88 -165.5t145.5 -115t196.5 -42.5q191 0 300.5 129t109.5 323zM983 1802l145 -16q-6 -139 -90.5 -220t-232.5 -81q-131 0 -218.5 80.5t-94.5 218.5l149 18q12 -72 52.5 -119t111.5 -47q84 0 123.5 43.5t54.5 122.5z" />
    <glyph glyph-name="obreve" unicode="&#x14f;" horiz-adv-x="1128" 
d="M1065 469q0 -222 -136 -360t-364 -138q-219 0 -358 135.5t-139 354.5q0 224 141 364t373 140q143 0 254 -66.5t170 -179t59 -250.5zM821 461q0 61 -15.5 117t-46.5 103.5t-83.5 76t-120.5 28.5q-76 0 -133 -43.5t-85 -109.5t-28 -141q0 -139 72.5 -239.5t202.5 -100.5
q117 0 177 84.5t60 224.5zM905 1376q-6 -139 -90.5 -220t-232.5 -81q-133 0 -220 80t-94 219l150 19q12 -72 52.5 -119t111.5 -47q84 0 123.5 43.5t54.5 122.5z" />
    <glyph glyph-name="Ohungarumlaut" unicode="&#x150;" horiz-adv-x="1574" 
d="M1497 680q0 -209 -90.5 -370.5t-253.5 -250t-373 -88.5q-203 0 -363 93.5t-248.5 256.5t-88.5 365q0 205 95 367.5t261 252t371 89.5q199 0 357.5 -96t245.5 -259.5t87 -359.5zM1225 651q0 79 -19 154.5t-57.5 141.5t-91.5 116t-126 79t-157 29q-195 0 -307.5 -127.5
t-112.5 -324.5q0 -104 31 -197t88 -165.5t145.5 -115t196.5 -42.5q191 0 300.5 129t109.5 323zM954 1761l-385 -258l-145 62l321 266zM1382 1761l-385 -258l-145 62l322 266z" />
    <glyph glyph-name="ohungarumlaut" unicode="&#x151;" horiz-adv-x="1128" 
d="M1065 469q0 -222 -136 -360t-364 -138q-219 0 -358 135.5t-139 354.5q0 224 141 364t373 140q143 0 254 -66.5t170 -179t59 -250.5zM821 461q0 61 -15.5 117t-46.5 103.5t-83.5 76t-120.5 28.5q-76 0 -133 -43.5t-85 -109.5t-28 -141q0 -139 72.5 -239.5t202.5 -100.5
q117 0 177 84.5t60 224.5zM680 1313l-293 -250l-137 51l219 266zM1049 1313l-293 -250l-138 51l220 266z" />
    <glyph glyph-name="OE" unicode="&#x152;" horiz-adv-x="2117" 
d="M2089 211l-29 -211h-839v145q-174 -174 -443 -174q-285 0 -479 181q-106 98 -163.5 236t-57.5 300q0 194 90 356t249.5 256.5t354.5 94.5q87 0 165.5 -19.5t128 -47.5t86.5 -55.5t53 -46.5l16 -20v160h776v-209h-533v-344h484v-203h-484v-399h625zM1221 651
q0 99 -30.5 192.5t-86 168t-142 119.5t-190.5 45q-98 0 -178 -35.5t-132 -97.5t-80 -145t-28 -179q0 -104 30.5 -197t87 -165.5t145 -115t196.5 -42.5q128 0 222 62.5t140 164t46 225.5z" />
    <glyph glyph-name="oe" unicode="&#x153;" horiz-adv-x="1646" 
d="M1513 264l84 -129q-77 -81 -179 -122.5t-216 -41.5q-190 0 -313 109q-132 -109 -326 -109q-216 0 -355.5 137t-139.5 353t142 360t359 144q190 0 324 -111q136 111 309 111q167 0 283 -112t112 -288l-86 -119h-546q9 -122 86 -202t196 -80q145 0 266 100zM1395 598
q-6 87 -65 142t-146 55q-86 0 -143.5 -55t-77.5 -142h432zM772 225q-47 121 -47 234q0 100 41 225q-81 100 -211 100q-114 0 -180 -85t-66 -205q0 -63 16 -121.5t48 -108.5t86.5 -80t124.5 -30q111 0 188 71z" />
    <glyph glyph-name="Racute" unicode="&#x154;" horiz-adv-x="1218" 
d="M1225 0h-299l-336 530q-78 -10 -197 -10v-520h-254v1360q205 20 371 20q86 0 163 -12t151.5 -41.5t128.5 -75t87 -118t33 -164.5q0 -273 -242 -379zM819 940q0 66 -25 115t-69.5 75.5t-97.5 39t-117 12.5q-24 0 -53 -2t-47 -4l-17 -2v-467h121q71 0 126.5 15.5t88.5 39
t54 55.5t28.5 61.5t7.5 61.5zM958 1761l-385 -258l-145 62l322 266z" />
    <glyph glyph-name="racute" unicode="&#x155;" horiz-adv-x="776" 
d="M774 924l-55 -209q-72 26 -119 26q-31 0 -60 -11.5t-49.5 -26t-45.5 -42t-38 -45.5t-36 -51v-565h-240v641q0 86 -12 149t-49 109l209 66q79 -49 79 -217q29 48 52 79.5t57 66.5t74.5 53t87.5 18q65 0 145 -41zM625 1313l-324 -260l-147 61l260 266z" />
    <glyph glyph-name="Rcommaaccent" unicode="&#x156;" horiz-adv-x="1218" 
d="M1225 0h-299l-336 530q-78 -10 -197 -10v-520h-254v1360q205 20 371 20q86 0 163 -12t151.5 -41.5t128.5 -75t87 -118t33 -164.5q0 -273 -242 -379zM819 940q0 66 -25 115t-69.5 75.5t-97.5 39t-117 12.5q-24 0 -53 -2t-47 -4l-17 -2v-467h121q71 0 126.5 15.5t88.5 39
t54 55.5t28.5 61.5t7.5 61.5zM758 -139q-3 -114 -45.5 -236t-87.5 -188l-152 47q31 72 52 177t26 200h207z" />
    <glyph glyph-name="rcommaaccent" unicode="&#x157;" horiz-adv-x="776" 
d="M774 924l-55 -209q-72 26 -119 26q-31 0 -60 -11.5t-49.5 -26t-45.5 -42t-38 -45.5t-36 -51v-565h-240v641q0 86 -12 149t-49 109l209 66q79 -49 79 -217q29 48 52 79.5t57 66.5t74.5 53t87.5 18q65 0 145 -41zM350 -139q-3 -114 -45.5 -236t-87.5 -188l-139 47
q32 74 54.5 179.5t27.5 197.5h190z" />
    <glyph glyph-name="Rcaron" unicode="&#x158;" horiz-adv-x="1218" 
d="M1225 0h-299l-336 530q-78 -10 -197 -10v-520h-254v1360q205 20 371 20q86 0 163 -12t151.5 -41.5t128.5 -75t87 -118t33 -164.5q0 -273 -242 -379zM819 940q0 66 -25 115t-69.5 75.5t-97.5 39t-117 12.5q-24 0 -53 -2t-47 -4l-17 -2v-467h121q71 0 126.5 15.5t88.5 39
t54 55.5t28.5 61.5t7.5 61.5zM879 1796l-258 -315h-150l-258 315l182 21l158 -193l162 191z" />
    <glyph glyph-name="rcaron" unicode="&#x159;" horiz-adv-x="776" 
d="M774 924l-55 -209q-72 26 -119 26q-31 0 -60 -11.5t-49.5 -26t-45.5 -42t-38 -45.5t-36 -51v-565h-240v641q0 86 -12 149t-49 109l209 66q79 -49 79 -217q29 48 52 79.5t57 66.5t74.5 53t87.5 18q65 0 145 -41zM688 1386l-258 -315h-149l-261 315l183 21l157 -190
l162 188z" />
    <glyph glyph-name="Sacute" unicode="&#x15a;" horiz-adv-x="1009" 
d="M950 387q0 -126 -66.5 -222.5t-172 -145t-230.5 -48.5q-232 0 -442 144l41 243q81 -80 179.5 -129t201.5 -49q91 0 149 52.5t58 142.5q0 46 -25 83.5t-66 62.5t-93 51t-107 49t-107 57.5t-93 74.5t-66 102.5t-25 139.5q0 121 60 213.5t159 139.5t219 47q205 0 379 -129
l-76 -199q-83 60 -147.5 89.5t-144.5 29.5q-77 0 -130 -44t-53 -126q0 -53 33 -94t85.5 -69.5t116.5 -56t128 -62t116.5 -77.5t85.5 -112t33 -158zM903 1761l-385 -258l-145 62l321 266z" />
    <glyph glyph-name="sacute" unicode="&#x15b;" horiz-adv-x="800" 
d="M745 266q0 -73 -32 -131t-85 -93t-117 -53t-134 -18q-216 0 -354 127l90 162q124 -108 249 -108q132 0 132 100q0 32 -22.5 57t-59 43t-80 35.5t-87 41t-80 53.5t-59 79t-22.5 111q0 139 99.5 216t240.5 77q155 0 297 -86l-70 -172q-118 77 -211 77q-114 0 -114 -92
q0 -32 23 -56.5t60 -42t81.5 -35t89.5 -41.5t82 -55t60 -81.5t23 -114.5zM727 1313l-324 -260l-147 61l260 266z" />
    <glyph glyph-name="Scircumflex" unicode="&#x15c;" horiz-adv-x="1009" 
d="M950 387q0 -126 -66.5 -222.5t-172 -145t-230.5 -48.5q-232 0 -442 144l41 243q81 -80 179.5 -129t201.5 -49q91 0 149 52.5t58 142.5q0 46 -25 83.5t-66 62.5t-93 51t-107 49t-107 57.5t-93 74.5t-66 102.5t-25 139.5q0 121 60 213.5t159 139.5t219 47q205 0 379 -129
l-76 -199q-83 60 -147.5 89.5t-144.5 29.5q-77 0 -130 -44t-53 -126q0 -53 33 -94t85.5 -69.5t116.5 -56t128 -62t116.5 -77.5t85.5 -112t33 -158zM580 1837l258 -315l-181 -21l-159 193l-160 -193l-166 21l260 315h148z" />
    <glyph glyph-name="scircumflex" unicode="&#x15d;" horiz-adv-x="800" 
d="M745 266q0 -73 -32 -131t-85 -93t-117 -53t-134 -18q-216 0 -354 127l90 162q124 -108 249 -108q132 0 132 100q0 32 -22.5 57t-59 43t-80 35.5t-87 41t-80 53.5t-59 79t-22.5 111q0 139 99.5 216t240.5 77q155 0 297 -86l-70 -172q-118 77 -211 77q-114 0 -114 -92
q0 -32 23 -56.5t60 -42t81.5 -35t89.5 -41.5t82 -55t60 -81.5t23 -114.5zM504 1407l239 -313l-180 -23l-139 195l-139 -195l-168 23l239 313h148z" />
    <glyph glyph-name="Scedilla" unicode="&#x15e;" horiz-adv-x="1009" 
d="M666 -272q0 -89 -73.5 -137t-176.5 -48q-44 0 -81 4.5t-52 9.5l-15 5l25 112q47 -14 96 -14q51 0 74.5 20t23.5 52q0 26 -21.5 43.5t-59.5 17.5q-18 0 -34 -2t-23 -4l-7 -2l61 190q-187 17 -364 140l41 243q81 -80 179.5 -129t201.5 -49q91 0 149 52.5t58 142.5
q0 46 -25 83.5t-66 62.5t-93 51t-107 49t-107 57.5t-93 74.5t-66 102.5t-25 139.5q0 121 60 213.5t159 139.5t219 47q205 0 379 -129l-76 -199q-83 60 -147.5 89.5t-144.5 29.5q-77 0 -130 -44t-53 -126q0 -53 33 -94t85.5 -69.5t116.5 -56t128 -62t116.5 -77.5t85.5 -112
t33 -158q0 -91 -35 -167.5t-95 -128t-137.5 -82.5t-164.5 -36l-35 -112q5 0 15.5 1t15.5 1q75 0 113.5 -37t38.5 -98z" />
    <glyph glyph-name="scedilla" unicode="&#x15f;" horiz-adv-x="800" 
d="M567 -272q0 -89 -73.5 -137t-176.5 -48q-44 0 -80.5 4.5t-51.5 9.5l-15 5l25 112q47 -14 96 -14q51 0 74.5 20t23.5 52q0 26 -22 43.5t-60 17.5q-18 0 -34 -2t-23 -4l-6 -2l61 190q-166 16 -282 123l90 162q124 -108 249 -108q132 0 132 100q0 32 -22.5 57t-59 43
t-80 35.5t-87 41t-80 53.5t-59 79t-22.5 111q0 139 99.5 216t240.5 77q155 0 297 -86l-70 -172q-118 77 -211 77q-114 0 -114 -92q0 -32 23 -56.5t60 -42t81.5 -35t89.5 -41.5t82 -55t60 -81.5t23 -114.5q0 -89 -47.5 -154.5t-119 -98.5t-158.5 -40l-35 -112q5 0 15.5 1
t15.5 1q75 0 113 -37t38 -98z" />
    <glyph glyph-name="Scaron" unicode="&#x160;" horiz-adv-x="1009" 
d="M950 387q0 -126 -66.5 -222.5t-172 -145t-230.5 -48.5q-232 0 -442 144l41 243q81 -80 179.5 -129t201.5 -49q91 0 149 52.5t58 142.5q0 46 -25 83.5t-66 62.5t-93 51t-107 49t-107 57.5t-93 74.5t-66 102.5t-25 139.5q0 121 60 213.5t159 139.5t219 47q205 0 379 -129
l-76 -199q-83 60 -147.5 89.5t-144.5 29.5q-77 0 -130 -44t-53 -126q0 -53 33 -94t85.5 -69.5t116.5 -56t128 -62t116.5 -77.5t85.5 -112t33 -158zM838 1796l-258 -315h-150l-258 315l182 21l158 -193l162 191z" />
    <glyph glyph-name="scaron" unicode="&#x161;" horiz-adv-x="800" 
d="M745 266q0 -73 -32 -131t-85 -93t-117 -53t-134 -18q-216 0 -354 127l90 162q124 -108 249 -108q132 0 132 100q0 32 -22.5 57t-59 43t-80 35.5t-87 41t-80 53.5t-59 79t-22.5 111q0 139 99.5 216t240.5 77q155 0 297 -86l-70 -172q-118 77 -211 77q-114 0 -114 -92
q0 -32 23 -56.5t60 -42t81.5 -35t89.5 -41.5t82 -55t60 -81.5t23 -114.5zM725 1386l-238 -315h-149l-240 315l183 21l137 -190l141 188z" />
    <glyph glyph-name="Tcedilla" unicode="&#x162;" horiz-adv-x="1161" 
d="M780 -272q0 -89 -73.5 -137t-176.5 -48q-44 0 -80.5 4.5t-51.5 9.5l-15 5l25 112q47 -14 96 -14q51 0 74.5 20t23.5 52q0 26 -22 43.5t-60 17.5q-18 0 -34 -2t-22 -4l-7 -2l69 215h-71v1157h-441v209h1133v-209h-438v-1157h-68l-43 -139q5 0 15.5 1t15.5 1q75 0 113 -37
t38 -98z" />
    <glyph glyph-name="tcedilla" unicode="&#x163;" horiz-adv-x="765" 
d="M627 -252q0 -88 -73.5 -136t-176.5 -48q-44 0 -81 4.5t-52 9.5l-15 4l25 113q47 -14 96 -14q51 0 75 19.5t24 51.5q0 26 -22 44t-60 18q-18 0 -34 -2t-23 -4l-7 -3l62 195q-164 53 -164 264v496h-189v149q60 4 101.5 12t73 25.5t50.5 36.5t34.5 56.5t24.5 72t21 96.5h121
v-272h262v-176h-262v-406q0 -37 1.5 -59.5t9 -48.5t21 -40.5t38.5 -24t61 -9.5q25 0 66.5 9t70.5 19l29 9l35 -158q-124 -69 -287 -69h-8l-31 -101q5 0 15.5 1t15.5 1q75 0 113.5 -37t38.5 -98z" />
    <glyph glyph-name="Tcaron" unicode="&#x164;" horiz-adv-x="1161" 
d="M1147 1157h-438v-1157h-254v1157h-441v209h1133v-209zM913 1796l-258 -315h-149l-258 315l182 21l158 -193l162 191z" />
    <glyph glyph-name="tcaron" unicode="&#x165;" horiz-adv-x="765" 
d="M770 51q-124 -69 -287 -69q-138 0 -210 72.5t-72 209.5v496h-189v149q60 4 101.5 12t73 25.5t50.5 36.5t34.5 56.5t24.5 72t21 96.5h121v-272h262v-176h-262v-406q0 -37 1.5 -59.5t9 -48.5t21 -40.5t38.5 -24t61 -9.5q25 0 66.5 9t70.5 19l29 9zM788 1489
q-3 -114 -45.5 -236t-87.5 -188l-139 47q32 74 54.5 179.5t27.5 197.5h190z" />
    <glyph glyph-name="Tbar" unicode="&#x166;" horiz-adv-x="1161" 
d="M1147 1157h-438v-387h313v-188h-313v-582h-254v582h-316v188h316v387h-441v209h1133v-209z" />
    <glyph glyph-name="tbar" unicode="&#x167;" horiz-adv-x="765" 
d="M770 51q-124 -69 -287 -69q-138 0 -210 72.5t-72 209.5v166h-189v166h189v164h-189v149q60 4 101.5 12t73 25.5t50.5 36.5t34.5 56.5t24.5 72t21 96.5h121v-272h262v-176h-262v-164h262v-166h-262v-76q0 -37 1.5 -59.5t9 -48.5t21 -40.5t38.5 -24t61 -9.5q25 0 66.5 9
t70.5 19l29 9z" />
    <glyph glyph-name="Utilde" unicode="&#x168;" horiz-adv-x="1431" 
d="M1300 1366v-817q0 -145 -30.5 -251.5t-118.5 -186.5q-155 -140 -434 -140q-144 0 -276 46t-210 145q-100 126 -100 387v817h254v-815q0 -194 78 -281q77 -86 254 -86q161 0 239 72q91 84 91 295v815h253zM961 1765l114 -53q-34 -81 -91 -130.5t-138 -49.5q-52 0 -140 40
t-128 40q-72 0 -109 -84l-113 55q67 182 236 182q52 0 135.5 -37.5t130.5 -37.5q37 0 60 18t43 57z" />
    <glyph glyph-name="utilde" unicode="&#x169;" horiz-adv-x="1110" 
d="M1092 133l-31 -147q-57 -13 -103 -13q-176 0 -208 136q-132 -138 -293 -138q-180 0 -262 87.5t-82 271.5v606h239v-553q0 -211 166 -211q65 0 110 25t99 79v660h240v-645q0 -34 1 -52t6.5 -42.5t16 -36t30.5 -20.5t50 -9zM793 1337l110 -55q-76 -178 -219 -178
q-52 0 -140 40t-128 40q-37 0 -58.5 -22t-40.5 -62l-112 53q33 90 85.5 137t139.5 47q52 0 135.5 -38.5t130.5 -38.5q36 0 56.5 17.5t40.5 59.5z" />
    <glyph glyph-name="Umacron" unicode="&#x16a;" horiz-adv-x="1431" 
d="M1300 1366v-817q0 -145 -30.5 -251.5t-118.5 -186.5q-155 -140 -434 -140q-144 0 -276 46t-210 145q-100 126 -100 387v817h254v-815q0 -194 78 -281q77 -86 254 -86q161 0 239 72q91 84 91 295v815h253zM993 1536h-555v154h555v-154z" />
    <glyph glyph-name="umacron" unicode="&#x16b;" horiz-adv-x="1110" 
d="M1092 133l-31 -147q-57 -13 -103 -13q-176 0 -208 136q-132 -138 -293 -138q-180 0 -262 87.5t-82 271.5v606h239v-553q0 -211 166 -211q65 0 110 25t99 79v660h240v-645q0 -34 1 -52t6.5 -42.5t16 -36t30.5 -20.5t50 -9zM831 1139h-555v153h555v-153z" />
    <glyph glyph-name="Ubreve" unicode="&#x16c;" horiz-adv-x="1431" 
d="M1300 1366v-817q0 -145 -30.5 -251.5t-118.5 -186.5q-155 -140 -434 -140q-144 0 -276 46t-210 145q-100 126 -100 387v817h254v-815q0 -194 78 -281q77 -86 254 -86q161 0 239 72q91 84 91 295v815h253zM889 1802l145 -16q-6 -139 -90.5 -220t-232.5 -81
q-131 0 -219 80.5t-95 218.5l150 18q12 -72 52.5 -119t111.5 -47q84 0 123.5 43.5t54.5 122.5z" />
    <glyph glyph-name="ubreve" unicode="&#x16d;" horiz-adv-x="1110" 
d="M1092 133l-31 -147q-57 -13 -103 -13q-176 0 -208 136q-132 -138 -293 -138q-180 0 -262 87.5t-82 271.5v606h239v-553q0 -211 166 -211q65 0 110 25t99 79v660h240v-645q0 -34 1 -52t6.5 -42.5t16 -36t30.5 -20.5t50 -9zM872 1376q-6 -139 -90.5 -220t-232.5 -81
q-133 0 -219.5 80t-93.5 219l149 19q12 -72 52.5 -119t111.5 -47q84 0 123.5 43.5t54.5 122.5z" />
    <glyph glyph-name="Uring" unicode="&#x16e;" horiz-adv-x="1431" 
d="M1300 1366v-817q0 -145 -30.5 -251.5t-118.5 -186.5q-155 -140 -434 -140q-144 0 -276 46t-210 145q-100 126 -100 387v817h254v-815q0 -194 78 -281q77 -86 254 -86q161 0 239 72q91 84 91 295v815h253zM494 1612q0 88 65.5 144t153.5 56q91 0 157 -56t66 -144
t-66 -144.5t-155 -56.5t-155 56.5t-66 144.5zM610 1612q0 -43 29.5 -73t73.5 -30q45 0 74.5 29t29.5 74q0 44 -29.5 73t-72.5 29q-46 0 -75.5 -29t-29.5 -73z" />
    <glyph glyph-name="uring" unicode="&#x16f;" horiz-adv-x="1110" 
d="M1092 133l-31 -147q-57 -13 -103 -13q-176 0 -208 136q-132 -138 -293 -138q-180 0 -262 87.5t-82 271.5v606h239v-553q0 -211 166 -211q65 0 110 25t99 79v660h240v-645q0 -34 1 -52t6.5 -42.5t16 -36t30.5 -20.5t50 -9zM334 1219q0 88 65 143t154 55q91 0 157 -55
t66 -143t-66 -144.5t-155 -56.5t-155 56.5t-66 144.5zM451 1219q0 -44 29 -73.5t73 -29.5q45 0 74.5 29t29.5 74q0 44 -29.5 73t-72.5 29q-46 0 -75 -29t-29 -73z" />
    <glyph glyph-name="Uhungarumlaut" unicode="&#x170;" horiz-adv-x="1431" 
d="M1300 1366v-817q0 -145 -30.5 -251.5t-118.5 -186.5q-155 -140 -434 -140q-144 0 -276 46t-210 145q-100 126 -100 387v817h254v-815q0 -194 78 -281q77 -86 254 -86q161 0 239 72q91 84 91 295v815h253zM877 1761l-385 -258l-146 62l322 266zM1305 1761l-385 -258
l-146 62l322 266z" />
    <glyph glyph-name="uhungarumlaut" unicode="&#x171;" horiz-adv-x="1110" 
d="M1092 133l-31 -147q-57 -13 -103 -13q-176 0 -208 136q-132 -138 -293 -138q-180 0 -262 87.5t-82 271.5v606h239v-553q0 -211 166 -211q65 0 110 25t99 79v660h240v-645q0 -34 1 -52t6.5 -42.5t16 -36t30.5 -20.5t50 -9zM668 1313l-293 -250l-137 51l219 266zM1036 1313
l-293 -250l-137 51l219 266z" />
    <glyph glyph-name="Uogonek" unicode="&#x172;" horiz-adv-x="1431" 
d="M1300 1366v-817q0 -145 -30.5 -251.5t-118.5 -186.5q-85 -80 -219 -113q-11 -6 -34 -24t-54 -46.5t-53.5 -66t-22.5 -70.5q0 -30 21 -46.5t53 -16.5q25 0 47 4t31 8l10 4l24 -104q-71 -39 -182 -39q-79 0 -136.5 33.5t-57.5 101.5q0 133 178 237q-14 -2 -39 -2
q-144 0 -276 46t-210 145q-100 126 -100 387v817h254v-815q0 -194 78 -281q77 -86 254 -86q161 0 239 72q91 84 91 295v815h253z" />
    <glyph glyph-name="uogonek" unicode="&#x173;" horiz-adv-x="1110" 
d="M1092 133l-31 -147q-7 -4 -18 -12t-40 -32t-51.5 -47.5t-40.5 -56t-18 -61.5q0 -30 21 -47t53 -17q25 0 47 4.5t32 8.5l9 4l24 -105q-71 -39 -182 -39q-79 0 -137 33.5t-58 101.5q0 48 23.5 92t61.5 76.5t67 51.5t59 34q-136 13 -163 134q-132 -138 -293 -138
q-180 0 -262 87.5t-82 271.5v606h239v-553q0 -211 166 -211q65 0 110 25t99 79v660h240v-645q0 -34 1 -52t6.5 -42.5t16 -36t30.5 -20.5t50 -9z" />
    <glyph glyph-name="Wcircumflex" unicode="&#x174;" horiz-adv-x="1994" 
d="M1982 1346l-534 -1346h-197l-155 391q-82 203 -99 264q-2 -2 -16.5 -44t-38.5 -107.5t-41 -110.5l-153 -393h-199l-539 1346l254 47l316 -801q21 -57 46 -128t40.5 -115.5t17.5 -49.5q2 7 15.5 49t38.5 114t48 130l111 282l-184 472l248 47l301 -779q17 -45 39 -108
t38 -109.5t17 -50.5q1 6 16.5 54.5t38 113.5t37.5 102l299 777zM983 1837l258 -315l-180 -21l-160 193l-160 -193l-166 21l261 315h147z" />
    <glyph glyph-name="wcircumflex" unicode="&#x175;" horiz-adv-x="1499" 
d="M1493 913l-369 -913h-206l-173 440l-163 -440h-207l-369 913l232 41l204 -520q15 -38 31 -84t26 -76.5t11 -33.5l4 14q4 13 10.5 32.5t14 43.5t17.5 52t19 52l82 221l-102 258l217 41l197 -522q37 -98 55 -170q19 76 55 172l199 520zM823 1407l260 -313l-180 -23
l-160 195l-159 -195l-168 23l260 313h147z" />
    <glyph glyph-name="Ycircumflex" unicode="&#x176;" horiz-adv-x="1218" 
d="M1225 1348l-488 -738v-610h-254v610l-485 738l258 45l233 -359q29 -45 63.5 -102.5t54.5 -91.5l20 -35q76 137 137 231l227 357zM684 1837l258 -315l-180 -21l-160 193l-160 -193l-166 21l261 315h147z" />
    <glyph glyph-name="ycircumflex" unicode="&#x177;" horiz-adv-x="976" 
d="M969 913l-463 -1093q-142 -332 -404 -332q-60 0 -141 18l35 172q45 -10 84 -10q26 0 50 8.5t42 19t38 33.5t30.5 37.5t28 45.5t23 43t21.5 45l60 131l-361 882l240 41l143 -379q67 -179 99 -290q2 7 15.5 49.5t38.5 115t48 130.5l143 374zM563 1407l260 -313l-180 -23
l-160 195l-159 -195l-168 23l260 313h147z" />
    <glyph glyph-name="Ydieresis" unicode="&#x178;" horiz-adv-x="1218" 
d="M1225 1348l-488 -738v-610h-254v610l-485 738l258 45l233 -359q29 -45 63.5 -102.5t54.5 -91.5l20 -35q76 137 137 231l227 357zM537 1655q0 -57 -36.5 -94t-94.5 -37q-57 0 -94.5 37.5t-37.5 93.5q0 57 37.5 94t94.5 37q58 0 94.5 -36t36.5 -95zM942 1655
q0 -56 -37 -93.5t-94 -37.5q-55 0 -93 38t-38 93q0 57 37.5 94t93.5 37q59 0 95 -36t36 -95z" />
    <glyph glyph-name="Zacute" unicode="&#x179;" horiz-adv-x="1222" 
d="M1196 217l-35 -217h-1089l-45 104l772 1051h-693v211h1018l43 -104l-772 -1045h801zM971 1761l-385 -258l-146 62l322 266z" />
    <glyph glyph-name="zacute" unicode="&#x17a;" horiz-adv-x="894" 
d="M870 178l-32 -178h-787l-24 94l487 666h-440v176h729l33 -92l-488 -666h522zM766 1313l-324 -260l-147 61l260 266z" />
    <glyph glyph-name="Zdotaccent" unicode="&#x17b;" horiz-adv-x="1222" 
d="M1196 217l-35 -217h-1089l-45 104l772 1051h-693v211h1018l43 -104l-772 -1045h801zM756 1667q0 -59 -39 -99t-99 -40q-61 0 -101 39.5t-40 99.5q0 61 39.5 100t99.5 39t100 -39.5t40 -99.5z" />
    <glyph glyph-name="zdotaccent" unicode="&#x17c;" horiz-adv-x="894" 
d="M870 178l-32 -178h-787l-24 94l487 666h-440v176h729l33 -92l-488 -666h522zM588 1225q0 -60 -38.5 -100t-98.5 -40q-62 0 -102 39.5t-40 100.5t39.5 99t100.5 38q60 0 99.5 -39t39.5 -98z" />
    <glyph glyph-name="Zcaron" unicode="&#x17d;" horiz-adv-x="1222" 
d="M1196 217l-35 -217h-1089l-45 104l772 1051h-693v211h1018l43 -104l-772 -1045h801zM958 1796l-258 -315h-149l-258 315l182 21l158 -193l162 191z" />
    <glyph glyph-name="zcaron" unicode="&#x17e;" horiz-adv-x="894" 
d="M870 178l-32 -178h-787l-24 94l487 666h-440v176h729l33 -92l-488 -666h522zM793 1386l-258 -315h-150l-260 315l182 21l158 -190l162 188z" />
    <glyph glyph-name="Acaron" unicode="&#x1cd;" horiz-adv-x="1359" 
d="M1090 0l-148 367h-547l-149 -367h-246l586 1366h196l578 -1366h-270zM1012 1776l-258 -316h-150l-258 316l182 20l158 -192l162 190zM479 571h381l-90 228q-51 130 -96 264q-27 -81 -101 -262z" />
    <glyph glyph-name="acaron" unicode="&#x1ce;" horiz-adv-x="962" 
d="M918 -16q-38 -13 -101 -13q-170 0 -201 113q-83 -60 -141.5 -86.5t-138.5 -26.5q-131 0 -206 78.5t-75 208.5q0 57 19.5 103.5t46.5 78t77 57t87 40t102.5 27t98 17t96.5 12.5q3 0 4.5 0.5t3.5 0.5v27q0 80 -37.5 120.5t-132.5 40.5q-75 0 -147 -25.5t-160 -72.5v180
q200 101 362 101q183 0 281 -101q69 -72 69 -262v-317q0 -29 1 -46.5t6.5 -40.5t16 -36t30.5 -22t49 -9l22 2zM590 201v264q-38 -5 -65 -10t-67 -15t-67 -24t-54 -34.5t-40.5 -50.5t-13.5 -67q0 -58 37 -94.5t94 -36.5q73 0 176 68zM815 1386l-258 -315h-149l-261 315
l183 21l157 -190l162 188z" />
    <glyph glyph-name="Scommaaccent" unicode="&#x218;" horiz-adv-x="1009" 
d="M950 387q0 -126 -66.5 -222.5t-172 -145t-230.5 -48.5q-232 0 -442 144l41 243q81 -80 179.5 -129t201.5 -49q91 0 149 52.5t58 142.5q0 46 -25 83.5t-66 62.5t-93 51t-107 49t-107 57.5t-93 74.5t-66 102.5t-25 139.5q0 121 60 213.5t159 139.5t219 47q205 0 379 -129
l-76 -199q-83 60 -147.5 89.5t-144.5 29.5q-77 0 -130 -44t-53 -126q0 -53 33 -94t85.5 -69.5t116.5 -56t128 -62t116.5 -77.5t85.5 -112t33 -158zM573 -139q-3 -114 -45.5 -236t-87.5 -188l-151 47q31 72 52 177t26 200h206z" />
    <glyph glyph-name="scommaaccent" unicode="&#x219;" horiz-adv-x="800" 
d="M745 266q0 -73 -32 -131t-85 -93t-117 -53t-134 -18q-216 0 -354 127l90 162q124 -108 249 -108q132 0 132 100q0 32 -22.5 57t-59 43t-80 35.5t-87 41t-80 53.5t-59 79t-22.5 111q0 139 99.5 216t240.5 77q155 0 297 -86l-70 -172q-118 77 -211 77q-114 0 -114 -92
q0 -32 23 -56.5t60 -42t81.5 -35t89.5 -41.5t82 -55t60 -81.5t23 -114.5zM465 -139q-3 -114 -45.5 -236t-87.5 -188l-139 47q32 74 54 179.5t27 197.5h191z" />
    <glyph glyph-name="Tcommaaccent" unicode="&#x21a;" horiz-adv-x="1161" 
d="M1147 1157h-438v-1157h-254v1157h-441v209h1133v-209zM682 -139q-3 -114 -45.5 -236t-87.5 -188l-152 47q31 72 52 177t26 200h207z" />
    <glyph glyph-name="tcommaaccent" unicode="&#x21b;" horiz-adv-x="765" 
d="M770 51q-124 -69 -287 -69q-138 0 -210 72.5t-72 209.5v496h-189v149q60 4 101.5 12t73 25.5t50.5 36.5t34.5 56.5t24.5 72t21 96.5h121v-272h262v-176h-262v-406q0 -37 1.5 -59.5t9 -48.5t21 -40.5t38.5 -24t61 -9.5q25 0 66.5 9t70.5 19l29 9zM545 -139
q-3 -114 -45.5 -236t-87.5 -188l-140 47q32 74 54.5 179.5t27.5 197.5h191z" />
    <glyph glyph-name="Adotaccent" unicode="&#x226;" horiz-adv-x="1359" 
d="M1090 0l-148 367h-547l-149 -367h-246l586 1366h196l578 -1366h-270zM479 571h381l-90 228q-51 130 -96 264q-27 -81 -101 -262zM819 1667q0 -59 -39 -99t-98 -40q-61 0 -101 39.5t-40 99.5q0 61 39.5 100t99.5 39t99.5 -39.5t39.5 -99.5z" />
    <glyph glyph-name="adotaccent" unicode="&#x227;" horiz-adv-x="962" 
d="M918 -16q-38 -13 -101 -13q-170 0 -201 113q-83 -60 -141.5 -86.5t-138.5 -26.5q-131 0 -206 78.5t-75 208.5q0 57 19.5 103.5t46.5 78t77 57t87 40t102.5 27t98 17t96.5 12.5q3 0 4.5 0.5t3.5 0.5v27q0 80 -37.5 120.5t-132.5 40.5q-75 0 -147 -25.5t-160 -72.5v180
q200 101 362 101q183 0 281 -101q69 -72 69 -262v-317q0 -29 1 -46.5t6.5 -40.5t16 -36t30.5 -22t49 -9l22 2zM590 201v264q-38 -5 -65 -10t-67 -15t-67 -24t-54 -34.5t-40.5 -50.5t-13.5 -67q0 -58 37 -94.5t94 -36.5q73 0 176 68zM616 1225q0 -60 -38.5 -100t-98.5 -40
q-62 0 -101.5 39.5t-39.5 100.5t39 99t100 38q60 0 99.5 -39t39.5 -98z" />
    <glyph glyph-name="Odotaccent" unicode="&#x22e;" horiz-adv-x="1574" 
d="M1497 680q0 -209 -90.5 -370.5t-253.5 -250t-373 -88.5q-203 0 -363 93.5t-248.5 256.5t-88.5 365q0 205 95 367.5t261 252t371 89.5q199 0 357.5 -96t245.5 -259.5t87 -359.5zM1225 651q0 79 -19 154.5t-57.5 141.5t-91.5 116t-126 79t-157 29q-195 0 -307.5 -127.5
t-112.5 -324.5q0 -104 31 -197t88 -165.5t145.5 -115t196.5 -42.5q191 0 300.5 129t109.5 323zM948 1667q0 -59 -39 -99t-98 -40q-61 0 -101 39.5t-40 99.5q0 61 39.5 100t99.5 39t99.5 -39.5t39.5 -99.5z" />
    <glyph glyph-name="odotaccent" unicode="&#x22f;" horiz-adv-x="1128" 
d="M1065 469q0 -222 -136 -360t-364 -138q-219 0 -358 135.5t-139 354.5q0 224 141 364t373 140q143 0 254 -66.5t170 -179t59 -250.5zM821 461q0 61 -15.5 117t-46.5 103.5t-83.5 76t-120.5 28.5q-76 0 -133 -43.5t-85 -109.5t-28 -141q0 -139 72.5 -239.5t202.5 -100.5
q117 0 177 84.5t60 224.5zM721 1225q0 -60 -38.5 -100t-98.5 -40q-62 0 -102 39.5t-40 100.5t39.5 99t100.5 38q60 0 99.5 -39t39.5 -98z" />
    <glyph glyph-name="Ymacron" unicode="&#x232;" horiz-adv-x="1218" 
d="M1225 1348l-488 -738v-610h-254v610l-485 738l258 45l233 -359q29 -45 63.5 -102.5t54.5 -91.5l20 -35q76 137 137 231l227 357zM887 1536h-555v154h555v-154z" />
    <glyph glyph-name="ymacron" unicode="&#x233;" horiz-adv-x="976" 
d="M969 913l-463 -1093q-142 -332 -404 -332q-60 0 -141 18l35 172q45 -10 84 -10q26 0 50 8.5t42 19t38 33.5t30.5 37.5t28 45.5t23 43t21.5 45l60 131l-361 882l240 41l143 -379q22 -58 46.5 -130.5t38.5 -116.5l14 -43q51 164 102 295l143 374zM766 1139h-555v153h555
v-153z" />
    <glyph glyph-name="afiii57929" unicode="&#x2bc;" horiz-adv-x="501" 
d="M453 1448q-22 -149 -77.5 -296.5t-137.5 -268.5l-179 32q161 290 197 551z" />
    <glyph glyph-name="circumflex" unicode="&#x2c6;" 
d="M586 1407l260 -313l-180 -23l-160 195l-160 -195l-168 23l260 313h148z" />
    <glyph glyph-name="caron" unicode="&#x2c7;" 
d="M846 1386l-258 -315h-150l-260 315l182 21l158 -190l162 188z" />
    <glyph glyph-name="breve" unicode="&#x2d8;" 
d="M829 1376q-6 -139 -90.5 -220t-232.5 -81q-133 0 -219.5 80t-93.5 219l149 19q12 -72 52.5 -119t111.5 -47q84 0 123.5 43.5t54.5 122.5z" />
    <glyph glyph-name="dotaccent" unicode="&#x2d9;" 
d="M651 1225q0 -60 -38.5 -100t-98.5 -40q-62 0 -101.5 39.5t-39.5 100.5t39 99t100 38q60 0 99.5 -39t39.5 -98z" />
    <glyph glyph-name="ring" unicode="&#x2da;" 
d="M291 1219q0 88 65.5 143t153.5 55q91 0 157 -55t66 -143t-66 -144.5t-155 -56.5t-155 56.5t-66 144.5zM408 1219q0 -44 29 -73.5t73 -29.5q45 0 74.5 29t29.5 74q0 44 -29.5 73t-72.5 29q-46 0 -75 -29t-29 -73z" />
    <glyph glyph-name="ogonek" unicode="&#x2db;" 
d="M557 0h125q-7 -4 -18 -12t-40 -32t-51.5 -47.5t-40.5 -56t-18 -61.5q0 -30 21 -46.5t53 -16.5q25 0 47 4t31 8l10 4l24 -104q-71 -39 -182 -39q-79 0 -136.5 33.5t-57.5 101.5q0 47 24 91.5t58.5 74.5t68.5 53t58 34z" />
    <glyph glyph-name="tilde" unicode="&#x2dc;" 
d="M750 1337l110 -55q-76 -178 -219 -178q-52 0 -140 40t-128 40q-37 0 -58.5 -22t-40.5 -62l-112 53q33 90 85.5 137t139.5 47q52 0 135.5 -38.5t130.5 -38.5q36 0 56.5 17.5t40.5 59.5z" />
    <glyph glyph-name="hungarumlaut" unicode="&#x2dd;" 
d="M543 1313l-293 -250l-137 51l219 266zM911 1313l-293 -250l-137 51l219 266z" />
    <glyph glyph-name="Delta" unicode="&#x394;" horiz-adv-x="1370" 
d="M1331 0h-1292l539 1389h206zM1049 178l-365 975l-367 -975h732z" />
    <glyph glyph-name="Omega" unicode="&#x3a9;" horiz-adv-x="1415" 
d="M1378 0h-567v164q177 97 266.5 238t89.5 339q0 135 -54.5 250.5t-160.5 188.5t-243 73q-105 0 -193 -42t-146 -112.5t-90 -162.5t-32 -193q0 -389 360 -579v-164h-571v178h371q-176 98 -264.5 241t-88.5 341q0 183 85.5 333t236 236t334.5 86q135 0 255.5 -51t207 -137.5
t136.5 -208t50 -256.5q0 -198 -87 -341t-263 -243h368v-178z" />
    <glyph glyph-name="pi" unicode="&#x3c0;" horiz-adv-x="1249" 
d="M1196 758h-156v-758h-192v758h-445v-758h-192v758h-158v178h1143v-178z" />
    <glyph glyph-name="Wgrave" unicode="&#x1e80;" horiz-adv-x="1994" 
d="M1982 1346l-534 -1346h-197l-155 391q-82 203 -99 264q-2 -2 -16.5 -44t-38.5 -107.5t-41 -110.5l-153 -393h-199l-539 1346l254 47l316 -801q21 -57 46 -128t40.5 -115.5t17.5 -49.5q2 7 15.5 49t38.5 114t48 130l111 282l-184 472l248 47l301 -779q17 -45 39 -108
t38 -109.5t17 -50.5q1 6 16.5 54.5t38 113.5t37.5 102l299 777zM1014 1503l-385 258l211 70l319 -266z" />
    <glyph glyph-name="wgrave" unicode="&#x1e81;" horiz-adv-x="1499" 
d="M1493 913l-369 -913h-206l-173 440l-163 -440h-207l-369 913l232 41l204 -520q15 -38 31 -84t26 -76.5t11 -33.5l4 14q4 13 10.5 32.5t14 43.5t17.5 52t19 52l82 221l-102 258l217 41l197 -522q15 -38 28.5 -80.5t20.5 -65.5l6 -24q20 80 55 172l199 520zM778 1053
l-325 260l211 67l260 -266z" />
    <glyph glyph-name="Wacute" unicode="&#x1e82;" horiz-adv-x="1994" 
d="M1982 1346l-534 -1346h-197l-155 391q-82 203 -99 264q-2 -2 -16.5 -44t-38.5 -107.5t-41 -110.5l-153 -393h-199l-539 1346l254 47l316 -801q21 -57 46 -128t40.5 -115.5t17.5 -49.5q2 7 15.5 49t38.5 114t48 130l111 282l-184 472l248 47l301 -779q17 -45 39 -108
t38 -109.5t17 -50.5q1 6 16.5 54.5t38 113.5t37.5 102l299 777zM1303 1761l-385 -258l-146 62l322 266z" />
    <glyph glyph-name="wacute" unicode="&#x1e83;" horiz-adv-x="1499" 
d="M1493 913l-369 -913h-206l-173 440l-163 -440h-207l-369 913l232 41l204 -520q15 -38 31 -84t26 -76.5t11 -33.5l4 14q4 13 10.5 32.5t14 43.5t17.5 52t19 52l82 221l-102 258l217 41l197 -522q37 -98 55 -170q19 76 55 172l199 520zM1065 1313l-324 -260l-147 61
l260 266z" />
    <glyph glyph-name="Wdieresis" unicode="&#x1e84;" horiz-adv-x="1994" 
d="M1982 1346l-534 -1346h-197l-155 391q-82 203 -99 264q-2 -2 -16.5 -44t-38.5 -107.5t-41 -110.5l-153 -393h-199l-539 1346l254 47l316 -801q24 -61 50 -134t40 -116l14 -43q51 162 102 293l111 282l-184 472l248 47l301 -779q18 -47 41.5 -114t38.5 -110l14 -44
q59 186 92 270l299 777zM926 1655q0 -57 -36.5 -94t-94.5 -37q-57 0 -94 37.5t-37 93.5q0 57 37 94t94 37q59 0 95 -36t36 -95zM1331 1655q0 -56 -37 -93.5t-94 -37.5q-56 0 -93.5 38t-37.5 93q0 57 37.5 94t93.5 37q58 0 94.5 -36t36.5 -95z" />
    <glyph glyph-name="wdieresis" unicode="&#x1e85;" horiz-adv-x="1499" 
d="M1493 913l-369 -913h-206l-173 440l-163 -440h-207l-369 913l232 41l204 -520q15 -38 31 -84t26 -76.5t11 -33.5l4 14q4 13 10.5 32.5t14 43.5t17.5 52t19 52l82 221l-102 258l217 41l197 -522q37 -98 55 -170q19 76 55 172l199 520zM678 1225q0 -57 -37 -94t-94 -37
t-95 37t-38 94q0 56 37 93.5t94 37.5q58 0 95.5 -37t37.5 -94zM1083 1225q0 -57 -37 -94t-94 -37q-56 0 -94.5 37.5t-38.5 93.5q0 55 37.5 93t93.5 38q58 0 95.5 -37t37.5 -94z" />
    <glyph glyph-name="Ygrave" unicode="&#x1ef2;" horiz-adv-x="1218" 
d="M1225 1348l-488 -738v-610h-254v610l-485 738l258 45l233 -359q29 -45 63.5 -102.5t54.5 -91.5l20 -35q76 137 137 231l227 357zM637 1473l-385 258l211 69l319 -266z" />
    <glyph glyph-name="ygrave" unicode="&#x1ef3;" horiz-adv-x="976" 
d="M969 913l-463 -1093q-142 -332 -404 -332q-60 0 -141 18l35 172q45 -10 84 -10q26 0 50 8.5t42 19t38 33.5t30.5 37.5t28 45.5t23 43t21.5 45l60 131l-361 882l240 41l143 -379q22 -58 46.5 -130.5t38.5 -116.5l14 -43q51 164 102 295l143 374zM477 1053l-325 260l210 67
l261 -266z" />
    <glyph glyph-name="endash" unicode="&#x2013;" horiz-adv-x="870" 
d="M868 590l-18 -178h-850l18 178h850z" />
    <glyph glyph-name="emdash" unicode="&#x2014;" horiz-adv-x="1456" 
d="M1458 590l-18 -178h-1440l18 178h1440z" />
    <glyph glyph-name="quoteleft" unicode="&#x2018;" horiz-adv-x="501" 
d="M471 1432q-166 -297 -197 -551l-194 18q21 158 75.5 290t151.5 275z" />
    <glyph glyph-name="quoteright" unicode="&#x2019;" horiz-adv-x="501" 
d="M453 1448q-22 -149 -77.5 -296.5t-137.5 -268.5l-179 32q161 290 197 551z" />
    <glyph glyph-name="quotesinglbase" unicode="&#x201a;" horiz-adv-x="501" 
d="M453 238q-22 -149 -77.5 -297t-137.5 -269l-179 33q161 290 197 551z" />
    <glyph glyph-name="quotedblleft" unicode="&#x201c;" horiz-adv-x="827" 
d="M795 1432q-163 -305 -193 -551l-199 18q24 159 78.5 289.5t151.5 275.5zM471 1432q-166 -297 -197 -551l-194 18q21 160 75 291.5t152 273.5z" />
    <glyph glyph-name="quotedblright" unicode="&#x201d;" horiz-adv-x="827" 
d="M776 1448q-21 -159 -75.5 -288t-153.5 -277l-162 32q159 284 197 551zM453 1448q-22 -159 -77.5 -290t-152.5 -275l-164 32q161 290 197 551z" />
    <glyph glyph-name="quotedblbase" unicode="&#x201e;" horiz-adv-x="763" 
d="M676 246q-21 -159 -75 -289t-152 -281l-164 37q161 284 196 551zM352 246q-21 -158 -76 -289.5t-153 -280.5l-162 37q158 285 195 551z" />
    <glyph glyph-name="dagger" unicode="&#x2020;" horiz-adv-x="1140" 
d="M1026 805h-340v-885h-231v885h-342v201h342v360h231v-360h340v-201z" />
    <glyph glyph-name="daggerdbl" unicode="&#x2021;" horiz-adv-x="1140" 
d="M455 489v316h-342v201h342v360h231v-360h340v-201h-340v-316h340v-200h-340v-369h-231v369h-342v200h342z" />
    <glyph glyph-name="bullet" unicode="&#x2022;" horiz-adv-x="1122" 
d="M920 684q0 -148 -105 -253t-252 -105q-148 0 -254 104.5t-106 253.5q0 148 105.5 253t254.5 105q147 0 252 -105.5t105 -252.5z" />
    <glyph glyph-name="ellipsis" unicode="&#x2026;" horiz-adv-x="1331" 
d="M1247 119q0 -61 -38.5 -100t-100.5 -39t-100.5 39t-38.5 100q0 63 38 101t101 38t101 -38t38 -101zM803 119q0 -61 -38.5 -100t-100.5 -39q-60 0 -100 39t-40 100q0 63 39 101t101 38q63 0 101 -38t38 -101zM360 119q0 -61 -39.5 -100t-99.5 -39q-61 0 -100 39t-39 100
q0 63 38 101t101 38q62 0 100.5 -38t38.5 -101z" />
    <glyph glyph-name="perthousand" unicode="&#x2030;" horiz-adv-x="2727" 
d="M1815 410q0 -111 -44 -203.5t-130 -149.5t-199 -57q-162 0 -262.5 113.5t-100.5 277.5q0 176 103.5 294t275.5 118q108 0 190.5 -54.5t124.5 -143t42 -195.5zM1329 1343l-561 -1343h-172l561 1343h172zM846 952q0 -175 -100.5 -294t-272.5 -119q-162 0 -262 113.5
t-100 277.5q0 177 102.5 296.5t275.5 119.5q108 0 190.5 -55.5t124.5 -144t42 -194.5zM1614 383q0 43 -9.5 87.5t-29 87.5t-55.5 70t-82 27q-83 0 -124.5 -68.5t-41.5 -158.5q0 -45 10 -90.5t30 -88.5t57.5 -70t86.5 -27q58 0 95 37.5t50 86.5t13 107zM645 922q0 44 -9 89
t-28.5 88t-55.5 70t-83 27q-57 0 -96 -35.5t-54.5 -84.5t-15.5 -105q0 -46 10 -92t30 -89.5t57.5 -70.5t86.5 -27q44 0 76.5 21t49 56.5t24.5 73t8 79.5zM2617 410q0 -111 -43 -203t-129 -149.5t-200 -57.5q-162 0 -262.5 113.5t-100.5 277.5q0 176 103.5 294t275.5 118
q108 0 190.5 -54.5t124 -143t41.5 -195.5zM2417 383q0 43 -9.5 87.5t-29 87.5t-55.5 70t-82 27q-57 0 -95.5 -36t-53.5 -85t-15 -106q0 -45 9.5 -90.5t29.5 -88.5t57 -70t86 -27q58 0 95 37.5t50 86.5t13 107z" />
    <glyph glyph-name="guilsinglleft" unicode="&#x2039;" horiz-adv-x="587" 
d="M524 168l-104 -148l-357 451l357 449l104 -136l-243 -307z" />
    <glyph glyph-name="guilsinglright" unicode="&#x203a;" horiz-adv-x="587" 
d="M524 469l-358 -449l-103 136l242 307l-242 309l103 148z" />
    <glyph glyph-name="fraction" unicode="&#x2044;" horiz-adv-x="260" 
d="M608 1333l-764 -1333h-192l764 1333h192z" />
    <glyph glyph-name="fraction" unicode="&#x2215;" horiz-adv-x="260" 
d="M608 1333l-764 -1333h-192l764 1333h192z" />
    <glyph glyph-name="zero.superior" unicode="&#x2070;" horiz-adv-x="782" 
d="M725 1112q0 -82 -19 -154.5t-57.5 -134t-106.5 -97.5t-157 -36q-70 0 -126 24.5t-93 64.5t-62 94.5t-36 112.5t-11 120q0 64 12.5 124.5t40.5 115.5t67.5 96t98.5 65.5t130 24.5q67 0 122 -25.5t91 -67t60.5 -96.5t35 -113t10.5 -118zM518 1102q0 37 -5.5 75.5t-18 83
t-40.5 73t-67 28.5q-37 0 -63.5 -24t-39 -62t-17.5 -72.5t-5 -68.5q0 -41 4.5 -80t17 -87.5t42 -78t71.5 -29.5q38 0 64.5 26.5t37.5 69t15 77t4 69.5z" />
    <glyph glyph-name="four.superior" unicode="&#x2074;" horiz-adv-x="782" 
d="M743 1024l-18 -133h-115v-180h-194v180h-344l-33 147l440 496l131 -27v-483h133zM420 1024v260l-221 -260h221z" />
    <glyph glyph-name="five.superior" unicode="&#x2075;" horiz-adv-x="782" 
d="M688 971q0 -129 -93 -205t-228 -76q-150 0 -271 68l41 143q96 -59 187 -59q61 0 102 35.5t41 95.5q0 129 -209 153q-54 4 -76 4l68 381h424v-155h-258l-23 -123q129 -11 212 -76.5t83 -185.5z" />
    <glyph glyph-name="six.superior" unicode="&#x2076;" horiz-adv-x="782" 
d="M717 983q0 -129 -92.5 -211t-227.5 -82q-150 0 -239.5 93t-89.5 241q0 99 40 187t109 153t154 112t182 76l115 -110q-245 -84 -344 -240q49 35 133 35q110 0 185 -72.5t75 -181.5zM528 979q0 59 -37.5 97t-97.5 38q-28 0 -57 -13t-44 -25l-16 -13q-8 -29 -8 -64
q0 -63 35 -107t96 -44t95 36t34 95z" />
    <glyph glyph-name="seven.superior" unicode="&#x2077;" horiz-adv-x="737" 
d="M702 1432q-168 -312 -370 -740l-219 35q169 346 336 629h-383v155h602z" />
    <glyph glyph-name="eight.superior" unicode="&#x2078;" horiz-adv-x="782" 
d="M719 938q0 -62 -29.5 -111.5t-78 -78.5t-105.5 -43.5t-117 -14.5q-59 0 -114.5 14t-104 41.5t-78 75.5t-29.5 109q0 136 150 196q-115 65 -115 177q0 57 25.5 102t68 72t93.5 41t106 14q73 0 136 -20.5t108 -70.5t45 -122q0 -122 -119 -178q77 -31 117.5 -79t40.5 -124z
M508 1313q0 43 -31 70.5t-80 27.5q-45 0 -74.5 -24.5t-29.5 -63.5q0 -19 8.5 -36.5t18.5 -28.5t30 -23.5t31 -18t34 -15.5q7 -3 11 -5q41 25 61.5 50.5t20.5 66.5zM504 920q0 24 -10.5 44.5t-21 33t-37.5 28.5t-36 20t-41 19q-104 -49 -104 -135q0 -52 38 -84.5t91 -32.5
q52 0 86.5 28.5t34.5 78.5z" />
    <glyph glyph-name="nine.superior" unicode="&#x2079;" horiz-adv-x="782" 
d="M713 1202q0 -96 -39.5 -185.5t-106.5 -157.5t-153.5 -117t-180.5 -72l-124 108q118 48 203.5 96.5t133.5 114.5q-59 -20 -114 -20q-114 0 -188 75.5t-74 186.5q0 131 94 216t225 85q146 0 235 -94.5t89 -235.5zM516 1208q0 70 -36 116t-99 46q-55 0 -91 -36.5t-36 -90.5
q0 -57 39.5 -97t97.5 -40q67 0 121 57q4 28 4 45z" />
    <glyph glyph-name="zero.inferior" unicode="&#x2080;" horiz-adv-x="782" 
d="M725 115q0 -82 -19 -154.5t-57.5 -134t-106.5 -97.5t-157 -36q-70 0 -126 24.5t-93 64.5t-62 94.5t-36 112.5t-11 120q0 64 12.5 124.5t40.5 115.5t67.5 96t98.5 65.5t130 24.5q67 0 122 -25.5t91 -67t60.5 -96.5t35 -113t10.5 -118zM518 104q0 37 -5.5 76t-18 83.5
t-40.5 73t-67 28.5q-37 0 -63.5 -24t-39 -62.5t-17.5 -73t-5 -68.5q0 -41 4.5 -80t17 -87t42 -77.5t71.5 -29.5q31 0 54.5 18.5t35.5 45t19.5 62t9.5 62t2 53.5z" />
    <glyph glyph-name="one.inferior" unicode="&#x2081;" horiz-adv-x="604" 
d="M451 -287h-203v588q-80 -45 -156 -72l-67 119q84 38 177.5 85.5t145.5 75.5l51 28l52 -23v-801z" />
    <glyph glyph-name="two.inferior" unicode="&#x2082;" horiz-adv-x="782" 
d="M713 -133l-29 -154h-592l-22 97q18 16 79 64.5t105.5 87.5t96 91t80 103t28.5 96q0 52 -30.5 79t-86.5 27q-36 0 -83.5 -18t-76.5 -36l-30 -19l-56 131q5 5 15 13t41 28.5t63.5 36t81 28.5t94.5 13q130 0 202.5 -69.5t72.5 -184.5q0 -29 -5.5 -56.5t-20.5 -56t-26 -50
t-38 -51t-39 -44t-46.5 -45t-43.5 -38.5t-47.5 -39.5t-41.5 -33.5h355z" />
    <glyph glyph-name="three.inferior" unicode="&#x2083;" horiz-adv-x="782" 
d="M694 -57q0 -77 -47.5 -135.5t-117.5 -86.5t-148 -28q-53 0 -102.5 9.5t-82.5 23t-58 27t-36 23.5l-12 9l49 133q3 -3 9.5 -8.5t27.5 -19t42.5 -23.5t54.5 -18.5t65 -8.5q56 0 91.5 28.5t35.5 80.5q0 34 -16.5 56.5t-46.5 33t-60 14.5t-70 4h-45v127h148q3 1 8 3.5
t18.5 11.5t23.5 20t18 30t8 40q0 47 -30.5 69.5t-80.5 22.5q-36 0 -77 -13.5t-64 -26.5l-23 -13l-53 118q5 4 13 10t36 21t57 27t73 21.5t87 9.5q109 0 189.5 -56t80.5 -157q0 -122 -127 -179q162 -46 162 -200z" />
    <glyph glyph-name="four.inferior" unicode="&#x2084;" horiz-adv-x="782" 
d="M743 27l-18 -133h-115v-181h-194v181h-344l-33 147l440 496l131 -27v-483h133zM420 27v260l-221 -260h221z" />
    <glyph glyph-name="five.inferior" unicode="&#x2085;" horiz-adv-x="782" 
d="M688 -27q0 -129 -93 -204.5t-228 -75.5q-152 0 -271 67l41 144q98 -60 187 -60q61 0 102 35.5t41 95.5q0 130 -209 154q-54 4 -76 4l68 381h424v-156h-258l-23 -122q129 -11 212 -77t83 -186z" />
    <glyph glyph-name="six.inferior" unicode="&#x2086;" horiz-adv-x="782" 
d="M717 -14q0 -129 -92.5 -211t-227.5 -82q-150 0 -239.5 93t-89.5 241q0 99 40 187t109 153t154 112t182 76l115 -111q-246 -85 -344 -239q49 35 133 35q110 0 185 -72.5t75 -181.5zM528 -18q0 59 -37.5 97t-97.5 38q-28 0 -57 -12.5t-44 -25.5l-16 -13q-8 -29 -8 -64
q0 -63 35.5 -107.5t95.5 -44.5t94.5 36t34.5 96z" />
    <glyph glyph-name="seven.inferior" unicode="&#x2087;" horiz-adv-x="737" 
d="M702 434q-172 -319 -370 -739l-219 35q166 340 336 628h-383v156h602z" />
    <glyph glyph-name="eight.inferior" unicode="&#x2088;" horiz-adv-x="782" 
d="M719 -59q0 -62 -29.5 -111.5t-78 -78.5t-105.5 -43.5t-117 -14.5q-59 0 -114.5 14t-104 41.5t-78 75t-29.5 108.5q0 137 150 197q-115 65 -115 176q0 75 44.5 129t109 77.5t139.5 23.5q73 0 136 -20.5t108 -70.5t45 -122q0 -123 -119 -179q77 -31 117.5 -78.5
t40.5 -123.5zM508 315q0 43 -31 71t-80 28q-45 0 -74.5 -24.5t-29.5 -63.5q0 -19 8.5 -36.5t18.5 -28.5t30 -23.5t31 -18t34 -15.5q7 -3 11 -5q41 26 61.5 51t20.5 65zM504 -78q0 29 -12 52t-39.5 42t-43 27t-51.5 25q-104 -49 -104 -136q0 -52 38 -84t91 -32q52 0 86.5 28
t34.5 78z" />
    <glyph glyph-name="nine.inferior" unicode="&#x2089;" horiz-adv-x="782" 
d="M713 205q0 -96 -39.5 -185.5t-106.5 -157.5t-153.5 -117.5t-180.5 -72.5l-124 109q118 48 203.5 96.5t133.5 114.5q-62 -21 -114 -21q-114 0 -188 75.5t-74 186.5q0 131 94 216.5t225 85.5q146 0 235 -94.5t89 -235.5zM516 211q0 70 -36 116t-99 46q-55 0 -91 -36.5
t-36 -90.5q0 -57 39.5 -97t97.5 -40q67 0 121 57q4 28 4 45z" />
    <glyph glyph-name="Euro" unicode="&#x20ac;" horiz-adv-x="1140" 
d="M59 739v131h172q18 78 48.5 147t78 132t107.5 107.5t142 71t177 26.5q97 0 177.5 -28t162.5 -89l-92 -184q-116 90 -246 90q-141 0 -215.5 -72t-101.5 -201h381v-131h-397q-2 -29 -2 -84v-45h399v-131h-383q57 -291 334 -291q137 0 258 91l76 -173q-163 -135 -363 -135
q-122 0 -220 37.5t-164.5 107t-108.5 160t-60 203.5h-160v131h148v45q0 26 4 84h-152z" />
    <glyph glyph-name="liter" unicode="&#x2113;" horiz-adv-x="768" 
d="M184 414l-18 -17q-61 -61 -82 -61q-11 0 -20 10.5t-9 22.5q0 20 41 55q58 53 103 106q87 448 182.5 655.5t218.5 207.5q57 0 93 -44.5t36 -113.5q0 -158 -85.5 -321t-272.5 -361q-66 -339 -66 -426q0 -51 37 -51q53 0 102 110q16 37 39 37q27 0 27 -26q0 -52 -53 -125
q-71 -99 -156 -99q-64 0 -101.5 51.5t-37.5 139.5q0 73 18 223zM399 723l-6 -39q124 138 190 277t66 264q0 34 -12.5 57t-32.5 23q-34 0 -61 -42.5t-56 -142.5q-41 -149 -88 -397z" />
    <glyph glyph-name="trademark" unicode="&#x2122;" horiz-adv-x="1345" 
d="M1233 901h-127l-25 219l-12 123q-26 -57 -51 -110l-107 -232h-82l-100 232l-49 110q-6 -64 -12 -123l-23 -219h-117l78 561h94l115 -264l64 -145q32 75 63 143l119 266h96zM504 1360h-180v-459h-129v459h-183v102h492v-102z" />
    <glyph glyph-name="estimated" unicode="&#x212e;" horiz-adv-x="1406" 
d="M1407 655h-1149v-407q102 -110 213 -152.5t250 -42.5q142 0 274 52t211 147h103q-97 -125 -252 -197.5t-338 -72.5q-149 0 -283 55.5t-229.5 149t-151 223t-55.5 272.5t55.5 273t150 224t224 149.5t272.5 55.5t273.5 -55.5t225 -149.5t150.5 -224t56 -273v-27zM1149 725
v399q-187 193 -449 193q-112 0 -241 -50t-201 -141v-401h891z" />
    <glyph glyph-name="onethird" unicode="&#x2153;" horiz-adv-x="1906" 
d="M571 532h-202v588q-80 -44 -156 -71l-68 118q84 38 177.5 85.5t145.5 75.5l52 28l51 -23v-801zM1432 1333l-764 -1333h-193l764 1333h193zM1798 229q0 -114 -95.5 -181.5t-217.5 -67.5q-53 0 -102.5 9.5t-82.5 23t-58 27t-36 22.5l-12 10l49 133q3 -3 9.5 -8.5t27.5 -19
t42.5 -23.5t54.5 -18.5t65 -8.5q56 0 91.5 28.5t35.5 80.5q0 34 -16.5 56.5t-46.5 33t-60 14.5t-70 4h-45v127h148q3 1 8 3.5t18 11.5t23 19.5t18 29.5t8 40q0 47 -30 70t-80 23q-36 0 -77 -13.5t-64 -26.5l-23 -14l-53 119q5 4 13 9.5t36 21t57 27t73 21t87 9.5
q109 0 189.5 -56t80.5 -157q0 -121 -127 -178q78 -22 120 -73t42 -128z" />
    <glyph glyph-name="twothirds" unicode="&#x2154;" horiz-adv-x="1906" 
d="M733 686l-28 -154h-592l-23 97q18 16 79 64.5t105.5 87.5t96 91t80 103t28.5 96q0 52 -30.5 79.5t-86.5 27.5q-36 0 -83.5 -18.5t-76.5 -37.5l-30 -18l-55 131q5 5 15 13t41 28.5t63.5 36t81 28.5t94.5 13q129 0 201.5 -69.5t72.5 -184.5q0 -26 -6 -52.5t-13.5 -48
t-24.5 -48t-28.5 -44t-36.5 -43.5t-37 -39t-42 -39t-40 -34.5t-41.5 -34.5t-37.5 -31h354zM1432 1333l-764 -1333h-193l764 1333h193zM1798 229q0 -114 -95.5 -181.5t-217.5 -67.5q-53 0 -102.5 9.5t-82.5 23t-58 27t-36 22.5l-12 10l49 133q3 -3 9.5 -8.5t27.5 -19
t42.5 -23.5t54.5 -18.5t65 -8.5q56 0 91.5 28.5t35.5 80.5q0 34 -16.5 56.5t-46.5 33t-60 14.5t-70 4h-45v127h148q3 1 8 3.5t18 11.5t23 19.5t18 29.5t8 40q0 47 -30 70t-80 23q-36 0 -77 -13.5t-64 -26.5l-23 -14l-53 119q5 4 13 9.5t36 21t57 27t73 21t87 9.5
q109 0 189.5 -56t80.5 -157q0 -121 -127 -178q78 -22 120 -73t42 -128z" />
    <glyph glyph-name="onefifth" unicode="&#x2155;" horiz-adv-x="1906" 
d="M571 532h-202v588q-80 -44 -156 -71l-68 118q84 38 177.5 85.5t145.5 75.5l52 28l51 -23v-801zM1432 1333l-764 -1333h-193l764 1333h193zM1792 260q0 -129 -93.5 -204.5t-228.5 -75.5q-151 0 -270 67l41 143q96 -59 186 -59q61 0 102.5 35.5t41.5 95.5q0 130 -209 154
q-54 4 -76 4l68 381h424v-156h-258l-23 -123q129 -11 212 -76.5t83 -185.5z" />
    <glyph glyph-name="twofifths" unicode="&#x2156;" horiz-adv-x="1906" 
d="M733 686l-28 -154h-592l-23 97q18 16 79 64.5t105.5 87.5t96 91t80 103t28.5 96q0 52 -30.5 79.5t-86.5 27.5q-36 0 -83.5 -18.5t-76.5 -37.5l-30 -18l-55 131q5 5 15 13t41 28.5t63.5 36t81 28.5t94.5 13q129 0 201.5 -69.5t72.5 -184.5q0 -26 -6 -52.5t-13.5 -48
t-24.5 -48t-28.5 -44t-36.5 -43.5t-37 -39t-42 -39t-40 -34.5t-41.5 -34.5t-37.5 -31h354zM1432 1333l-764 -1333h-193l764 1333h193zM1792 260q0 -129 -93.5 -204.5t-228.5 -75.5q-151 0 -270 67l41 143q96 -59 186 -59q61 0 102.5 35.5t41.5 95.5q0 130 -209 154
q-54 4 -76 4l68 381h424v-156h-258l-23 -123q129 -11 212 -76.5t83 -185.5z" />
    <glyph glyph-name="threefifths" unicode="&#x2157;" horiz-adv-x="1906" 
d="M715 762q0 -77 -48 -135.5t-118 -86.5t-148 -28q-53 0 -102.5 9.5t-82 23t-57.5 27t-37 22.5l-11 10l49 133q3 -3 9.5 -8.5t27 -19t42 -23.5t54.5 -18.5t65 -8.5q56 0 91.5 28.5t35.5 80.5q0 109 -192 109h-45v127h147q3 1 8 3.5t18.5 11.5t23.5 19.5t18 29.5t8 40
q0 47 -30.5 69.5t-80.5 22.5q-36 0 -76.5 -13t-63.5 -27l-23 -13l-54 119q5 4 13.5 9.5t36 21t57 27t73.5 21t87 9.5q109 0 189.5 -56t80.5 -157q0 -121 -127 -178q78 -22 120 -73t42 -128zM1432 1333l-764 -1333h-193l764 1333h193zM1792 260q0 -129 -93.5 -204.5
t-228.5 -75.5q-151 0 -270 67l41 143q96 -59 186 -59q61 0 102.5 35.5t41.5 95.5q0 130 -209 154q-54 4 -76 4l68 381h424v-156h-258l-23 -123q129 -11 212 -76.5t83 -185.5z" />
    <glyph glyph-name="fourfifths" unicode="&#x2158;" horiz-adv-x="1906" 
d="M764 846l-19 -133h-114v-181h-195v181h-344l-33 147l441 496l131 -27v-483h133zM440 846v260l-221 -260h221zM1432 1333l-764 -1333h-193l764 1333h193zM1792 260q0 -129 -93.5 -204.5t-228.5 -75.5q-151 0 -270 67l41 143q96 -59 186 -59q61 0 102.5 35.5t41.5 95.5
q0 130 -209 154q-54 4 -76 4l68 381h424v-156h-258l-23 -123q129 -11 212 -76.5t83 -185.5z" />
    <glyph glyph-name="onesixth" unicode="&#x2159;" horiz-adv-x="1906" 
d="M571 532h-202v588q-80 -44 -156 -71l-68 118q84 38 177.5 85.5t145.5 75.5l52 28l51 -23v-801zM1432 1333l-764 -1333h-193l764 1333h193zM1821 272q0 -129 -92.5 -210.5t-227.5 -81.5q-151 0 -240.5 92.5t-89.5 240.5q0 99 40 187t109.5 153t154.5 112.5t182 76.5
l115 -111q-247 -85 -345 -239q48 34 134 34q110 0 185 -72.5t75 -181.5zM1632 268q0 59 -37.5 97t-97.5 38q-28 0 -57.5 -12.5t-44.5 -25.5l-15 -13q-8 -28 -8 -63q0 -63 35.5 -107.5t95.5 -44.5q61 0 95 36t34 95z" />
    <glyph glyph-name="fivesixths" unicode="&#x215a;" horiz-adv-x="1906" 
d="M709 793q0 -129 -93.5 -205t-228.5 -76q-149 0 -270 68l41 143q96 -59 186 -59q61 0 102 35.5t41 95.5q0 129 -208 153q-54 4 -76 4l67 381h424v-155h-258l-22 -123q129 -11 212 -76.5t83 -185.5zM1432 1333l-764 -1333h-193l764 1333h193zM1821 272q0 -129 -92.5 -210.5
t-227.5 -81.5q-151 0 -240.5 92.5t-89.5 240.5q0 99 40 187t109.5 153t154.5 112.5t182 76.5l115 -111q-247 -85 -345 -239q48 34 134 34q110 0 185 -72.5t75 -181.5zM1632 268q0 59 -37.5 97t-97.5 38q-28 0 -57.5 -12.5t-44.5 -25.5l-15 -13q-8 -28 -8 -63
q0 -63 35.5 -107.5t95.5 -44.5q61 0 95 36t34 95z" />
    <glyph glyph-name="oneeighth" unicode="&#x215b;" horiz-adv-x="1906" 
d="M571 532h-202v588q-80 -44 -156 -71l-68 118q84 38 177.5 85.5t145.5 75.5l52 28l51 -23v-801zM1432 1333l-764 -1333h-193l764 1333h193zM1823 227q0 -62 -29.5 -111.5t-78 -78t-105.5 -43t-117 -14.5q-59 0 -114.5 14t-104 41.5t-78 75t-29.5 108.5q0 137 150 197
q-115 65 -115 176q0 57 25.5 102t68 72t93.5 41t106 14q73 0 136 -20.5t108 -70.5t45 -122q0 -122 -119 -178q77 -31 117.5 -79t40.5 -124zM1612 602q0 43 -31 70.5t-80 27.5q-45 0 -74.5 -24.5t-29.5 -63.5q0 -19 8.5 -36.5t18.5 -28.5t30 -23.5t31 -18t34 -15.5
q7 -3 11 -5q41 25 61.5 50.5t20.5 66.5zM1608 209q0 24 -10.5 44.5t-21 33t-37.5 28.5t-36 20t-41 19q-104 -49 -104 -135q0 -52 38 -84.5t91 -32.5q52 0 86.5 28t34.5 79z" />
    <glyph glyph-name="threeeighths" unicode="&#x215c;" horiz-adv-x="1906" 
d="M715 762q0 -77 -48 -135.5t-118 -86.5t-148 -28q-53 0 -102.5 9.5t-82 23t-57.5 27t-37 22.5l-11 10l49 133q3 -3 9.5 -8.5t27 -19t42 -23.5t54.5 -18.5t65 -8.5q56 0 91.5 28.5t35.5 80.5q0 109 -192 109h-45v127h147q3 1 8 3.5t18.5 11.5t23.5 19.5t18 29.5t8 40
q0 47 -30.5 69.5t-80.5 22.5q-36 0 -76.5 -13t-63.5 -27l-23 -13l-54 119q5 4 13.5 9.5t36 21t57 27t73.5 21t87 9.5q109 0 189.5 -56t80.5 -157q0 -121 -127 -178q78 -22 120 -73t42 -128zM1432 1333l-764 -1333h-193l764 1333h193zM1823 227q0 -62 -29.5 -111.5t-78 -78
t-105.5 -43t-117 -14.5q-59 0 -114.5 14t-104 41.5t-78 75t-29.5 108.5q0 137 150 197q-115 65 -115 176q0 57 25.5 102t68 72t93.5 41t106 14q73 0 136 -20.5t108 -70.5t45 -122q0 -122 -119 -178q77 -31 117.5 -79t40.5 -124zM1612 602q0 43 -31 70.5t-80 27.5
q-45 0 -74.5 -24.5t-29.5 -63.5q0 -19 8.5 -36.5t18.5 -28.5t30 -23.5t31 -18t34 -15.5q7 -3 11 -5q41 25 61.5 50.5t20.5 66.5zM1608 209q0 24 -10.5 44.5t-21 33t-37.5 28.5t-36 20t-41 19q-104 -49 -104 -135q0 -52 38 -84.5t91 -32.5q52 0 86.5 28t34.5 79z" />
    <glyph glyph-name="fiveeighths" unicode="&#x215d;" horiz-adv-x="1906" 
d="M709 793q0 -129 -93.5 -205t-228.5 -76q-149 0 -270 68l41 143q96 -59 186 -59q61 0 102 35.5t41 95.5q0 129 -208 153q-54 4 -76 4l67 381h424v-155h-258l-22 -123q129 -11 212 -76.5t83 -185.5zM1432 1333l-764 -1333h-193l764 1333h193zM1823 227q0 -62 -29.5 -111.5
t-78 -78t-105.5 -43t-117 -14.5q-59 0 -114.5 14t-104 41.5t-78 75t-29.5 108.5q0 137 150 197q-115 65 -115 176q0 57 25.5 102t68 72t93.5 41t106 14q73 0 136 -20.5t108 -70.5t45 -122q0 -122 -119 -178q77 -31 117.5 -79t40.5 -124zM1612 602q0 43 -31 70.5t-80 27.5
q-45 0 -74.5 -24.5t-29.5 -63.5q0 -19 8.5 -36.5t18.5 -28.5t30 -23.5t31 -18t34 -15.5q7 -3 11 -5q41 25 61.5 50.5t20.5 66.5zM1608 209q0 24 -10.5 44.5t-21 33t-37.5 28.5t-36 20t-41 19q-104 -49 -104 -135q0 -52 38 -84.5t91 -32.5q52 0 86.5 28t34.5 79z" />
    <glyph glyph-name="seveneighths" unicode="&#x215e;" horiz-adv-x="1906" 
d="M752 1253q-180 -335 -371 -739l-219 35q169 346 336 629h-383v155h602zM1432 1333l-764 -1333h-193l764 1333h193zM1823 227q0 -62 -29.5 -111.5t-78 -78t-105.5 -43t-117 -14.5q-59 0 -114.5 14t-104 41.5t-78 75t-29.5 108.5q0 137 150 197q-115 65 -115 176
q0 57 25.5 102t68 72t93.5 41t106 14q73 0 136 -20.5t108 -70.5t45 -122q0 -122 -119 -178q77 -31 117.5 -79t40.5 -124zM1612 602q0 43 -31 70.5t-80 27.5q-45 0 -74.5 -24.5t-29.5 -63.5q0 -19 8.5 -36.5t18.5 -28.5t30 -23.5t31 -18t34 -15.5q7 -3 11 -5q41 25 61.5 50.5
t20.5 66.5zM1608 209q0 24 -10.5 44.5t-21 33t-37.5 28.5t-36 20t-41 19q-104 -49 -104 -135q0 -52 38 -84.5t91 -32.5q52 0 86.5 28t34.5 79z" />
    <glyph glyph-name="onefraction" unicode="&#x215f;" horiz-adv-x="1083" 
d="M571 532h-202v588q-80 -44 -156 -71l-68 118q84 38 177.5 85.5t145.5 75.5l52 28l51 -23v-801zM1432 1333l-764 -1333h-193l764 1333h193z" />
    <glyph glyph-name="partialdiff" unicode="&#x2202;" horiz-adv-x="1019" 
d="M975 526q0 -89 -19 -170.5t-58.5 -151.5t-95.5 -122t-134.5 -81.5t-171.5 -29.5q-145 0 -253 66t-162 173.5t-54 238.5q0 121 55 224.5t155 165.5t222 62q92 0 158.5 -31.5t130.5 -101.5q-51 116 -100.5 184.5t-139.5 130.5q-165 111 -375 136l25 170
q172 -21 304.5 -70.5t246.5 -151.5q131 -118 198.5 -286.5t67.5 -354.5zM766 453q0 122 -74 204t-194 82q-118 0 -195.5 -89t-77.5 -208q0 -61 15 -113t46.5 -94.5t85.5 -67t126 -24.5q118 0 193 93.5t75 216.5z" />
    <glyph glyph-name="product" unicode="&#x220f;" horiz-adv-x="1460" 
d="M1391 -520h-531v178h170v1724h-600v-1724h168v-178h-528v178h157v1724h-157v181h1321v-181h-156v-1724h156v-178z" />
    <glyph glyph-name="summation" unicode="&#x2211;" horiz-adv-x="1366" 
d="M1270 -520h-1229v194l514 887l-514 807v195h1208v-488h-174l-18 307h-797l520 -825l-522 -899h819l10 311h183v-489z" />
    <glyph glyph-name="minus" unicode="&#x2212;" horiz-adv-x="1140" 
d="M991 385h-841v166h841v-166z" />
    <glyph glyph-name="radical" unicode="&#x221a;" horiz-adv-x="1368" 
d="M1378 1542h-395l-412 -1542h-247l-154 602h-180v178h340l63 -239q12 -43 24.5 -116t18.5 -125l6 -52h15q71 394 147 674l213 800h561v-180z" />
    <glyph glyph-name="infinity" unicode="&#x221e;" horiz-adv-x="1368" 
d="M1341 709q0 -142 -90 -235t-231 -93q-195 0 -330 199q-153 -199 -340 -199q-144 0 -233.5 93t-89.5 237q0 138 90.5 230.5t228.5 92.5q195 0 334 -196q63 91 149 143.5t189 52.5q142 0 232.5 -91.5t90.5 -233.5zM1141 713q0 63 -44.5 105t-107.5 42q-28 0 -55 -10.5
t-44.5 -21.5t-42 -37t-34 -38t-33.5 -44q33 -48 57.5 -76t66.5 -53t89 -25q65 0 106.5 46t41.5 112zM588 707q-49 71 -98 112t-115 41t-107 -45t-41 -110q0 -64 45 -107t109 -43q106 0 207 152z" />
    <glyph glyph-name="integral" unicode="&#x222b;" horiz-adv-x="1021" 
d="M870 1540l-39 -172q-61 21 -104 21q-28 0 -48.5 -7.5t-33 -25t-20 -34.5t-11 -49.5t-4 -55t-0.5 -64.5v-1303q0 -55 -2 -91.5t-15 -86.5t-38 -82q-78 -108 -256 -108q-73 0 -147 18l41 172q55 -20 102 -20q31 0 53 11.5t34 28t19 42.5t9 48.5t2 51.5v1358q0 133 18 190
q29 90 106.5 135.5t176.5 45.5q73 0 157 -23z" />
    <glyph glyph-name="approxequal" unicode="&#x2248;" horiz-adv-x="1140" 
d="M899 780l111 -84q-5 -8 -13 -22.5t-35 -50.5t-55 -63.5t-69 -50t-80 -22.5q-52 0 -106 20t-91 43.5t-83 43.5t-83 20q-28 0 -54.5 -13.5t-43.5 -32t-30.5 -37.5t-20.5 -33l-6 -13l-109 80q3 9 9.5 23t29.5 50.5t49 64t68.5 50.5t87.5 23q52 0 106 -19.5t91.5 -43
t83.5 -43t83 -19.5q36 0 76 32.5t62 64.5zM899 446l111 -84q-5 -8 -13 -22t-35 -49.5t-55 -62.5t-69 -49.5t-80 -22.5q-52 0 -106 20t-91 43.5t-83 43.5t-83 20q-44 0 -83 -32.5t-56 -64.5l-16 -32l-109 77q3 9 9.5 23t29.5 50.5t49 64t68.5 50.5t87.5 23q52 0 106 -19.5
t91.5 -43t83.5 -43t83 -19.5q36 0 76 32.5t62 64.5z" />
    <glyph glyph-name="notequal" unicode="&#x2260;" horiz-adv-x="1140" 
d="M991 236h-448l-88 -209h-185l88 209h-208v172h280l78 186h-358v172h432l86 205h184l-86 -205h225v-172h-299l-78 -186h377v-172z" />
    <glyph glyph-name="lessequal" unicode="&#x2264;" horiz-adv-x="1140" 
d="M991 246l-841 250v174l841 250v-172l-620 -164l620 -166v-172zM991 0h-841v172h841v-172z" />
    <glyph glyph-name="greaterequal" unicode="&#x2265;" horiz-adv-x="1140" 
d="M991 0h-841v172h841v-172zM991 496l-841 -250v172l620 166l-620 164v172l841 -250v-174z" />
    <glyph glyph-name="house" unicode="&#x2302;" horiz-adv-x="1366" 
d="M0 0v780l682 672l684 -672v-780h-1366zM104 104h1158v631l-582 568l-576 -568v-631z" />
    <glyph glyph-name="filledbox" unicode="&#x25a0;" horiz-adv-x="1366" 
d="M1366 0h-1366v1366h1366v-1366z" />
    <glyph glyph-name="whitebox" unicode="&#x25a1;" horiz-adv-x="1366" 
d="M1366 0h-1366v1366h1366v-1366zM1270 96v1174h-1174v-1174h1174z" />
    <glyph glyph-name="filledboxsm" unicode="&#x25aa;" horiz-adv-x="751" 
d="M752 307h-752v752h752v-752z" />
    <glyph glyph-name="whiteboxsm" unicode="&#x25ab;" horiz-adv-x="751" 
d="M752 307h-752v752h752v-752zM655 403v560h-559v-560h559z" />
    <glyph glyph-name="triagup" unicode="&#x25b2;" horiz-adv-x="1366" 
d="M1296 137h-1228l614 1149z" />
    <glyph glyph-name="triagsmup" unicode="&#x25b4;" 
d="M954 301h-886l444 829z" />
    <glyph glyph-name="triagright" unicode="&#x25b6;" horiz-adv-x="1366" 
d="M129 68v1228l1149 -614z" />
    <glyph glyph-name="triagsmright" unicode="&#x25b8;" 
d="M129 1126l829 -442l-829 -444v886z" />
    <glyph glyph-name="triagdn" unicode="&#x25bc;" horiz-adv-x="1366" 
d="M68 1229h1228l-614 -1149z" />
    <glyph glyph-name="triagsmdn" unicode="&#x25be;" 
d="M68 1065h886l-442 -829z" />
    <glyph glyph-name="triagleft" unicode="&#x25c0;" horiz-adv-x="1366" 
d="M1237 1296v-1228l-1149 614z" />
    <glyph glyph-name="triagsmleft" unicode="&#x25c2;" 
d="M129 684l829 442v-886z" />
    <glyph glyph-name="lozenge" unicode="&#x25ca;" horiz-adv-x="1368" 
d="M1225 694l-539 -747l-543 747l543 750zM999 694l-313 432l-317 -432l317 -434z" />
    <glyph glyph-name="circle" unicode="&#x25cb;" horiz-adv-x="1067" 
d="M541 1206q141 0 262.5 -71t192.5 -192t71 -261q0 -106 -42.5 -203.5t-114 -167.5t-170.5 -111.5t-208 -41.5q-143 0 -265.5 70t-194.5 190.5t-72 261.5q0 144 72 265t196.5 191t272.5 70zM528 1112q-178 0 -305 -126.5t-127 -303.5q0 -179 127.5 -304.5t308.5 -125.5
q182 0 310.5 125.5t128.5 302.5q0 181 -128.5 306.5t-314.5 125.5z" />
    <glyph glyph-name="blackcircle" unicode="&#x25cf;" horiz-adv-x="1067" 
d="M541 1206q141 0 262.5 -71t192.5 -192t71 -261q0 -106 -42.5 -203.5t-114 -167.5t-170.5 -111.5t-208 -41.5q-143 0 -265.5 70t-194.5 190.5t-72 261.5q0 144 72 265t196.5 191t272.5 70z" />
    <glyph glyph-name="invbullet" unicode="&#x25d8;" horiz-adv-x="1366" 
d="M0 0v1366h1366v-1366h-1366zM680 969q-115 0 -197 -84t-82 -203t82 -202t199 -83t200 83.5t83 201.5q0 120 -82.5 203.5t-202.5 83.5z" />
    <glyph glyph-name="invcircle" unicode="&#x25d9;" horiz-adv-x="1366" 
d="M688 1112q178 0 305 -126.5t127 -303.5q0 -179 -127.5 -304.5t-310.5 -125.5q-181 0 -308.5 125.5t-127.5 304.5q0 180 128 305t314 125zM1366 0h-1366v1366h1366v-1366zM676 1208q-106 0 -203 -42t-168 -113t-113 -168t-42 -203q0 -141 71.5 -262t194 -191.5
t266.5 -70.5q108 0 207 42t171 112t114.5 167t42.5 203q0 144 -72 265t-196.5 191t-272.5 70z" />
    <glyph glyph-name="whitebullet" unicode="&#x25e6;" horiz-adv-x="563" 
d="M285 967q119 0 198.5 -81t79.5 -202t-80 -201t-200 -80q-121 0 -202 80t-81 201q0 124 80.5 203.5t204.5 79.5zM279 872q-76 0 -127.5 -55.5t-51.5 -132.5t52 -131.5t129 -54.5q78 0 130 54t52 132q0 79 -51.5 133.5t-132.5 54.5z" />
    <glyph glyph-name="whitemedbox" unicode="&#x25fb;" horiz-adv-x="1079" 
d="M1079 143h-1079v1080h1079v-1080zM983 240v886h-887v-886h887z" />
    <glyph glyph-name="filledmedbox" unicode="&#x25fc;" horiz-adv-x="1079" 
d="M1079 143h-1079v1080h1079v-1080z" />
    <glyph glyph-name="whitemedboxsm" unicode="&#x25fd;" horiz-adv-x="874" 
d="M874 246h-874v874h874v-874zM778 342v682h-682v-682h682z" />
    <glyph glyph-name="blackmedboxsm" unicode="&#x25fe;" horiz-adv-x="874" 
d="M874 246h-874v874h874v-874z" />
    <glyph glyph-name="smileface" unicode="&#x263a;" horiz-adv-x="1296" 
d="M459 954q35 0 61.5 -26.5t26.5 -63.5t-26.5 -63.5t-63.5 -26.5t-63.5 26.5t-26.5 63.5q0 38 27 64t65 26zM844 954q35 0 61.5 -26.5t26.5 -63.5t-26.5 -63.5t-63.5 -26.5t-63.5 26.5t-26.5 63.5q0 38 27 64t65 26zM227 762q37 -157 146.5 -241.5t275.5 -84.5
q167 0 277 84.5t145 241.5q-34 -473 -422 -473q-385 0 -422 473zM657 1331q171 0 318.5 -87.5t234 -237t86.5 -324.5t-87 -324t-236 -236t-324 -87q-176 0 -325.5 87t-236.5 236t-87 324q0 134 51 254t138.5 206.5t209.5 137.5t258 51zM641 1247q-112 0 -215 -45t-178 -121
t-119.5 -180.5t-44.5 -218.5q0 -153 75.5 -282.5t205 -205t282.5 -75.5t283 75.5t206 205t76 282.5q0 116 -44.5 221t-121 180t-182 119.5t-223.5 44.5z" />
    <glyph glyph-name="invsmileface" unicode="&#x263b;" horiz-adv-x="1296" 
d="M657 1331q171 0 318.5 -87.5t234 -237t86.5 -324.5t-87 -324t-236 -236t-324 -87q-176 0 -325.5 87t-236.5 236t-87 324q0 134 51 254t138.5 206.5t209.5 137.5t258 51zM455 954q-35 0 -61.5 -26.5t-26.5 -63.5t26.5 -63.5t63.5 -26.5t63.5 26.5t26.5 63.5q0 38 -27 64
t-65 26zM840 954q-35 0 -61.5 -26.5t-26.5 -63.5t25.5 -63.5t62.5 -26.5q38 0 64 26.5t26 63.5t-26 63.5t-64 26.5zM227 762q37 -473 422 -473q388 0 422 473q-35 -157 -145 -241.5t-277 -84.5q-166 0 -275.5 84.5t-146.5 241.5z" />
    <glyph glyph-name="sun" unicode="&#x263c;" horiz-adv-x="1296" 
d="M295 961l-150 151l72 70l152 -150q95 74 225 90v215h100v-215q141 -16 230 -90l149 150l70 -70l-148 -151q77 -95 95 -228h206v-100h-206q-18 -132 -95 -227l148 -152l-70 -70l-151 150q-88 -74 -228 -90v-215h-100v215q-119 12 -227 88l-150 -148l-72 70l150 149
q-84 104 -96 230h-199v100h199q16 123 96 228zM641 1008q-140 0 -228.5 -94t-88.5 -230q0 -137 92.5 -229.5t228.5 -92.5q137 0 228.5 92.5t91.5 231.5q0 138 -91.5 230t-232.5 92z" />
    <glyph glyph-name="female" unicode="&#x2640;" horiz-adv-x="978" 
d="M539 0h-99v340h-331v88h331v227q-140 22 -229.5 124.5t-89.5 242.5q0 157 104 263t264 106q167 0 268 -105t101 -264q0 -140 -89.5 -242.5t-229.5 -124.5v-227h331v-88h-331v-340zM485 1300q-112 0 -189 -77t-77 -201q0 -116 79 -197.5t191 -81.5t191.5 81.5t79.5 197.5
q0 119 -77 198.5t-198 79.5z" />
    <glyph glyph-name="male" unicode="&#x2642;" horiz-adv-x="1353" 
d="M702 782l310 310q-102 23 -181 62t-79 67q0 10 7.5 17t18.5 7q6 0 41 -6q87 -18 170 -18q118 0 191 20q33 10 47 10q20 0 20 -22q0 -8 -6 -31q-27 -92 -27 -192q0 -73 21 -172q6 -37 6 -39q0 -12 -8 -20.5t-19 -8.5q-29 0 -71 80.5t-64 175.5l-307 -307q76 -112 76 -226
q0 -172 -108 -273t-267 -101q-155 0 -262 104t-107 268q0 159 105.5 267t263.5 108q121 0 229 -80zM469 766q-111 0 -186.5 -78t-75.5 -199q0 -116 77 -197t189 -81q116 0 194 75t78 201q0 117 -79.5 198t-196.5 81z" />
    <glyph glyph-name="spade" unicode="&#x2660;" horiz-adv-x="1366" 
d="M1149 0h-932v37q219 28 334 150.5t119 334.5q-43 -100 -118 -154.5t-169 -54.5q-104 0 -178 75.5t-74 182.5q0 94 55 175t203 206q248 205 295 453q46 -246 293 -453q149 -124 203.5 -205t54.5 -176q0 -107 -74 -182.5t-178 -75.5q-94 0 -169 54.5t-118 154.5
q6 -212 120.5 -334.5t332.5 -150.5v-37z" />
    <glyph glyph-name="club" unicode="&#x2663;" horiz-adv-x="1366" 
d="M1149 0h-932v37q230 32 341.5 160.5t111.5 363.5q-149 -260 -363 -260q-126 0 -213.5 90.5t-87.5 220.5q0 126 78 213.5t190 87.5q43 0 72.5 -9.5t106.5 -49.5q-74 106 -74 205q0 120 89.5 206.5t213.5 86.5t213.5 -86.5t89.5 -206.5q0 -95 -72 -205q77 40 106.5 49.5
t72.5 9.5q112 0 190 -87.5t78 -213.5q0 -130 -87.5 -220.5t-213.5 -90.5q-214 0 -363 260q0 -235 111.5 -363.5t341.5 -160.5v-37z" />
    <glyph glyph-name="heart" unicode="&#x2665;" horiz-adv-x="1366" 
d="M682 -23q-34 135 -108 263.5t-273 394.5q-111 148 -148.5 228t-37.5 169q0 117 76 197t190 80q215 0 301 -267q37 130 114 199.5t185 69.5q115 0 192.5 -80.5t77.5 -200.5q0 -123 -98 -285q-43 -67 -180 -245q-237 -294 -291 -523z" />
    <glyph glyph-name="diamond" unicode="&#x2666;" horiz-adv-x="1366" 
d="M164 682q112 123 267 342t253 395q99 -177 253 -396t265 -341q-111 -120 -265 -338.5t-253 -396.5q-102 179 -256 397t-264 338z" />
    <glyph glyph-name="musicalnote" unicode="&#x266a;" horiz-adv-x="935" 
d="M379 1366h94v-125l137 -166q187 -224 187 -461q0 -189 -117 -331h-57q67 155 67 297q0 138 -63 244t-154 118v-608q0 -158 -84.5 -255t-222.5 -97q-67 0 -106.5 32.5t-39.5 89.5q0 96 74.5 167t175.5 71q48 0 109 -23v1047z" />
    <glyph glyph-name="musicalnotedbl" unicode="&#x266b;" horiz-adv-x="1529" 
d="M365 1202l841 219l-6 -1013q0 -158 -84.5 -255.5t-222.5 -97.5q-66 0 -105.5 33t-39.5 90q0 96 74 167t175 71q56 0 109 -23l6 553l-653 -184l-6 -469q0 -158 -85 -255t-223 -97q-66 0 -105.5 32.5t-39.5 89.5q0 96 74.5 167t175.5 71q57 0 108 -22zM459 918l653 184v143
l-653 -184v-143z" />
    <glyph glyph-name="germandbls.alt" unicode="&#xe000;" horiz-adv-x="1089" 
d="M1059 303q0 -147 -106 -232t-259 -85q-149 0 -268 73l53 177q102 -66 183 -66q68 0 107.5 33.5t39.5 99.5q0 34 -22.5 71.5t-56 69.5t-73 71.5t-73 76.5t-56 85t-22.5 97q0 42 23 84.5t55 78t64.5 70t55.5 75t23 79.5q0 62 -45 99.5t-111 37.5q-52 0 -91 -19t-61 -48
t-35.5 -72.5t-17.5 -83t-4 -88.5v-987h-239v977q0 91 13 164t45 137t82.5 107t129.5 67.5t182 24.5q171 0 275 -80.5t104 -222.5q0 -62 -33.5 -121.5t-73 -97t-73 -77t-33.5 -67.5q0 -27 33 -67t79.5 -86t93 -98.5t79.5 -120.5t33 -136z" />
    <glyph glyph-name="ampersand.alt" unicode="&#xe001;" horiz-adv-x="1624" 
d="M197 352q0 214 270 383q-72 77 -113 158.5t-41 153.5q0 149 109.5 241t277.5 92q151 0 254 -84.5t103 -218.5q0 -62 -23 -117.5t-66 -100t-85.5 -77t-100.5 -67.5l301 -301q31 62 52.5 133.5t27.5 112.5l6 40l220 -51q-4 -22 -13.5 -60t-50.5 -138t-96 -181l274 -270
h-303l-113 111q-170 -146 -407 -146q-138 0 -245.5 42.5t-172.5 131.5t-65 213zM705 158q138 0 247 88l-352 356q-162 -109 -162 -231q0 -90 71.5 -151.5t195.5 -61.5zM649 846q97 57 127 85q62 57 62 132q0 63 -41.5 107t-110.5 44q-74 0 -115 -45.5t-41 -111.5
q0 -96 119 -211z" />
    <glyph glyph-name="Ampersand.sc.alt" unicode="&#xe002;" horiz-adv-x="1269" 
d="M164 258q0 156 198 285q-112 115 -112 223q0 113 90.5 186.5t216.5 73.5q120 0 198.5 -65t78.5 -173q0 -82 -51 -142.5t-140 -115.5l191 -192q19 42 33 89t18 73l4 26l194 -45q-3 -16 -9.5 -43.5t-36 -100.5t-68.5 -132l205 -205h-265l-67 70q-132 -99 -299 -99
q-79 0 -146 16.5t-120 50.5t-83 90t-30 130zM561 139q86 0 154 49l-236 236q-86 -54 -86 -152q0 -58 41.5 -95.5t126.5 -37.5zM528 645q30 19 44 29t32.5 28t25.5 37.5t7 44.5q0 43 -25.5 69t-64.5 26q-42 0 -68 -28t-26 -71q0 -27 13 -54t24 -40t38 -41z" />
    <glyph glyph-name="periodcentered.alt" unicode="&#xe003;" horiz-adv-x="1140" 
d="M729 463q0 -72 -43.5 -120t-112.5 -48q-71 0 -115 47.5t-44 120.5q0 71 44 117.5t115 46.5q69 0 112.5 -47t43.5 -117z" />
    <glyph glyph-name="a.title" unicode="&#xe300;" horiz-adv-x="915" 
d="M885 -16q-38 -13 -101 -13q-169 0 -200 113q-83 -60 -142 -86.5t-139 -26.5q-131 0 -205.5 78t-74.5 209q0 44 12.5 82.5t28 67t50.5 53.5t57.5 41t73.5 31.5t73 22.5t81.5 16.5t75 11.5t75.5 9q2 0 3.5 0.5t3.5 0.5v27q0 80 -37.5 120.5t-132.5 40.5q-75 0 -147 -25.5
t-160 -72.5v180q200 101 362 101q183 0 281 -101q70 -73 70 -262v-317q0 -30 1 -47t6.5 -40.5t15.5 -35.5t30 -21.5t49 -9.5l23 2zM557 201v264q-38 -5 -65 -10t-67 -15t-67 -24t-54 -34.5t-40.5 -50.5t-13.5 -67q0 -58 37 -94.5t94 -36.5q73 0 176 68z" />
    <glyph glyph-name="b.title" unicode="&#xe301;" 
d="M987 487q0 -233 -145 -374.5t-377 -141.5q-61 0 -123.5 11t-108 26.5t-82.5 31.5t-56 27l-19 11v1335h239v-522q13 8 35 20.5t85.5 33t119.5 20.5q129 0 229 -67.5t151.5 -175.5t51.5 -235zM741 461q0 129 -69 215t-195 86q-43 0 -83.5 -13t-59.5 -25l-19 -13v-512
q74 -45 160 -45q125 0 195.5 88t70.5 219z" />
    <glyph glyph-name="c.title" unicode="&#xe302;" horiz-adv-x="839" 
d="M842 82q-4 -5 -12.5 -12t-38.5 -26.5t-64.5 -34t-91 -26.5t-117.5 -12q-151 0 -261 64t-164 172t-54 248q0 139 62 256t173 185.5t248 68.5q88 0 166.5 -22t113.5 -44l34 -22l-78 -162q-9 6 -25.5 15t-71.5 24.5t-114 15.5q-87 0 -149 -45.5t-89.5 -111.5t-27.5 -142
q0 -131 72 -217t202 -86q53 0 104.5 19t76.5 38l26 19z" />
    <glyph glyph-name="d.title" unicode="&#xe303;" horiz-adv-x="1077" 
d="M1079 133l-30 -147q-66 -15 -103 -15q-74 0 -130.5 27t-72.5 90q-54 -57 -130 -87t-158 -30q-99 0 -179.5 41t-131 110.5t-78 157t-27.5 183.5q0 101 35 192.5t95.5 160t149.5 109t191 40.5q60 0 104 -12t101 -42v502h239v-1120q0 -33 1 -52t6.5 -43t16.5 -36.5t31 -21.5
t50 -9zM715 240v465q-79 73 -180 73q-82 0 -141.5 -44.5t-86 -111.5t-26.5 -147q0 -124 70.5 -214.5t189.5 -90.5q52 0 89.5 16.5t84.5 53.5z" />
    <glyph glyph-name="e.title" unicode="&#xe304;" horiz-adv-x="935" 
d="M827 264l84 -129q-153 -164 -405 -164q-219 0 -343 138t-124 352q0 212 131.5 358t341.5 146q64 0 119 -13.5t94 -37t70.5 -53.5t51.5 -63t35 -66t22.5 -63t11.5 -53.5t5 -37.5l1 -13l-97 -119h-549q11 -122 88 -202t197 -80q142 0 266 100zM702 598q-6 88 -57.5 138
t-138.5 50q-86 0 -143 -51t-78 -137h417z" />
    <glyph glyph-name="f.title" unicode="&#xe305;" horiz-adv-x="690" 
d="M764 1425l-31 -174q-34 6 -71 6q-62 0 -105.5 -14t-68 -35.5t-38 -60t-17 -74.5t-3.5 -92v-45h248v-176h-244v-760h-237v760h-187v176h187v78q0 197 109.5 312.5t301.5 115.5q83 0 156 -17z" />
    <glyph glyph-name="g.title" unicode="&#xe306;" horiz-adv-x="964" 
d="M946 776l-176 15q70 -88 70 -191q0 -102 -54 -179t-139.5 -115t-185.5 -38l-80 4q-14 -2 -21.5 -5t-13.5 -10t-6 -19q0 -18 21 -32t40.5 -19.5t50.5 -12.5q6 -1 9 -2l71 -16q154 -36 190 -47q146 -48 182 -143q14 -36 14 -81q0 -90 -43.5 -159t-115 -107.5t-151.5 -57
t-166 -18.5q-63 0 -123 8t-122.5 29t-109 53t-76 85.5t-29.5 121.5q0 92 58 145t161 87q-62 39 -62 110q0 43 30 71t83 52q-102 44 -159.5 125t-57.5 188q0 106 58.5 187t149.5 120.5t199 39.5q79 0 201 -31l309 14zM621 606q0 91 -44 153t-137 62q-81 0 -127.5 -50
t-46.5 -130q0 -91 51 -156t140 -65q81 0 122.5 51.5t41.5 134.5zM688 -156q0 28 -12 46.5t-46 33t-55.5 20.5t-80.5 19q-11 3 -17 4l-143 31q-35 -16 -51.5 -24.5t-39 -25.5t-31.5 -39t-9 -52q0 -45 24 -77.5t64 -48.5t80 -23t84 -7q233 0 233 143z" />
    <glyph glyph-name="h.title" unicode="&#xe307;" horiz-adv-x="1015" 
d="M942 0h-240v541q0 38 -3.5 68.5t-14.5 60.5t-28.5 49.5t-47 32t-69.5 12.5q-126 0 -224 -123v-641h-239v1413h239v-588q63 66 143.5 103t168.5 37q177 0 264 -144q51 -85 51 -198v-623z" />
    <glyph glyph-name="i.title" unicode="&#xe308;" horiz-adv-x="391" 
d="M336 1225q0 -61 -38 -100.5t-99 -39.5t-100.5 39.5t-39.5 100.5t39.5 99t100.5 38q60 0 98.5 -39t38.5 -98zM315 0h-239v936h239v-936z" />
    <glyph glyph-name="j.title" unicode="&#xe309;" horiz-adv-x="393" 
d="M336 1225q0 -61 -38 -100.5t-99 -39.5t-100.5 39.5t-39.5 100.5t39.5 99t100.5 38q60 0 98.5 -39t38.5 -98zM315 936v-952q0 -113 -17 -190.5t-59 -137t-118 -87.5t-189 -28q-24 0 -54 2.5t-48 4.5l-18 3l24 173q45 -7 82 -7q43 0 73.5 15t47 37t25 59.5t10.5 67.5t2 77
v963h239z" />
    <glyph glyph-name="k.title" unicode="&#xe30a;" horiz-adv-x="964" 
d="M987 0h-282l-312 397l-78 -82v-315h-239v1413h239v-844l381 385l244 -45l-375 -377z" />
    <glyph glyph-name="l.title" unicode="&#xe30b;" horiz-adv-x="389" 
d="M315 0h-239v1413h239v-1413z" />
    <glyph glyph-name="m.title" unicode="&#xe30c;" horiz-adv-x="1609" 
d="M1538 0h-240v555q0 52 -4.5 85t-19.5 64.5t-47 46.5t-82 15q-71 0 -120.5 -32.5t-94.5 -96.5v-637h-240v553q0 49 -5 82.5t-20.5 65t-47 47.5t-80.5 16q-126 0 -215 -127v-637h-240v639q0 183 -62 260l209 66q66 -40 78 -154q56 70 137 112t168 42q96 0 171 -41t110 -125
q77 82 155 124t179 42q74 0 144.5 -29t111.5 -84q55 -74 55 -221v-631z" />
    <glyph glyph-name="n.title" unicode="&#xe30d;" horiz-adv-x="1019" 
d="M948 0h-239v543q0 48 -7 84.5t-24 69t-50.5 50t-82.5 17.5q-69 0 -121.5 -31.5t-101.5 -91.5v-641h-240v641q0 181 -62 258l209 66q65 -37 78 -156q146 156 324 156q175 0 260 -129q57 -88 57 -211v-625z" />
    <glyph glyph-name="o.title" unicode="&#xe30e;" horiz-adv-x="1073" 
d="M1036 469q0 -222 -135.5 -360t-363.5 -138q-219 0 -358.5 135.5t-139.5 354.5q0 224 141 364t373 140q143 0 254 -66.5t170 -179t59 -250.5zM793 461q0 61 -16 117t-47 103.5t-83.5 76t-120.5 28.5q-76 0 -133 -43.5t-84.5 -109t-27.5 -141.5q0 -89 29 -164.5t93 -125.5
t152 -50q117 0 177.5 84.5t60.5 224.5z" />
    <glyph glyph-name="p.title" unicode="&#xe30f;" horiz-adv-x="1034" 
d="M997 483q0 -140 -57 -253.5t-165.5 -180.5t-248.5 -67q-101 0 -204 34v-456h-240v1083q0 183 -62 260l209 66q52 -30 66 -95q126 91 285 91q97 0 177 -40.5t131.5 -108t80 -153.5t28.5 -180zM752 465q0 78 -27.5 146t-87 113.5t-139.5 45.5q-87 0 -176 -47v-510
q64 -53 170 -53q127 0 193.5 86t66.5 219z" />
    <glyph glyph-name="q.title" unicode="&#xe310;" 
d="M950 -440h-239v503q-105 -75 -232 -75q-200 0 -321 129t-121 332q0 230 145 374t375 144q163 0 393 -72v-1335zM711 244v501q-79 37 -156 37q-128 0 -201 -85t-73 -214q0 -80 29 -147t89 -110.5t142 -43.5q49 0 85.5 14.5t84.5 47.5z" />
    <glyph glyph-name="r.title" unicode="&#xe311;" horiz-adv-x="720" 
d="M725 924l-55 -209q-72 26 -119 26q-31 0 -60 -11.5t-49.5 -26t-45.5 -42t-38 -45.5t-36 -51v-565h-240v641q0 181 -62 258l209 66q80 -50 80 -217q29 48 52 79.5t57 66.5t74.5 53t87.5 18q65 0 145 -41z" />
    <glyph glyph-name="s.title" unicode="&#xe312;" horiz-adv-x="749" 
d="M723 266q0 -73 -32 -131t-85.5 -93t-117.5 -53t-134 -18q-216 0 -354 127l90 162q124 -108 250 -108q131 0 131 100q0 32 -22.5 57t-59 43t-80 35.5t-87 41t-80 53.5t-59 79t-22.5 111q0 139 99.5 216t240.5 77q155 0 297 -86l-69 -172q-118 77 -211 77q-115 0 -115 -92
q0 -32 23 -56.5t60 -42t82 -35t90 -41.5t82 -55t60 -81.5t23 -114.5z" />
    <glyph glyph-name="t.title" unicode="&#xe313;" horiz-adv-x="735" 
d="M758 51q-124 -69 -287 -69q-138 0 -210.5 72.5t-72.5 209.5v496h-188v149q60 4 101.5 12t73 25.5t50.5 36.5t34.5 56.5t24.5 72t21 96.5h121v-272h262v-176h-262v-406q0 -37 1.5 -59.5t9 -48.5t21 -40.5t38.5 -24t61 -9.5q25 0 66.5 9t70.5 19l29 9z" />
    <glyph glyph-name="u.title" unicode="&#xe314;" horiz-adv-x="1052" 
d="M1055 133l-31 -147q-57 -13 -102 -13q-177 0 -209 136q-132 -138 -293 -138q-180 0 -262 87.5t-82 271.5v606h239v-553q0 -211 166 -211q65 0 110 25t99 79v660h240v-645q0 -34 1 -52t6.5 -42.5t16 -36t30.5 -20.5t50 -9z" />
    <glyph glyph-name="v.title" unicode="&#xe315;" horiz-adv-x="958" 
d="M961 913l-379 -913h-211l-371 913l240 41l247 -651l250 651z" />
    <glyph glyph-name="w.title" unicode="&#xe316;" horiz-adv-x="1484" 
d="M1487 913l-369 -913h-207l-172 440l-164 -440h-206l-369 913l231 41l273 -694l147 395l-102 258l217 41l252 -665l254 665z" />
    <glyph glyph-name="x.title" unicode="&#xe317;" horiz-adv-x="958" 
d="M961 27l-248 -39l-236 334l-239 -340l-238 38l348 461l-323 432l245 41l217 -309l215 309l236 -41l-324 -426z" />
    <glyph glyph-name="y.title" unicode="&#xe318;" horiz-adv-x="958" 
d="M958 913l-436 -1040q-142 -332 -403 -332q-35 0 -70.5 4.5t-53.5 9.5l-18 5l35 172q37 -11 84 -11q46 0 81 15.5t63 50.5t46.5 70.5t43.5 95.5l32 78l-360 882l240 41l241 -641l246 641z" />
    <glyph glyph-name="z.title" unicode="&#xe319;" horiz-adv-x="860" 
d="M852 178l-33 -178h-786l-25 94l488 666h-441v176h729l33 -92l-487 -666h522z" />
    <glyph glyph-name="aacute.title" unicode="&#xe31a;" horiz-adv-x="915" 
d="M885 -16q-38 -13 -101 -13q-169 0 -200 113q-83 -60 -142 -86.5t-139 -26.5q-131 0 -205.5 78t-74.5 209q0 44 12.5 82.5t28 67t50.5 53.5t57.5 41t73.5 31.5t73 22.5t81.5 16.5t75 11.5t75.5 9q2 0 3.5 0.5t3.5 0.5v27q0 80 -37.5 120.5t-132.5 40.5q-75 0 -147 -25.5
t-160 -72.5v180q200 101 362 101q183 0 281 -101q70 -73 70 -262v-317q0 -30 1 -47t6.5 -40.5t15.5 -35.5t30 -21.5t49 -9.5l23 2zM557 201v264q-38 -5 -65 -10t-67 -15t-67 -24t-54 -34.5t-40.5 -50.5t-13.5 -67q0 -58 37 -94.5t94 -36.5q73 0 176 68zM754 1313l-324 -260
l-147 61l260 266z" />
    <glyph glyph-name="abreve.title" unicode="&#xe31b;" horiz-adv-x="915" 
d="M885 -16q-38 -13 -101 -13q-169 0 -200 113q-83 -60 -142 -86.5t-139 -26.5q-131 0 -205.5 78t-74.5 209q0 44 12.5 82.5t28 67t50.5 53.5t57.5 41t73.5 31.5t73 22.5t81.5 16.5t75 11.5t75.5 9q2 0 3.5 0.5t3.5 0.5v27q0 80 -37.5 120.5t-132.5 40.5q-75 0 -147 -25.5
t-160 -72.5v180q200 101 362 101q183 0 281 -101q70 -73 70 -262v-317q0 -30 1 -47t6.5 -40.5t15.5 -35.5t30 -21.5t49 -9.5l23 2zM557 201v264q-38 -5 -65 -10t-67 -15t-67 -24t-54 -34.5t-40.5 -50.5t-13.5 -67q0 -58 37 -94.5t94 -36.5q73 0 176 68zM756 1372
q-6 -139 -91 -220t-233 -81q-133 0 -219.5 80t-93.5 219l149 19q12 -72 52.5 -119t111.5 -47q84 0 123.5 43.5t54.5 122.5z" />
    <glyph glyph-name="acircumflex.title" unicode="&#xe31c;" horiz-adv-x="915" 
d="M885 -16q-38 -13 -101 -13q-169 0 -200 113q-83 -60 -142 -86.5t-139 -26.5q-131 0 -205.5 78t-74.5 209q0 44 12.5 82.5t28 67t50.5 53.5t57.5 41t73.5 31.5t73 22.5t81.5 16.5t75 11.5t75.5 9q2 0 3.5 0.5t3.5 0.5v27q0 80 -37.5 120.5t-132.5 40.5q-75 0 -147 -25.5
t-160 -72.5v180q200 101 362 101q183 0 281 -101q70 -73 70 -262v-317q0 -30 1 -47t6.5 -40.5t15.5 -35.5t30 -21.5t49 -9.5l23 2zM557 201v264q-38 -5 -65 -10t-67 -15t-67 -24t-54 -34.5t-40.5 -50.5t-13.5 -67q0 -58 37 -94.5t94 -36.5q73 0 176 68zM512 1386l260 -313
l-180 -22l-160 194l-160 -194l-168 22l261 313h147z" />
    <glyph glyph-name="adieresis.title" unicode="&#xe31d;" horiz-adv-x="915" 
d="M885 -16q-38 -13 -101 -13q-169 0 -200 113q-83 -60 -142 -86.5t-139 -26.5q-131 0 -205.5 78t-74.5 209q0 44 12.5 82.5t28 67t50.5 53.5t57.5 41t73.5 31.5t73 22.5t81.5 16.5t75 11.5t75.5 9q2 0 3.5 0.5t3.5 0.5v27q0 80 -37.5 120.5t-132.5 40.5q-75 0 -147 -25.5
t-160 -72.5v180q200 101 362 101q183 0 281 -101q70 -73 70 -262v-317q0 -30 1 -47t6.5 -40.5t15.5 -35.5t30 -21.5t49 -9.5l23 2zM557 201v264q-38 -5 -65 -10t-67 -15t-67 -24t-54 -34.5t-40.5 -50.5t-13.5 -67q0 -58 37 -94.5t94 -36.5q73 0 176 68zM373 1225
q0 -60 -38.5 -100t-98.5 -40q-62 0 -102 39.5t-40 100.5t39 99t100 38q60 0 100 -39t40 -98zM780 1225q0 -60 -38.5 -100t-98.5 -40q-62 0 -101.5 39.5t-39.5 100.5t39 99t100 38q60 0 99.5 -39t39.5 -98z" />
    <glyph glyph-name="ae.title" unicode="&#xe31e;" horiz-adv-x="1462" 
d="M1440 139q-73 -83 -175.5 -125.5t-215.5 -42.5q-114 0 -199.5 39t-161.5 125q-87 -84 -170.5 -124t-193.5 -40q-128 0 -214.5 76.5t-86.5 202.5q0 59 20.5 108t51.5 82t80 59.5t94 41.5t106.5 26.5t104.5 16.5t100 10v27q0 163 -170 163q-130 0 -306 -94v176
q186 99 351 99q96 0 165 -30t107 -106q145 136 320 136q183 0 285 -109.5t108 -294.5l-78 -112h-555q5 -127 84.5 -207t204.5 -80q138 0 264 102zM616 242q-25 63 -32 103.5t-9 115.5q-41 -6 -63.5 -10t-68 -14t-73 -23.5t-58 -33.5t-45.5 -49t-15 -65q0 -61 42 -96t103 -35
q63 0 111 26.5t108 80.5zM1231 598q-6 88 -58 138t-139 50q-86 0 -143 -51t-78 -137h418z" />
    <glyph glyph-name="agrave.title" unicode="&#xe31f;" horiz-adv-x="915" 
d="M885 -16q-38 -13 -101 -13q-169 0 -200 113q-83 -60 -142 -86.5t-139 -26.5q-131 0 -205.5 78t-74.5 209q0 44 12.5 82.5t28 67t50.5 53.5t57.5 41t73.5 31.5t73 22.5t81.5 16.5t75 11.5t75.5 9q2 0 3.5 0.5t3.5 0.5v27q0 80 -37.5 120.5t-132.5 40.5q-75 0 -147 -25.5
t-160 -72.5v180q200 101 362 101q183 0 281 -101q70 -73 70 -262v-317q0 -30 1 -47t6.5 -40.5t15.5 -35.5t30 -21.5t49 -9.5l23 2zM557 201v264q-38 -5 -65 -10t-67 -15t-67 -24t-54 -34.5t-40.5 -50.5t-13.5 -67q0 -58 37 -94.5t94 -36.5q73 0 176 68zM463 1053l-326 260
l211 67l260 -266z" />
    <glyph glyph-name="amacron.title" unicode="&#xe320;" horiz-adv-x="915" 
d="M885 -16q-38 -13 -101 -13q-169 0 -200 113q-83 -60 -142 -86.5t-139 -26.5q-131 0 -205.5 78t-74.5 209q0 44 12.5 82.5t28 67t50.5 53.5t57.5 41t73.5 31.5t73 22.5t81.5 16.5t75 11.5t75.5 9q2 0 3.5 0.5t3.5 0.5v27q0 80 -37.5 120.5t-132.5 40.5q-75 0 -147 -25.5
t-160 -72.5v180q200 101 362 101q183 0 281 -101q70 -73 70 -262v-317q0 -30 1 -47t6.5 -40.5t15.5 -35.5t30 -21.5t49 -9.5l23 2zM557 201v264q-38 -5 -65 -10t-67 -15t-67 -24t-54 -34.5t-40.5 -50.5t-13.5 -67q0 -58 37 -94.5t94 -36.5q73 0 176 68zM711 1143h-551v153
h551v-153z" />
    <glyph glyph-name="aogonek.title" unicode="&#xe321;" horiz-adv-x="915" 
d="M885 -16q-7 -4 -18 -12t-40 -32t-51.5 -47.5t-40.5 -56t-18 -61.5q0 -30 21 -47t53 -17q25 0 47 4.5t32 8.5l9 4l24 -105q-71 -39 -182 -39q-79 0 -137 33.5t-58 101.5q0 48 23.5 92t62 76.5t67 51.5t58.5 34q-127 15 -153 111q-83 -60 -142 -86.5t-139 -26.5
q-131 0 -205.5 78t-74.5 209q0 44 12.5 82.5t28 67t50.5 53.5t57.5 41t73.5 31.5t73 22.5t81.5 16.5t75 11.5t75.5 9q2 0 3.5 0.5t3.5 0.5v27q0 80 -37.5 120.5t-132.5 40.5q-75 0 -147 -25.5t-160 -72.5v180q200 101 362 101q183 0 281 -101q70 -73 70 -262v-317
q0 -30 1 -47t6.5 -40.5t15.5 -35.5t30 -21.5t49 -9.5l23 2zM557 201v264q-38 -5 -65 -10t-67 -15t-67 -24t-54 -34.5t-40.5 -50.5t-13.5 -67q0 -58 37 -94.5t94 -36.5q73 0 176 68z" />
    <glyph glyph-name="aring.title" unicode="&#xe322;" horiz-adv-x="915" 
d="M885 -16q-38 -13 -101 -13q-169 0 -200 113q-83 -60 -142 -86.5t-139 -26.5q-131 0 -205.5 78t-74.5 209q0 44 12.5 82.5t28 67t50.5 53.5t57.5 41t73.5 31.5t73 22.5t81.5 16.5t75 11.5t75.5 9q2 0 3.5 0.5t3.5 0.5v27q0 80 -37.5 120.5t-132.5 40.5q-75 0 -147 -25.5
t-160 -72.5v180q200 101 362 101q183 0 281 -101q70 -73 70 -262v-317q0 -30 1 -47t6.5 -40.5t15.5 -35.5t30 -21.5t49 -9.5l23 2zM557 201v264q-38 -5 -65 -10t-67 -15t-67 -24t-54 -34.5t-40.5 -50.5t-13.5 -67q0 -58 37 -94.5t94 -36.5q73 0 176 68zM238 1239
q0 88 65.5 143.5t153.5 55.5q91 0 157 -55.5t66 -143.5t-66 -144.5t-155 -56.5t-155 56.5t-66 144.5zM354 1239q0 -44 29.5 -73t73.5 -29q45 0 74.5 28.5t29.5 73.5q0 44 -29.5 73t-72.5 29q-46 0 -75.5 -29t-29.5 -73z" />
    <glyph glyph-name="atilde.title" unicode="&#xe323;" horiz-adv-x="915" 
d="M885 -16q-38 -13 -101 -13q-169 0 -200 113q-83 -60 -142 -86.5t-139 -26.5q-131 0 -205.5 78t-74.5 209q0 44 12.5 82.5t28 67t50.5 53.5t57.5 41t73.5 31.5t73 22.5t81.5 16.5t75 11.5t75.5 9q2 0 3.5 0.5t3.5 0.5v27q0 80 -37.5 120.5t-132.5 40.5q-75 0 -147 -25.5
t-160 -72.5v180q200 101 362 101q183 0 281 -101q70 -73 70 -262v-317q0 -30 1 -47t6.5 -40.5t15.5 -35.5t30 -21.5t49 -9.5l23 2zM557 201v264q-38 -5 -65 -10t-67 -15t-67 -24t-54 -34.5t-40.5 -50.5t-13.5 -67q0 -58 37 -94.5t94 -36.5q73 0 176 68zM676 1337l104 -55
q-76 -178 -219 -178q-52 0 -140 40t-128 40q-70 0 -109 -84l-102 53q33 90 85.5 137t139.5 47q52 0 135.5 -38.5t130.5 -38.5q37 0 60 18.5t43 58.5z" />
    <glyph glyph-name="cacute.title" unicode="&#xe324;" horiz-adv-x="839" 
d="M842 82q-4 -5 -12.5 -12t-38.5 -26.5t-64.5 -34t-91 -26.5t-117.5 -12q-151 0 -261 64t-164 172t-54 248q0 139 62 256t173 185.5t248 68.5q88 0 166.5 -22t113.5 -44l34 -22l-78 -162q-9 6 -25.5 15t-71.5 24.5t-114 15.5q-87 0 -149 -45.5t-89.5 -111.5t-27.5 -142
q0 -131 72 -217t202 -86q53 0 104.5 19t76.5 38l26 19zM831 1313l-323 -260l-148 61l261 266z" />
    <glyph glyph-name="ccaron.title" unicode="&#xe325;" horiz-adv-x="839" 
d="M842 82q-4 -5 -12.5 -12t-38.5 -26.5t-64.5 -34t-91 -26.5t-117.5 -12q-151 0 -261 64t-164 172t-54 248q0 139 62 256t173 185.5t248 68.5q88 0 166.5 -22t113.5 -44l34 -22l-78 -162q-9 6 -25.5 15t-71.5 24.5t-114 15.5q-87 0 -149 -45.5t-89.5 -111.5t-27.5 -142
q0 -131 72 -217t202 -86q53 0 104.5 19t76.5 38l26 19zM848 1366l-258 -315h-150l-260 315l182 20l158 -190l162 188z" />
    <glyph glyph-name="ccedilla.title" unicode="&#xe326;" horiz-adv-x="839" 
d="M678 -272q0 -89 -73.5 -137t-176.5 -48q-44 0 -80.5 4.5t-51.5 9.5l-15 5l24 112q47 -14 96 -14q51 0 75 20t24 52q0 26 -22 43.5t-60 17.5q-18 0 -34 -2t-23 -4l-7 -2l62 195q-181 30 -279 158t-98 317q0 139 62 256t173 185.5t248 68.5q88 0 166.5 -22t113.5 -44
l34 -22l-78 -162q-9 6 -25.5 15t-71.5 24.5t-114 15.5q-87 0 -149 -45.5t-89.5 -111.5t-27.5 -142q0 -131 72 -217t202 -86q53 0 104.5 19t76.5 38l26 19l80 -162q-4 -4 -12.5 -11.5t-37.5 -26t-62.5 -33t-88 -27t-113.5 -13.5l-32 -110q5 0 15 1t15 1q75 0 113.5 -37
t38.5 -98z" />
    <glyph glyph-name="dcaron.title" unicode="&#xe327;" horiz-adv-x="1294" 
d="M1079 133l-30 -147q-66 -15 -103 -15q-74 0 -130.5 27t-72.5 90q-54 -57 -130 -87t-158 -30q-99 0 -179.5 41t-131 110.5t-78 157t-27.5 183.5q0 101 35 192.5t95.5 160t149.5 109t191 40.5q60 0 104 -12t101 -42v502h239v-1120q0 -33 1 -52t6.5 -43t16.5 -36.5t31 -21.5
t50 -9zM715 240v465q-79 73 -180 73q-82 0 -141.5 -44.5t-86 -111.5t-26.5 -147q0 -124 70.5 -214.5t189.5 -90.5q52 0 89.5 16.5t84.5 53.5zM1278 1413q-3 -114 -45.5 -236t-87.5 -188l-139 47q32 74 54 179.5t27 197.5h191z" />
    <glyph glyph-name="dcroat.title" unicode="&#xe328;" horiz-adv-x="1077" 
d="M1079 133l-30 -147q-66 -15 -103 -15q-74 0 -130.5 27t-72.5 90q-54 -57 -130 -87t-158 -30q-99 0 -179.5 41t-131 110.5t-78 157t-27.5 183.5q0 101 35 192.5t95.5 160t149.5 109t191 40.5q60 0 104 -12t101 -42v199h-424v154h424v149h239v-149h162v-154h-162v-817
q0 -33 1 -52t6.5 -43t16.5 -36.5t31 -21.5t50 -9zM715 240v465q-79 73 -180 73q-82 0 -141.5 -44.5t-86 -111.5t-26.5 -147q0 -124 70.5 -214.5t189.5 -90.5q52 0 89.5 16.5t84.5 53.5z" />
    <glyph glyph-name="eacute.title" unicode="&#xe329;" horiz-adv-x="935" 
d="M827 264l84 -129q-153 -164 -405 -164q-219 0 -343 138t-124 352q0 212 131.5 358t341.5 146q64 0 119 -13.5t94 -37t70.5 -53.5t51.5 -63t35 -66t22.5 -63t11.5 -53.5t5 -37.5l1 -13l-97 -119h-549q11 -122 88 -202t197 -80q142 0 266 100zM702 598q-6 88 -57.5 138
t-138.5 50q-86 0 -143 -51t-78 -137h417zM821 1313l-323 -260l-148 61l260 266z" />
    <glyph glyph-name="ecaron.title" unicode="&#xe32a;" horiz-adv-x="935" 
d="M827 264l84 -129q-153 -164 -405 -164q-219 0 -343 138t-124 352q0 212 131.5 358t341.5 146q64 0 119 -13.5t94 -37t70.5 -53.5t51.5 -63t35 -66t22.5 -63t11.5 -53.5t5 -37.5l1 -13l-97 -119h-549q11 -122 88 -202t197 -80q142 0 266 100zM702 598q-6 88 -57.5 138
t-138.5 50q-86 0 -143 -51t-78 -137h417zM850 1366l-258 -315h-150l-260 315l183 20l157 -190l162 188z" />
    <glyph glyph-name="ecircumflex.title" unicode="&#xe32b;" horiz-adv-x="935" 
d="M827 264l84 -129q-153 -164 -405 -164q-219 0 -343 138t-124 352q0 212 131.5 358t341.5 146q64 0 119 -13.5t94 -37t70.5 -53.5t51.5 -63t35 -66t22.5 -63t11.5 -53.5t5 -37.5l1 -13l-97 -119h-549q11 -122 88 -202t197 -80q142 0 266 100zM702 598q-6 88 -57.5 138
t-138.5 50q-86 0 -143 -51t-78 -137h417zM586 1386l260 -313l-180 -22l-160 194l-160 -194l-168 22l260 313h148z" />
    <glyph glyph-name="edieresis.title" unicode="&#xe32c;" horiz-adv-x="935" 
d="M827 264l84 -129q-153 -164 -405 -164q-219 0 -343 138t-124 352q0 212 131.5 358t341.5 146q64 0 119 -13.5t94 -37t70.5 -53.5t51.5 -63t35 -66t22.5 -63t11.5 -53.5t5 -37.5l1 -13l-97 -119h-549q11 -122 88 -202t197 -80q142 0 266 100zM702 598q-6 88 -57.5 138
t-138.5 50q-86 0 -143 -51t-78 -137h417zM449 1225q0 -60 -39 -100t-99 -40q-62 0 -101.5 39.5t-39.5 100.5t39 99t100 38q60 0 100 -39t40 -98zM856 1225q0 -60 -38.5 -100t-98.5 -40q-62 0 -101.5 39.5t-39.5 100.5t39 99t100 38q60 0 99.5 -39t39.5 -98z" />
    <glyph glyph-name="edotaccent.title" unicode="&#xe32d;" horiz-adv-x="935" 
d="M827 264l84 -129q-153 -164 -405 -164q-219 0 -343 138t-124 352q0 212 131.5 358t341.5 146q64 0 119 -13.5t94 -37t70.5 -53.5t51.5 -63t35 -66t22.5 -63t11.5 -53.5t5 -37.5l1 -13l-97 -119h-549q11 -122 88 -202t197 -80q142 0 266 100zM702 598q-6 88 -57.5 138
t-138.5 50q-86 0 -143 -51t-78 -137h417zM647 1225q0 -60 -38.5 -100t-98.5 -40q-62 0 -101.5 39.5t-39.5 100.5t39 99t100 38q60 0 99.5 -39t39.5 -98z" />
    <glyph glyph-name="egrave.title" unicode="&#xe32e;" horiz-adv-x="935" 
d="M827 264l84 -129q-153 -164 -405 -164q-219 0 -343 138t-124 352q0 212 131.5 358t341.5 146q64 0 119 -13.5t94 -37t70.5 -53.5t51.5 -63t35 -66t22.5 -63t11.5 -53.5t5 -37.5l1 -13l-97 -119h-549q11 -122 88 -202t197 -80q142 0 266 100zM702 598q-6 88 -57.5 138
t-138.5 50q-86 0 -143 -51t-78 -137h417zM520 1053l-325 260l211 67l260 -266z" />
    <glyph glyph-name="emacron.title" unicode="&#xe32f;" horiz-adv-x="935" 
d="M827 264l84 -129q-153 -164 -405 -164q-219 0 -343 138t-124 352q0 212 131.5 358t341.5 146q64 0 119 -13.5t94 -37t70.5 -53.5t51.5 -63t35 -66t22.5 -63t11.5 -53.5t5 -37.5l1 -13l-97 -119h-549q11 -122 88 -202t197 -80q142 0 266 100zM702 598q-6 88 -57.5 138
t-138.5 50q-86 0 -143 -51t-78 -137h417zM793 1143h-551v153h551v-153z" />
    <glyph glyph-name="eogonek.title" unicode="&#xe330;" horiz-adv-x="935" 
d="M827 264l84 -129q-94 -103 -227 -139q-16 -10 -38 -27.5t-52 -46t-50 -64t-20 -67.5q0 -30 21 -46.5t53 -16.5q25 0 47 4t31 8l10 4l25 -104q-72 -39 -183 -39q-79 0 -136.5 33.5t-57.5 101.5q0 76 53.5 135.5t122.5 99.5h-4q-219 0 -343 138t-124 352q0 212 131.5 358
t341.5 146q64 0 119 -13.5t94 -37t70.5 -53.5t51.5 -63t35 -66t22.5 -63t11.5 -53.5t5 -37.5l1 -13l-97 -119h-549q11 -122 88 -202t197 -80q142 0 266 100zM702 598q-6 88 -57.5 138t-138.5 50q-86 0 -143 -51t-78 -137h417z" />
    <glyph glyph-name="eth.title" unicode="&#xe331;" horiz-adv-x="1077" 
d="M223 1030l-78 119l181 90q-74 39 -176 70l90 174q175 -46 313 -129l233 116l78 -116l-180 -92q172 -145 262 -346.5t90 -423.5q0 -244 -137.5 -382.5t-374.5 -138.5q-224 0 -354.5 137.5t-130.5 354.5q0 209 132 351t331 142q47 0 87.5 -8t57.5 -16l17 -8
q-59 128 -195 229zM793 444q0 141 -68.5 234.5t-194.5 93.5q-117 0 -183 -77.5t-66 -198.5q0 -144 75 -242t199 -98q52 0 94 18.5t68.5 47.5t44 67.5t24.5 77t7 77.5z" />
    <glyph glyph-name="gbreve.title" unicode="&#xe332;" horiz-adv-x="964" 
d="M946 776l-176 15q70 -88 70 -191q0 -102 -54 -179t-139.5 -115t-185.5 -38l-80 4q-14 -2 -21.5 -5t-13.5 -10t-6 -19q0 -18 21 -32t40.5 -19.5t50.5 -12.5q6 -1 9 -2l71 -16q154 -36 190 -47q146 -48 182 -143q14 -36 14 -81q0 -90 -43.5 -159t-115 -107.5t-151.5 -57
t-166 -18.5q-63 0 -123 8t-122.5 29t-109 53t-76 85.5t-29.5 121.5q0 92 58 145t161 87q-62 39 -62 110q0 43 30 71t83 52q-102 44 -159.5 125t-57.5 188q0 106 58.5 187t149.5 120.5t199 39.5q79 0 201 -31l309 14zM621 606q0 91 -44 153t-137 62q-81 0 -127.5 -50
t-46.5 -130q0 -91 51 -156t140 -65q81 0 122.5 51.5t41.5 134.5zM688 -156q0 28 -12 46.5t-46 33t-55.5 20.5t-80.5 19q-11 3 -17 4l-143 31q-35 -16 -51.5 -24.5t-39 -25.5t-31.5 -39t-9 -52q0 -45 24 -77.5t64 -48.5t80 -23t84 -7q233 0 233 143zM776 1372
q-6 -139 -90.5 -220t-232.5 -81q-133 0 -220 80t-94 219l150 19q12 -72 52.5 -119t111.5 -47q84 0 123.5 43.5t54.5 122.5z" />
    <glyph glyph-name="gcommaaccent.title" unicode="&#xe333;" horiz-adv-x="964" 
d="M946 776l-176 15q70 -88 70 -191q0 -102 -54 -179t-139.5 -115t-185.5 -38l-80 4q-14 -2 -21.5 -5t-13.5 -10t-6 -19q0 -18 21 -32t40.5 -19.5t50.5 -12.5q6 -1 9 -2l71 -16q154 -36 190 -47q146 -48 182 -143q14 -36 14 -81q0 -90 -43.5 -159t-115 -107.5t-151.5 -57
t-166 -18.5q-63 0 -123 8t-122.5 29t-109 53t-76 85.5t-29.5 121.5q0 92 58 145t161 87q-62 39 -62 110q0 43 30 71t83 52q-102 44 -159.5 125t-57.5 188q0 106 58.5 187t149.5 120.5t199 39.5q79 0 201 -31l309 14zM621 606q0 91 -44 153t-137 62q-81 0 -127.5 -50
t-46.5 -130q0 -91 51 -156t140 -65q81 0 122.5 51.5t41.5 134.5zM688 -156q0 28 -12 46.5t-46 33t-55.5 20.5t-80.5 19q-11 3 -17 4l-143 31q-35 -16 -51.5 -24.5t-39 -25.5t-31.5 -39t-9 -52q0 -45 24 -77.5t64 -48.5t80 -23t84 -7q233 0 233 143zM367 1059q0 124 39 241.5
t88 188.5l153 -53q-69 -167 -69 -377h-211z" />
    <glyph glyph-name="germandbls.title" unicode="&#xe334;" horiz-adv-x="1001" 
d="M991 295q0 -148 -96.5 -228.5t-247.5 -80.5q-149 0 -268 73l53 166q91 -59 182 -59q74 0 109 21t35 85q0 39 -31 81.5t-75 81.5t-87.5 82t-74.5 100t-31 118q0 42 21 82t51.5 73t60.5 66.5t51 77.5t21 92q0 146 -160 146q-38 0 -68 -10.5t-49.5 -27t-33.5 -43.5
t-21 -51.5t-11 -61t-5 -62.5t-1 -64v-952h-239v983q0 459 432 459q181 0 290 -74.5t109 -214.5q0 -56 -22 -105t-53.5 -82t-62.5 -62.5t-53 -59.5t-22 -60q0 -32 22 -65.5t55 -62t71.5 -66.5t71.5 -77t55 -96.5t22 -121.5z" />
    <glyph glyph-name="iacute.title" unicode="&#xe335;" horiz-adv-x="391" 
d="M315 0h-239v936h239v-936zM506 1313l-324 -260l-147 61l260 266z" />
    <glyph glyph-name="icircumflex.title" unicode="&#xe336;" horiz-adv-x="391" 
d="M315 0h-239v936h239v-936zM268 1386l219 -313l-180 -22l-119 194l-118 -194l-168 22l219 313h147z" />
    <glyph glyph-name="dotlessi.title" unicode="&#xe337;" horiz-adv-x="391" 
d="M315 0h-239v936h239v-936z" />
    <glyph glyph-name="idieresis.title" unicode="&#xe338;" horiz-adv-x="391" 
d="M315 0h-239v936h239v-936zM154 1225q0 -60 -37 -100t-94 -40q-59 0 -96.5 39.5t-37.5 100.5t37 99t94 38q58 0 96 -39t38 -98zM502 1225q0 -61 -36.5 -100.5t-94.5 -39.5t-95.5 39t-37.5 101q0 61 37 99t96 38q57 0 94 -39t37 -98z" />
    <glyph glyph-name="igrave.title" unicode="&#xe339;" horiz-adv-x="391" 
d="M315 0h-239v936h239v-936zM244 1053l-326 260l211 67l260 -266z" />
    <glyph glyph-name="imacron.title" unicode="&#xe33a;" horiz-adv-x="391" 
d="M315 0h-239v936h239v-936zM430 1143h-469v153h469v-153z" />
    <glyph glyph-name="iogonek.title" unicode="&#xe33b;" horiz-adv-x="391" 
d="M190 0h-114v936h239v-936q-5 -4 -13.5 -12t-30.5 -32t-39 -47.5t-30.5 -56t-13.5 -61.5q0 -30 21 -46.5t53 -16.5q25 0 47 4t31 8l10 4l25 -104q-71 -39 -182 -39q-79 0 -137 33.5t-58 101.5q0 47 20 91.5t48 74.5t56 53t48 34z" />
    <glyph glyph-name="kcommaaccent.title" unicode="&#xe33c;" horiz-adv-x="964" 
d="M987 0h-282l-312 397l-78 -82v-315h-239v1413h239v-844l381 385l244 -45l-375 -377zM616 -88q-3 -114 -45.5 -236t-87.5 -188l-139 47q32 74 54.5 179.5t27.5 197.5h190z" />
    <glyph glyph-name="lacute.title" unicode="&#xe33d;" horiz-adv-x="389" 
d="M315 0h-239v1413h239v-1413zM561 1726l-323 -260l-148 62l260 266z" />
    <glyph glyph-name="lcaron.title" unicode="&#xe33e;" horiz-adv-x="655" 
d="M315 0h-239v1413h239v-1413zM639 1413q-3 -114 -45.5 -236t-87.5 -188l-139 47q32 74 54.5 179.5t27.5 197.5h190z" />
    <glyph glyph-name="lcommaaccent.title" unicode="&#xe33f;" horiz-adv-x="389" 
d="M315 0h-239v1413h239v-1413zM293 -88q-3 -114 -45.5 -236t-87.5 -188l-140 47q32 74 54.5 179.5t27.5 197.5h191z" />
    <glyph glyph-name="lslash.title" unicode="&#xe340;" horiz-adv-x="389" 
d="M315 0h-239v578l-109 -74v219l109 72v618h239v-504l107 72v-217l-107 -74v-690z" />
    <glyph glyph-name="nacute.title" unicode="&#xe341;" horiz-adv-x="1019" 
d="M948 0h-239v543q0 48 -7 84.5t-24 69t-50.5 50t-82.5 17.5q-69 0 -121.5 -31.5t-101.5 -91.5v-641h-240v641q0 181 -62 258l209 66q65 -37 78 -156q146 156 324 156q175 0 260 -129q57 -88 57 -211v-625zM807 1313l-324 -260l-147 61l260 266z" />
    <glyph glyph-name="ncaron.title" unicode="&#xe342;" horiz-adv-x="1019" 
d="M948 0h-239v543q0 48 -7 84.5t-24 69t-50.5 50t-82.5 17.5q-69 0 -121.5 -31.5t-101.5 -91.5v-641h-240v641q0 181 -62 258l209 66q65 -37 78 -156q146 156 324 156q175 0 260 -129q57 -88 57 -211v-625zM809 1366l-258 -315h-150l-260 315l183 20l157 -190l162 188z" />
    <glyph glyph-name="ncommaaccent.title" unicode="&#xe343;" horiz-adv-x="1019" 
d="M948 0h-239v543q0 48 -7 84.5t-24 69t-50.5 50t-82.5 17.5q-69 0 -121.5 -31.5t-101.5 -91.5v-641h-240v641q0 181 -62 258l209 66q65 -37 78 -156q146 156 324 156q175 0 260 -129q57 -88 57 -211v-625zM608 -88q-3 -114 -45.5 -236t-87.5 -188l-139 47
q32 74 54.5 179.5t27.5 197.5h190z" />
    <glyph glyph-name="ntilde.title" unicode="&#xe344;" horiz-adv-x="1019" 
d="M948 0h-239v543q0 48 -7 84.5t-24 69t-50.5 50t-82.5 17.5q-69 0 -121.5 -31.5t-101.5 -91.5v-641h-240v641q0 181 -62 258l209 66q65 -37 78 -156q146 156 324 156q175 0 260 -129q57 -88 57 -211v-625zM735 1337l105 -55q-76 -178 -219 -178q-52 0 -140.5 40t-128.5 40
q-69 0 -108 -84l-103 53q33 90 86 137t140 47q52 0 135.5 -38.5t130.5 -38.5q37 0 59.5 18.5t42.5 58.5z" />
    <glyph glyph-name="oacute.title" unicode="&#xe345;" horiz-adv-x="1073" 
d="M1036 469q0 -222 -135.5 -360t-363.5 -138q-219 0 -358.5 135.5t-139.5 354.5q0 224 141 364t373 140q143 0 254 -66.5t170 -179t59 -250.5zM793 461q0 61 -16 117t-47 103.5t-83.5 76t-120.5 28.5q-76 0 -133 -43.5t-84.5 -109t-27.5 -141.5q0 -89 29 -164.5t93 -125.5
t152 -50q117 0 177.5 84.5t60.5 224.5zM856 1313l-324 -260l-147 61l260 266z" />
    <glyph glyph-name="ocircumflex.title" unicode="&#xe346;" horiz-adv-x="1073" 
d="M1036 469q0 -222 -135.5 -360t-363.5 -138q-219 0 -358.5 135.5t-139.5 354.5q0 224 141 364t373 140q143 0 254 -66.5t170 -179t59 -250.5zM793 461q0 61 -16 117t-47 103.5t-83.5 76t-120.5 28.5q-76 0 -133 -43.5t-84.5 -109t-27.5 -141.5q0 -89 29 -164.5t93 -125.5
t152 -50q117 0 177.5 84.5t60.5 224.5zM610 1386l260 -313l-180 -22l-160 194l-159 -194l-168 22l260 313h147z" />
    <glyph glyph-name="odieresis.title" unicode="&#xe347;" horiz-adv-x="1073" 
d="M1036 469q0 -222 -135.5 -360t-363.5 -138q-219 0 -358.5 135.5t-139.5 354.5q0 224 141 364t373 140q143 0 254 -66.5t170 -179t59 -250.5zM793 461q0 61 -16 117t-47 103.5t-83.5 76t-120.5 28.5q-76 0 -133 -43.5t-84.5 -109t-27.5 -141.5q0 -89 29 -164.5t93 -125.5
t152 -50q117 0 177.5 84.5t60.5 224.5zM471 1225q0 -60 -38.5 -100t-98.5 -40q-62 0 -101.5 39.5t-39.5 100.5t39 99t100 38q60 0 99.5 -39t39.5 -98zM879 1225q0 -60 -39 -100t-99 -40q-62 0 -101.5 39.5t-39.5 100.5t39 99t100 38q60 0 100 -39t40 -98z" />
    <glyph glyph-name="oe.title" unicode="&#xe348;" horiz-adv-x="1591" 
d="M1485 264l84 -129q-77 -81 -179 -122.5t-216 -41.5q-191 0 -314 109q-132 -109 -325 -109q-216 0 -356 137t-140 353t142.5 360t359.5 144q189 0 323 -111q136 111 310 111q167 0 283 -112t112 -288l-86 -119h-547q9 -122 86.5 -202t196.5 -80q145 0 266 100zM1366 598
q-6 87 -65 142t-146 55q-86 0 -143.5 -55t-77.5 -142h432zM743 225q-47 121 -47 234q0 100 41 225q-81 100 -211 100q-114 0 -179.5 -85t-65.5 -205q0 -63 16 -121t47.5 -108.5t86 -80.5t124.5 -30q111 0 188 71z" />
    <glyph glyph-name="ograve.title" unicode="&#xe349;" horiz-adv-x="1073" 
d="M1036 469q0 -222 -135.5 -360t-363.5 -138q-219 0 -358.5 135.5t-139.5 354.5q0 224 141 364t373 140q143 0 254 -66.5t170 -179t59 -250.5zM793 461q0 61 -16 117t-47 103.5t-83.5 76t-120.5 28.5q-76 0 -133 -43.5t-84.5 -109t-27.5 -141.5q0 -89 29 -164.5t93 -125.5
t152 -50q117 0 177.5 84.5t60.5 224.5zM526 1053l-325 260l211 67l260 -266z" />
    <glyph glyph-name="oslash.title" unicode="&#xe34a;" horiz-adv-x="1073" 
d="M203 -74l-135 33l112 145q-141 135 -141 357q0 224 141 364t373 140q133 0 244 -62l80 103l135 -29l-115 -150q67 -68 103 -160.5t36 -197.5q0 -222 -135.5 -360t-363.5 -138q-141 0 -254 58zM281 492q0 -116 45 -199l346 448q-61 45 -146 45q-76 0 -133 -43.5
t-84.5 -109t-27.5 -141.5zM793 461q0 101 -39 180l-344 -446q62 -43 145 -43q117 0 177.5 84.5t60.5 224.5z" />
    <glyph glyph-name="obreve.title" unicode="&#xe34b;" horiz-adv-x="1073" 
d="M1036 469q0 -222 -135.5 -360t-363.5 -138q-219 0 -358.5 135.5t-139.5 354.5q0 224 141 364t373 140q143 0 254 -66.5t170 -179t59 -250.5zM793 461q0 61 -16 117t-47 103.5t-83.5 76t-120.5 28.5q-76 0 -133 -43.5t-84.5 -109t-27.5 -141.5q0 -89 29 -164.5t93 -125.5
t152 -50q117 0 177.5 84.5t60.5 224.5zM854 1372q-6 -139 -91 -220t-233 -81q-133 0 -219.5 80t-93.5 219l150 19q12 -72 52 -119t111 -47q84 0 124 43.5t55 122.5z" />
    <glyph glyph-name="ohungarumlaut.title" unicode="&#xe34c;" horiz-adv-x="1073" 
d="M1036 469q0 -222 -135.5 -360t-363.5 -138q-219 0 -358.5 135.5t-139.5 354.5q0 224 141 364t373 140q143 0 254 -66.5t170 -179t59 -250.5zM793 461q0 61 -16 117t-47 103.5t-83.5 76t-120.5 28.5q-76 0 -133 -43.5t-84.5 -109t-27.5 -141.5q0 -89 29 -164.5t93 -125.5
t152 -50q117 0 177.5 84.5t60.5 224.5zM688 1313l-293 -258l-137 59l219 266zM1057 1313l-293 -258l-137 59l219 266z" />
    <glyph glyph-name="omacron.title" unicode="&#xe34d;" horiz-adv-x="1073" 
d="M1036 469q0 -222 -135.5 -360t-363.5 -138q-219 0 -358.5 135.5t-139.5 354.5q0 224 141 364t373 140q143 0 254 -66.5t170 -179t59 -250.5zM793 461q0 61 -16 117t-47 103.5t-83.5 76t-120.5 28.5q-76 0 -133 -43.5t-84.5 -109t-27.5 -141.5q0 -89 29 -164.5t93 -125.5
t152 -50q117 0 177.5 84.5t60.5 224.5zM811 1143h-551v153h551v-153z" />
    <glyph glyph-name="otilde.title" unicode="&#xe34e;" horiz-adv-x="1073" 
d="M1036 469q0 -222 -135.5 -360t-363.5 -138q-219 0 -358.5 135.5t-139.5 354.5q0 224 141 364t373 140q143 0 254 -66.5t170 -179t59 -250.5zM793 461q0 61 -16 117t-47 103.5t-83.5 76t-120.5 28.5q-76 0 -133 -43.5t-84.5 -109t-27.5 -141.5q0 -89 29 -164.5t93 -125.5
t152 -50q117 0 177.5 84.5t60.5 224.5zM780 1337l105 -55q-76 -178 -219 -178q-52 0 -140.5 40t-128.5 40q-69 0 -108 -84l-103 53q33 90 86 137t140 47q52 0 135.5 -38.5t130.5 -38.5q37 0 59.5 18.5t42.5 58.5z" />
    <glyph glyph-name="racute.title" unicode="&#xe34f;" horiz-adv-x="720" 
d="M725 924l-55 -209q-72 26 -119 26q-31 0 -60 -11.5t-49.5 -26t-45.5 -42t-38 -45.5t-36 -51v-565h-240v641q0 181 -62 258l209 66q80 -50 80 -217q29 48 52 79.5t57 66.5t74.5 53t87.5 18q65 0 145 -41zM596 1313l-324 -260l-147 61l260 266z" />
    <glyph glyph-name="rcaron.title" unicode="&#xe350;" horiz-adv-x="720" 
d="M725 924l-55 -209q-72 26 -119 26q-31 0 -60 -11.5t-49.5 -26t-45.5 -42t-38 -45.5t-36 -51v-565h-240v641q0 181 -62 258l209 66q80 -50 80 -217q29 48 52 79.5t57 66.5t74.5 53t87.5 18q65 0 145 -41zM633 1366l-258 -315h-150l-260 315l182 20l158 -190l162 188z" />
    <glyph glyph-name="rcommaaccent.title" unicode="&#xe351;" horiz-adv-x="720" 
d="M725 924l-55 -209q-72 26 -119 26q-31 0 -60 -11.5t-49.5 -26t-45.5 -42t-38 -45.5t-36 -51v-565h-240v641q0 181 -62 258l209 66q80 -50 80 -217q29 48 52 79.5t57 66.5t74.5 53t87.5 18q65 0 145 -41zM299 -88q-3 -114 -45.5 -236t-87.5 -188l-139 47q32 74 54.5 179.5
t27.5 197.5h190z" />
    <glyph glyph-name="sacute.title" unicode="&#xe352;" horiz-adv-x="749" 
d="M723 266q0 -73 -32 -131t-85.5 -93t-117.5 -53t-134 -18q-216 0 -354 127l90 162q124 -108 250 -108q131 0 131 100q0 32 -22.5 57t-59 43t-80 35.5t-87 41t-80 53.5t-59 79t-22.5 111q0 139 99.5 216t240.5 77q155 0 297 -86l-69 -172q-118 77 -211 77q-115 0 -115 -92
q0 -32 23 -56.5t60 -42t82 -35t90 -41.5t82 -55t60 -81.5t23 -114.5zM723 1313l-324 -260l-147 61l260 266z" />
    <glyph glyph-name="tcaron.title" unicode="&#xe353;" horiz-adv-x="755" 
d="M758 51q-124 -69 -287 -69q-138 0 -210.5 72.5t-72.5 209.5v496h-188v149q60 4 101.5 12t73 25.5t50.5 36.5t34.5 56.5t24.5 72t21 96.5h121v-272h262v-176h-262v-406q0 -37 1.5 -59.5t9 -48.5t21 -40.5t38.5 -24t61 -9.5q25 0 66.5 9t70.5 19l29 9zM772 1477
q-3 -114 -45.5 -236t-87.5 -188l-139 47q32 74 54.5 179.5t27.5 197.5h190z" />
    <glyph glyph-name="tcedilla.title" unicode="&#xe354;" horiz-adv-x="735" 
d="M614 -272q0 -89 -73 -137t-176 -48q-44 0 -81 4.5t-52 9.5l-15 5l25 112q47 -14 96 -14q51 0 74.5 20t23.5 52q0 26 -22 43.5t-60 17.5q-18 0 -34 -2t-22 -4l-7 -2l67 213q-170 50 -170 266v496h-188v149q60 4 101.5 12t73 25.5t50.5 36.5t34.5 56.5t24.5 72t21 96.5h121
v-272h262v-176h-262v-406q0 -37 1.5 -59.5t9 -48.5t21 -40.5t38.5 -24t61 -9.5q25 0 66.5 9t70.5 19l29 9l35 -158q-124 -69 -287 -69h-2l-37 -121q5 0 15.5 1t15.5 1q75 0 113 -37t38 -98z" />
    <glyph glyph-name="tcommaaccent.title" unicode="&#xe355;" horiz-adv-x="735" 
d="M758 51q-124 -69 -287 -69q-138 0 -210.5 72.5t-72.5 209.5v496h-188v149q60 4 101.5 12t73 25.5t50.5 36.5t34.5 56.5t24.5 72t21 96.5h121v-272h262v-176h-262v-406q0 -37 1.5 -59.5t9 -48.5t21 -40.5t38.5 -24t61 -9.5q25 0 66.5 9t70.5 19l29 9zM489 -88
q-3 -114 -45.5 -236t-87.5 -188l-139 47q32 74 54.5 179.5t27.5 197.5h190z" />
    <glyph glyph-name="uacute.title" unicode="&#xe356;" horiz-adv-x="1052" 
d="M1055 133l-31 -147q-57 -13 -102 -13q-177 0 -209 136q-132 -138 -293 -138q-180 0 -262 87.5t-82 271.5v606h239v-553q0 -211 166 -211q65 0 110 25t99 79v660h240v-645q0 -34 1 -52t6.5 -42.5t16 -36t30.5 -20.5t50 -9zM809 1313l-324 -260l-147 61l260 266z" />
    <glyph glyph-name="ucircumflex.title" unicode="&#xe357;" horiz-adv-x="1052" 
d="M1055 133l-31 -147q-57 -13 -102 -13q-177 0 -209 136q-132 -138 -293 -138q-180 0 -262 87.5t-82 271.5v606h239v-553q0 -211 166 -211q65 0 110 25t99 79v660h240v-645q0 -34 1 -52t6.5 -42.5t16 -36t30.5 -20.5t50 -9zM584 1386l260 -313l-180 -22l-160 194l-160 -194
l-168 22l260 313h148z" />
    <glyph glyph-name="udieresis.title" unicode="&#xe358;" horiz-adv-x="1052" 
d="M1055 133l-31 -147q-57 -13 -102 -13q-177 0 -209 136q-132 -138 -293 -138q-180 0 -262 87.5t-82 271.5v606h239v-553q0 -211 166 -211q65 0 110 25t99 79v660h240v-645q0 -34 1 -52t6.5 -42.5t16 -36t30.5 -20.5t50 -9zM430 1225q0 -60 -38.5 -100t-98.5 -40
q-62 0 -101.5 39.5t-39.5 100.5t39 99t100 38q60 0 99.5 -39t39.5 -98zM838 1225q0 -60 -39 -100t-99 -40q-62 0 -101.5 39.5t-39.5 100.5t39 99t100 38q60 0 100 -39t40 -98z" />
    <glyph glyph-name="ugrave.title" unicode="&#xe359;" horiz-adv-x="1052" 
d="M1055 133l-31 -147q-57 -13 -102 -13q-177 0 -209 136q-132 -138 -293 -138q-180 0 -262 87.5t-82 271.5v606h239v-553q0 -211 166 -211q65 0 110 25t99 79v660h240v-645q0 -34 1 -52t6.5 -42.5t16 -36t30.5 -20.5t50 -9zM506 1053l-326 260l211 67l260 -266z" />
    <glyph glyph-name="uhungarumlaut.title" unicode="&#xe35a;" horiz-adv-x="1052" 
d="M1055 133l-31 -147q-57 -13 -102 -13q-177 0 -209 136q-132 -138 -293 -138q-180 0 -262 87.5t-82 271.5v606h239v-553q0 -211 166 -211q65 0 110 25t99 79v660h240v-645q0 -34 1 -52t6.5 -42.5t16 -36t30.5 -20.5t50 -9zM629 1313l-293 -258l-137 59l219 266zM997 1313
l-292 -258l-138 59l219 266z" />
    <glyph glyph-name="umacron.title" unicode="&#xe35b;" horiz-adv-x="1052" 
d="M1055 133l-31 -147q-57 -13 -102 -13q-177 0 -209 136q-132 -138 -293 -138q-180 0 -262 87.5t-82 271.5v606h239v-553q0 -211 166 -211q65 0 110 25t99 79v660h240v-645q0 -34 1 -52t6.5 -42.5t16 -36t30.5 -20.5t50 -9zM801 1143h-551v153h551v-153z" />
    <glyph glyph-name="uogonek.title" unicode="&#xe35c;" horiz-adv-x="1052" 
d="M1055 133l-31 -147q-7 -4 -18 -12t-40 -32t-51.5 -47.5t-40.5 -56t-18 -61.5q0 -30 21 -47t53 -17q25 0 47 4.5t31 8.5l10 4l24 -105q-71 -39 -182 -39q-79 0 -136.5 33.5t-57.5 101.5q0 48 23.5 92t61.5 76.5t67 51.5t59 34q-137 13 -164 134q-132 -138 -293 -138
q-180 0 -262 87.5t-82 271.5v606h239v-553q0 -211 166 -211q65 0 110 25t99 79v660h240v-645q0 -34 1 -52t6.5 -42.5t16 -36t30.5 -20.5t50 -9z" />
    <glyph glyph-name="uring.title" unicode="&#xe35d;" horiz-adv-x="1052" 
d="M1055 133l-31 -147q-57 -13 -102 -13q-177 0 -209 136q-132 -138 -293 -138q-180 0 -262 87.5t-82 271.5v606h239v-553q0 -211 166 -211q65 0 110 25t99 79v660h240v-645q0 -34 1 -52t6.5 -42.5t16 -36t30.5 -20.5t50 -9zM283 1219q0 88 65.5 143t153.5 55q91 0 157 -55
t66 -143t-66 -144.5t-155 -56.5t-155 56.5t-66 144.5zM399 1219q0 -44 29.5 -73.5t73.5 -29.5q45 0 74.5 29t29.5 74q0 44 -29.5 73t-72.5 29q-46 0 -75.5 -29t-29.5 -73z" />
    <glyph glyph-name="scaron.title" unicode="&#xe35e;" horiz-adv-x="749" 
d="M723 266q0 -73 -32 -131t-85.5 -93t-117.5 -53t-134 -18q-216 0 -354 127l90 162q124 -108 250 -108q131 0 131 100q0 32 -22.5 57t-59 43t-80 35.5t-87 41t-80 53.5t-59 79t-22.5 111q0 139 99.5 216t240.5 77q155 0 297 -86l-69 -172q-118 77 -211 77q-115 0 -115 -92
q0 -32 23 -56.5t60 -42t82 -35t90 -41.5t82 -55t60 -81.5t23 -114.5zM709 1366l-238 -315h-149l-240 315l182 20l137 -190l142 188z" />
    <glyph glyph-name="scedilla.title" unicode="&#xe35f;" horiz-adv-x="749" 
d="M553 -272q0 -89 -73.5 -137t-176.5 -48q-44 0 -80.5 4.5t-51.5 9.5l-15 5l24 112q47 -14 96 -14q51 0 75 20t24 52q0 26 -22 43.5t-60 17.5q-18 0 -34 -2t-23 -4l-7 -2l62 190q-176 16 -291 123l90 162q124 -108 250 -108q131 0 131 100q0 32 -22.5 57t-59 43t-80 35.5
t-87 41t-80 53.5t-59 79t-22.5 111q0 139 99.5 216t240.5 77q155 0 297 -86l-69 -172q-118 77 -211 77q-115 0 -115 -92q0 -32 23 -56.5t60 -42t82 -35t90 -41.5t82 -55t60 -81.5t23 -114.5q0 -88 -46.5 -153t-116 -97.5t-154.5 -40.5l-35 -114q5 0 15 1t15 1
q75 0 113.5 -37t38.5 -98z" />
    <glyph glyph-name="scommaaccent.title" unicode="&#xe360;" horiz-adv-x="749" 
d="M723 266q0 -73 -32 -131t-85.5 -93t-117.5 -53t-134 -18q-216 0 -354 127l90 162q124 -108 250 -108q131 0 131 100q0 32 -22.5 57t-59 43t-80 35.5t-87 41t-80 53.5t-59 79t-22.5 111q0 139 99.5 216t240.5 77q155 0 297 -86l-69 -172q-118 77 -211 77q-115 0 -115 -92
q0 -32 23 -56.5t60 -42t82 -35t90 -41.5t82 -55t60 -81.5t23 -114.5zM457 -88q-3 -114 -45.5 -236t-87.5 -188l-140 47q32 74 54.5 179.5t27.5 197.5h191z" />
    <glyph glyph-name="thorn.title" unicode="&#xe361;" horiz-adv-x="1028" 
d="M991 487q0 -140 -57 -257t-166.5 -188t-249.5 -71q-99 0 -203 35v-446h-239v1855h239v-532q60 45 120 63.5t138 18.5q128 0 225 -68.5t145 -176t48 -233.5zM745 469q0 78 -27.5 145t-86.5 111.5t-139 44.5q-88 0 -177 -47v-520q64 -53 170 -53q126 0 193 92.5t67 226.5z
" />
    <glyph glyph-name="yacute.title" unicode="&#xe362;" horiz-adv-x="958" 
d="M958 913l-436 -1040q-142 -332 -403 -332q-35 0 -70.5 4.5t-53.5 9.5l-18 5l35 172q37 -11 84 -11q46 0 81 15.5t63 50.5t46.5 70.5t43.5 95.5l32 78l-360 882l240 41l241 -641l246 641zM809 1313l-324 -260l-147 61l260 266z" />
    <glyph glyph-name="ydieresis.title" unicode="&#xe363;" horiz-adv-x="958" 
d="M958 913l-436 -1040q-142 -332 -403 -332q-35 0 -70.5 4.5t-53.5 9.5l-18 5l35 172q37 -11 84 -11q46 0 81 15.5t63 50.5t46.5 70.5t43.5 95.5l32 78l-360 882l240 41l241 -641l246 641zM416 1225q0 -60 -38.5 -100t-98.5 -40q-62 0 -102 39.5t-40 100.5t39 99t100 38
q60 0 100 -39t40 -98zM823 1225q0 -60 -38.5 -100t-98.5 -40q-62 0 -101.5 39.5t-39.5 100.5t39 99t100 38q60 0 99.5 -39t39.5 -98z" />
    <glyph glyph-name="zacute.title" unicode="&#xe364;" horiz-adv-x="860" 
d="M852 178l-33 -178h-786l-25 94l488 666h-441v176h729l33 -92l-487 -666h522zM748 1313l-324 -260l-148 61l261 266z" />
    <glyph glyph-name="zcaron.title" unicode="&#xe365;" horiz-adv-x="860" 
d="M852 178l-33 -178h-786l-25 94l488 666h-441v176h729l33 -92l-487 -666h522zM764 1366l-258 -315h-150l-260 315l183 20l157 -190l162 188z" />
    <glyph glyph-name="zdotaccent.title" unicode="&#xe366;" horiz-adv-x="860" 
d="M852 178l-33 -178h-786l-25 94l488 666h-441v176h729l33 -92l-487 -666h522zM569 1225q0 -60 -38.5 -100t-98.5 -40q-62 0 -101.5 39.5t-39.5 100.5t39 99t100 38q60 0 99.5 -39t39.5 -98z" />
    <glyph glyph-name="Adieresis.title.alt" unicode="&#xe367;" horiz-adv-x="1310" 
d="M328 1395q57 0 95 -37.5t38 -95.5t-38 -97t-95 -39q-60 0 -97.5 38.5t-37.5 97.5t37.5 96t97.5 37zM995 1395q60 0 97.5 -37t37.5 -96t-37.5 -97.5t-97.5 -38.5q-58 0 -95.5 38.5t-37.5 97.5q0 58 37 95.5t96 37.5zM1065 0l-147 367h-547l-150 -367h-246l586 1366h197
l577 -1366h-270zM649 1042l-194 -471h381z" />
    <glyph glyph-name="Aring.title.alt" unicode="&#xe368;" horiz-adv-x="1310" 
d="M-25 0l490 1139q-35 56 -35 112q0 88 66 147.5t161 59.5t160.5 -59.5t65.5 -147.5q0 -55 -31 -106l483 -1145h-270l-147 367h-547l-150 -367h-246zM836 571l-187 469l-196 -469h383zM655 1354q-45 0 -73.5 -29t-28.5 -74q0 -44 29.5 -73t72.5 -29q45 0 75 29.5t30 72.5
q0 46 -29.5 74.5t-75.5 28.5z" />
    <glyph glyph-name="Odieresis.title.alt" unicode="&#xe369;" horiz-adv-x="1490" 
d="M186 1126q25 -10 54 -10q72 -1 117.5 47t45.5 117q0 17 -2 29q75 40 163.5 63t166.5 23q206 0 361 -78q-5 -18 -5 -37q0 -69 44.5 -115.5t115.5 -46.5q31 0 66 12q143 -194 143 -450q0 -209 -90.5 -370.5t-253.5 -250t-373 -88.5q-199 0 -359.5 91.5t-251.5 255
t-91 368.5q0 246 149 440zM727 1174q-180 0 -297 -122.5t-117 -332.5q0 -234 127.5 -377t333.5 -143q186 0 298 123.5t112 334.5q0 221 -130.5 369t-326.5 148zM242 1413q58 0 95.5 -37.5t37.5 -95.5q0 -59 -37.5 -97t-95.5 -38q-60 0 -98 38t-38 97t38 96t98 37zM1249 1413
q60 0 97.5 -37t37.5 -96t-37.5 -97t-97.5 -38q-58 0 -95.5 38t-37.5 97q0 58 37 95.5t96 37.5z" />
    <glyph glyph-name="Udieresis.title.alt" unicode="&#xe36a;" horiz-adv-x="1325" 
d="M330 1141v-590q0 -196 76.5 -281.5t252.5 -85.5q171 0 251.5 84t80.5 283v588q43 21 65.5 59t22.5 84q0 44 -22 84h188v-817q0 -300 -143 -432q-158 -146 -443 -146q-156 0 -283 48t-204 147q-96 124 -96 385v815h188q-20 -39 -20 -82q0 -46 23 -85.5t63 -57.5zM408 1417
q59 0 96 -37.5t37 -97.5q0 -57 -37.5 -95t-95.5 -38q-59 0 -97.5 38.5t-38.5 96.5t38.5 95.5t97.5 37.5zM918 1417q59 0 96 -37.5t37 -97.5q0 -57 -37.5 -95t-95.5 -38q-59 0 -97.5 38.5t-38.5 96.5t38.5 95.5t97.5 37.5z" />
    <glyph glyph-name="one.title" unicode="&#xe36b;" horiz-adv-x="724" 
d="M641 0h-246v1044q-186 -120 -323 -174l-82 154q227 102 575 328l76 -35v-1317z" />
    <glyph glyph-name="two.title" unicode="&#xe36c;" horiz-adv-x="888" 
d="M866 207l-41 -207h-854l-32 131q153 136 329 320q9 9 53 53.5t62.5 65t58 64.5t59.5 75t44 72t34.5 79.5t10.5 75.5q0 93 -54.5 146t-164.5 53q-133 0 -283 -131l-94 159q86 92 195.5 141.5t232.5 49.5q178 0 302 -109t124 -282q0 -61 -19 -123t-45.5 -111t-71 -106
t-79 -94t-86.5 -89q-105 -108 -254 -233h573z" />
    <glyph glyph-name="three.title" unicode="&#xe36d;" horiz-adv-x="913" 
d="M881 377q0 -122 -70.5 -216.5t-177 -142t-225.5 -47.5q-260 0 -449 158l96 170q66 -61 149 -96t171 -35q99 0 165 55t66 154t-76.5 155t-193.5 56h-148v178h236q6 2 15.5 5.5t34.5 19t44.5 36t35 57.5t15.5 81q0 86 -65 135t-154 49q-117 0 -241 -102l-99 155
q192 152 404 152q80 0 152.5 -22.5t130 -64.5t91 -109.5t33.5 -151.5q0 -100 -48 -167t-142 -124q250 -93 250 -338z" />
    <glyph glyph-name="four.title" unicode="&#xe36e;" horiz-adv-x="1105" 
d="M1094 518l-25 -182h-195v-336h-237v336h-580l-43 180l713 840l147 -37v-801h220zM639 518v486l-403 -486h403z" />
    <glyph glyph-name="five.title" unicode="&#xe36f;" horiz-adv-x="886" 
d="M858 430q0 -139 -67 -244.5t-179 -160t-250 -54.5q-229 0 -399 113l74 182q150 -96 293 -96q114 0 189 70t75 182q0 58 -19.5 103.5t-56 76t-80.5 52t-102 33t-111 17t-116 7.5l104 614h614v-207h-415l-47 -244q103 -10 189 -39t156 -81t109 -134.5t39 -189.5z" />
    <glyph glyph-name="six.title" unicode="&#xe370;" horiz-adv-x="1042" 
d="M1012 438q0 -204 -138.5 -335.5t-343.5 -131.5q-232 0 -361.5 149t-129.5 384q0 159 59 302t162 253t231 192.5t277 137.5l154 -136q-441 -174 -570 -477q59 43 114 61.5t126 18.5q183 0 301.5 -118t118.5 -300zM772 420q0 106 -64.5 180t-168.5 74q-136 0 -246 -123
q-6 -35 -6 -86q0 -76 25.5 -140.5t82.5 -108.5t135 -44q114 0 178 67t64 181z" />
    <glyph glyph-name="seven.title" unicode="&#xe371;" horiz-adv-x="843" 
d="M905 1217q-224 -426 -590 -1244l-260 54q339 705 555 1091h-665v207h917z" />
    <glyph glyph-name="eight.title" unicode="&#xe372;" horiz-adv-x="1038" 
d="M1008 365q0 -97 -42.5 -174t-113 -124t-156.5 -71.5t-178 -24.5q-89 0 -173.5 24.5t-155 70.5t-113.5 122t-43 170q0 235 264 340q-207 103 -207 293q0 88 37.5 158.5t100 114.5t139.5 67t161 23q78 0 151.5 -21t134.5 -61t97.5 -106.5t36.5 -149.5q0 -112 -54 -184.5
t-161 -116.5q136 -57 205.5 -137t69.5 -213zM723 1012q0 76 -60 124t-137 48q-74 0 -132 -43.5t-58 -114.5q0 -26 8.5 -50.5t19.5 -42.5t33.5 -38t37 -31t45.5 -28t43 -23l44 -22q76 46 116 96t40 125zM741 340q0 25 -5.5 48.5t-13.5 42t-24 37.5t-27.5 31.5t-35.5 28
t-37 23.5t-41.5 21.5t-40 19t-41.5 18.5q-196 -85 -196 -252q0 -97 69 -156t168 -59q95 0 160 52t65 145z" />
    <glyph glyph-name="nine.title" unicode="&#xe373;" horiz-adv-x="1030" 
d="M991 825q0 -150 -57 -296t-153.5 -262.5t-225.5 -204t-272 -128.5l-181 123q101 41 180.5 83t160.5 100.5t141.5 135.5t95.5 169q-110 -78 -248 -78q-173 0 -286 120t-113 294q0 131 65 240t176 171t242 62q112 0 203 -41.5t150 -114t90.5 -168t31.5 -205.5zM745 836
q0 79 -24 146.5t-80 114t-137 46.5q-102 0 -168 -70t-66 -172q0 -106 66 -180t172 -74q69 0 121.5 28t109.5 85q6 38 6 76z" />
    </font>
</defs>
</svg>
