<svg width="17" height="15" viewBox="0 0 17 15" fill="none" xmlns="http://www.w3.org/2000/svg">
<path d="M15.0985 2.24847C14.7397 1.88951 14.3137 1.60476 13.8448 1.41048C13.3759 1.21621 12.8734 1.11621 12.3659 1.11621C11.8583 1.11621 11.3558 1.21621 10.8869 1.41048C10.418 1.60476 9.99203 1.88951 9.63324 2.24847L8.88862 2.99309L8.144 2.24847C7.41926 1.52374 6.43631 1.11659 5.41138 1.11659C4.38645 1.11659 3.4035 1.52374 2.67876 2.24847C1.95403 2.97321 1.54688 3.95616 1.54688 4.98109C1.54687 6.00602 1.95403 6.98897 2.67876 7.71371L3.42338 8.45833L8.88862 13.9236L14.3539 8.45833L15.0985 7.71371C15.4574 7.35492 15.7422 6.92892 15.9365 6.46005C16.1307 5.99117 16.2307 5.48862 16.2307 4.98109C16.2307 4.47356 16.1307 3.97101 15.9365 3.50214C15.7422 3.03327 15.4574 2.60727 15.0985 2.24847V2.24847Z" stroke="#1E3565" stroke-width="1.54567" stroke-linecap="round" stroke-linejoin="round"/>
</svg>
