<svg width="18" height="15" viewBox="0 0 18 15" fill="none" xmlns="http://www.w3.org/2000/svg">
<path d="M17.0431 1.12419C16.3527 1.61113 15.5884 1.98357 14.7795 2.22715C14.3453 1.72794 13.7683 1.37412 13.1265 1.21353C12.4847 1.05294 11.8091 1.09334 11.191 1.32925C10.5729 1.56517 10.0421 1.98522 9.67056 2.5326C9.29897 3.07998 9.10446 3.72827 9.11332 4.3898V5.11068C7.84647 5.14353 6.59115 4.86257 5.45917 4.2928C4.32719 3.72304 3.35368 2.88217 2.62536 1.84508C2.62536 1.84508 -0.258175 8.33304 6.22979 11.2166C4.74514 12.2244 2.97655 12.7297 1.18359 12.6583C7.67155 16.2628 15.6013 12.6583 15.6013 4.36817C15.6006 4.16737 15.5813 3.96707 15.5436 3.76984C16.2794 3.04426 16.7985 2.12818 17.0431 1.12419V1.12419Z" stroke="#1E3565" stroke-width="0.872727" stroke-linecap="round" stroke-linejoin="round"/>
</svg>
