<svg width="16" height="16" viewBox="0 0 16 16" fill="none" xmlns="http://www.w3.org/2000/svg">
<g clip-path="url(#clip0_6497_46441)">
<path d="M10.8617 5.43787C11.8444 5.43787 12.7869 5.82826 13.4818 6.52316C14.1767 7.21806 14.5671 8.16055 14.5671 9.1433V13.4663H12.0968V9.1433C12.0968 8.81571 11.9667 8.50155 11.7351 8.26992C11.5034 8.03828 11.1893 7.90815 10.8617 7.90815C10.5341 7.90815 10.2199 8.03828 9.9883 8.26992C9.75667 8.50155 9.62654 8.81571 9.62654 9.1433V13.4663H7.15625V9.1433C7.15625 8.16055 7.54664 7.21806 8.24155 6.52316C8.93645 5.82826 9.87894 5.43787 10.8617 5.43787V5.43787Z" stroke="#1E3565" stroke-width="0.87" stroke-linecap="round" stroke-linejoin="round"/>
<path d="M4.68513 6.05542H2.21484V13.4663H4.68513V6.05542Z" stroke="#1E3565" stroke-width="0.87" stroke-linecap="round" stroke-linejoin="round"/>
<path d="M3.44999 4.20271C4.13214 4.20271 4.68513 3.64972 4.68513 2.96757C4.68513 2.28541 4.13214 1.73242 3.44999 1.73242C2.76784 1.73242 2.21484 2.28541 2.21484 2.96757C2.21484 3.64972 2.76784 4.20271 3.44999 4.20271Z" stroke="#1E3565" stroke-width="0.87" stroke-linecap="round" stroke-linejoin="round"/>
</g>
<defs>
<clipPath id="clip0_6497_46441">
<rect width="14.8217" height="14.8217" fill="white" transform="translate(0.980469 0.497314)"/>
</clipPath>
</defs>
</svg>
