<svg width="104" height="104" viewBox="0 0 104 104" fill="none" xmlns="http://www.w3.org/2000/svg">
<g opacity="0.2">
<rect width="104" height="104" rx="52" fill="#9BD08C"/>
<rect x="0.5" y="0.5" width="103" height="103" rx="51.5" stroke="white" stroke-opacity="0.17"/>
</g>
<g clip-path="url(#clip0_9776_75663)">
<mask id="path-3-inside-1_9776_75663" fill="white">
<path d="M62.7422 52.2425L62.4586 53.1201L62.4158 53.195L62.3783 53.2431C62.0291 53.3338 61.6689 53.3753 61.3082 53.3662C61.6398 52.3988 61.7513 51.3697 61.6346 50.3537C61.6234 50.2155 61.6474 50.0768 61.7045 49.9504C61.7616 49.8241 61.8498 49.7143 61.961 49.6314C62.5632 49.1734 63.0083 48.5395 63.2344 47.8175L63.411 46.4209C63.3976 46.2305 63.3635 46.0422 63.3093 45.8591C63.3093 45.7949 63.2665 45.7468 63.2505 45.7039H63.1114C62.9036 45.6917 62.7083 45.6008 62.5652 45.4497C62.4221 45.2987 62.3419 45.0987 62.3409 44.8906C62.3676 42.2581 62.0894 40.6101 61.6078 39.4704C60.7945 38.0952 59.5371 37.3996 58.0389 36.6505C57.7767 36.5382 57.5038 36.4151 57.2363 36.276C52.3511 41.3806 48.3059 34.8152 42.5111 44.7034H42.3131C42.2382 44.8746 42.1579 45.0458 42.083 45.2384L42.0402 45.324C41.9317 45.5121 41.7528 45.6493 41.5431 45.7055C41.3334 45.7617 41.11 45.7322 40.9219 45.6237C40.7899 45.5488 40.715 45.5167 40.6972 45.5274C40.6651 45.5274 40.6276 45.613 40.5795 45.7253C40.4753 45.9864 40.4156 46.2632 40.4029 46.544C40.344 47.6998 40.7186 49.2194 41.473 49.9524C41.5503 50.0257 41.6122 50.1136 41.6554 50.2109C41.6986 50.3082 41.722 50.4132 41.7245 50.5196C41.8101 54.0511 43.3779 55.3995 45.2828 57.0421L46.0854 57.7377C47.9956 59.4393 50.0128 60.3168 51.9712 60.3168C53.9295 60.3168 55.8183 59.4928 57.5948 57.7805H58.8897H59.0288C59.291 57.7805 59.6227 57.7805 59.9973 57.7805L59.5638 58.1925L58.7719 58.9416C56.6316 60.9803 54.3522 61.9648 52.0086 61.9648C49.665 61.9648 47.2358 60.9428 45.0152 58.9684L44.234 58.2835C42.3559 56.6783 40.7614 55.2924 40.2638 52.2853L37.6847 52.494C37.1904 52.567 36.6871 52.4439 36.2823 52.151C35.8774 51.8581 35.6031 51.4186 35.5177 50.9263L34.5171 43.0179C34.4905 42.7674 34.514 42.5141 34.5863 42.2728C34.6585 42.0315 34.778 41.8069 34.9379 41.6122C35.0977 41.4175 35.2947 41.2566 35.5173 41.1387C35.74 41.0209 35.9838 40.9485 36.2347 40.9257L37.0747 40.8562C37.0245 40.7467 36.9954 40.6287 36.9891 40.5084C36.4862 32.295 40.0283 27.1316 44.8172 24.6542C47.265 23.4422 49.9832 22.8799 52.7109 23.0214C55.4386 23.1629 58.084 24.0034 60.3932 25.4622C64.7701 28.282 67.6274 33.4401 66.3432 40.6154C66.3224 40.7151 66.2901 40.8121 66.2469 40.9043L67.5257 41.0488C67.7961 41.0766 68.0582 41.1582 68.2966 41.2888C68.535 41.4194 68.7449 41.5963 68.9139 41.8092C69.0829 42.022 69.2076 42.2666 69.2807 42.5284C69.3538 42.7902 69.3739 43.0639 69.3396 43.3336L68.3497 50.8567C68.265 51.3985 67.972 51.8857 67.5332 52.2146C67.0944 52.5434 66.5445 52.6878 66.0008 52.6171C65.8551 53.1853 65.6764 53.7445 65.4657 54.2919C65.2839 54.7568 65.011 55.1806 64.6631 55.5386C63.5929 56.6408 60.1364 56.6408 58.9111 56.6408H55.7006C55.3317 57.0035 54.8916 57.2859 54.4081 57.4701C53.9246 57.6543 53.4082 57.7363 52.8915 57.711C51.115 57.711 49.6811 56.7692 49.6811 55.6081C49.6811 54.447 51.115 53.5053 52.8915 53.5053C53.3908 53.495 53.8871 53.5838 54.3518 53.7666C54.8166 53.9494 55.2404 54.2225 55.599 54.5701H58.8897C59.8528 54.5701 62.7101 54.5701 63.2023 54.0725C63.351 53.9187 63.4674 53.7368 63.5448 53.5374L63.9086 52.4031L62.7422 52.2693V52.2425ZM39.3328 37.5387C41.152 29.0525 51.0455 23.7606 60.436 29.1488C61.2811 29.6337 62.0508 30.2393 62.7208 30.9466C61.8139 29.43 60.5641 28.1472 59.0716 27.2011C57.133 25.9678 54.9079 25.258 52.6133 25.1411C50.3175 24.9988 48.0248 25.4658 45.9677 26.4948C42.4469 28.2927 39.718 31.9098 39.3328 37.5387ZM42.9605 62.0611L47.8939 75.0045L50.3766 67.9469L49.162 66.6199C48.2471 65.2822 48.5628 63.768 50.2322 63.4951C50.8421 63.4367 51.4556 63.4241 52.0675 63.4576C52.7408 63.414 53.4169 63.4409 54.0847 63.5379C55.6578 63.8804 55.8237 65.4053 55.0371 66.6199L53.8439 67.9469L56.3213 75.0099L60.7892 62.0611C63.9996 64.9612 75.3485 65.5444 78.896 67.5188C83.808 70.2691 83.6742 75.5449 84.7497 80.4676H19C20.0701 75.5931 19.9578 70.2263 24.8537 67.5188C29.2145 65.0843 39.3916 65.2715 42.9605 62.0611Z"/>
</mask>
<path d="M62.7422 52.2425L62.4586 53.1201L62.4158 53.195L62.3783 53.2431C62.0291 53.3338 61.6689 53.3753 61.3082 53.3662C61.6398 52.3988 61.7513 51.3697 61.6346 50.3537C61.6234 50.2155 61.6474 50.0768 61.7045 49.9504C61.7616 49.8241 61.8498 49.7143 61.961 49.6314C62.5632 49.1734 63.0083 48.5395 63.2344 47.8175L63.411 46.4209C63.3976 46.2305 63.3635 46.0422 63.3093 45.8591C63.3093 45.7949 63.2665 45.7468 63.2505 45.7039H63.1114C62.9036 45.6917 62.7083 45.6008 62.5652 45.4497C62.4221 45.2987 62.3419 45.0987 62.3409 44.8906C62.3676 42.2581 62.0894 40.6101 61.6078 39.4704C60.7945 38.0952 59.5371 37.3996 58.0389 36.6505C57.7767 36.5382 57.5038 36.4151 57.2363 36.276C52.3511 41.3806 48.3059 34.8152 42.5111 44.7034H42.3131C42.2382 44.8746 42.1579 45.0458 42.083 45.2384L42.0402 45.324C41.9317 45.5121 41.7528 45.6493 41.5431 45.7055C41.3334 45.7617 41.11 45.7322 40.9219 45.6237C40.7899 45.5488 40.715 45.5167 40.6972 45.5274C40.6651 45.5274 40.6276 45.613 40.5795 45.7253C40.4753 45.9864 40.4156 46.2632 40.4029 46.544C40.344 47.6998 40.7186 49.2194 41.473 49.9524C41.5503 50.0257 41.6122 50.1136 41.6554 50.2109C41.6986 50.3082 41.722 50.4132 41.7245 50.5196C41.8101 54.0511 43.3779 55.3995 45.2828 57.0421L46.0854 57.7377C47.9956 59.4393 50.0128 60.3168 51.9712 60.3168C53.9295 60.3168 55.8183 59.4928 57.5948 57.7805H58.8897H59.0288C59.291 57.7805 59.6227 57.7805 59.9973 57.7805L59.5638 58.1925L58.7719 58.9416C56.6316 60.9803 54.3522 61.9648 52.0086 61.9648C49.665 61.9648 47.2358 60.9428 45.0152 58.9684L44.234 58.2835C42.3559 56.6783 40.7614 55.2924 40.2638 52.2853L37.6847 52.494C37.1904 52.567 36.6871 52.4439 36.2823 52.151C35.8774 51.8581 35.6031 51.4186 35.5177 50.9263L34.5171 43.0179C34.4905 42.7674 34.514 42.5141 34.5863 42.2728C34.6585 42.0315 34.778 41.8069 34.9379 41.6122C35.0977 41.4175 35.2947 41.2566 35.5173 41.1387C35.74 41.0209 35.9838 40.9485 36.2347 40.9257L37.0747 40.8562C37.0245 40.7467 36.9954 40.6287 36.9891 40.5084C36.4862 32.295 40.0283 27.1316 44.8172 24.6542C47.265 23.4422 49.9832 22.8799 52.7109 23.0214C55.4386 23.1629 58.084 24.0034 60.3932 25.4622C64.7701 28.282 67.6274 33.4401 66.3432 40.6154C66.3224 40.7151 66.2901 40.8121 66.2469 40.9043L67.5257 41.0488C67.7961 41.0766 68.0582 41.1582 68.2966 41.2888C68.535 41.4194 68.7449 41.5963 68.9139 41.8092C69.0829 42.022 69.2076 42.2666 69.2807 42.5284C69.3538 42.7902 69.3739 43.0639 69.3396 43.3336L68.3497 50.8567C68.265 51.3985 67.972 51.8857 67.5332 52.2146C67.0944 52.5434 66.5445 52.6878 66.0008 52.6171C65.8551 53.1853 65.6764 53.7445 65.4657 54.2919C65.2839 54.7568 65.011 55.1806 64.6631 55.5386C63.5929 56.6408 60.1364 56.6408 58.9111 56.6408H55.7006C55.3317 57.0035 54.8916 57.2859 54.4081 57.4701C53.9246 57.6543 53.4082 57.7363 52.8915 57.711C51.115 57.711 49.6811 56.7692 49.6811 55.6081C49.6811 54.447 51.115 53.5053 52.8915 53.5053C53.3908 53.495 53.8871 53.5838 54.3518 53.7666C54.8166 53.9494 55.2404 54.2225 55.599 54.5701H58.8897C59.8528 54.5701 62.7101 54.5701 63.2023 54.0725C63.351 53.9187 63.4674 53.7368 63.5448 53.5374L63.9086 52.4031L62.7422 52.2693V52.2425ZM39.3328 37.5387C41.152 29.0525 51.0455 23.7606 60.436 29.1488C61.2811 29.6337 62.0508 30.2393 62.7208 30.9466C61.8139 29.43 60.5641 28.1472 59.0716 27.2011C57.133 25.9678 54.9079 25.258 52.6133 25.1411C50.3175 24.9988 48.0248 25.4658 45.9677 26.4948C42.4469 28.2927 39.718 31.9098 39.3328 37.5387ZM42.9605 62.0611L47.8939 75.0045L50.3766 67.9469L49.162 66.6199C48.2471 65.2822 48.5628 63.768 50.2322 63.4951C50.8421 63.4367 51.4556 63.4241 52.0675 63.4576C52.7408 63.414 53.4169 63.4409 54.0847 63.5379C55.6578 63.8804 55.8237 65.4053 55.0371 66.6199L53.8439 67.9469L56.3213 75.0099L60.7892 62.0611C63.9996 64.9612 75.3485 65.5444 78.896 67.5188C83.808 70.2691 83.6742 75.5449 84.7497 80.4676H19C20.0701 75.5931 19.9578 70.2263 24.8537 67.5188C29.2145 65.0843 39.3916 65.2715 42.9605 62.0611Z" stroke="#1E3565" stroke-width="3.04676" mask="url(#path-3-inside-1_9776_75663)"/>
</g>
<defs>
<clipPath id="clip0_9776_75663">
<rect width="65.7497" height="57.4561" fill="white" transform="translate(19 23)"/>
</clipPath>
</defs>
</svg>
