<svg width="104" height="104" viewBox="0 0 104 104" fill="none" xmlns="http://www.w3.org/2000/svg">
<g opacity="0.2">
<rect width="104" height="104" rx="52" fill="#9BD08C"/>
<rect x="0.5" y="0.5" width="103" height="103" rx="51.5" stroke="white" stroke-opacity="0.17"/>
</g>
<path d="M37.9863 78.5428H32.0315C31.4837 78.5428 31.0391 78.0982 31.0391 77.5503C31.0391 77.0025 31.4837 76.5579 32.0315 76.5579H37.9863C38.5342 76.5579 38.9788 77.0025 38.9788 77.5503C38.9788 78.0982 38.5352 78.5428 37.9863 78.5428Z" fill="#1E3565"/>
<path d="M71.4785 78.5511H65.5237C64.9749 78.5511 64.5312 78.1065 64.5312 77.5586C64.5312 77.0108 64.9749 76.5662 65.5237 76.5662H71.4785C72.0274 76.5662 72.471 77.0108 72.471 77.5586C72.471 78.1065 72.0274 78.5511 71.4785 78.5511Z" fill="#1E3565"/>
<path d="M71.4816 78.5519C70.9626 78.5519 70.5259 78.148 70.4921 77.622C70.3383 75.1994 70.1924 73.013 69.9661 70.8028C69.9106 70.2569 70.3075 69.7696 70.8534 69.714C71.3844 69.6495 71.8856 70.0544 71.9421 70.6003C72.1714 72.8473 72.3193 75.0525 72.4741 77.4959C72.5088 78.0428 72.093 78.5143 71.5461 78.55C71.5243 78.551 71.5035 78.5519 71.4816 78.5519Z" fill="#1E3565"/>
<path d="M32.0325 78.5436C32.0117 78.5436 31.9909 78.5436 31.969 78.5416C31.4222 78.5069 31.0063 78.0355 31.0411 77.4886C31.188 75.1544 31.3389 72.8707 31.5731 70.5999C31.6286 70.0551 32.109 69.6551 32.6618 69.7146C33.2067 69.7712 33.6037 70.2585 33.5471 70.8034C33.3178 73.0384 33.167 75.3003 33.0221 77.6137C32.9893 78.1397 32.5526 78.5436 32.0325 78.5436Z" fill="#1E3565"/>
<path d="M43.1111 40.0304C42.7062 40.0304 42.3261 39.7812 42.1792 39.3793L38.8812 30.3806C38.6927 29.8655 38.9566 29.2958 39.4717 29.1072C39.9868 28.9197 40.5565 29.1837 40.7451 29.6978L44.043 38.6965C44.2316 39.2116 43.9676 39.7812 43.4525 39.9698C43.3404 40.0105 43.2242 40.0304 43.1111 40.0304Z" fill="#1E3565"/>
<path d="M43.1102 40.0311C42.7162 40.0311 42.3431 39.7949 42.1883 39.4058C41.9848 38.8967 42.2329 38.3191 42.742 38.1167C48.5579 35.7953 54.9633 35.7962 60.7762 38.1167C61.2853 38.3201 61.5334 38.8977 61.33 39.4058C61.1265 39.916 60.5489 40.1611 60.0398 39.9596C54.7013 37.8288 48.8189 37.8278 43.4775 39.9596C43.3564 40.0083 43.2323 40.0311 43.1102 40.0311Z" fill="#1E3565"/>
<path d="M60.4069 40.0311C60.2938 40.0311 60.1786 40.0112 60.0655 39.9696C59.5504 39.781 59.2864 39.2103 59.475 38.6962L62.7749 29.6975C62.9635 29.1824 63.5341 28.9204 64.0472 29.107C64.5624 29.2956 64.8264 29.8662 64.6378 30.3803L61.3388 39.379C61.191 39.7819 60.8108 40.0311 60.4069 40.0311Z" fill="#1E3565"/>
<path d="M65.3182 53.0154C64.8428 53.0154 64.424 52.674 64.3416 52.1897C64.0846 50.6861 63.9486 49.1468 63.8166 47.658C63.5893 45.0915 63.375 42.6669 62.5988 40.3535C62.4242 39.8344 62.7041 39.2717 63.2251 39.097C63.7422 38.9243 64.3069 39.2032 64.4816 39.7223C65.3311 42.2581 65.5673 44.9139 65.7936 47.4824C65.9226 48.9314 66.0556 50.43 66.2978 51.8552C66.391 52.3951 66.0279 52.9082 65.4869 53.0005C65.4294 53.0115 65.3738 53.0154 65.3182 53.0154Z" fill="#1E3565"/>
<path d="M38.196 53.0154C38.1404 53.0154 38.0848 53.0115 38.0292 53.0015C37.4893 52.9092 37.1251 52.3972 37.2174 51.8573C37.4596 50.4311 37.5935 48.9344 37.7226 47.4864C37.9518 44.9199 38.189 42.265 39.0326 39.7263C39.2053 39.2063 39.767 38.9234 40.2871 39.0971C40.8071 39.2708 41.089 39.8315 40.9163 40.3515C40.1462 42.6719 39.9288 45.0965 39.6996 47.6631C39.5666 49.1498 39.4296 50.6861 39.1735 52.1897C39.0912 52.6731 38.6713 53.0154 38.196 53.0154Z" fill="#1E3565"/>
<path d="M44.0458 46.8946C43.5446 46.8946 43.1139 46.5155 43.0602 46.0053C43.0027 45.4605 43.3987 44.9722 43.9435 44.9146C48.7431 44.4095 53.4336 42.7749 57.5056 40.1875C57.9681 39.8947 58.5815 40.0307 58.8753 40.4932C59.17 40.9557 59.032 41.569 58.5696 41.8628C54.2404 44.6129 49.2543 46.3507 44.151 46.8877C44.1162 46.8926 44.0805 46.8946 44.0458 46.8946Z" fill="#1E3565"/>
<path d="M41.6179 47.0181C40.6711 47.0181 39.7243 46.9635 38.7844 46.8553C38.2406 46.7928 37.8495 46.3005 37.913 45.7557C37.9756 45.2108 38.4698 44.8128 39.0127 44.8843C40.6473 45.0719 42.3067 45.0818 43.9433 44.9151C44.4881 44.8545 44.9764 45.2555 45.032 45.8014C45.0886 46.3462 44.6916 46.8345 44.1457 46.8901C43.3061 46.9754 42.4615 47.0181 41.6179 47.0181Z" fill="#1E3565"/>
<path d="M43.8206 48.7772C43.2728 48.7772 42.8281 48.3325 42.8281 47.7847C42.8281 47.082 42.9115 46.3784 43.0762 45.6965L45.0116 46.1392L45.0056 46.165C44.8776 46.691 44.8131 47.2368 44.8131 47.7847C44.8131 48.3325 44.3684 48.7772 43.8206 48.7772Z" fill="#1E3565"/>
<path d="M59.7013 48.7768C59.1535 48.7768 58.7098 48.3332 58.7089 47.7853C58.7078 46.9854 58.6354 46.1795 58.4925 45.3915C58.3952 44.8526 58.7545 44.3365 59.2934 44.2382C59.8383 44.135 60.3484 44.4993 60.4466 45.0382C60.6094 45.9423 60.6928 46.8653 60.6938 47.7833C60.6947 48.3312 60.2511 48.7758 59.7013 48.7768Z" fill="#1E3565"/>
<path d="M36.2347 59.9913C36.1166 59.9913 35.9965 59.9705 35.8804 59.9259C35.3683 59.7304 35.1123 59.1567 35.3078 58.6446C36.1484 56.4453 36.7915 54.1567 37.2183 51.8422C37.3175 51.3033 37.8287 50.947 38.3745 51.0462C38.9134 51.1455 39.2697 51.6636 39.1705 52.2025C38.7209 54.635 38.046 57.0408 37.1617 59.3522C37.0109 59.7482 36.6347 59.9913 36.2347 59.9913Z" fill="#1E3565"/>
<path d="M67.2807 59.9907C66.8817 59.9907 66.5056 59.7475 66.3537 59.3526C65.4684 57.0401 64.7935 54.6343 64.345 52.2018C64.2447 51.6629 64.602 51.1458 65.1409 51.0456C65.6888 50.9483 66.1979 51.3036 66.2971 51.8416C66.7239 54.155 67.367 56.4436 68.2076 58.6429C68.4032 59.155 68.1471 59.7287 67.636 59.9252C67.5179 59.9698 67.3988 59.9907 67.2807 59.9907Z" fill="#1E3565"/>
<path d="M53.0547 72.4286C52.9098 72.4286 52.7629 72.3969 52.6239 72.3304C52.1297 72.0922 51.9233 71.4987 52.1615 71.0054L57.2201 60.521C57.4583 60.0277 58.0498 59.8203 58.545 60.0585C59.0383 60.2967 59.2457 60.8902 59.0075 61.3834L53.9489 71.8679C53.7772 72.2222 53.4229 72.4286 53.0547 72.4286Z" fill="#1E3565"/>
<path d="M50.4647 72.4295C50.0955 72.4295 49.7412 72.223 49.5705 71.8687L44.5128 61.3843C44.2746 60.89 44.4821 60.2975 44.9754 60.0594C45.4686 59.8231 46.0621 60.0286 46.3003 60.5218L51.3579 71.0063C51.5961 71.5005 51.3887 72.093 50.8954 72.3312C50.7565 72.3977 50.6096 72.4295 50.4647 72.4295Z" fill="#1E3565"/>
<path d="M64.9317 64.7903C64.8544 64.7903 64.7759 64.7814 64.6975 64.7625C62.8922 64.3258 61.0453 63.9795 59.2122 63.7343C58.6693 63.6619 58.2872 63.1617 58.3606 62.6188C58.4341 62.0759 58.9293 61.6908 59.4762 61.7673C61.3777 62.0213 63.2922 62.3806 65.165 62.8331C65.6969 62.9622 66.0245 63.4981 65.8954 64.031C65.7853 64.4856 65.3793 64.7903 64.9317 64.7903Z" fill="#1E3565"/>
<path d="M38.5855 64.7907C38.1379 64.7907 37.732 64.486 37.6218 64.0315C37.4928 63.4986 37.8203 62.9616 38.3533 62.8326C40.2251 62.38 42.1396 62.0217 44.0421 61.7667C44.586 61.7012 45.0842 62.0753 45.1576 62.6182C45.2301 63.1611 44.849 63.6613 44.3061 63.7338C42.4711 63.9799 40.625 64.3253 38.8207 64.762C38.7413 64.7828 38.6629 64.7907 38.5855 64.7907Z" fill="#1E3565"/>
<path d="M62.2495 67.9971C61.9328 67.9971 61.6212 67.8462 61.4296 67.5644L57.2911 61.5113C56.9805 61.0588 57.0975 60.4414 57.5501 60.1318C58.0047 59.8241 58.621 59.9403 58.9296 60.3908L63.0682 66.4439C63.3789 66.8964 63.2618 67.5138 62.8092 67.8234C62.6375 67.9405 62.443 67.9971 62.2495 67.9971Z" fill="#1E3565"/>
<path d="M59.1952 68.7634C58.7515 68.7634 58.3466 68.4627 58.2334 68.0121C58.0995 67.4802 58.422 66.9413 58.9549 66.8083L62.0058 66.0431C62.5387 65.9111 63.0767 66.2317 63.2097 66.7646C63.3436 67.2966 63.0211 67.8355 62.4881 67.9685L59.4373 68.7336C59.3559 68.7535 59.2755 68.7634 59.1952 68.7634Z" fill="#1E3565"/>
<path d="M44.3258 68.7623C44.2453 68.7623 44.164 68.7524 44.0836 68.7325L41.0327 67.9673C40.5008 67.8344 40.1782 67.2954 40.3112 66.7635C40.4442 66.2315 40.9831 65.908 41.5151 66.042L44.5659 66.8072C45.0979 66.9402 45.4204 67.4791 45.2874 68.011C45.1743 68.4616 44.7704 68.7623 44.3258 68.7623Z" fill="#1E3565"/>
<path d="M41.2725 67.9981C41.08 67.9981 40.8845 67.9415 40.7137 67.8254C40.2612 67.5157 40.1451 66.8984 40.4547 66.4459L44.5933 60.3928C44.9029 59.9412 45.5203 59.8261 45.9728 60.1338C46.4254 60.4434 46.5415 61.0607 46.2319 61.5133L42.0933 67.5663C41.9007 67.8463 41.5901 67.9981 41.2725 67.9981Z" fill="#1E3565"/>
<path d="M32.572 71.6938C32.5382 71.6938 32.5045 71.6928 32.4687 71.6889C31.9239 71.6333 31.5269 71.146 31.5835 70.6001C31.9696 66.8456 34.6939 63.7243 38.363 62.8341C38.893 62.702 39.4319 63.0315 39.5619 63.5645C39.691 64.0974 39.3644 64.6344 38.8315 64.7634C35.9781 65.4562 33.8592 67.8837 33.5585 70.8035C33.5059 71.3137 33.0752 71.6938 32.572 71.6938Z" fill="#1E3565"/>
<path d="M70.9556 71.6942C70.4524 71.6942 70.0227 71.314 69.9691 70.8039C69.6684 67.8831 67.5494 65.4555 64.6961 64.7637C64.1632 64.6347 63.8366 64.0978 63.9657 63.5648C64.0947 63.0319 64.6336 62.7014 65.1636 62.8344C68.8317 63.7236 71.556 66.8449 71.9441 70.6004C72.0006 71.1453 71.6037 71.6336 71.0578 71.6892C71.0231 71.6922 70.9894 71.6942 70.9556 71.6942Z" fill="#1E3565"/>
<path d="M36.235 59.9923C35.8281 59.9923 35.447 59.7403 35.3011 59.3354C35.1155 58.8193 35.3834 58.2505 35.8985 58.065C37.948 57.3275 40.0689 56.7281 42.2017 56.2845C42.7376 56.1703 43.2637 56.5167 43.3758 57.0537C43.4879 57.5906 43.1436 58.1156 42.6066 58.2277C40.5631 58.6535 38.5335 59.2271 36.5705 59.9328C36.4603 59.9735 36.3471 59.9923 36.235 59.9923Z" fill="#1E3565"/>
<path d="M67.2873 59.9923C67.1761 59.9923 67.062 59.9735 66.9508 59.9328C64.9867 59.2262 62.9562 58.6525 60.9147 58.2277C60.3787 58.1156 60.0333 57.5906 60.1465 57.0537C60.2567 56.5167 60.7747 56.1703 61.3206 56.2845C63.4514 56.7281 65.5723 57.3275 67.6248 58.065C68.1408 58.2505 68.4078 58.8193 68.2232 59.3343C68.0753 59.7403 67.6942 59.9923 67.2873 59.9923Z" fill="#1E3565"/>
<path d="M51.7049 59.9305C50.1815 59.9305 48.66 59.4283 47.3291 58.3972C44.5402 56.2365 42.8997 52.3739 42.8282 47.8006C42.8203 47.2527 43.257 46.8011 43.8048 46.7922C44.3725 46.7942 44.8043 47.221 44.8132 47.7688C44.8419 49.6456 45.2648 54.2863 48.5439 56.8271C50.9308 58.677 54.061 58.2017 56.1571 55.6719C58.2026 53.2016 58.673 50.0108 58.7068 47.7688C58.7157 47.2259 59.1583 46.7922 59.6992 46.7922C59.7042 46.7922 59.7092 46.7922 59.7151 46.7922C60.2629 46.8011 60.7006 47.2517 60.6917 47.8006C60.652 50.3611 60.0982 54.0243 57.6865 56.9392C56.0569 58.9073 53.8794 59.9305 51.7049 59.9305Z" fill="#1E3565"/>
<path d="M39.8134 31.0305C39.4977 31.0305 39.1881 30.8806 38.9956 30.6018C38.685 30.1502 38.7981 29.5319 39.2487 29.2212C42.897 26.7053 46.593 25.2921 50.2323 25.0191C54.1804 24.7214 58.2594 25.6811 62.0278 27.7881C62.8317 28.2377 63.577 28.7429 64.2708 29.2212C64.7223 29.5319 64.8355 30.1502 64.5248 30.6018C64.2132 31.0533 63.5939 31.1655 63.1443 30.8548C62.4883 30.4023 61.7866 29.9269 61.0582 29.519C57.6331 27.6025 53.9392 26.7341 50.3802 26.9971C47.0961 27.2442 43.7296 28.5414 40.3751 30.8548C40.2034 30.9739 40.0079 31.0305 39.8134 31.0305Z" fill="#1E3565"/>
<path d="M52.7511 30.4163H54.735V32.4013H52.7511V34.3862H50.7662V32.4013H48.7812V30.4163H50.7662V28.4314H52.7511V30.4163Z" fill="#1E3565"/>
</svg>
