<svg width="67" height="59" viewBox="0 0 67 59" fill="none" xmlns="http://www.w3.org/2000/svg">
<g clip-path="url(#clip0_7664_59868)">
<mask id="path-1-inside-1_7664_59868" fill="white">
<path d="M44.0156 30.0758L43.732 30.9533L43.6892 31.0282L43.6518 31.0764C43.3025 31.1671 42.9423 31.2085 42.5816 31.1994C42.9133 30.2321 43.0248 29.2029 42.908 28.187C42.8968 28.0488 42.9209 27.91 42.978 27.7837C43.035 27.6573 43.1233 27.5475 43.2344 27.4646C43.8367 27.0066 44.2817 26.3728 44.5079 25.6507L44.6845 24.2542C44.671 24.0638 44.6369 23.8754 44.5828 23.6924C44.5828 23.6282 44.54 23.58 44.5239 23.5372H44.3848C44.1771 23.525 43.9818 23.4341 43.8386 23.283C43.6955 23.1319 43.6153 22.932 43.6143 22.7239C43.6411 20.0913 43.3628 18.4433 42.8813 17.3036C42.0679 15.9285 40.8105 15.2329 39.3123 14.4838C39.0501 14.3714 38.7772 14.2483 38.5097 14.1092C33.6245 19.2138 29.5794 12.6485 23.7845 22.5366H23.5865C23.5116 22.7078 23.4314 22.8791 23.3565 23.0717L23.3137 23.1573C23.2051 23.3453 23.0263 23.4825 22.8166 23.5387C22.6068 23.5949 22.3834 23.5655 22.1954 23.4569C22.0634 23.382 21.9885 23.3499 21.9706 23.3606C21.9385 23.3606 21.9011 23.4462 21.8529 23.5586C21.7487 23.8197 21.689 24.0964 21.6763 24.3773C21.6175 25.533 21.992 27.0526 22.7465 27.7857C22.8237 27.859 22.8857 27.9468 22.9288 28.0442C22.972 28.1415 22.9955 28.2464 22.998 28.3528C23.0836 31.8843 24.6513 33.2327 26.5562 34.8754L27.3588 35.571C29.269 37.2725 31.2862 38.15 33.2446 38.15C35.203 38.15 37.0918 37.326 38.8682 35.6138H40.1631H40.3022C40.5644 35.6138 40.8961 35.6138 41.2707 35.6138L40.8373 36.0258L40.0454 36.7749C37.9051 38.8135 35.6257 39.798 33.2821 39.798C30.9384 39.798 28.5092 38.7761 26.2887 36.8016L25.5075 36.1168C23.6293 34.5115 22.0348 33.1257 21.5372 30.1186L18.9582 30.3273C18.4638 30.4002 17.9606 30.2771 17.5557 29.9842C17.1509 29.6913 16.8765 29.2518 16.7911 28.7595L15.7905 20.8511C15.764 20.6006 15.7875 20.3474 15.8597 20.106C15.932 19.8647 16.0515 19.6402 16.2113 19.4455C16.3712 19.2508 16.5681 19.0898 16.7908 18.972C17.0134 18.8541 17.2572 18.7817 17.5081 18.759L18.3482 18.6894C18.2979 18.58 18.2689 18.4619 18.2626 18.3416C17.7596 10.1283 21.3018 4.96483 26.0907 2.48744C28.5384 1.27542 31.2566 0.713151 33.9843 0.854642C36.712 0.996133 39.3575 1.83663 41.6666 3.2954C46.0435 6.11524 48.9008 11.2733 47.6166 18.4487C47.5959 18.5484 47.5636 18.6454 47.5203 18.7376L48.7992 18.8821C49.0695 18.9099 49.3316 18.9915 49.57 19.122C49.8084 19.2526 50.0183 19.4295 50.1873 19.6424C50.3563 19.8553 50.481 20.0998 50.5542 20.3616C50.6273 20.6234 50.6473 20.8972 50.6131 21.1668L49.6232 28.6899C49.5385 29.2317 49.2455 29.719 48.8067 30.0478C48.3679 30.3767 47.818 30.5211 47.2742 30.4503C47.1285 31.0185 46.9498 31.5777 46.7391 32.1251C46.5573 32.59 46.2845 33.0139 45.9365 33.3718C44.8664 34.4741 41.4098 34.4741 40.1845 34.4741H36.9741C36.6051 34.8368 36.165 35.1191 35.6816 35.3033C35.1981 35.4875 34.6817 35.5695 34.1649 35.5442C32.3885 35.5442 30.9545 34.6025 30.9545 33.4414C30.9545 32.2803 32.3885 31.3386 34.1649 31.3386C34.6642 31.3283 35.1606 31.4171 35.6253 31.5999C36.09 31.7826 36.5139 32.0557 36.8724 32.4033H40.1631C41.1262 32.4033 43.9835 32.4033 44.4758 31.9057C44.6244 31.752 44.7409 31.57 44.8182 31.3707L45.1821 30.2363L44.0156 30.1025V30.0758ZM20.6062 15.372C22.4254 6.88574 32.3189 1.59387 41.7094 6.98205C42.5545 7.46691 43.3242 8.07258 43.9942 8.7799C43.0874 7.26326 41.8375 5.98041 40.345 5.03439C38.4065 3.80104 36.1813 3.09128 33.8867 2.97436C31.5909 2.83206 29.2983 3.29908 27.2411 4.32809C23.7203 6.12594 20.9914 9.74303 20.6062 15.372ZM24.234 39.8944L29.1673 52.8378L31.6501 45.7802L30.4355 44.4532C29.5205 43.1155 29.8362 41.6012 31.5056 41.3284C32.1156 41.2699 32.7291 41.2574 33.3409 41.2909C34.0143 41.2473 34.6904 41.2742 35.3581 41.3712C36.9313 41.7136 37.0971 43.2386 36.3106 44.4532L35.1174 45.7802L37.5947 52.8431L42.0626 39.8944C45.273 42.7945 56.6219 43.3777 60.1694 45.3521C65.0814 48.1024 64.9476 53.3782 66.0231 58.3009H0.273438C1.34358 53.4263 1.23122 48.0596 6.12713 45.3521C10.488 42.9175 20.665 43.1048 24.234 39.8944Z"/>
</mask>
<path d="M44.0156 30.0758L43.732 30.9533L43.6892 31.0282L43.6518 31.0764C43.3025 31.1671 42.9423 31.2085 42.5816 31.1994C42.9133 30.2321 43.0248 29.2029 42.908 28.187C42.8968 28.0488 42.9209 27.91 42.978 27.7837C43.035 27.6573 43.1233 27.5475 43.2344 27.4646C43.8367 27.0066 44.2817 26.3728 44.5079 25.6507L44.6845 24.2542C44.671 24.0638 44.6369 23.8754 44.5828 23.6924C44.5828 23.6282 44.54 23.58 44.5239 23.5372H44.3848C44.1771 23.525 43.9818 23.4341 43.8386 23.283C43.6955 23.1319 43.6153 22.932 43.6143 22.7239C43.6411 20.0913 43.3628 18.4433 42.8813 17.3036C42.0679 15.9285 40.8105 15.2329 39.3123 14.4838C39.0501 14.3714 38.7772 14.2483 38.5097 14.1092C33.6245 19.2138 29.5794 12.6485 23.7845 22.5366H23.5865C23.5116 22.7078 23.4314 22.8791 23.3565 23.0717L23.3137 23.1573C23.2051 23.3453 23.0263 23.4825 22.8166 23.5387C22.6068 23.5949 22.3834 23.5655 22.1954 23.4569C22.0634 23.382 21.9885 23.3499 21.9706 23.3606C21.9385 23.3606 21.9011 23.4462 21.8529 23.5586C21.7487 23.8197 21.689 24.0964 21.6763 24.3773C21.6175 25.533 21.992 27.0526 22.7465 27.7857C22.8237 27.859 22.8857 27.9468 22.9288 28.0442C22.972 28.1415 22.9955 28.2464 22.998 28.3528C23.0836 31.8843 24.6513 33.2327 26.5562 34.8754L27.3588 35.571C29.269 37.2725 31.2862 38.15 33.2446 38.15C35.203 38.15 37.0918 37.326 38.8682 35.6138H40.1631H40.3022C40.5644 35.6138 40.8961 35.6138 41.2707 35.6138L40.8373 36.0258L40.0454 36.7749C37.9051 38.8135 35.6257 39.798 33.2821 39.798C30.9384 39.798 28.5092 38.7761 26.2887 36.8016L25.5075 36.1168C23.6293 34.5115 22.0348 33.1257 21.5372 30.1186L18.9582 30.3273C18.4638 30.4002 17.9606 30.2771 17.5557 29.9842C17.1509 29.6913 16.8765 29.2518 16.7911 28.7595L15.7905 20.8511C15.764 20.6006 15.7875 20.3474 15.8597 20.106C15.932 19.8647 16.0515 19.6402 16.2113 19.4455C16.3712 19.2508 16.5681 19.0898 16.7908 18.972C17.0134 18.8541 17.2572 18.7817 17.5081 18.759L18.3482 18.6894C18.2979 18.58 18.2689 18.4619 18.2626 18.3416C17.7596 10.1283 21.3018 4.96483 26.0907 2.48744C28.5384 1.27542 31.2566 0.713151 33.9843 0.854642C36.712 0.996133 39.3575 1.83663 41.6666 3.2954C46.0435 6.11524 48.9008 11.2733 47.6166 18.4487C47.5959 18.5484 47.5636 18.6454 47.5203 18.7376L48.7992 18.8821C49.0695 18.9099 49.3316 18.9915 49.57 19.122C49.8084 19.2526 50.0183 19.4295 50.1873 19.6424C50.3563 19.8553 50.481 20.0998 50.5542 20.3616C50.6273 20.6234 50.6473 20.8972 50.6131 21.1668L49.6232 28.6899C49.5385 29.2317 49.2455 29.719 48.8067 30.0478C48.3679 30.3767 47.818 30.5211 47.2742 30.4503C47.1285 31.0185 46.9498 31.5777 46.7391 32.1251C46.5573 32.59 46.2845 33.0139 45.9365 33.3718C44.8664 34.4741 41.4098 34.4741 40.1845 34.4741H36.9741C36.6051 34.8368 36.165 35.1191 35.6816 35.3033C35.1981 35.4875 34.6817 35.5695 34.1649 35.5442C32.3885 35.5442 30.9545 34.6025 30.9545 33.4414C30.9545 32.2803 32.3885 31.3386 34.1649 31.3386C34.6642 31.3283 35.1606 31.4171 35.6253 31.5999C36.09 31.7826 36.5139 32.0557 36.8724 32.4033H40.1631C41.1262 32.4033 43.9835 32.4033 44.4758 31.9057C44.6244 31.752 44.7409 31.57 44.8182 31.3707L45.1821 30.2363L44.0156 30.1025V30.0758ZM20.6062 15.372C22.4254 6.88574 32.3189 1.59387 41.7094 6.98205C42.5545 7.46691 43.3242 8.07258 43.9942 8.7799C43.0874 7.26326 41.8375 5.98041 40.345 5.03439C38.4065 3.80104 36.1813 3.09128 33.8867 2.97436C31.5909 2.83206 29.2983 3.29908 27.2411 4.32809C23.7203 6.12594 20.9914 9.74303 20.6062 15.372ZM24.234 39.8944L29.1673 52.8378L31.6501 45.7802L30.4355 44.4532C29.5205 43.1155 29.8362 41.6012 31.5056 41.3284C32.1156 41.2699 32.7291 41.2574 33.3409 41.2909C34.0143 41.2473 34.6904 41.2742 35.3581 41.3712C36.9313 41.7136 37.0971 43.2386 36.3106 44.4532L35.1174 45.7802L37.5947 52.8431L42.0626 39.8944C45.273 42.7945 56.6219 43.3777 60.1694 45.3521C65.0814 48.1024 64.9476 53.3782 66.0231 58.3009H0.273438C1.34358 53.4263 1.23122 48.0596 6.12713 45.3521C10.488 42.9175 20.665 43.1048 24.234 39.8944Z" stroke="#9ACF8C" stroke-width="3.04676" mask="url(#path-1-inside-1_7664_59868)"/>
</g>
<defs>
<clipPath id="clip0_7664_59868">
<rect width="65.7497" height="57.4561" fill="white" transform="translate(0.273438 0.833252)"/>
</clipPath>
</defs>
</svg>
