<svg width="80" height="79" viewBox="0 0 80 79" fill="none" xmlns="http://www.w3.org/2000/svg">
<circle cx="40.0364" cy="39.427" r="39.427" fill="#F1F1F1"/>
<path d="M27.8991 23.51C27.5171 23.51 27.207 23.2007 27.207 22.818C27.207 21.6733 28.1385 20.7418 29.2832 20.7418C29.6652 20.7418 29.9752 21.0512 29.9752 21.4339C29.9752 21.8166 29.6652 22.1259 29.2832 22.1259C28.9019 22.1259 28.5911 22.436 28.5911 22.818C28.5911 23.2007 28.2818 23.51 27.8991 23.51Z" fill="#1E3565"/>
<path d="M50.0449 27.6623C48.9002 27.6623 47.9688 26.7308 47.9688 25.5862C47.9688 25.2034 48.2788 24.8941 48.6608 24.8941C49.0428 24.8941 49.3528 25.2034 49.3528 25.5862C49.3528 25.9682 49.6636 26.2782 50.0449 26.2782C50.4269 26.2782 50.7369 26.5875 50.7369 26.9702C50.7369 27.353 50.4276 27.6623 50.0449 27.6623Z" fill="#1E3565"/>
<path d="M54.1998 27.6622H50.0475C49.6655 27.6622 49.3555 27.3529 49.3555 26.9702C49.3555 26.5875 49.6655 26.2781 50.0475 26.2781H54.1998C54.5818 26.2781 54.8918 26.5875 54.8918 26.9702C54.8918 27.3529 54.5825 27.6622 54.1998 27.6622Z" fill="#1E3565"/>
<path d="M48.6608 26.2782C48.2788 26.2782 47.9688 25.9689 47.9688 25.5861V21.4339C47.9688 21.0512 48.2788 20.7418 48.6608 20.7418C49.0428 20.7418 49.3528 21.0512 49.3528 21.4339V25.5861C49.3528 25.9689 49.0435 26.2782 48.6608 26.2782Z" fill="#1E3565"/>
<path d="M54.1973 27.6623C54.0202 27.6623 53.843 27.5945 53.708 27.4595L48.1717 21.9231C47.9011 21.6525 47.9011 21.2152 48.1717 20.9446C48.4423 20.674 48.8797 20.674 49.1502 20.9446L54.6866 26.4809C54.9572 26.7515 54.9572 27.1889 54.6866 27.4595C54.5517 27.5945 54.3745 27.6623 54.1973 27.6623Z" fill="#1E3565"/>
<path d="M48.6631 22.1259H29.2858C28.9038 22.1259 28.5938 21.8166 28.5938 21.4339C28.5938 21.0512 28.9038 20.7418 29.2858 20.7418H48.6631C49.0451 20.7418 49.3551 21.0512 49.3551 21.4339C49.3551 21.8166 49.0458 22.1259 48.6631 22.1259Z" fill="#1E3565"/>
<path d="M52.8131 55.3442C52.4311 55.3442 52.1211 55.0348 52.1211 54.6521C52.1211 54.2694 52.4311 53.9601 52.8131 53.9601C53.1945 53.9601 53.5052 53.65 53.5052 53.268C53.5052 52.8853 53.8152 52.576 54.1972 52.576C54.5792 52.576 54.8893 52.8853 54.8893 53.268C54.8893 54.4127 53.9585 55.3442 52.8131 55.3442Z" fill="#1E3565"/>
<path d="M54.1999 53.96C53.8178 53.96 53.5078 53.6507 53.5078 53.2679V26.9702C53.5078 26.5875 53.8178 26.2781 54.1999 26.2781C54.5819 26.2781 54.8919 26.5875 54.8919 26.9702V53.2679C54.8919 53.6507 54.5826 53.96 54.1999 53.96Z" fill="#1E3565"/>
<path d="M28.9344 46.895C28.852 46.895 28.7683 46.8804 28.6867 46.8493C28.3295 46.7129 28.1517 46.3129 28.288 45.9558C28.6078 45.1198 28.7579 44.196 28.9164 43.2181C29.1704 41.6513 29.4334 40.0319 30.4417 38.6741C30.6694 38.3682 31.1026 38.3032 31.4098 38.5309C31.7164 38.7585 31.7808 39.1918 31.5531 39.4984C30.7455 40.587 30.5206 41.9724 30.2832 43.4389C30.1206 44.443 29.9517 45.4818 29.5808 46.4506C29.4749 46.7261 29.2126 46.895 28.9344 46.895Z" fill="#1E3565"/>
<path d="M21.7693 47.4728C21.4343 47.4728 21.1402 47.2292 21.0869 46.8881C20.7332 44.6355 21.2675 42.3725 22.5907 40.5157C22.8122 40.2036 23.2433 40.1316 23.5561 40.3538C23.8675 40.5752 23.9395 41.0078 23.7181 41.3192C22.606 42.8797 22.1575 44.7815 22.4544 46.6735C22.5139 47.0514 22.2557 47.4057 21.8779 47.4653C21.8412 47.4701 21.8053 47.4728 21.7693 47.4728Z" fill="#1E3565"/>
<path d="M23.2189 56.7089C22.8839 56.7089 22.5898 56.4653 22.5365 56.1241L21.0867 46.888C21.0272 46.5102 21.2853 46.1559 21.6631 46.0963C22.0417 46.0396 22.3953 46.295 22.4541 46.6728L23.904 55.9089C23.9635 56.2867 23.7054 56.641 23.3275 56.7006C23.2908 56.7061 23.2549 56.7089 23.2189 56.7089Z" fill="#1E3565"/>
<path d="M24.8603 58.1123C23.6935 58.1123 22.7163 57.2763 22.5357 56.1241C22.4769 55.7462 22.7344 55.3919 23.1122 55.3323C23.4852 55.2756 23.8444 55.531 23.9032 55.9088C23.978 56.3836 24.3807 56.7282 24.8603 56.7282C25.2423 56.7282 25.5524 57.0376 25.5524 57.4203C25.5524 57.803 25.243 58.1123 24.8603 58.1123Z" fill="#1E3565"/>
<path d="M29.7473 58.1124H24.86C24.478 58.1124 24.168 57.803 24.168 57.4203C24.168 57.0376 24.478 56.7283 24.86 56.7283H29.7473C30.1293 56.7283 30.4393 57.0376 30.4393 57.4203C30.4393 57.803 30.1293 58.1124 29.7473 58.1124Z" fill="#1E3565"/>
<path d="M31.3172 56.9871C31.2431 56.9871 31.1684 56.9753 31.0943 56.9497C30.7324 56.8265 30.5393 56.4334 30.6618 56.0715C31.0577 54.9096 31.6404 53.9642 32.257 52.9635L32.2944 52.9033C32.6798 52.2791 33.0466 51.6009 33.1304 50.8728C33.1739 50.4929 33.5193 50.2196 33.8964 50.2646C34.2764 50.3081 34.549 50.6514 34.5055 51.0306C34.3906 52.0299 33.9186 52.9047 33.4722 53.6292L33.4349 53.6895C32.8597 54.6223 32.3172 55.5033 31.9718 56.5172C31.8743 56.8057 31.6051 56.9871 31.3172 56.9871Z" fill="#1E3565"/>
<path d="M29.7467 58.1123C29.3647 58.1123 29.0547 57.803 29.0547 57.4203C29.0547 57.0376 29.3647 56.7282 29.7467 56.7282C30.162 56.7282 30.5301 56.4646 30.6637 56.0722C30.7869 55.7109 31.1814 55.5144 31.5419 55.6403C31.9038 55.7635 32.0969 56.1566 31.9744 56.5186C31.6492 57.4715 30.7544 58.1123 29.7467 58.1123Z" fill="#1E3565"/>
<path d="M23.1523 41.6091C23.0132 41.6091 22.8734 41.5668 22.7516 41.4803C22.4402 41.2588 22.3675 40.8263 22.5896 40.5149L27.3378 33.8498C27.5599 33.5377 27.9911 33.4657 28.3032 33.6879C28.6153 33.91 28.6873 34.3418 28.4651 34.6533L23.717 41.3184C23.5814 41.5087 23.3689 41.6091 23.1523 41.6091Z" fill="#1E3565"/>
<path d="M27.8989 47.778C27.5812 47.778 27.2947 47.558 27.2234 47.2348C27.1411 46.8618 27.3771 46.4922 27.7508 46.4106C27.9958 46.3566 28.1958 46.1857 28.2864 45.9524C28.4241 45.596 28.8262 45.4175 29.1819 45.5587C29.5383 45.6964 29.7148 46.0977 29.5764 46.4541C29.3176 47.1199 28.7466 47.6092 28.0483 47.7628C27.9985 47.7732 27.9487 47.778 27.8989 47.778Z" fill="#1E3565"/>
<path d="M42.4341 35.4616H39.6659C39.2839 35.4616 38.9739 35.1523 38.9739 34.7696V32.2214H36.4265C36.0445 32.2214 35.7344 31.9121 35.7344 31.5294V28.7612C35.7344 28.3785 36.0445 28.0692 36.4265 28.0692H38.9746V25.5218C38.9746 25.139 39.2846 24.8297 39.6666 24.8297H42.4348C42.8168 24.8297 43.1268 25.139 43.1268 25.5218V28.0692H45.6749C46.057 28.0692 46.367 28.3785 46.367 28.7612V31.5294C46.367 31.9121 46.057 32.2214 45.6749 32.2214H43.1268V34.7696C43.1261 35.1516 42.8168 35.4616 42.4341 35.4616ZM40.358 34.0775H41.742V31.5294C41.742 31.1467 42.0521 30.8373 42.4341 30.8373H44.9822V29.4532H42.4341C42.0521 29.4532 41.742 29.1439 41.742 28.7612V26.2138H40.358V28.7612C40.358 29.1439 40.0479 29.4532 39.6659 29.4532H37.1185V30.8373H39.6666C40.0486 30.8373 40.3587 31.1467 40.3587 31.5294V34.0775H40.358Z" fill="#1E3565"/>
<path d="M33.8208 51.6445C33.7952 51.6445 33.7689 51.643 33.7433 51.6403C33.3634 51.5974 33.09 51.2555 33.1322 50.8763C33.1627 50.6022 33.1973 50.3289 33.2319 50.0541C33.3101 49.434 33.3904 48.7932 33.418 48.1766C33.4527 47.3939 33.3502 46.6126 33.2416 45.7856L33.2194 45.6146C32.9758 43.7475 33.0077 41.9793 33.0707 40.0264C33.0845 39.589 32.7828 39.3267 32.4956 39.227C32.2105 39.1267 31.8132 39.1475 31.553 39.4983C31.3253 39.8056 30.8928 39.87 30.5848 39.6416C30.2775 39.4146 30.2132 38.9807 30.4409 38.6741C31.0236 37.888 32.0098 37.5917 32.9502 37.9205C33.8942 38.2492 34.4845 39.0928 34.4533 40.0714C34.3932 41.962 34.3613 43.6714 34.5918 45.4368L34.6139 45.6056C34.7253 46.4562 34.8409 47.3351 34.8008 48.2382C34.771 48.9116 34.6866 49.5801 34.6056 50.2278C34.5717 50.4956 34.5378 50.7628 34.508 51.0292C34.4686 51.3828 34.169 51.6445 33.8208 51.6445Z" fill="#1E3565"/>
<path d="M50.0446 39.614H36.3913C36.0093 39.614 35.6992 39.3046 35.6992 38.9219C35.6992 38.5392 36.0093 38.2299 36.3913 38.2299H50.0446C50.4266 38.2299 50.7367 38.5392 50.7367 38.9219C50.7367 39.3046 50.4273 39.614 50.0446 39.614Z" fill="#1E3565"/>
<path d="M50.0472 43.7662H36.4381C36.0561 43.7662 35.7461 43.4569 35.7461 43.0742C35.7461 42.6915 36.0561 42.3821 36.4381 42.3821H50.0472C50.4292 42.3821 50.7392 42.6915 50.7392 43.0742C50.7392 43.4569 50.4299 43.7662 50.0472 43.7662Z" fill="#1E3565"/>
<path d="M50.0458 47.9185H36.8678C36.4858 47.9185 36.1758 47.6091 36.1758 47.2265C36.1758 46.8438 36.4858 46.5344 36.8678 46.5344H50.0458C50.4278 46.5344 50.7378 46.8438 50.7378 47.2265C50.7378 47.6091 50.4285 47.9185 50.0458 47.9185Z" fill="#1E3565"/>
<path d="M27.8991 47.7779C27.5171 47.7779 27.207 47.4686 27.207 47.0859V22.8179C27.207 22.4352 27.5171 22.1259 27.8991 22.1259C28.2811 22.1259 28.5911 22.4352 28.5911 22.8179V47.0859C28.5911 47.4686 28.2818 47.7779 27.8991 47.7779Z" fill="#1E3565"/>
<path d="M52.816 55.3441H35.2858C34.9038 55.3441 34.5938 55.0348 34.5938 54.6521C34.5938 54.2693 34.9038 53.96 35.2858 53.96H52.8167C53.1987 53.96 53.5088 54.2693 53.5088 54.6521C53.5088 55.0348 53.1987 55.3441 52.816 55.3441Z" fill="#1E3565"/>
</svg>
