<svg width="79" height="80" viewBox="0 0 79 80" fill="none" xmlns="http://www.w3.org/2000/svg">
<circle cx="39.427" cy="39.6409" r="39.427" fill="#F1F1F1"/>
<path d="M57.3765 34.4058C56.9636 34.4058 56.6286 34.0707 56.6286 33.6579C56.6286 33.2458 56.2928 32.91 55.8807 32.91C55.4679 32.91 55.1328 32.575 55.1328 32.1621C55.1328 31.7493 55.4679 31.4142 55.8807 31.4142C57.1177 31.4142 58.1243 32.4209 58.1243 33.6579C58.1243 34.0707 57.7893 34.4058 57.3765 34.4058Z" fill="#1E3565"/>
<path d="M57.3768 56.8422C56.964 56.8422 56.6289 56.5071 56.6289 56.0943V33.6579C56.6289 33.245 56.964 32.91 57.3768 32.91C57.7896 32.91 58.1247 33.245 58.1247 33.6579V56.0943C58.1247 56.5071 57.7896 56.8422 57.3768 56.8422Z" fill="#1E3565"/>
<path d="M55.8829 32.91H48.4041C47.9913 32.91 47.6562 32.575 47.6562 32.1621C47.6562 31.7493 47.9913 31.4142 48.4041 31.4142H55.8829C56.2958 31.4142 56.6308 31.7493 56.6308 32.1621C56.6308 32.575 56.2958 32.91 55.8829 32.91Z" fill="#1E3565"/>
<path d="M48.4038 22.4396C47.991 22.4396 47.6559 22.1046 47.6559 21.6918C47.6559 21.2797 47.3201 20.9439 46.908 20.9439C46.4952 20.9439 46.1602 20.6088 46.1602 20.196C46.1602 19.7832 46.4952 19.4481 46.908 19.4481C48.145 19.4481 49.1517 20.4548 49.1517 21.6918C49.1517 22.1046 48.8166 22.4396 48.4038 22.4396Z" fill="#1E3565"/>
<path d="M48.4041 56.8422C47.9913 56.8422 47.6562 56.5072 47.6562 56.0943V21.6918C47.6562 21.279 47.9913 20.9439 48.4041 20.9439C48.817 20.9439 49.152 21.279 49.152 21.6918V56.0943C49.152 56.5072 48.817 56.8422 48.4041 56.8422Z" fill="#1E3565"/>
<path d="M46.9086 20.9439H31.951C31.5382 20.9439 31.2031 20.6088 31.2031 20.196C31.2031 19.7832 31.5382 19.4481 31.951 19.4481H46.9086C47.3215 19.4481 47.6565 19.7832 47.6565 20.196C47.6565 20.6088 47.3215 20.9439 46.9086 20.9439Z" fill="#1E3565"/>
<path d="M30.4549 22.4396C30.0421 22.4396 29.707 22.1046 29.707 21.6918C29.707 20.4548 30.7137 19.4481 31.9507 19.4481C32.3635 19.4481 32.6986 19.7832 32.6986 20.196C32.6986 20.6088 32.3635 20.9439 31.9507 20.9439C31.5386 20.9439 31.2028 21.2797 31.2028 21.6918C31.2028 22.1046 30.8677 22.4396 30.4549 22.4396Z" fill="#1E3565"/>
<path d="M30.4549 56.8422C30.0421 56.8422 29.707 56.5072 29.707 56.0943V21.6918C29.707 21.279 30.0421 20.9439 30.4549 20.9439C30.8677 20.9439 31.2028 21.279 31.2028 21.6918V56.0943C31.2028 56.5072 30.8677 56.8422 30.4549 56.8422Z" fill="#1E3565"/>
<path d="M21.4784 34.4058C21.0655 34.4058 20.7305 34.0707 20.7305 33.6579C20.7305 32.4209 21.7371 31.4142 22.9741 31.4142C23.3869 31.4142 23.722 31.7493 23.722 32.1621C23.722 32.575 23.3869 32.91 22.9741 32.91C22.562 32.91 22.2262 33.2458 22.2262 33.6579C22.2262 34.0707 21.8912 34.4058 21.4784 34.4058Z" fill="#1E3565"/>
<path d="M30.4533 32.91H22.9744C22.5616 32.91 22.2266 32.575 22.2266 32.1621C22.2266 31.7493 22.5616 31.4142 22.9744 31.4142H30.4533C30.8661 31.4142 31.2011 31.7493 31.2011 32.1621C31.2011 32.575 30.8661 32.91 30.4533 32.91Z" fill="#1E3565"/>
<path d="M21.4784 56.8422C21.0655 56.8422 20.7305 56.5071 20.7305 56.0943V33.6579C20.7305 33.245 21.0655 32.91 21.4784 32.91C21.8912 32.91 22.2262 33.245 22.2262 33.6579V56.0943C22.2262 56.5071 21.8912 56.8422 21.4784 56.8422Z" fill="#1E3565"/>
<path d="M26.7135 50.8592H21.4784C21.0655 50.8592 20.7305 50.5241 20.7305 50.1113C20.7305 49.6985 21.0655 49.3634 21.4784 49.3634H26.7135C27.1264 49.3634 27.4614 49.6985 27.4614 50.1113C27.4614 50.5241 27.1264 50.8592 26.7135 50.8592Z" fill="#1E3565"/>
<path d="M26.7135 44.8761H21.4784C21.0655 44.8761 20.7305 44.541 20.7305 44.1282C20.7305 43.7154 21.0655 43.3803 21.4784 43.3803H26.7135C27.1264 43.3803 27.4614 43.7154 27.4614 44.1282C27.4614 44.541 27.1264 44.8761 26.7135 44.8761Z" fill="#1E3565"/>
<path d="M26.7135 38.893H21.4784C21.0655 38.893 20.7305 38.558 20.7305 38.1452C20.7305 37.7323 21.0655 37.3973 21.4784 37.3973H26.7135C27.1264 37.3973 27.4614 37.7323 27.4614 38.1452C27.4614 38.558 27.1264 38.893 26.7135 38.893Z" fill="#1E3565"/>
<path d="M57.3776 50.8592H52.1424C51.7296 50.8592 51.3945 50.5241 51.3945 50.1113C51.3945 49.6985 51.7296 49.3634 52.1424 49.3634H57.3776C57.7904 49.3634 58.1255 49.6985 58.1255 50.1113C58.1255 50.5241 57.7904 50.8592 57.3776 50.8592Z" fill="#1E3565"/>
<path d="M57.3776 44.8761H52.1424C51.7296 44.8761 51.3945 44.541 51.3945 44.1282C51.3945 43.7154 51.7296 43.3803 52.1424 43.3803H57.3776C57.7904 43.3803 58.1255 43.7154 58.1255 44.1282C58.1255 44.541 57.7904 44.8761 57.3776 44.8761Z" fill="#1E3565"/>
<path d="M57.3776 38.893H52.1424C51.7296 38.893 51.3945 38.558 51.3945 38.1452C51.3945 37.7323 51.7296 37.3973 52.1424 37.3973H57.3776C57.7904 37.3973 58.1255 37.7323 58.1255 38.1452C58.1255 38.558 57.7904 38.893 57.3776 38.893Z" fill="#1E3565"/>
<path d="M43.9139 44.8761H34.9393C34.5265 44.8761 34.1914 44.541 34.1914 44.1282C34.1914 43.7154 34.5265 43.3803 34.9393 43.3803H43.9139C44.3267 43.3803 44.6617 43.7154 44.6617 44.1282C44.6617 44.541 44.3267 44.8761 43.9139 44.8761Z" fill="#1E3565"/>
<path d="M34.9393 56.8422C34.5265 56.8422 34.1914 56.5071 34.1914 56.0943V44.1282C34.1914 43.7154 34.5265 43.3803 34.9393 43.3803C35.3521 43.3803 35.6872 43.7154 35.6872 44.1282V56.0943C35.6872 56.5071 35.3521 56.8422 34.9393 56.8422Z" fill="#1E3565"/>
<path d="M43.9159 56.8422C43.503 56.8422 43.168 56.5071 43.168 56.0943V44.1282C43.168 43.7154 43.503 43.3803 43.9159 43.3803C44.3287 43.3803 44.6637 43.7154 44.6637 44.1282V56.0943C44.6637 56.5071 44.3287 56.8422 43.9159 56.8422Z" fill="#1E3565"/>
<path d="M19.9823 59.8337C19.5694 59.8337 19.2344 59.4987 19.2344 59.0858V56.0943C19.2344 55.6815 19.5694 55.3464 19.9823 55.3464C20.3951 55.3464 20.7301 55.6815 20.7301 56.0943V59.0858C20.7301 59.4987 20.3951 59.8337 19.9823 59.8337Z" fill="#1E3565"/>
<path d="M58.8729 59.8337C58.4601 59.8337 58.125 59.4987 58.125 59.0858V56.0943C58.125 55.6815 58.4601 55.3464 58.8729 55.3464C59.2857 55.3464 59.6208 55.6815 59.6208 56.0943V59.0858C59.6208 59.4987 59.2857 59.8337 58.8729 59.8337Z" fill="#1E3565"/>
<path d="M58.8721 59.8337H19.9823C19.5694 59.8337 19.2344 59.4987 19.2344 59.0858C19.2344 58.673 19.5694 58.338 19.9823 58.338H58.8721C59.2849 58.338 59.62 58.673 59.62 59.0858C59.62 59.4987 59.2849 59.8337 58.8721 59.8337Z" fill="#1E3565"/>
<path d="M58.8721 56.8422H19.9823C19.5694 56.8422 19.2344 56.5071 19.2344 56.0943C19.2344 55.6815 19.5694 55.3464 19.9823 55.3464H58.8721C59.2849 55.3464 59.62 55.6815 59.62 56.0943C59.62 56.5071 59.2849 56.8422 58.8721 56.8422Z" fill="#1E3565"/>
<path d="M40.9246 33.9293H37.933C37.5202 33.9293 37.1852 33.5943 37.1852 33.1815V30.4285H34.4315C34.0186 30.4285 33.6836 30.0934 33.6836 29.6806V26.6891C33.6836 26.2763 34.0186 25.9412 34.4315 25.9412H37.1852V23.1875C37.1852 22.7747 37.5202 22.4396 37.933 22.4396H40.9246C41.3374 22.4396 41.6725 22.7747 41.6725 23.1875V25.9412H44.4261C44.839 25.9412 45.174 26.2763 45.174 26.6891V29.6806C45.174 30.0934 44.839 30.4285 44.4261 30.4285H41.6725V33.1815C41.6725 33.5943 41.3374 33.9293 40.9246 33.9293ZM38.6809 32.4336H40.1767V29.6806C40.1767 29.2678 40.5117 28.9327 40.9246 28.9327H43.6783V27.437H40.9246C40.5117 27.437 40.1767 27.1019 40.1767 26.6891V23.9354H38.6809V26.6891C38.6809 27.1019 38.3459 27.437 37.933 27.437H35.1794V28.9327H37.933C38.3459 28.9327 38.6809 29.2678 38.6809 29.6806V32.4336Z" fill="#1E3565"/>
</svg>
