<svg width="79" height="79" viewBox="0 0 79 79" fill="none" xmlns="http://www.w3.org/2000/svg">
<circle cx="39.427" cy="39.427" r="39.427" fill="#F1F1F1"/>
<path d="M50.7455 27.153L50.7445 27.1517C50.2158 26.4342 50.3696 25.424 51.0846 24.894C51.7893 24.3722 52.7766 24.5159 53.3067 25.3093L53.3129 25.3186L53.3195 25.3276L58.5949 32.5341C58.595 32.5341 58.595 32.5342 58.5951 32.5343C59.2233 33.3936 59.5692 34.4537 59.5692 35.5186L59.5692 53.9808C59.5692 54.097 59.436 54.2666 59.2397 54.2666L55.0005 54.2666C54.9122 54.2666 54.8086 54.2272 54.7264 54.1535C54.6444 54.08 54.6253 54.0122 54.6244 53.983L54.672 51.0351L54.6756 50.813L54.5176 50.6569L52.1045 48.2733C51.2905 47.2503 50.8458 45.9346 50.8458 44.6679L50.8458 44.6554L50.8452 44.643L50.4313 35.9996C50.438 35.2772 51.077 34.7179 51.8084 34.837C52.3464 34.9279 52.7845 35.5041 52.7845 36.1043L52.7845 40.2785C52.7845 41.0004 53.4179 41.6037 54.1524 41.6037C54.8659 41.6037 55.5197 41.0676 55.5197 40.2785L55.5197 33.8452L55.5197 33.6753L55.4194 33.5383L50.7455 27.153Z" stroke="#1E3565" stroke-width="1.03941"/>
<path d="M28.11 27.1542L28.111 27.1529C28.6396 26.4355 28.4858 25.4252 27.7709 24.8952C27.0661 24.3734 26.0788 24.5171 25.5487 25.3105L25.5425 25.3198L25.536 25.3288L20.2606 32.5353C20.2605 32.5354 20.2604 32.5354 20.2604 32.5355C19.6322 33.3948 19.2862 34.455 19.2862 35.5198L19.2862 53.982C19.2862 54.0982 19.4195 54.2678 19.6157 54.2678L23.855 54.2678C23.9433 54.2678 24.0468 54.2284 24.129 54.1548C24.2111 54.0812 24.2302 54.0134 24.2311 53.9842L24.1834 51.0363L24.1798 50.8142L24.3379 50.6581L26.751 48.2745C27.565 47.2516 28.0096 45.9358 28.0096 44.6691L28.0096 44.6566L28.0102 44.6442L28.4241 36.0008C28.4175 35.2784 27.7784 34.7191 27.047 34.8382C26.509 34.9291 26.0709 35.5054 26.0709 36.1055L26.0709 40.2797C26.0709 41.0016 25.4375 41.6049 24.7031 41.6049C23.9895 41.6049 23.3357 41.0688 23.3357 40.2797L23.3357 33.8464L23.3357 33.6766L23.4361 33.5395L28.11 27.1542Z" stroke="#1E3565" stroke-width="1.03941"/>
<path d="M41.7028 37.6168L41.1831 37.6168L41.1831 38.1365L41.1831 40.9774C41.1831 41.0662 41.1014 41.168 40.9706 41.168L38.0418 41.168C37.91 41.168 37.8292 41.0671 37.8292 40.9774L37.8292 38.1365L37.8292 37.6168L37.3095 37.6168L34.3807 37.6168C34.249 37.6168 34.1681 37.5158 34.1681 37.4263L34.1681 34.5853C34.1681 34.4958 34.249 34.3948 34.3807 34.3948L37.3095 34.3948L37.8292 34.3948L37.8292 33.8751L37.8292 31.0341C37.8292 30.9437 37.9093 30.8436 38.0418 30.8436L40.9706 30.8436C41.103 30.8436 41.1831 30.9438 41.1831 31.0341L41.1831 33.8751L41.1831 34.3948L41.7028 34.3948L44.6317 34.3948C44.7625 34.3948 44.8442 34.4965 44.8442 34.5853L44.8442 37.4263C44.8442 37.5151 44.7625 37.6168 44.6317 37.6168L41.7028 37.6168Z" stroke="#1E3565" stroke-width="1.03941"/>
</svg>
