<svg width="79" height="79" viewBox="0 0 79 79" fill="none" xmlns="http://www.w3.org/2000/svg">
<circle cx="39.427" cy="39.4949" r="39.427" fill="#F1F1F1"/>
<path d="M30.2448 57.3512H26.2749C25.9097 57.3512 25.6133 57.0548 25.6133 56.6896C25.6133 56.3244 25.9097 56.028 26.2749 56.028H30.2448C30.61 56.028 30.9064 56.3244 30.9064 56.6896C30.9064 57.0548 30.6107 57.3512 30.2448 57.3512Z" fill="#1E3565"/>
<path d="M52.5768 57.3565H48.607C48.2411 57.3565 47.9453 57.0601 47.9453 56.6948C47.9453 56.3296 48.2411 56.0332 48.607 56.0332H52.5768C52.9427 56.0332 53.2384 56.3296 53.2384 56.6948C53.2384 57.0601 52.9427 57.3565 52.5768 57.3565Z" fill="#1E3565"/>
<path d="M52.5763 57.3565C52.2303 57.3565 51.9391 57.0873 51.9166 56.7366C51.8141 55.1215 51.7168 53.6639 51.566 52.1905C51.5289 51.8266 51.7936 51.5017 52.1575 51.4647C52.5114 51.4216 52.8456 51.6916 52.8833 52.0555C53.0361 53.5534 53.1347 55.0236 53.2379 56.6525C53.2611 57.0171 52.9838 57.3314 52.6193 57.3552C52.6047 57.3559 52.5908 57.3565 52.5763 57.3565Z" fill="#1E3565"/>
<path d="M26.2756 57.3513C26.2617 57.3513 26.2478 57.3513 26.2333 57.35C25.8687 57.3268 25.5915 57.0125 25.6146 56.648C25.7126 55.0918 25.8131 53.5694 25.9693 52.0555C26.0063 51.6923 26.3266 51.4257 26.6951 51.4653C27.0583 51.5031 27.323 51.8279 27.2853 52.1912C27.1324 53.6812 27.0319 55.1891 26.9353 56.7313C26.9134 57.082 26.6223 57.3513 26.2756 57.3513Z" fill="#1E3565"/>
<path d="M33.6613 31.6763C33.3913 31.6763 33.1379 31.5102 33.04 31.2423L30.8414 25.2432C30.7157 24.8998 30.8917 24.52 31.235 24.3943C31.5785 24.2693 31.9582 24.4453 32.0839 24.788L34.2826 30.7871C34.4083 31.1305 34.2323 31.5102 33.8889 31.636C33.8141 31.6631 33.7367 31.6763 33.6613 31.6763Z" fill="#1E3565"/>
<path d="M33.662 31.6763C33.3994 31.6763 33.1506 31.5189 33.0474 31.2595C32.9118 30.9201 33.0772 30.535 33.4166 30.4001C37.2938 28.8525 41.564 28.8531 45.4392 30.4001C45.7786 30.5357 45.944 30.9207 45.8084 31.2595C45.6728 31.5996 45.2877 31.763 44.9483 31.6287C41.3893 30.2082 37.4678 30.2075 33.9069 31.6287C33.8261 31.6611 33.7434 31.6763 33.662 31.6763Z" fill="#1E3565"/>
<path d="M45.1931 31.6764C45.1177 31.6764 45.0409 31.6631 44.9655 31.6354C44.6221 31.5096 44.4461 31.1292 44.5718 30.7865L46.7718 24.7874C46.8975 24.444 47.2779 24.2693 47.62 24.3937C47.9634 24.5194 48.1394 24.8999 48.0137 25.2426L45.8144 31.2417C45.7158 31.5103 45.4624 31.6764 45.1931 31.6764Z" fill="#1E3565"/>
<path d="M48.4686 40.3326C48.1517 40.3326 47.8725 40.105 47.8176 39.7821C47.6462 38.7797 47.5556 37.7535 47.4676 36.761C47.3161 35.05 47.1731 33.4336 46.6557 31.8914C46.5393 31.5453 46.7259 31.1702 47.0733 31.0537C47.4179 30.9386 47.7944 31.1245 47.9109 31.4706C48.4772 33.1611 48.6347 34.9316 48.7856 36.6439C48.8716 37.6099 48.9602 38.609 49.1217 39.5591C49.1839 39.9191 48.9417 40.2611 48.5811 40.3227C48.5428 40.3299 48.5057 40.3326 48.4686 40.3326Z" fill="#1E3565"/>
<path d="M30.3846 40.3325C30.3475 40.3325 30.3105 40.3299 30.2734 40.3233C29.9135 40.2617 29.6707 39.9203 29.7322 39.5604C29.8936 38.6096 29.9829 37.6119 30.069 36.6465C30.2218 34.9355 30.3799 33.1657 30.9423 31.4732C31.0574 31.1265 31.4319 30.9379 31.7786 31.0537C32.1253 31.1695 32.3132 31.5433 32.1981 31.89C31.6847 33.4369 31.5398 35.0533 31.3869 36.7643C31.2983 37.7555 31.207 38.7797 31.0362 39.782C30.9814 40.1043 30.7015 40.3325 30.3846 40.3325Z" fill="#1E3565"/>
<path d="M34.2818 36.2523C33.9477 36.2523 33.6605 35.9995 33.6248 35.6594C33.5864 35.2962 33.8504 34.9706 34.2136 34.9323C37.4134 34.5955 40.5403 33.5058 43.255 31.7809C43.5633 31.5857 43.9722 31.6763 44.168 31.9847C44.3645 32.293 44.2726 32.7019 43.9642 32.8977C41.0782 34.7311 37.7541 35.8897 34.3519 36.2476C34.3288 36.2509 34.305 36.2523 34.2818 36.2523Z" fill="#1E3565"/>
<path d="M32.6658 36.3349C32.0346 36.3349 31.4034 36.2986 30.7768 36.2264C30.4143 36.1847 30.1536 35.8566 30.1959 35.4933C30.2376 35.1301 30.5671 34.8648 30.929 34.9124C32.0187 35.0374 33.125 35.0441 34.2161 34.9329C34.5793 34.8925 34.9048 35.1599 34.9418 35.5238C34.9796 35.887 34.7149 36.2125 34.351 36.2496C33.7913 36.3065 33.2282 36.3349 32.6658 36.3349Z" fill="#1E3565"/>
<path d="M34.1343 37.5073C33.7691 37.5073 33.4727 37.2109 33.4727 36.8457C33.4727 36.3773 33.5283 35.9082 33.6381 35.4536L34.9283 35.7487L34.9243 35.7659C34.839 36.1166 34.7959 36.4805 34.7959 36.8457C34.7959 37.2109 34.4995 37.5073 34.1343 37.5073Z" fill="#1E3565"/>
<path d="M44.7188 37.5073C44.3536 37.5073 44.0578 37.2116 44.0572 36.8464C44.0565 36.3131 44.0082 35.7758 43.9129 35.2505C43.8481 34.8912 44.0876 34.5472 44.4469 34.4816C44.8101 34.4128 45.1502 34.6557 45.2157 35.0149C45.3242 35.6177 45.3798 36.233 45.3805 36.845C45.3811 37.2103 45.0854 37.5067 44.7188 37.5073Z" fill="#1E3565"/>
<path d="M29.0758 44.9832C28.997 44.9832 28.917 44.9694 28.8396 44.9396C28.4982 44.8093 28.3275 44.4268 28.4578 44.0854C29.0182 42.6192 29.4469 41.0935 29.7315 39.5505C29.7976 39.1913 30.1384 38.9538 30.5023 39.0199C30.8615 39.0861 31.0991 39.4315 31.0329 39.7907C30.7332 41.4124 30.2833 43.0162 29.6937 44.5572C29.5932 44.8212 29.3424 44.9832 29.0758 44.9832Z" fill="#1E3565"/>
<path d="M49.7731 44.9832C49.5071 44.9832 49.2563 44.8211 49.1551 44.5578C48.5649 43.0162 48.115 41.4124 47.8159 39.7907C47.7491 39.4314 47.9873 39.0867 48.3465 39.0199C48.7118 38.9551 49.0512 39.1919 49.1174 39.5506C49.4019 41.0928 49.8306 42.6186 50.391 44.0848C50.5214 44.4262 50.3506 44.8086 50.0099 44.9396C49.9312 44.9694 49.8518 44.9832 49.7731 44.9832Z" fill="#1E3565"/>
<path d="M40.2904 53.2749C40.1937 53.2749 40.0958 53.2537 40.0032 53.2094C39.6737 53.0506 39.5361 52.6549 39.6949 52.3261L43.0673 45.3365C43.2261 45.0077 43.6204 44.8694 43.9505 45.0282C44.2794 45.187 44.4176 45.5827 44.2588 45.9115L40.8865 52.9011C40.772 53.1372 40.5358 53.2749 40.2904 53.2749Z" fill="#1E3565"/>
<path d="M38.565 53.2748C38.3188 53.2748 38.0826 53.1372 37.9688 52.901L34.5971 45.9114C34.4383 45.582 34.5766 45.187 34.9055 45.0282C35.2343 44.8707 35.6299 45.0076 35.7887 45.3365L39.1604 52.3261C39.3192 52.6556 39.1809 53.0505 38.8521 53.2093C38.7595 53.2537 38.6616 53.2748 38.565 53.2748Z" fill="#1E3565"/>
<path d="M48.207 48.1822C48.1555 48.1822 48.1032 48.1763 48.0509 48.1637C46.8474 47.8726 45.6161 47.6417 44.3941 47.4783C44.0321 47.43 43.7774 47.0965 43.8263 46.7346C43.8753 46.3727 44.2055 46.1159 44.57 46.1669C45.8377 46.3363 47.114 46.5758 48.3625 46.8775C48.7172 46.9635 48.9355 47.3208 48.8495 47.6761C48.7761 47.9791 48.5054 48.1822 48.207 48.1822Z" fill="#1E3565"/>
<path d="M30.6456 48.1823C30.3472 48.1823 30.0765 47.9791 30.0031 47.6761C29.9171 47.3208 30.1354 46.9629 30.4907 46.8769C31.7386 46.5752 33.0149 46.3363 34.2832 46.1663C34.6458 46.1226 34.978 46.372 35.0269 46.7339C35.0752 47.0959 34.8212 47.4293 34.4592 47.4777C33.2359 47.6417 32.0052 47.872 30.8024 48.1631C30.7494 48.177 30.6971 48.1823 30.6456 48.1823Z" fill="#1E3565"/>
<path d="M46.4215 50.3207C46.2104 50.3207 46.0027 50.2201 45.8749 50.0322L43.1159 45.9969C42.9089 45.6951 42.9869 45.2836 43.2886 45.0772C43.5917 44.872 44.0025 44.9495 44.2083 45.2498L46.9673 49.2852C47.1744 49.5869 47.0963 49.9984 46.7946 50.2049C46.6802 50.283 46.5505 50.3207 46.4215 50.3207Z" fill="#1E3565"/>
<path d="M44.384 50.8308C44.0882 50.8308 43.8183 50.6303 43.7429 50.3299C43.6536 49.9753 43.8686 49.616 44.2239 49.5273L46.2578 49.0172C46.613 48.9292 46.9717 49.1429 47.0603 49.4982C47.1496 49.8528 46.9346 50.2121 46.5793 50.3008L44.5454 50.8109C44.4912 50.8242 44.4376 50.8308 44.384 50.8308Z" fill="#1E3565"/>
<path d="M34.4658 50.8308C34.4122 50.8308 34.358 50.8242 34.3044 50.8109L32.2705 50.3008C31.9159 50.2122 31.7008 49.8529 31.7895 49.4982C31.8781 49.1436 32.2374 48.9279 32.5921 49.0172L34.6259 49.5274C34.9806 49.616 35.1956 49.9753 35.1069 50.3299C35.0315 50.6303 34.7623 50.8308 34.4658 50.8308Z" fill="#1E3565"/>
<path d="M32.4304 50.3207C32.302 50.3207 32.1717 50.283 32.0579 50.2055C31.7561 49.9991 31.6787 49.5876 31.8852 49.2859L34.6442 45.2505C34.8506 44.9495 35.2622 44.8727 35.5639 45.0778C35.8656 45.2843 35.943 45.6958 35.7366 45.9975L32.9775 50.0328C32.8492 50.2195 32.6421 50.3207 32.4304 50.3207Z" fill="#1E3565"/>
<path d="M26.6313 52.7846C26.6088 52.7846 26.5863 52.784 26.5625 52.7813C26.1993 52.7443 25.9346 52.4194 25.9723 52.0555C26.2297 49.5525 28.0459 47.4717 30.492 46.8782C30.8453 46.7902 31.2046 47.0098 31.2912 47.3652C31.3773 47.7204 31.1596 48.0784 30.8043 48.1644C28.902 48.6262 27.4895 50.2446 27.289 52.1911C27.2539 52.5312 26.9668 52.7846 26.6313 52.7846Z" fill="#1E3565"/>
<path d="M52.2216 52.7846C51.8862 52.7846 51.5997 52.5312 51.564 52.1911C51.3635 50.2439 49.9509 48.6255 48.0487 48.1644C47.6934 48.0784 47.4757 47.7204 47.5618 47.3651C47.6478 47.0098 48.007 46.7895 48.3603 46.8781C50.8058 47.471 52.6219 49.5518 52.8807 52.0555C52.9183 52.4187 52.6537 52.7443 52.2898 52.7813C52.2666 52.7833 52.2442 52.7846 52.2216 52.7846Z" fill="#1E3565"/>
<path d="M29.0759 44.9832C28.8046 44.9832 28.5506 44.8152 28.4533 44.5452C28.3296 44.2012 28.5082 43.822 28.8516 43.6983C30.2179 43.2067 31.6318 42.8071 33.0537 42.5113C33.411 42.4352 33.7617 42.6662 33.8364 43.0241C33.9112 43.3821 33.6816 43.7321 33.3236 43.8068C31.9613 44.0907 30.6083 44.4731 29.2996 44.9435C29.2261 44.9706 29.1507 44.9832 29.0759 44.9832Z" fill="#1E3565"/>
<path d="M49.7748 44.9832C49.7007 44.9832 49.6246 44.9706 49.5505 44.9435C48.2411 44.4725 46.8874 44.09 45.5264 43.8068C45.1692 43.7321 44.9389 43.3821 45.0143 43.0241C45.0878 42.6662 45.4331 42.4352 45.7971 42.5113C47.2176 42.8071 48.6315 43.2067 49.9998 43.6983C50.3438 43.822 50.5218 44.2012 50.3987 44.5446C50.3001 44.8152 50.0461 44.9832 49.7748 44.9832Z" fill="#1E3565"/>
<path d="M39.3904 44.9422C38.3748 44.9422 37.3605 44.6074 36.4733 43.92C34.6141 42.4795 33.5204 39.9045 33.4727 36.8556C33.4674 36.4904 33.7586 36.1893 34.1238 36.1834C34.5023 36.1847 34.7901 36.4692 34.796 36.8345C34.8152 38.0856 35.0971 41.1794 37.2831 42.8732C38.8744 44.1065 40.9612 43.7896 42.3586 42.1031C43.7222 40.4563 44.0358 38.3291 44.0583 36.8345C44.0642 36.4725 44.3593 36.1834 44.72 36.1834C44.7233 36.1834 44.7266 36.1834 44.7305 36.1834C45.0957 36.1893 45.3875 36.4897 45.3816 36.8556C45.3551 38.5626 44.9859 41.0048 43.3781 42.948C42.2917 44.26 40.8401 44.9422 39.3904 44.9422Z" fill="#1E3565"/>
<path d="M31.4628 25.6766C31.2524 25.6766 31.046 25.5767 30.9176 25.3908C30.7106 25.0897 30.786 24.6775 31.0864 24.4704C33.5185 22.7932 35.9825 21.851 38.4087 21.669C41.0407 21.4705 43.76 22.1104 46.2723 23.515C46.8082 23.8147 47.3051 24.1515 47.7676 24.4704C48.0686 24.6775 48.1441 25.0897 47.937 25.3908C47.7292 25.6918 47.3164 25.7666 47.0166 25.5595C46.5793 25.2578 46.1115 24.9409 45.6259 24.6689C43.3425 23.3913 40.8799 22.8123 38.5073 22.9877C36.3179 23.1524 34.0736 24.0172 31.8373 25.5595C31.7229 25.6389 31.5925 25.6766 31.4628 25.6766Z" fill="#1E3565"/>
<path d="M40.088 25.2671H41.4106V26.5903H40.088V27.9136H38.7647V26.5903H37.4414V25.2671H38.7647V23.9438H40.088V25.2671Z" fill="#1E3565"/>
</svg>
