<svg width="79" height="80" viewBox="0 0 79 80" fill="none" xmlns="http://www.w3.org/2000/svg">
<circle cx="39.427" cy="40" r="39.427" fill="#F1F1F1"/>
<path d="M33.387 45.0127C31.1597 45.0127 29.3477 46.8248 29.3477 49.052C29.3477 51.2792 31.1597 53.0913 33.387 53.0913C35.6142 53.0913 37.4263 51.2792 37.4263 49.052C37.4263 46.8248 35.6142 45.0127 33.387 45.0127ZM33.387 51.769C31.8884 51.769 30.6695 50.5502 30.6695 49.0516C30.6695 47.553 31.8888 46.3341 33.387 46.3341C34.8851 46.3341 36.1044 47.553 36.1044 49.0516C36.1044 50.5502 34.8851 51.769 33.387 51.769Z" fill="#1E3565"/>
<path d="M28.5633 55.9299C28.6969 55.5498 29.0575 55.2945 29.4606 55.2945H37.4491C37.8554 55.2945 38.2168 55.5525 38.3483 55.937L39.7345 59.9812H40.9876C41.0315 59.8489 41.0364 59.7023 40.9876 59.5598L39.5987 55.5081C39.2838 54.5894 38.4198 53.9722 37.4487 53.9722H29.4606C28.4971 53.9722 27.6357 54.5827 27.3164 55.4916L25.7859 59.8489C25.7703 59.8928 25.7597 59.9368 25.7539 59.9812H27.1397L28.5633 55.9299Z" fill="#1E3565"/>
<path d="M29.5237 57.964L28.9358 59.8733C28.9247 59.9092 28.9189 59.9452 28.9141 59.9812H30.2857L30.787 58.3529C30.8944 58.0039 30.6986 57.6341 30.3496 57.5266C30.0019 57.4196 29.6312 57.615 29.5237 57.964Z" fill="#1E3565"/>
<path d="M36.4199 57.5266C36.0709 57.634 35.8751 58.0039 35.9826 58.3529L36.4839 59.9812H37.8555C37.8506 59.9452 37.8448 59.9092 37.8337 59.8733L37.2458 57.9639C37.1384 57.6149 36.7694 57.4191 36.4199 57.5266Z" fill="#1E3565"/>
<path d="M51.012 53.0908C53.2392 53.0908 55.0513 51.2787 55.0513 49.0515C55.0513 46.8242 53.2392 45.0121 51.012 45.0121C48.7847 45.0121 46.9727 46.8242 46.9727 49.0515C46.9727 51.2787 48.7847 53.0908 51.012 53.0908ZM51.012 46.3345C52.5106 46.3345 53.7294 47.5533 53.7294 49.0519C53.7294 50.55 52.5101 51.7693 51.012 51.7693C49.5138 51.7693 48.2945 50.5505 48.2945 49.0519C48.2945 47.5533 49.5138 46.3345 51.012 46.3345Z" fill="#1E3565"/>
<path d="M55.9733 55.9365L57.36 59.9812H58.613C58.657 59.8489 58.6619 59.7023 58.613 59.5598L57.2241 55.5081C56.9093 54.5894 56.0452 53.9722 55.0741 53.9722H47.0856C46.1221 53.9722 45.2607 54.5827 44.9414 55.4916L43.4109 59.8489C43.3953 59.8928 43.3851 59.9368 43.3789 59.9812H44.7647L46.1878 55.9299C46.3215 55.5498 46.682 55.2945 47.0852 55.2945H55.0737C55.48 55.294 55.8414 55.5525 55.9733 55.9365Z" fill="#1E3565"/>
<path d="M47.1483 57.964L46.5604 59.8733C46.5497 59.9092 46.5435 59.9452 46.5391 59.9812H47.9107L48.412 58.3529C48.5194 58.0039 48.3236 57.6341 47.9746 57.5266C47.6256 57.4196 47.2562 57.615 47.1483 57.964Z" fill="#1E3565"/>
<path d="M54.0488 57.5266C53.6998 57.634 53.504 58.0039 53.6115 58.3529L54.1128 59.9812H55.4844C55.4795 59.9452 55.4737 59.9092 55.4626 59.8733L54.8747 57.9639C54.7682 57.6149 54.3987 57.4191 54.0488 57.5266Z" fill="#1E3565"/>
<path d="M39.5517 20.0188H31.3003C27.7943 20.0188 24.9414 22.8712 24.9414 26.3773V39.389C24.9414 39.8597 25.222 40.2788 25.6563 40.4569C25.7984 40.5155 25.9467 40.5435 26.0941 40.5435C26.3943 40.5435 26.6878 40.4254 26.9071 40.2038L30.8492 36.2657H36.3249C36.2192 35.8412 36.1571 35.3999 36.1526 34.9439H30.779C30.4704 34.9439 30.1809 35.0633 29.9647 35.28L26.2633 38.9779V26.3773C26.2633 23.5999 28.5229 21.3407 31.3003 21.3407H39.5517C42.0848 21.3407 44.1815 23.2225 44.5314 25.6606H45.8671C45.5096 22.4911 42.8153 20.0188 39.5517 20.0188Z" fill="#1E3565"/>
<path d="M59.4581 46.6946V33.6824C59.4581 30.8744 57.4254 28.5463 54.7519 28.0757C54.4291 28.0188 54.0987 27.9838 53.7595 27.9838H45.5072C42.36 27.9838 39.8086 30.5351 39.8086 33.6824V37.2089C39.8086 38.4326 40.198 39.5635 40.8547 40.4924C41.8866 41.952 43.5842 42.9079 45.5077 42.9079H53.1472H54.2803C54.4109 42.9079 54.5356 42.9599 54.628 43.0518L55.7984 44.2223L58.6189 47.0427C58.7192 47.1431 58.8422 47.1879 58.9635 47.1879C59.2152 47.1875 59.4581 46.9912 59.4581 46.6946ZM58.1362 44.6907L55.5622 42.1171C55.2194 41.7743 54.7643 41.5856 54.2794 41.5856H45.5072C43.0939 41.5856 41.1305 39.6221 41.1305 37.2089V33.6824C41.1305 31.2691 43.0939 29.3056 45.5072 29.3056H53.7595C56.1728 29.3056 58.1362 31.2691 58.1362 33.6824V44.6907Z" fill="#1E3565"/>
</svg>
