<svg width="104" height="104" viewBox="0 0 104 104" fill="none" xmlns="http://www.w3.org/2000/svg">
<g opacity="0.2">
<rect width="104" height="104" rx="52" fill="#9BD08C"/>
<rect x="0.5" y="0.5" width="103" height="103" rx="51.5" stroke="white" stroke-opacity="0.17"/>
</g>
<g clip-path="url(#clip0_9776_75662)">
<path d="M31.1295 74.4282H51.005C51.1933 74.4282 51.3738 74.3534 51.5069 74.2203C51.6401 74.0872 51.7148 73.9066 51.7148 73.7184C51.7148 73.5301 51.6401 73.3496 51.5069 73.2164C51.3738 73.0833 51.1933 73.0085 51.005 73.0085H31.1295C30.9413 73.0085 30.7607 72.9338 30.6276 72.8006C30.4945 72.6675 30.4197 72.487 30.4197 72.2987V31.1281C30.4197 30.9398 30.4945 30.7592 30.6276 30.6261C30.7607 30.493 30.9413 30.4182 31.1295 30.4182H60.9428C61.131 30.4182 61.3116 30.493 61.4447 30.6261C61.5778 30.7592 61.6526 30.9398 61.6526 31.1281V38.2264C61.6526 38.4147 61.7274 38.5953 61.8605 38.7284C61.9936 38.8615 62.1742 38.9363 62.3624 38.9363C62.5507 38.9363 62.7312 38.8615 62.8644 38.7284C62.9975 38.5953 63.0723 38.4147 63.0723 38.2264V31.1281C63.0723 29.954 62.1168 28.9985 60.9428 28.9985H31.1295C29.9554 28.9985 29 29.954 29 31.1281V72.2987C29 73.4728 29.9554 74.4282 31.1295 74.4282Z" fill="#1E3565"/>
<path d="M54.5547 43.9049V72.2985C54.5547 73.4725 55.5101 74.428 56.6842 74.428H72.3007C73.4747 74.428 74.4302 73.4725 74.4302 72.2985V43.9049C74.4302 42.7308 73.4747 41.7754 72.3007 41.7754H56.6842C55.5101 41.7754 54.5547 42.7308 54.5547 43.9049ZM73.0105 43.9049V72.2985C73.0105 72.4867 72.9357 72.6673 72.8026 72.8004C72.6695 72.9335 72.4889 73.0083 72.3007 73.0083H56.6842C56.4959 73.0083 56.3154 72.9335 56.1823 72.8004C56.0492 72.6673 55.9744 72.4867 55.9744 72.2985V43.9049C55.9744 43.7166 56.0492 43.5361 56.1823 43.403C56.3154 43.2699 56.4959 43.1951 56.6842 43.1951H72.3007C72.4889 43.1951 72.6695 43.2699 72.8026 43.403C72.9357 43.5361 73.0105 43.7166 73.0105 43.9049Z" fill="#1E3565"/>
<path d="M46.0369 70.1694C46.8209 70.1694 47.4565 69.5338 47.4565 68.7498C47.4565 67.9657 46.8209 67.3301 46.0369 67.3301C45.2528 67.3301 44.6172 67.9657 44.6172 68.7498C44.6172 69.5338 45.2528 70.1694 46.0369 70.1694Z" fill="#1E3565"/>
<path d="M64.49 70.1694C65.2741 70.1694 65.9097 69.5338 65.9097 68.7498C65.9097 67.9657 65.2741 67.3301 64.49 67.3301C63.7059 67.3301 63.0703 67.9657 63.0703 68.7498C63.0703 69.5338 63.7059 70.1694 64.49 70.1694Z" fill="#1E3565"/>
</g>
<defs>
<clipPath id="clip0_9776_75662">
<rect width="45.4297" height="45.4297" fill="white" transform="translate(29 29)"/>
</clipPath>
</defs>
</svg>
