<svg xmlns="http://www.w3.org/2000/svg" fill="none" width="46" height="46" viewBox="0 0 46 46"><circle fill="#fff" cx="23.248" cy="23.23" r="22.669"/><path d="M28.12 12.757h-9.66a5.643 5.643 0 0 0-5.643 5.643v9.66a5.643 5.643 0 0 0 5.644 5.642h9.658a5.643 5.643 0 0 0 5.644-5.643v-9.66a5.643 5.643 0 0 0-5.644-5.642Z" stroke="#1E3565" stroke-miterlimit="10" stroke-width=".873"/><path d="M23.29 28.286a5.056 5.056 0 1 0 0-10.112 5.056 5.056 0 0 0 0 10.112Z" stroke="#1E3565" stroke-miterlimit="10" stroke-width=".873"/><path d="M29.43 18.174a1.083 1.083 0 1 0 0-2.167 1.083 1.083 0 0 0 0 2.167Z" fill="#1E3565"/></svg>