<svg width="22" height="23" viewBox="0 0 22 23" fill="none" xmlns="http://www.w3.org/2000/svg">
<path d="M15.8385 0.944092H6.176C3.0582 0.944092 0.53125 3.47149 0.53125 6.58884V16.2514C0.53125 19.3692 3.05864 21.8961 6.17645 21.8961H15.8381C18.9559 21.8961 21.4833 19.3687 21.4833 16.2509V6.58884C21.4833 3.47104 18.9559 0.944092 15.8381 0.944092H15.8385Z" stroke="#1E3565" stroke-miterlimit="10"/>
<path d="M11.0067 16.4787C13.7999 16.4787 16.0642 14.2144 16.0642 11.4212C16.0642 8.62808 13.7999 6.36377 11.0067 6.36377C8.21353 6.36377 5.94922 8.62808 5.94922 11.4212C5.94922 14.2144 8.21353 16.4787 11.0067 16.4787Z" stroke="#1E3565" stroke-miterlimit="10"/>
<path d="M17.1477 6.36162C17.746 6.36162 18.231 5.87662 18.231 5.27835C18.231 4.68007 17.746 4.19507 17.1477 4.19507C16.5495 4.19507 16.0645 4.68007 16.0645 5.27835C16.0645 5.87662 16.5495 6.36162 17.1477 6.36162Z" fill="#1E3565"/>
</svg>
