<svg width="25" height="25" viewBox="0 0 25 25" fill="none" xmlns="http://www.w3.org/2000/svg">
<path d="M16.0937 8.41821C17.6855 8.41821 19.2121 9.05055 20.3376 10.1761C21.4632 11.3017 22.0956 12.8283 22.0956 14.4201V21.4223H18.0943V14.4201C18.0943 13.8895 17.8835 13.3806 17.5083 13.0054C17.1331 12.6302 16.6243 12.4195 16.0937 12.4195C15.5631 12.4195 15.0542 12.6302 14.679 13.0054C14.3038 13.3806 14.0931 13.8895 14.0931 14.4201V21.4223H10.0918V14.4201C10.0918 12.8283 10.7241 11.3017 11.8497 10.1761C12.9753 9.05055 14.5019 8.41821 16.0937 8.41821V8.41821Z" stroke="#1E3565" stroke-linecap="round" stroke-linejoin="round"/>
<path d="M6.0911 9.4187H2.08984V21.4225H6.0911V9.4187Z" stroke="#1E3565" stroke-linecap="round" stroke-linejoin="round"/>
<path d="M4.09047 6.41751C5.19539 6.41751 6.0911 5.5218 6.0911 4.41689C6.0911 3.31197 5.19539 2.41626 4.09047 2.41626C2.98555 2.41626 2.08984 3.31197 2.08984 4.41689C2.08984 5.5218 2.98555 6.41751 4.09047 6.41751Z" stroke="#1E3565" stroke-linecap="round" stroke-linejoin="round"/>
</svg>
