<svg width="18" height="18" viewBox="0 0 18 18" fill="none" xmlns="http://www.w3.org/2000/svg">
<g clip-path="url(#clip0_7664_60119)">
<path d="M15.3203 7.78125C15.3203 12.7396 8.94531 16.9896 8.94531 16.9896C8.94531 16.9896 2.57031 12.7396 2.57031 7.78125C2.57031 6.09049 3.24196 4.46899 4.43751 3.27344C5.63305 2.0779 7.25456 1.40625 8.94531 1.40625C10.6361 1.40625 12.2576 2.0779 13.4531 3.27344C14.6487 4.46899 15.3203 6.09049 15.3203 7.78125Z" stroke="black" stroke-linecap="round" stroke-linejoin="round"/>
<path d="M8.94531 9.90625C10.1189 9.90625 11.0703 8.95486 11.0703 7.78125C11.0703 6.60765 10.1189 5.65625 8.94531 5.65625C7.77171 5.65625 6.82031 6.60765 6.82031 7.78125C6.82031 8.95486 7.77171 9.90625 8.94531 9.90625Z" stroke="black" stroke-linecap="round" stroke-linejoin="round"/>
</g>
<defs>
<clipPath id="clip0_7664_60119">
<rect width="17" height="17" fill="white" transform="translate(0.445312 0.697998)"/>
</clipPath>
</defs>
</svg>
