<svg xmlns="http://www.w3.org/2000/svg" fill="none" width="269" height="42" viewBox="0 0 269 42"><path d="M50.998 36.337c-.627-.744-.743-1.37-.743-4.518v-7.55c0-3.374-.573-5.549-1.715-6.978-1.657-1.885-4.46-2.973-7.947-2.973-3.202 0-6.461.913-9.95 2.744v4.916c3.489-1.773 5.49-2.458 7.89-2.628 2.687-.17 4.634.801 5.032 2.686.17.573.17.744.229 2.46-5.032.571-8.52 1.314-10.293 2.285-2.687 1.43-4.348 4.061-4.348 6.918 0 2.342.628 4.231 1.886 5.547 1.316 1.317 3.43 2.23 5.377 2.23 3.143.001 4.633-.572 8.117-3.088.515 1.715 1.886 2.687 4.173 2.915 1.317.17 2.288.116 4.12-.228l.859-4.061c-1.43.062-2.172-.167-2.687-.681Zm-7.204-1.143c-2.001 1.259-3.43 1.831-4.688 1.831-2.346 0-3.716-1.316-3.716-3.658 0-2.915 2.574-4.517 8.404-5.319v7.146ZM16.526 14.21c-3.202 0-5.946 1.37-8.633 4.288-.286-2.288-.97-3.604-2.117-4.289L0 15.98c1.428 1.716 1.715 3.203 1.715 9.207v15.496h6.577V23.07c2.06-2.346 3.832-3.372 5.888-3.372 1.603 0 2.803.515 3.658 1.545.801.972 1.088 2.172 1.088 4.576v14.865h6.577V23.585c0-5.718-3.488-9.376-8.977-9.376Zm62.356 4.629c-2.687-3.201-6.004-4.63-10.75-4.63-2.687 0-5.946 1.088-8.118 2.687-3.43 2.574-5.377 6.577-5.377 11.148 0 8.064 5.605 13.437 14.01 13.437 8.005 0 13.835-6.348 13.378-14.466-.17-3.143-1.258-5.946-3.143-8.176ZM68.817 36.395c-4.347 0-7.49-3.945-7.49-9.264 0-4.634 3.03-7.89 6.975-7.607 4.173.287 7.034 3.89 7.034 8.977 0 4.75-2.575 7.893-6.52 7.893Zm168.974-.19c-2.644 1.572-4.63 2.148-6.887 1.978-5.249-.337-8.775-4.53-8.775-10.425 0-5.644 3.69-9.74 8.768-9.74 2.175 0 3.855.58 6.205 2.15l.128.084 1.827-2.706-.12-.089c-2.44-1.8-4.936-2.6-8.098-2.6-6.864 0-12.446 5.813-12.446 12.96 0 8.163 5.025 13.65 12.504 13.65 3.25 0 5.818-.838 8.326-2.719l.109-.08-1.398-2.544-.143.08Zm23.776 2.42a5.84 5.84 0 0 1-.348.02c-1.103 0-1.711-.323-1.974-1.054-.271-.596-.33-1.266-.33-3.767v-9.666c0-3.314-.38-5.075-1.343-6.267-1.39-1.913-3.785-2.923-6.93-2.923-2.585 0-5.283.793-8.248 2.42l-.078.042v3.155l.229-.132c2.566-1.46 4.924-2.214 7.425-2.38 1.687-.113 3.193.348 4.115 1.273 1.014.956 1.324 2.056 1.265 4.522v1.176c-3.244.33-4.509.504-5.826.79-5.388 1.216-8.237 3.937-8.47 8.09-.112 2.083.554 4 1.878 5.397 1.308 1.382 3.151 2.14 5.195 2.14 2.752 0 5.323-.944 7.638-2.802.573 1.847 1.97 2.745 4.258 2.745.739 0 1.033-.054 1.912-.22l.167-.032.45-2.57h-.183c-.252.004-.558.027-.802.042ZM255.35 36.2c-2.338 1.715-3.936 2.327-6.08 2.327-1.45 0-2.711-.496-3.555-1.394-.793-.844-1.173-1.967-1.095-3.248.278-3.79 2.992-5.404 10.73-6.356V36.2ZM143.162 14.856c-1.762 0-3.922.731-5.633 1.916-.913.646-1.533 1.243-2.667 2.578-1.308-2.985-3.844-4.494-7.537-4.494-3.271 0-5.97 1.417-8.021 4.211-.302-2.02-.844-3.066-2.114-4.173l-.077-.066-2.98 1.46.166.15c1.37 1.26 1.722 2.928 1.722 8.123v16.278h3.566V22.095c2.198-2.857 4.42-4.189 6.995-4.189 2.02 0 3.395.55 4.46 1.777.948 1.115 1.222 2.288 1.222 5.218v15.934h3.566v-16.56c0-.632 0-1.13-.054-2.184 2.082-2.849 4.324-4.178 7.049-4.178 2.113 0 4.01 1.003 4.96 2.613.599.98.719 1.804.719 4.893V40.84h3.565V24.216c0-2.594-.395-4.382-1.28-5.803-1.48-2.291-4.186-3.557-7.627-3.557Zm69.618-11.15c-1.394 0-2.443 1.05-2.443 2.44 0 1.393 1.05 2.442 2.443 2.442s2.442-1.049 2.442-2.442c0-1.39-1.05-2.44-2.442-2.44ZM265.435.162V40.84H269V.16h-3.565Zm-89.017 35.15c-2.136 2.028-4.45 2.93-7.498 2.93-5.129 0-8.996-4.359-8.996-10.138v-.933c18.376.034 18.372.034 18.418-.012l.043-.043v-.061c.035-3.573-.128-4.924-1.27-6.968-1.846-3.52-4.846-5.23-9.17-5.23-6.345 0-11.703 5.857-11.703 12.79 0 3.805.71 6.43 2.373 8.78 2.28 3.154 5.938 5.04 9.786 5.04 4.135 0 7.204-1.25 9.945-4.05l.1-.104-1.92-2.11-.108.109Zm-15.426-13.367c1.355-2.486 4.04-4.096 6.84-4.096 3.972 0 6.7 2.55 7.15 6.67h-14.849c.26-1.223.476-1.866.86-2.574Zm45.408 16.68a5.84 5.84 0 0 1-.344.02c-1.107 0-1.715-.322-1.975-1.053-.27-.593-.329-1.262-.329-3.767V.161h-3.57v16.603c-2.755-1.362-4.07-1.68-6.82-1.68-6.705 0-12.163 5.892-12.163 13.135 0 3.588.712 6.205 2.315 8.49 1.967 2.887 5.427 4.757 8.82 4.757 3.424 0 5.526-.728 8.205-2.865.58 1.862 2.031 2.807 4.315 2.807.766 0 1.118-.058 1.92-.233l.1-.023.515-2.57h-.186c-.255.004-.561.027-.805.042Zm-6.217-2.764c-2.624 2.006-3.999 2.497-6.937 2.497-4.816 0-8.311-4.266-8.311-10.138 0-5.648 3.569-9.914 8.485-10.139.186-.007.368-.011.55-.011 2.222 0 3.964.666 6.21 2.338V35.86h.003Zm10.727 4.979h3.565v-25.3h-3.565v25.298ZM107.351 21.843l-9.012-2.474-2.447-9.14-2.71.724 2.025 7.557-7.456-2.048-.705 2.717 7.456 2.044-5.444 5.509 1.99 2.013 5.43-5.493 2.022 7.537 2.71-.724-2.026-7.557 7.456 2.044.709-2.71Z" fill="#163970"/><path d="M103.736 16.694c1.2-.321 1.913-1.575 1.584-2.79-.326-1.216-1.568-1.948-2.768-1.623-1.2.321-1.913 1.576-1.584 2.791.326 1.216 1.568 1.944 2.768 1.622Z" fill="#163970"/></svg>