<svg width="65" height="65" viewBox="0 0 65 65" fill="none" xmlns="http://www.w3.org/2000/svg">
<path d="M18.8067 59.314H12.8518C12.304 59.314 11.8594 58.8694 11.8594 58.3216C11.8594 57.7737 12.304 57.3291 12.8518 57.3291H18.8067C19.3545 57.3291 19.7991 57.7737 19.7991 58.3216C19.7991 58.8694 19.3555 59.314 18.8067 59.314Z" fill="#9ACF8C"/>
<path d="M52.3067 59.3223H46.3518C45.803 59.3223 45.3594 58.8777 45.3594 58.3299C45.3594 57.782 45.803 57.3374 46.3518 57.3374H52.3067C52.8555 57.3374 53.2991 57.782 53.2991 58.3299C53.2991 58.8777 52.8555 59.3223 52.3067 59.3223Z" fill="#9ACF8C"/>
<path d="M52.3019 59.3232C51.7829 59.3232 51.3462 58.9193 51.3124 58.3933C51.1586 55.9706 51.0128 53.7842 50.7864 51.574C50.7309 51.0282 51.1279 50.5409 51.6737 50.4853C52.2047 50.4207 52.7059 50.8257 52.7624 51.3715C52.9917 53.6185 53.1396 55.8238 53.2944 58.2672C53.3291 58.8141 52.9133 59.2855 52.3665 59.3212C52.3446 59.3222 52.3238 59.3232 52.3019 59.3232Z" fill="#9ACF8C"/>
<path d="M12.8529 59.3148C12.832 59.3148 12.8112 59.3149 12.7893 59.3129C12.2425 59.2781 11.8267 58.8067 11.8614 58.2599C12.0083 55.9256 12.1592 53.6419 12.3934 51.3712C12.4489 50.8263 12.9293 50.4263 13.4821 50.4859C14.027 50.5424 14.424 51.0298 14.3674 51.5746C14.1381 53.8097 13.9873 56.0715 13.8424 58.3849C13.8096 58.9109 13.3729 59.3148 12.8529 59.3148Z" fill="#9ACF8C"/>
<path d="M23.9314 20.8016C23.5265 20.8016 23.1464 20.5525 22.9995 20.1505L19.7015 11.1518C19.513 10.6368 19.777 10.0671 20.292 9.87849C20.8071 9.69092 21.3768 9.95496 21.5654 10.469L24.8633 19.4677C25.0519 19.9829 24.7879 20.5525 24.2728 20.7411C24.1607 20.7818 24.0445 20.8016 23.9314 20.8016Z" fill="#9ACF8C"/>
<path d="M23.9306 20.8023C23.5366 20.8023 23.1634 20.5662 23.0086 20.1771C22.8052 19.668 23.0533 19.0903 23.5623 18.8879C29.3782 16.5665 35.7836 16.5675 41.5965 18.8879C42.1057 19.0914 42.3538 19.6689 42.1503 20.1771C41.9469 20.6872 41.3692 20.9324 40.8601 20.7309C35.5216 18.6 29.6392 18.5991 24.2978 20.7309C24.1767 20.7795 24.0526 20.8023 23.9306 20.8023Z" fill="#9ACF8C"/>
<path d="M41.2272 20.8023C41.1141 20.8023 40.9989 20.7825 40.8858 20.7408C40.3707 20.5522 40.1067 19.9815 40.2953 19.4675L43.5952 10.4687C43.7838 9.95368 44.3545 9.6916 44.8676 9.87822C45.3827 10.0668 45.6467 10.6374 45.4581 11.1516L42.1591 20.1503C42.0113 20.5532 41.6311 20.8023 41.2272 20.8023Z" fill="#9ACF8C"/>
<path d="M46.1464 33.7866C45.6709 33.7866 45.2522 33.4452 45.1698 32.9609C44.9127 31.4573 44.7767 29.918 44.6447 28.4293C44.4175 25.8628 44.2031 23.4382 43.427 21.1247C43.2523 20.6056 43.5322 20.0429 44.0533 19.8683C44.5703 19.6956 45.135 19.9745 45.3097 20.4935C46.1593 23.0293 46.3955 25.6851 46.6217 28.2536C46.7507 29.7026 46.8837 31.2013 47.1259 32.6265C47.2192 33.1664 46.856 33.6795 46.3151 33.7718C46.2575 33.7827 46.2019 33.7866 46.1464 33.7866Z" fill="#9ACF8C"/>
<path d="M19.0163 33.7867C18.9607 33.7867 18.9051 33.7827 18.8496 33.7728C18.3097 33.6805 17.9454 33.1684 18.0377 32.6285C18.2799 31.2023 18.4138 29.7057 18.5429 28.2576C18.7721 25.6911 19.0093 23.0363 19.853 20.4975C20.0256 19.9775 20.5873 19.6946 21.1074 19.8683C21.6275 20.042 21.9093 20.6028 21.7366 21.1228C20.9665 23.4432 20.7491 25.8678 20.5199 28.4343C20.3869 29.921 20.2499 31.4574 19.9938 32.961C19.9115 33.4443 19.4917 33.7867 19.0163 33.7867Z" fill="#9ACF8C"/>
<path d="M24.8661 27.6658C24.3649 27.6658 23.9342 27.2867 23.8806 26.7766C23.823 26.2317 24.219 25.7434 24.7638 25.6859C29.5634 25.1807 34.2539 23.5461 38.3259 20.9587C38.7884 20.666 39.4018 20.8019 39.6956 21.2644C39.9903 21.7269 39.8523 22.3402 39.3899 22.634C35.0607 25.3841 30.0746 27.1219 24.9713 27.6589C24.9365 27.6639 24.9008 27.6658 24.8661 27.6658Z" fill="#9ACF8C"/>
<path d="M22.446 27.7893C21.4992 27.7893 20.5524 27.7348 19.6125 27.6265C19.0687 27.564 18.6776 27.0718 18.7411 26.5269C18.8037 25.9821 19.2979 25.5841 19.8408 25.6555C21.4754 25.8431 23.1348 25.8531 24.7714 25.6863C25.3163 25.6257 25.8045 26.0267 25.8601 26.5726C25.9167 27.1175 25.5197 27.6057 24.9738 27.6613C24.1343 27.7467 23.2897 27.7893 22.446 27.7893Z" fill="#9ACF8C"/>
<path d="M24.6409 29.5484C24.0931 29.5484 23.6484 29.1038 23.6484 28.5559C23.6484 27.8533 23.7318 27.1496 23.8965 26.4678L25.8319 26.9104L25.8259 26.9362C25.6979 27.4623 25.6334 28.0081 25.6334 28.5559C25.6334 29.1038 25.1887 29.5484 24.6409 29.5484Z" fill="#9ACF8C"/>
<path d="M40.5216 29.548C39.9738 29.548 39.5301 29.1044 39.5292 28.5565C39.5282 27.7566 39.4557 26.9508 39.3128 26.1627C39.2155 25.6238 39.5748 25.1077 40.1137 25.0095C40.6586 24.9062 41.1687 25.2705 41.267 25.8094C41.4297 26.7135 41.5131 27.6366 41.5141 28.5546C41.5151 29.1024 41.0715 29.547 40.5216 29.548Z" fill="#9ACF8C"/>
<path d="M17.055 40.7625C16.937 40.7625 16.8168 40.7417 16.7007 40.697C16.1887 40.5015 15.9326 39.9279 16.1281 39.4158C16.9687 37.2164 17.6118 34.9278 18.0386 32.6134C18.1378 32.0745 18.649 31.7182 19.1948 31.8174C19.7337 31.9167 20.0901 32.4348 19.9908 32.9736C19.5412 35.4062 18.8663 37.8119 17.982 40.1234C17.8312 40.5194 17.455 40.7625 17.055 40.7625Z" fill="#9ACF8C"/>
<path d="M48.101 40.7619C47.702 40.7619 47.3259 40.5188 47.174 40.1238C46.2887 37.8113 45.6139 35.4056 45.1653 32.973C45.0651 32.4341 45.4223 31.917 45.9612 31.8168C46.5091 31.7196 47.0182 32.0749 47.1175 32.6128C47.5442 34.9262 48.1873 37.2149 49.0279 39.4142C49.2235 39.9263 48.9674 40.4999 48.4563 40.6964C48.3382 40.7411 48.2191 40.7619 48.101 40.7619Z" fill="#9ACF8C"/>
<path d="M33.875 53.1999C33.7301 53.1999 33.5832 53.1681 33.4442 53.1016C32.95 52.8634 32.7436 52.2699 32.9818 51.7767L38.0404 41.2922C38.2786 40.7989 38.8701 40.5916 39.3653 40.8297C39.8586 41.0679 40.066 41.6615 39.8278 42.1547L34.7692 52.6391C34.5975 52.9934 34.2432 53.1999 33.875 53.1999Z" fill="#9ACF8C"/>
<path d="M31.285 53.2007C30.9158 53.2007 30.5615 52.9943 30.3908 52.64L25.3332 42.1555C25.095 41.6613 25.3024 41.0688 25.7957 40.8306C26.2889 40.5944 26.8824 40.7998 27.1206 41.2931L32.1782 51.7775C32.4164 52.2718 32.209 52.8643 31.7158 53.1025C31.5768 53.169 31.4299 53.2007 31.285 53.2007Z" fill="#9ACF8C"/>
<path d="M45.752 45.5615C45.6747 45.5615 45.5962 45.5526 45.5178 45.5337C43.7125 45.0971 41.8656 44.7507 40.0325 44.5055C39.4896 44.4331 39.1075 43.9329 39.1809 43.39C39.2544 42.8471 39.7496 42.462 40.2965 42.5385C42.198 42.7926 44.1125 43.1518 45.9853 43.6044C46.5172 43.7334 46.8448 44.2694 46.7157 44.8023C46.6056 45.2568 46.1996 45.5615 45.752 45.5615Z" fill="#9ACF8C"/>
<path d="M19.4137 45.562C18.9661 45.562 18.5601 45.2573 18.45 44.8027C18.321 44.2698 18.6485 43.7329 19.1814 43.6038C21.0532 43.1513 22.9677 42.793 24.8702 42.538C25.4141 42.4725 25.9123 42.8466 25.9857 43.3895C26.0582 43.9324 25.6771 44.4326 25.1342 44.505C23.2992 44.7512 21.4532 45.0965 19.6489 45.5332C19.5695 45.554 19.491 45.562 19.4137 45.562Z" fill="#9ACF8C"/>
<path d="M43.0698 48.7683C42.7531 48.7683 42.4415 48.6175 42.25 48.3356L38.1114 42.2826C37.8008 41.83 37.9178 41.2127 38.3704 40.903C38.825 40.5953 39.4413 40.7115 39.75 41.162L43.8885 47.2151C44.1992 47.6677 44.0821 48.285 43.6295 48.5947C43.4578 48.7118 43.2633 48.7683 43.0698 48.7683Z" fill="#9ACF8C"/>
<path d="M40.0155 49.5347C39.5718 49.5347 39.1669 49.234 39.0537 48.7834C38.9198 48.2514 39.2423 47.7125 39.7752 47.5795L42.8261 46.8143C43.3591 46.6823 43.897 47.0029 44.03 47.5358C44.164 48.0678 43.8414 48.6067 43.3084 48.7397L40.2576 49.5049C40.1762 49.5248 40.0958 49.5347 40.0155 49.5347Z" fill="#9ACF8C"/>
<path d="M25.1461 49.5336C25.0657 49.5336 24.9843 49.5236 24.9039 49.5038L21.853 48.7386C21.3211 48.6056 20.9985 48.0667 21.1315 47.5347C21.2645 47.0027 21.8034 46.6793 22.3354 46.8132L25.3862 47.5784C25.9182 47.7114 26.2407 48.2503 26.1077 48.7823C25.9946 49.2329 25.5907 49.5336 25.1461 49.5336Z" fill="#9ACF8C"/>
<path d="M22.0928 48.7693C21.9003 48.7693 21.7048 48.7128 21.5341 48.5966C21.0815 48.2869 20.9654 47.6697 21.275 47.2171L25.4136 41.164C25.7233 40.7124 26.3406 40.5973 26.7932 40.905C27.2457 41.2147 27.3618 41.8319 27.0522 42.2845L22.9136 48.3376C22.721 48.6175 22.4104 48.7693 22.0928 48.7693Z" fill="#9ACF8C"/>
<path d="M13.3845 52.4651C13.3507 52.4651 13.317 52.464 13.2812 52.4601C12.7364 52.4045 12.3394 51.9172 12.396 51.3713C12.7821 47.6169 15.5064 44.4955 19.1755 43.6053C19.7055 43.4733 20.2444 43.8028 20.3744 44.3358C20.5035 44.8687 20.1769 45.4056 19.644 45.5347C16.7906 46.2274 14.6717 48.6549 14.371 51.5748C14.3184 52.0849 13.8877 52.4651 13.3845 52.4651Z" fill="#9ACF8C"/>
<path d="M51.7759 52.4654C51.2728 52.4654 50.843 52.0852 50.7894 51.5751C50.4887 48.6543 48.3697 46.2267 45.5164 45.535C44.9835 45.4059 44.6569 44.869 44.786 44.3361C44.915 43.8031 45.4539 43.4727 45.9839 43.6056C49.652 44.4948 52.3763 47.6162 52.7644 51.3717C52.8209 51.9165 52.424 52.4049 51.8781 52.4604C51.8434 52.4634 51.8097 52.4654 51.7759 52.4654Z" fill="#9ACF8C"/>
<path d="M17.0553 40.7636C16.6484 40.7636 16.2673 40.5115 16.1214 40.1066C15.9358 39.5905 16.2037 39.0218 16.7188 38.8362C18.7683 38.0988 20.8892 37.4994 23.022 37.0557C23.5579 36.9416 24.084 37.288 24.1961 37.8249C24.3083 38.3618 23.9639 38.8868 23.4269 38.999C21.3834 39.4247 19.3539 39.9984 17.3908 40.704C17.2806 40.7447 17.1674 40.7636 17.0553 40.7636Z" fill="#9ACF8C"/>
<path d="M48.1076 40.7636C47.9964 40.7636 47.8823 40.7447 47.7711 40.704C45.807 39.9974 43.7765 39.4238 41.735 38.999C41.1991 38.8868 40.8537 38.3618 40.9668 37.8249C41.077 37.288 41.595 36.9416 42.1409 37.0557C44.2717 37.4994 46.3926 38.0988 48.4451 38.8362C48.9612 39.0218 49.2281 39.5905 49.0435 40.1056C48.8956 40.5115 48.5145 40.7636 48.1076 40.7636Z" fill="#9ACF8C"/>
<path d="M32.5252 40.7018C31.0018 40.7018 29.4803 40.1996 28.1494 39.1684C25.3605 37.0078 23.72 33.1451 23.6485 28.5718C23.6406 28.024 24.0773 27.5724 24.6251 27.5635C25.1929 27.5654 25.6246 27.9922 25.6335 28.5401C25.6623 30.4168 26.0851 35.0576 29.3642 37.5983C31.7511 39.4483 34.8813 38.9729 36.9774 36.4431C39.0229 33.9728 39.4933 30.7821 39.5271 28.5401C39.536 27.9972 39.9786 27.5635 40.5196 27.5635C40.5245 27.5635 40.5295 27.5635 40.5354 27.5635C41.0832 27.5724 41.5209 28.023 41.512 28.5718C41.4723 31.1324 40.9185 34.7956 38.5068 37.7105C36.8772 39.6785 34.6997 40.7018 32.5252 40.7018Z" fill="#9ACF8C"/>
<path d="M20.6337 11.8018C20.3181 11.8018 20.0084 11.6519 19.8159 11.373C19.5053 10.9214 19.6184 10.3031 20.069 9.99245C23.7173 7.47657 27.4133 6.06329 31.0526 5.79036C35.0007 5.49262 39.0797 6.45234 42.8481 8.55936C43.652 9.00894 44.3973 9.5141 45.0911 9.99245C45.5426 10.3031 45.6558 10.9214 45.3452 11.373C45.0335 11.8246 44.4142 11.9367 43.9647 11.6261C43.3086 11.1735 42.607 10.6981 41.8785 10.2902C38.4535 8.37376 34.7595 7.50534 31.2005 7.76837C27.9164 8.01546 24.5499 9.31262 21.1954 11.6261C21.0237 11.7452 20.8282 11.8018 20.6337 11.8018Z" fill="#9ACF8C"/>
<path d="M33.5714 11.1876H35.5554V13.1725H33.5714V15.1574H31.5865V13.1725H29.6016V11.1876H31.5865V9.20264H33.5714V11.1876Z" fill="#9ACF8C"/>
</svg>
