<svg width="52" height="53" viewBox="0 0 52 53" fill="none" xmlns="http://www.w3.org/2000/svg">
<path d="M2.94225 52.7021H25.2991C25.5109 52.7021 25.714 52.6166 25.8637 52.4644C26.0134 52.3122 26.0976 52.1058 26.0976 51.8905C26.0976 51.6753 26.0134 51.4689 25.8637 51.3167C25.714 51.1645 25.5109 51.0789 25.2991 51.0789H2.94225C2.73049 51.0789 2.5274 50.9934 2.37766 50.8412C2.22792 50.689 2.14379 50.4826 2.14379 50.2674V3.19503C2.14379 2.97978 2.22792 2.77335 2.37766 2.62115C2.5274 2.46894 2.73049 2.38344 2.94225 2.38344H36.4775C36.6893 2.38344 36.8924 2.46894 37.0421 2.62115C37.1919 2.77335 37.276 2.97978 37.276 3.19503V11.3109C37.276 11.5262 37.3601 11.7326 37.5098 11.8848C37.6596 12.037 37.8627 12.1225 38.0744 12.1225C38.2862 12.1225 38.4893 12.037 38.639 11.8848C38.7888 11.7326 38.8729 11.5262 38.8729 11.3109V3.19503C38.8729 1.85266 37.7982 0.760254 36.4775 0.760254H2.94225C1.6216 0.760254 0.546875 1.85266 0.546875 3.19503V50.2674C0.546875 51.6097 1.6216 52.7021 2.94225 52.7021Z" fill="#1E3565"/>
<path d="M29.293 17.8034V50.2671C29.293 51.6095 30.3677 52.7019 31.6883 52.7019H49.2544C50.5751 52.7019 51.6498 51.6095 51.6498 50.2671V17.8034C51.6498 16.4611 50.5751 15.3687 49.2544 15.3687H31.6883C30.3677 15.3687 29.293 16.4611 29.293 17.8034ZM50.0529 17.8034V50.2671C50.0529 50.4824 49.9688 50.6888 49.819 50.841C49.6693 50.9932 49.4662 51.0787 49.2544 51.0787H31.6883C31.4766 51.0787 31.2735 50.9932 31.1237 50.841C30.974 50.6888 30.8899 50.4824 30.8899 50.2671V17.8034C30.8899 17.5882 30.974 17.3817 31.1237 17.2295C31.2735 17.0773 31.4766 16.9918 31.6883 16.9918H49.2544C49.4662 16.9918 49.6693 17.0773 49.819 17.2295C49.9688 17.3817 50.0529 17.5882 50.0529 17.8034Z" fill="#1E3565"/>
<path d="M19.7102 47.8333C20.5922 47.8333 21.3071 47.1066 21.3071 46.2101C21.3071 45.3136 20.5922 44.5869 19.7102 44.5869C18.8282 44.5869 18.1133 45.3136 18.1133 46.2101C18.1133 47.1066 18.8282 47.8333 19.7102 47.8333Z" fill="#1E3565"/>
<path d="M40.468 47.8333C41.35 47.8333 42.0649 47.1066 42.0649 46.2101C42.0649 45.3136 41.35 44.5869 40.468 44.5869C39.5861 44.5869 38.8711 45.3136 38.8711 46.2101C38.8711 47.1066 39.5861 47.8333 40.468 47.8333Z" fill="#1E3565"/>
</svg>
