<svg width="53" height="53" viewBox="0 0 53 53" fill="none" xmlns="http://www.w3.org/2000/svg">
<mask id="path-1-inside-1_5203_21483" fill="white">
<path d="M35.3837 27.1917L35.1594 27.9861L35.1255 28.054L35.0959 28.0976C34.8197 28.1797 34.5348 28.2172 34.2496 28.209C34.5118 27.3332 34.6 26.4014 34.5077 25.4817C34.4988 25.3566 34.5179 25.2309 34.563 25.1165C34.6082 25.0021 34.678 24.9028 34.7658 24.8277C35.2422 24.413 35.5941 23.8392 35.773 23.1855L35.9126 21.9211C35.902 21.7487 35.875 21.5782 35.8322 21.4125C35.8322 21.3544 35.7984 21.3108 35.7857 21.272H35.6757C35.5114 21.2609 35.3569 21.1786 35.2437 21.0418C35.1305 20.9051 35.0671 20.7241 35.0663 20.5357C35.0875 18.1523 34.8674 16.6603 34.4865 15.6284C33.8433 14.3835 32.8489 13.7537 31.664 13.0755C31.4566 12.9738 31.2408 12.8624 31.0292 12.7364C27.1656 17.3578 23.9664 11.4139 19.3834 20.3661H19.2268C19.1676 20.5211 19.1041 20.6762 19.0449 20.8505L19.011 20.9281C18.9251 21.0983 18.7837 21.2225 18.6179 21.2734C18.452 21.3242 18.2753 21.2976 18.1266 21.1993C18.0222 21.1315 17.9629 21.1024 17.9488 21.1121C17.9234 21.1121 17.8938 21.1896 17.8557 21.2914C17.7733 21.5278 17.7261 21.7783 17.7161 22.0325C17.6695 23.0789 17.9658 24.4547 18.5624 25.1183C18.6235 25.1847 18.6725 25.2642 18.7067 25.3524C18.7408 25.4405 18.7594 25.5355 18.7613 25.6318C18.829 28.8291 20.0689 30.0498 21.5755 31.537L22.2102 32.1667C23.721 33.7072 25.3163 34.5017 26.8652 34.5017C28.414 34.5017 29.9078 33.7557 31.3127 32.2055H32.3368H32.4468C32.6542 32.2055 32.9166 32.2055 33.2128 32.2055L32.87 32.5785L32.2437 33.2567C30.551 35.1024 28.7483 35.9937 26.8948 35.9937C25.0413 35.9937 23.12 35.0685 21.3639 33.2809L20.746 32.6609C19.2607 31.2076 17.9996 29.9529 17.6061 27.2304L15.5664 27.4194C15.1754 27.4854 14.7774 27.374 14.4572 27.1088C14.137 26.8436 13.92 26.4457 13.8525 26L13.0612 18.8402C13.0401 18.6134 13.0587 18.3841 13.1159 18.1656C13.173 17.9471 13.2675 17.7438 13.3939 17.5676C13.5204 17.3913 13.6761 17.2456 13.8522 17.1389C14.0283 17.0322 14.2211 16.9666 14.4196 16.9461L15.0839 16.8831C15.0442 16.784 15.0212 16.6771 15.0162 16.5682C14.6184 9.13227 17.4199 4.45755 21.2073 2.21466C23.1431 1.11736 25.2929 0.608308 27.4502 0.736407C29.6074 0.864505 31.6997 1.62545 33.5259 2.94614C36.9875 5.49907 39.2473 10.1689 38.2317 16.6651C38.2152 16.7554 38.1897 16.8432 38.1555 16.9267L39.1669 17.0575C39.3807 17.0827 39.588 17.1565 39.7765 17.2747C39.9651 17.393 40.1311 17.5531 40.2647 17.7459C40.3984 17.9386 40.497 18.16 40.5549 18.397C40.6127 18.634 40.6285 18.8819 40.6014 19.126L39.8186 25.937C39.7516 26.4275 39.5198 26.8686 39.1728 27.1664C38.8258 27.4641 38.3909 27.5949 37.9608 27.5308C37.8456 28.0452 37.7043 28.5515 37.5376 29.047C37.3939 29.4679 37.1781 29.8517 36.9029 30.1758C36.0565 31.1737 33.3228 31.1737 32.3537 31.1737H29.8147C29.5229 31.5021 29.1749 31.7577 28.7925 31.9244C28.4101 32.0912 28.0017 32.1654 27.593 32.1425C26.1881 32.1425 25.054 31.2899 25.054 30.2387C25.054 29.1875 26.1881 28.3349 27.593 28.3349C27.9879 28.3256 28.3804 28.406 28.748 28.5715C29.1155 28.737 29.4507 28.9842 29.7343 29.2989H32.3368C33.0985 29.2989 35.3583 29.2989 35.7476 28.8484C35.8652 28.7092 35.9573 28.5445 36.0184 28.364L36.3062 27.337L35.3837 27.2159V27.1917ZM16.8697 13.8796C18.3085 6.19665 26.1331 1.40567 33.5598 6.28384C34.2281 6.7228 34.8369 7.27115 35.3667 7.91152C34.6496 6.53843 33.6611 5.37701 32.4807 4.52053C30.9476 3.40392 29.1877 2.76134 27.373 2.65549C25.5573 2.52666 23.7441 2.94947 22.1171 3.88109C19.3326 5.50876 17.1744 8.78348 16.8697 13.8796ZM19.7389 36.0809L23.6406 47.7992L25.6041 41.4096L24.6435 40.2082C23.9198 38.9972 24.1695 37.6262 25.4898 37.3792C25.9722 37.3263 26.4574 37.3149 26.9413 37.3453C27.4739 37.3058 28.0086 37.3301 28.5367 37.4179C29.7808 37.728 29.912 39.1086 29.2899 40.2082L28.3463 41.4096L30.3056 47.804L33.8391 36.0809C36.3781 38.7065 45.3537 39.2345 48.1594 41.0221C52.0441 43.512 51.9383 48.2885 52.7889 52.7452H0.789062C1.63541 48.3321 1.54655 43.4733 5.4186 41.0221C8.86749 38.8179 16.9163 38.9875 19.7389 36.0809Z"/>
</mask>
<path d="M35.3837 27.1917L35.1594 27.9861L35.1255 28.054L35.0959 28.0976C34.8197 28.1797 34.5348 28.2172 34.2496 28.209C34.5118 27.3332 34.6 26.4014 34.5077 25.4817C34.4988 25.3566 34.5179 25.2309 34.563 25.1165C34.6082 25.0021 34.678 24.9028 34.7658 24.8277C35.2422 24.413 35.5941 23.8392 35.773 23.1855L35.9126 21.9211C35.902 21.7487 35.875 21.5782 35.8322 21.4125C35.8322 21.3544 35.7984 21.3108 35.7857 21.272H35.6757C35.5114 21.2609 35.3569 21.1786 35.2437 21.0418C35.1305 20.9051 35.0671 20.7241 35.0663 20.5357C35.0875 18.1523 34.8674 16.6603 34.4865 15.6284C33.8433 14.3835 32.8489 13.7537 31.664 13.0755C31.4566 12.9738 31.2408 12.8624 31.0292 12.7364C27.1656 17.3578 23.9664 11.4139 19.3834 20.3661H19.2268C19.1676 20.5211 19.1041 20.6762 19.0449 20.8505L19.011 20.9281C18.9251 21.0983 18.7837 21.2225 18.6179 21.2734C18.452 21.3242 18.2753 21.2976 18.1266 21.1993C18.0222 21.1315 17.9629 21.1024 17.9488 21.1121C17.9234 21.1121 17.8938 21.1896 17.8557 21.2914C17.7733 21.5278 17.7261 21.7783 17.7161 22.0325C17.6695 23.0789 17.9658 24.4547 18.5624 25.1183C18.6235 25.1847 18.6725 25.2642 18.7067 25.3524C18.7408 25.4405 18.7594 25.5355 18.7613 25.6318C18.829 28.8291 20.0689 30.0498 21.5755 31.537L22.2102 32.1667C23.721 33.7072 25.3163 34.5017 26.8652 34.5017C28.414 34.5017 29.9078 33.7557 31.3127 32.2055H32.3368H32.4468C32.6542 32.2055 32.9166 32.2055 33.2128 32.2055L32.87 32.5785L32.2437 33.2567C30.551 35.1024 28.7483 35.9937 26.8948 35.9937C25.0413 35.9937 23.12 35.0685 21.3639 33.2809L20.746 32.6609C19.2607 31.2076 17.9996 29.9529 17.6061 27.2304L15.5664 27.4194C15.1754 27.4854 14.7774 27.374 14.4572 27.1088C14.137 26.8436 13.92 26.4457 13.8525 26L13.0612 18.8402C13.0401 18.6134 13.0587 18.3841 13.1159 18.1656C13.173 17.9471 13.2675 17.7438 13.3939 17.5676C13.5204 17.3913 13.6761 17.2456 13.8522 17.1389C14.0283 17.0322 14.2211 16.9666 14.4196 16.9461L15.0839 16.8831C15.0442 16.784 15.0212 16.6771 15.0162 16.5682C14.6184 9.13227 17.4199 4.45755 21.2073 2.21466C23.1431 1.11736 25.2929 0.608308 27.4502 0.736407C29.6074 0.864505 31.6997 1.62545 33.5259 2.94614C36.9875 5.49907 39.2473 10.1689 38.2317 16.6651C38.2152 16.7554 38.1897 16.8432 38.1555 16.9267L39.1669 17.0575C39.3807 17.0827 39.588 17.1565 39.7765 17.2747C39.9651 17.393 40.1311 17.5531 40.2647 17.7459C40.3984 17.9386 40.497 18.16 40.5549 18.397C40.6127 18.634 40.6285 18.8819 40.6014 19.126L39.8186 25.937C39.7516 26.4275 39.5198 26.8686 39.1728 27.1664C38.8258 27.4641 38.3909 27.5949 37.9608 27.5308C37.8456 28.0452 37.7043 28.5515 37.5376 29.047C37.3939 29.4679 37.1781 29.8517 36.9029 30.1758C36.0565 31.1737 33.3228 31.1737 32.3537 31.1737H29.8147C29.5229 31.5021 29.1749 31.7577 28.7925 31.9244C28.4101 32.0912 28.0017 32.1654 27.593 32.1425C26.1881 32.1425 25.054 31.2899 25.054 30.2387C25.054 29.1875 26.1881 28.3349 27.593 28.3349C27.9879 28.3256 28.3804 28.406 28.748 28.5715C29.1155 28.737 29.4507 28.9842 29.7343 29.2989H32.3368C33.0985 29.2989 35.3583 29.2989 35.7476 28.8484C35.8652 28.7092 35.9573 28.5445 36.0184 28.364L36.3062 27.337L35.3837 27.2159V27.1917ZM16.8697 13.8796C18.3085 6.19665 26.1331 1.40567 33.5598 6.28384C34.2281 6.7228 34.8369 7.27115 35.3667 7.91152C34.6496 6.53843 33.6611 5.37701 32.4807 4.52053C30.9476 3.40392 29.1877 2.76134 27.373 2.65549C25.5573 2.52666 23.7441 2.94947 22.1171 3.88109C19.3326 5.50876 17.1744 8.78348 16.8697 13.8796ZM19.7389 36.0809L23.6406 47.7992L25.6041 41.4096L24.6435 40.2082C23.9198 38.9972 24.1695 37.6262 25.4898 37.3792C25.9722 37.3263 26.4574 37.3149 26.9413 37.3453C27.4739 37.3058 28.0086 37.3301 28.5367 37.4179C29.7808 37.728 29.912 39.1086 29.2899 40.2082L28.3463 41.4096L30.3056 47.804L33.8391 36.0809C36.3781 38.7065 45.3537 39.2345 48.1594 41.0221C52.0441 43.512 51.9383 48.2885 52.7889 52.7452H0.789062C1.63541 48.3321 1.54655 43.4733 5.4186 41.0221C8.86749 38.8179 16.9163 38.9875 19.7389 36.0809Z" stroke="#1E3565" stroke-width="2.7488" mask="url(#path-1-inside-1_5203_21483)"/>
</svg>
