<svg width="38" height="51" viewBox="0 0 38 51" fill="none" xmlns="http://www.w3.org/2000/svg">
<path d="M36.6508 50.8719C36.182 50.8719 35.7876 50.4929 35.7571 49.9993C35.6182 47.7261 35.4864 45.6746 35.282 43.6007C35.2318 43.0885 35.5904 42.6313 36.0834 42.5791C36.5629 42.5185 37.0156 42.8985 37.0667 43.4107C37.2738 45.5191 37.4073 47.5883 37.5471 49.881C37.5785 50.3942 37.2029 50.8365 36.7091 50.87C36.6893 50.871 36.6705 50.8719 36.6508 50.8719Z" fill="#1E3565"/>
<path d="M6.39567 50.8627H1.01746C0.522666 50.8627 0.121094 50.4455 0.121094 49.9315C0.121094 49.4174 0.522666 49.0002 1.01746 49.0002H6.39567C6.89046 49.0002 7.29203 49.4174 7.29203 49.9315C7.29203 50.4455 6.89138 50.8627 6.39567 50.8627Z" fill="#1E3565"/>
<path d="M36.6496 50.8713H31.2714C30.7757 50.8713 30.375 50.4541 30.375 49.94C30.375 49.426 30.7757 49.0088 31.2714 49.0088H36.6496C37.1453 49.0088 37.5459 49.426 37.5459 49.94C37.5459 50.4541 37.1453 50.8713 36.6496 50.8713Z" fill="#1E3565"/>
<path d="M1.01837 50.8642C0.999558 50.8642 0.980743 50.8642 0.961008 50.8623C0.467131 50.8297 0.0915453 50.3874 0.122925 49.8743C0.255616 47.6839 0.391864 45.5411 0.603378 43.4104C0.653575 42.8992 1.08745 42.5239 1.58671 42.5797C2.07881 42.6328 2.43736 43.0901 2.38625 43.6013C2.17921 45.6985 2.04296 47.8208 1.9121 49.9916C1.8825 50.4852 1.4881 50.8642 1.01837 50.8642Z" fill="#1E3565"/>
<path d="M11.0237 14.7262C10.658 14.7262 10.3147 14.4924 10.182 14.1153L7.20341 5.67162C7.03314 5.18832 7.27156 4.65377 7.73676 4.47681C8.20201 4.30081 8.71648 4.54857 8.8868 5.03092L11.8654 13.4746C12.0358 13.958 11.7973 14.4924 11.3321 14.6694C11.2308 14.7076 11.1259 14.7262 11.0237 14.7262Z" fill="#1E3565"/>
<path d="M11.0258 14.727C10.67 14.727 10.3329 14.5054 10.1931 14.1403C10.0094 13.6626 10.2334 13.1206 10.6933 12.9307C15.946 10.7525 21.7312 10.7534 26.9811 12.9307C27.441 13.1216 27.6651 13.6635 27.4813 14.1403C27.2976 14.619 26.7759 14.849 26.3161 14.66C21.4945 12.6606 16.1817 12.6597 11.3575 14.66C11.2481 14.7056 11.1361 14.727 11.0258 14.727Z" fill="#1E3565"/>
<path d="M26.6467 14.7268C26.5445 14.7268 26.4405 14.7082 26.3383 14.6691C25.8731 14.4922 25.6347 13.9567 25.805 13.4743L28.7854 5.03067C28.9557 4.54737 29.4711 4.30146 29.9345 4.47656C30.3998 4.65352 30.6382 5.18896 30.4679 5.67137L27.4884 14.115C27.3548 14.4931 27.0115 14.7268 26.6467 14.7268Z" fill="#1E3565"/>
<path d="M31.085 26.9106C30.6556 26.9106 30.2774 26.5902 30.203 26.1358C29.9708 24.7249 29.848 23.2806 29.7288 21.8837C29.5236 19.4755 29.3299 17.2004 28.629 15.0297C28.4712 14.5426 28.724 14.0146 29.1946 13.8507C29.6616 13.6887 30.1716 13.9504 30.3294 14.4374C31.0967 16.8168 31.31 19.3088 31.5144 21.7189C31.6309 23.0785 31.751 24.4847 31.9698 25.822C32.054 26.3286 31.7259 26.8101 31.2374 26.8967C31.1854 26.9069 31.1352 26.9106 31.085 26.9106Z" fill="#1E3565"/>
<path d="M6.58422 26.9106C6.53402 26.9106 6.48383 26.9069 6.43363 26.8976C5.946 26.811 5.61706 26.3305 5.70041 25.8239C5.9191 24.4857 6.04009 23.0813 6.15666 21.7226C6.3637 19.3144 6.57791 16.8233 7.33986 14.4411C7.49579 13.9532 8.00315 13.6878 8.47287 13.8507C8.94254 14.0138 9.19714 14.5399 9.04115 15.0279C8.34557 17.2051 8.14926 19.4802 7.94222 21.8884C7.82209 23.2834 7.69841 24.725 7.4671 26.1358C7.39276 26.5894 7.01356 26.9106 6.58422 26.9106Z" fill="#1E3565"/>
<path d="M11.8678 21.1672C11.4151 21.1672 11.0261 20.8114 10.9777 20.3328C10.9257 19.8215 11.2833 19.3633 11.7754 19.3093C16.1103 18.8353 20.3465 17.3016 24.0243 14.8738C24.442 14.5991 24.996 14.7266 25.2613 15.1606C25.5275 15.5946 25.4029 16.1701 24.9852 16.4457C21.0753 19.0262 16.5719 20.6568 11.9628 21.1607C11.9314 21.1653 11.8992 21.1672 11.8678 21.1672Z" fill="#1E3565"/>
<path d="M9.68037 21.2829C8.82525 21.2829 7.97013 21.2318 7.12126 21.1302C6.63008 21.0715 6.27687 20.6096 6.33423 20.0984C6.39074 19.5871 6.83712 19.2137 7.32744 19.2807C8.80373 19.4567 10.3025 19.4661 11.7806 19.3096C12.2727 19.2528 12.7137 19.629 12.7639 20.1412C12.815 20.6525 12.4564 21.1106 11.9634 21.1628C11.2051 21.2429 10.4423 21.2829 9.68037 21.2829Z" fill="#1E3565"/>
<path d="M11.662 22.9336C11.1672 22.9336 10.7656 22.5164 10.7656 22.0023C10.7656 21.343 10.8409 20.6828 10.9897 20.043L12.7376 20.4583L12.7322 20.4825C12.6166 20.9761 12.5584 21.4883 12.5584 22.0023C12.5584 22.5164 12.1568 22.9336 11.662 22.9336Z" fill="#1E3565"/>
<path d="M26.0085 22.9337C25.5137 22.9337 25.113 22.5175 25.1121 22.0034C25.1112 21.2528 25.0458 20.4967 24.9167 19.7573C24.8289 19.2516 25.1533 18.7673 25.6401 18.6751C26.1322 18.5783 26.5929 18.9201 26.6817 19.4257C26.8286 20.2741 26.904 21.1402 26.9049 22.0016C26.9057 22.5156 26.5051 22.9328 26.0085 22.9337Z" fill="#1E3565"/>
<path d="M4.8144 33.4563C4.70776 33.4563 4.59927 33.4367 4.49441 33.3948C4.03191 33.2114 3.80066 32.6731 3.97724 32.1926C4.73644 30.1289 5.31729 27.9815 5.70274 25.8098C5.79235 25.3041 6.25398 24.9698 6.747 25.0629C7.23371 25.1561 7.55554 25.6422 7.46587 26.1478C7.05983 28.4303 6.4503 30.6877 5.65162 32.8566C5.51538 33.2281 5.17565 33.4563 4.8144 33.4563Z" fill="#1E3565"/>
<path d="M32.8542 33.4558C32.4938 33.4558 32.1541 33.2276 32.017 32.857C31.2174 30.6872 30.6078 28.4298 30.2027 26.1473C30.1122 25.6417 30.4349 25.1564 30.9216 25.0624C31.4164 24.9712 31.8762 25.3046 31.9659 25.8093C32.3513 27.98 32.9322 30.1275 33.6914 32.1912C33.868 32.6717 33.6367 33.2099 33.175 33.3943C33.0684 33.4362 32.9608 33.4558 32.8542 33.4558Z" fill="#1E3565"/>
<path d="M20.0055 45.1266C19.8746 45.1266 19.742 45.0968 19.6164 45.0344C19.1701 44.8109 18.9836 44.254 19.1987 43.7912L23.7676 33.9534C23.9827 33.4905 24.5169 33.296 24.9642 33.5195C25.4097 33.743 25.597 34.2999 25.3819 34.7627L20.8131 44.6004C20.6581 44.9329 20.338 45.1266 20.0055 45.1266Z" fill="#1E3565"/>
<path d="M17.6679 45.1272C17.3344 45.1272 17.0144 44.9336 16.8602 44.6011L12.2923 34.7633C12.0772 34.2996 12.2646 33.7436 12.7101 33.5201C13.1555 33.2985 13.6916 33.4912 13.9067 33.9541L18.4746 43.7918C18.6897 44.2556 18.5024 44.8115 18.0569 45.035C17.9314 45.0974 17.7988 45.1272 17.6679 45.1272Z" fill="#1E3565"/>
<path d="M30.7282 37.9594C30.6583 37.9594 30.5874 37.9511 30.5166 37.9334C28.8861 37.5236 27.218 37.1986 25.5624 36.9686C25.0721 36.9006 24.727 36.4313 24.7933 35.9219C24.8597 35.4125 25.3069 35.0511 25.8009 35.1229C27.5183 35.3613 29.2474 35.6984 30.9388 36.123C31.4193 36.2441 31.7151 36.747 31.5985 37.247C31.4991 37.6735 31.1324 37.9594 30.7282 37.9594Z" fill="#1E3565"/>
<path d="M6.94263 37.9597C6.53836 37.9597 6.17172 37.6738 6.07225 37.2473C5.95574 36.7473 6.25152 36.2434 6.73284 36.1224C8.4234 35.6977 10.1525 35.3615 11.8708 35.1222C12.362 35.0608 12.812 35.4118 12.8783 35.9212C12.9438 36.4306 12.5996 36.9 12.1093 36.968C10.4519 37.1989 8.78464 37.523 7.15506 37.9327C7.08335 37.9523 7.0125 37.9597 6.94263 37.9597Z" fill="#1E3565"/>
<path d="M28.3111 40.9684C28.0251 40.9684 27.7437 40.8268 27.5707 40.5624L23.8328 34.8827C23.5523 34.458 23.658 33.8788 24.0668 33.5882C24.4773 33.2995 25.034 33.4085 25.3127 33.8313L29.0506 39.511C29.3312 39.9356 29.2254 40.5149 28.8166 40.8054C28.6616 40.9153 28.4859 40.9684 28.3111 40.9684Z" fill="#1E3565"/>
<path d="M25.5522 41.6871C25.1515 41.6871 24.7858 41.4049 24.6836 40.9821C24.5626 40.483 24.8539 39.9773 25.3353 39.8525L28.0907 39.1345C28.5721 39.0107 29.0579 39.3115 29.178 39.8115C29.299 40.3107 29.0077 40.8164 28.5263 40.9412L25.7709 41.6591C25.6974 41.6778 25.6248 41.6871 25.5522 41.6871Z" fill="#1E3565"/>
<path d="M12.1216 41.6862C12.049 41.6862 11.9755 41.6769 11.9029 41.6582L9.14746 40.9402C8.66701 40.8155 8.3757 40.3098 8.49577 39.8106C8.6159 39.3115 9.10266 39.0079 9.58311 39.1336L12.3385 39.8516C12.819 39.9764 13.1103 40.4821 12.9902 40.9812C12.888 41.404 12.5232 41.6862 12.1216 41.6862Z" fill="#1E3565"/>
<path d="M9.36402 40.9692C9.19014 40.9692 9.01357 40.9161 8.85936 40.8071C8.45062 40.5166 8.34575 39.9374 8.62542 39.5127L12.3633 33.833C12.6429 33.4092 13.2005 33.3012 13.6092 33.5899C14.018 33.8805 14.1228 34.4597 13.8432 34.8843L10.1053 40.5641C9.93139 40.8267 9.65086 40.9692 9.36402 40.9692Z" fill="#1E3565"/>
<path d="M1.49917 44.4366C1.4687 44.4366 1.43824 44.4356 1.40595 44.4319C0.913847 44.3798 0.555301 43.9225 0.606415 43.4103C0.955095 39.8874 3.41564 36.9586 6.72948 36.1233C7.20815 35.9994 7.69486 36.3086 7.81229 36.8087C7.92886 37.3087 7.63393 37.8125 7.15256 37.9336C4.5755 38.5836 2.66178 40.8614 2.3902 43.6012C2.3427 44.0799 1.95363 44.4366 1.49917 44.4366Z" fill="#1E3565"/>
<path d="M36.1745 44.4369C35.72 44.4369 35.3319 44.0802 35.2835 43.6015C35.0119 40.8609 33.0981 38.583 30.5211 37.9339C30.0397 37.8129 29.7448 37.3091 29.8614 36.809C29.9779 36.3089 30.4646 35.9988 30.9433 36.1236C34.2562 36.958 36.7167 39.8868 37.0673 43.4106C37.1183 43.9219 36.7598 44.3801 36.2668 44.4322C36.2354 44.435 36.205 44.4369 36.1745 44.4369Z" fill="#1E3565"/>
<path d="M4.81461 33.4576C4.44711 33.4576 4.10291 33.2211 3.97113 32.8411C3.8035 32.3569 4.04554 31.8232 4.51073 31.6491C6.36175 30.9572 8.27731 30.3947 10.2036 29.9784C10.6876 29.8713 11.1627 30.1964 11.264 30.7002C11.3653 31.204 11.0542 31.6966 10.5693 31.8018C8.72369 32.2013 6.89062 32.7396 5.11762 33.4017C5.01809 33.4399 4.91592 33.4576 4.81461 33.4576Z" fill="#1E3565"/>
<path d="M32.8594 33.4576C32.759 33.4576 32.6559 33.4399 32.5555 33.4017C30.7816 32.7387 28.9477 32.2004 27.1038 31.8018C26.6198 31.6966 26.3078 31.204 26.41 30.7002C26.5095 30.1964 26.9774 29.8713 27.4704 29.9784C29.3949 30.3947 31.3105 30.9572 33.1642 31.6491C33.6303 31.8232 33.8714 32.3569 33.7046 32.8402C33.5711 33.2211 33.2269 33.4576 32.8594 33.4576Z" fill="#1E3565"/>
<path d="M18.7828 33.3987C17.4069 33.3987 16.0328 32.9275 14.8308 31.9599C12.3119 29.9326 10.8303 26.3082 10.7657 22.017C10.7586 21.5029 11.153 21.0791 11.6477 21.0708C12.1605 21.0726 12.5504 21.4731 12.5585 21.9872C12.5844 23.7482 12.9663 28.1027 15.9279 30.4867C18.0837 32.2225 20.9108 31.7765 22.804 29.4027C24.6514 27.0848 25.0762 24.0909 25.1067 21.9872C25.1148 21.4778 25.5146 21.0708 26.0031 21.0708C26.0076 21.0708 26.0121 21.0708 26.0175 21.0708C26.5122 21.0791 26.9075 21.5019 26.8995 22.017C26.8636 24.4196 26.3634 27.8568 24.1852 30.5919C22.7134 32.4386 20.7468 33.3987 18.7828 33.3987Z" fill="#1E3565"/>
<path d="M8.04534 6.28147C7.76028 6.28147 7.48061 6.14081 7.30673 5.87916C7.0262 5.45541 7.12837 4.87526 7.53534 4.58375C10.8304 2.22305 14.1685 0.896946 17.4554 0.64085C21.0212 0.361474 24.7052 1.262 28.1088 3.23905C28.8348 3.66091 29.508 4.13491 30.1345 4.58375C30.5423 4.87526 30.6446 5.45541 30.364 5.87916C30.0826 6.30286 29.5232 6.40812 29.1172 6.11661C28.5247 5.69196 27.8909 5.24591 27.233 4.86316C24.1396 3.0649 20.8034 2.25005 17.589 2.49685C14.6229 2.7287 11.5824 3.94585 8.55269 6.11661C8.39763 6.22836 8.22105 6.28147 8.04534 6.28147Z" fill="#1E3565"/>
<path d="M19.7339 5.70552H21.5257V7.56803H19.7339V9.43053H17.9412V7.56803H16.1484V5.70552H17.9412V3.84302H19.7339V5.70552Z" fill="#1E3565"/>
</svg>
