<svg width="15" height="16" viewBox="0 0 15 16" fill="none" xmlns="http://www.w3.org/2000/svg">
<path d="M12.0718 5.37666C13.2495 5.37666 14.2042 4.42197 14.2042 3.2443C14.2042 2.06663 13.2495 1.11194 12.0718 1.11194C10.8941 1.11194 9.93945 2.06663 9.93945 3.2443C9.93945 4.42197 10.8941 5.37666 12.0718 5.37666Z" stroke="#1E3565" stroke-width="1.29868" stroke-linecap="round" stroke-linejoin="round"/>
<path d="M3.54252 10.3521C4.72019 10.3521 5.67488 9.39743 5.67488 8.21976C5.67488 7.04209 4.72019 6.0874 3.54252 6.0874C2.36485 6.0874 1.41016 7.04209 1.41016 8.21976C1.41016 9.39743 2.36485 10.3521 3.54252 10.3521Z" stroke="#1E3565" stroke-width="1.29868" stroke-linecap="round" stroke-linejoin="round"/>
<path d="M12.0718 15.3276C13.2495 15.3276 14.2042 14.3729 14.2042 13.1952C14.2042 12.0176 13.2495 11.0629 12.0718 11.0629C10.8941 11.0629 9.93945 12.0176 9.93945 13.1952C9.93945 14.3729 10.8941 15.3276 12.0718 15.3276Z" stroke="#1E3565" stroke-width="1.29868" stroke-linecap="round" stroke-linejoin="round"/>
<path d="M5.38281 9.29297L10.2375 12.1219" stroke="#1E3565" stroke-width="1.29868" stroke-linecap="round" stroke-linejoin="round"/>
<path d="M10.2304 4.3175L5.38281 7.14644" stroke="#1E3565" stroke-width="1.29868" stroke-linecap="round" stroke-linejoin="round"/>
</svg>
