<svg width="60" height="62" viewBox="0 0 60 62" fill="none" xmlns="http://www.w3.org/2000/svg">
<path d="M19.8676 35.007H14.2039C14.9895 34.3493 15.7569 33.655 16.4694 32.9242C17.73 31.6636 19.3378 30.3299 19.3378 28.4481C19.3378 26.347 17.8214 24.7758 15.3549 24.7758C13.875 24.7758 12.5413 25.397 11.5365 26.4749L12.3769 27.9C13.0712 27.297 13.9847 26.7307 14.953 26.7307C16.305 26.7307 17.0358 27.4432 17.0358 28.6856C17.0358 30.2751 15.0078 31.7732 13.9847 32.8329C13.0346 33.8195 12.0663 34.7695 11.0432 35.683L11.3355 36.8523H19.5022L19.8676 35.007ZM30.4394 32.23H28.4845V25.0864L27.1691 24.7575L20.8111 32.2482L21.1948 33.856H26.3652V36.8523H28.4845V33.856H30.2202L30.4394 32.23ZM26.3835 32.23H22.7843L26.3835 27.9V32.23ZM38.8188 23.6796H37.1928L30.0857 40.415H31.73L38.8188 23.6796ZM49.3318 25.9999L48.9482 25.0316H40.7632V26.8768H46.7009C44.9653 29.9827 43.2844 33.4175 41.7498 36.6148L44.0701 37.0898C46.1894 32.3396 47.7058 29.0875 49.3318 25.9999Z" fill="#9ACF8C"/>
<path d="M57.9431 30.5613C57.9431 31.0344 58.3266 31.418 58.7998 31.418C59.273 31.418 59.6565 31.0344 59.6565 30.5613H57.9431ZM52.5273 12.6434L53.1969 12.109V12.109L52.5273 12.6434ZM36.4488 2.54997L36.6389 1.71461V1.71461L36.4488 2.54997ZM17.5855 4.68864L17.2132 3.91707L17.5855 4.68864ZM4.17485 18.1255L3.40255 17.7546H3.40255L4.17485 18.1255ZM12.1977 53.0517L12.7307 52.3809H12.7307L12.1977 53.0517ZM30.1278 59.2893L30.1261 58.4325L30.1278 59.2893ZM48.0334 52.9818L38.1422 53.1522L43.2354 61.633L48.0334 52.9818ZM59.6565 30.5613C59.6565 23.8562 57.3789 17.3501 53.1969 12.109L51.8576 13.1777C55.7974 18.1152 57.9431 24.2446 57.9431 30.5613H59.6565ZM53.1969 12.109C49.015 6.86801 43.1767 3.20298 36.6389 1.71461L36.2586 3.38532C42.4177 4.78749 47.9178 8.24025 51.8576 13.1777L53.1969 12.109ZM36.6389 1.71461C30.1012 0.226243 23.2518 1.00282 17.2132 3.91707L17.9579 5.46022C23.6468 2.71476 30.0995 1.98316 36.2586 3.38532L36.6389 1.71461ZM17.2132 3.91707C11.1746 6.83132 6.30502 11.7104 3.40255 17.7546L4.94715 18.4964C7.68152 12.8022 12.269 8.20569 17.9579 5.46022L17.2132 3.91707ZM3.40255 17.7546C0.500077 23.7989 -0.263144 30.6498 1.23797 37.1847L2.90793 36.8011C1.49376 30.6447 2.21278 24.1906 4.94715 18.4964L3.40255 17.7546ZM1.23797 37.1847C2.73908 43.7195 6.41548 49.5506 11.6647 53.7224L12.7307 52.3809C7.78558 48.4508 4.32211 42.9574 2.90793 36.8011L1.23797 37.1847ZM11.6647 53.7224C16.9138 57.8941 23.4244 60.1591 30.1295 60.146L30.1261 58.4325C23.8094 58.4448 17.6759 56.3111 12.7307 52.3809L11.6647 53.7224ZM30.1295 60.146C34.1574 60.1381 38.112 59.3085 41.7621 57.7384L41.0851 56.1644C37.6462 57.6435 33.9207 58.4251 30.1261 58.4325L30.1295 60.146Z" fill="#9ACF8C"/>
</svg>
