<svg xmlns="http://www.w3.org/2000/svg" fill="none" width="46" height="46" viewBox="0 0 46 46"><circle fill="#fff" cx="23.236" cy="23.23" r="22.669"/><path d="M37.024 13.449a12.723 12.723 0 0 1-3.665 1.786 5.23 5.23 0 0 0-9.175 3.502v1.167a12.444 12.444 0 0 1-10.506-5.288S9.01 25.122 19.515 29.791a13.588 13.588 0 0 1-8.171 2.334c10.505 5.837 23.345 0 23.345-13.424a5.25 5.25 0 0 0-.093-.968 9.011 9.011 0 0 0 2.428-4.284v-.002Z" stroke="#1E3565" stroke-linecap="round" stroke-linejoin="round" stroke-width=".873"/></svg>