<svg width="27" height="23" viewBox="0 0 27 23" fill="none" xmlns="http://www.w3.org/2000/svg">
<path d="M26.4618 0.635765C25.3437 1.42449 24.1056 2.02774 22.7954 2.42228C22.0922 1.61369 21.1576 1.04058 20.118 0.780468C19.0784 0.520355 17.9841 0.585784 16.9829 0.967908C15.9817 1.35003 15.1221 2.03041 14.5202 2.91703C13.9183 3.80365 13.6033 4.85372 13.6176 5.92524V7.09289C11.5656 7.1461 9.53233 6.691 7.69881 5.76813C5.86528 4.84525 4.28845 3.48325 3.10875 1.80342C3.10875 1.80342 -1.56187 12.3123 8.94702 16.9829C6.54227 18.6153 3.67758 19.4337 0.773438 19.3182C11.2823 25.1565 24.1265 19.3182 24.1265 5.89021C24.1255 5.56496 24.0942 5.24052 24.0331 4.92106C25.2248 3.7458 26.0658 2.26197 26.4618 0.635765V0.635765Z" stroke="#1E3565" stroke-linecap="round" stroke-linejoin="round"/>
</svg>
