<svg width="32" height="32" viewBox="0 0 32 32" fill="none" xmlns="http://www.w3.org/2000/svg">
<path d="M16.6343 1.20386C14.6632 1.20386 12.692 2.18943 11.7064 3.99632C10.7228 3.7445 9.69096 3.75017 8.71019 4.01279C7.72942 4.27542 6.83279 4.78614 6.10664 5.49578C5.3805 6.20542 4.8493 7.09008 4.5642 8.06455C4.27911 9.03903 4.24972 10.0705 4.47887 11.0596C2.83624 12.0452 1.6864 14.0163 1.6864 15.9875C1.6864 17.9587 2.83624 19.9298 4.47887 20.9154C3.98608 22.8865 4.47887 25.022 6.12149 26.5003C7.4356 27.8144 9.57101 28.4715 11.5422 28.1429C12.5277 29.7856 14.4989 30.7711 16.47 30.7711C18.4412 30.7711 20.4124 29.7856 21.3979 27.9787C23.3691 28.4715 25.5045 27.9787 26.9829 26.3361C28.297 25.022 28.954 23.0508 28.6255 20.9154C30.2681 19.9298 31.2537 17.9587 31.2537 15.9875C31.2537 14.0163 30.2681 12.0452 28.4612 11.0596C28.954 9.08847 28.4612 6.95305 26.8186 5.47469C26.1163 4.78138 25.2558 4.26951 24.3113 3.98331C23.3669 3.69711 22.3669 3.6452 21.3979 3.83206C20.4124 2.18943 18.4412 1.20386 16.47 1.20386H16.6343Z" fill="#9ACF8C" stroke="white" stroke-width="1.39566" stroke-linecap="round" stroke-linejoin="round"/>
<path d="M10.3856 15.9877L14.442 20.0441L22.5547 11.9314" stroke="#1E3565" stroke-width="1.43961" stroke-linecap="round" stroke-linejoin="round"/>
</svg>
