<svg width="22" height="23" viewBox="0 0 22 23" fill="none" xmlns="http://www.w3.org/2000/svg">
<path d="M11 14.043C12.5188 14.043 13.75 12.8118 13.75 11.293C13.75 9.77419 12.5188 8.54297 11 8.54297C9.48122 8.54297 8.25 9.77419 8.25 11.293C8.25 12.8118 9.48122 14.043 11 14.043Z" fill="#1E3565"/>
<path d="M21.271 11.0592C20.4623 8.9676 19.0586 7.15877 17.2331 5.85628C15.4077 4.55379 13.2406 3.81474 10.9997 3.73047C8.75881 3.81474 6.59172 4.55379 4.76628 5.85628C2.94084 7.15877 1.53707 8.9676 0.728458 11.0592C0.673847 11.2103 0.673847 11.3757 0.728458 11.5267C1.53707 13.6183 2.94084 15.4272 4.76628 16.7297C6.59172 18.0321 8.75881 18.7712 10.9997 18.8555C13.2406 18.7712 15.4077 18.0321 17.2331 16.7297C19.0586 15.4272 20.4623 13.6183 21.271 11.5267C21.3256 11.3757 21.3256 11.2103 21.271 11.0592ZM10.9997 15.7617C10.1159 15.7617 9.25189 15.4996 8.517 15.0086C7.78212 14.5176 7.20935 13.8196 6.87112 13.0031C6.53289 12.1865 6.4444 11.288 6.61682 10.4212C6.78925 9.55431 7.21486 8.75805 7.83982 8.13309C8.46479 7.50812 9.26105 7.08251 10.1279 6.91008C10.9948 6.73766 11.8933 6.82615 12.7098 7.16438C13.5264 7.50261 14.2243 8.07538 14.7153 8.81026C15.2064 9.54515 15.4685 10.4091 15.4685 11.293C15.4666 12.4776 14.9952 13.6132 14.1576 14.4508C13.3199 15.2885 12.1843 15.7599 10.9997 15.7617Z" fill="#1E3565"/>
</svg>
