<svg width="34" height="25" viewBox="0 0 34 25" fill="none" xmlns="http://www.w3.org/2000/svg">
<path d="M23.5642 11.6624C24.0632 6.6715 28.4553 2.97821 33.4462 1.58075V0.981842C25.1613 1.58075 17.575 7.47005 17.575 15.755C17.575 20.8457 20.4698 24.7387 25.1613 24.7387C29.0542 24.7387 32.1486 22.0436 32.1486 17.951C32.1486 14.3575 29.5533 12.2613 26.6585 11.6624H23.5642ZM6.39536 11.6624C6.89446 6.6715 11.2865 2.97821 16.2774 1.58075V0.981842C7.99246 1.58075 0.40625 7.47005 0.40625 15.755C0.40625 20.8457 3.30099 24.7387 7.99246 24.7387C11.8854 24.7387 14.9798 22.0436 14.9798 17.951C14.9798 14.3575 12.3845 12.2613 9.48974 11.6624H6.39536Z" fill="white"/>
</svg>
