<svg width="34" height="35" viewBox="0 0 34 35" fill="none" xmlns="http://www.w3.org/2000/svg">
<circle cx="17.0696" cy="17.5853" r="16.5989" fill="#1E3565"/>
<path d="M12.8588 11.1419C12.6985 11.1419 12.5684 11.0167 12.5684 10.8618C12.5684 10.3985 12.9593 10.0215 13.4398 10.0215C13.6001 10.0215 13.7303 10.1467 13.7303 10.3016C13.7303 10.4565 13.6001 10.5817 13.4398 10.5817C13.2797 10.5817 13.1493 10.7072 13.1493 10.8618C13.1493 11.0167 13.0195 11.1419 12.8588 11.1419Z" fill="white"/>
<path d="M22.1527 12.8226C21.6722 12.8226 21.2812 12.4455 21.2812 11.9823C21.2812 11.8274 21.4114 11.7021 21.5717 11.7021C21.7321 11.7021 21.8622 11.8274 21.8622 11.9823C21.8622 12.1369 21.9926 12.2624 22.1527 12.2624C22.313 12.2624 22.4432 12.3876 22.4432 12.5425C22.4432 12.6974 22.3133 12.8226 22.1527 12.8226Z" fill="white"/>
<path d="M23.8966 12.8224H22.1538C21.9934 12.8224 21.8633 12.6972 21.8633 12.5423C21.8633 12.3874 21.9934 12.2622 22.1538 12.2622H23.8966C24.057 12.2622 24.1871 12.3874 24.1871 12.5423C24.1871 12.6972 24.0573 12.8224 23.8966 12.8224Z" fill="white"/>
<path d="M21.5717 12.2626C21.4114 12.2626 21.2812 12.1374 21.2812 11.9825V10.3018C21.2812 10.1469 21.4114 10.0217 21.5717 10.0217C21.7321 10.0217 21.8622 10.1469 21.8622 10.3018V11.9825C21.8622 12.1374 21.7324 12.2626 21.5717 12.2626Z" fill="white"/>
<path d="M23.8956 12.8229C23.8213 12.8229 23.7469 12.7954 23.6903 12.7408L21.3664 10.4999C21.2529 10.3904 21.2529 10.2134 21.3664 10.1039C21.48 9.99435 21.6636 9.99435 21.7772 10.1039L24.101 12.3447C24.2146 12.4542 24.2146 12.6313 24.101 12.7408C24.0444 12.7954 23.97 12.8229 23.8956 12.8229Z" fill="white"/>
<path d="M21.5743 10.5817H13.4409C13.2805 10.5817 13.1504 10.4565 13.1504 10.3016C13.1504 10.1467 13.2805 10.0215 13.4409 10.0215H21.5743C21.7347 10.0215 21.8648 10.1467 21.8648 10.3016C21.8648 10.4565 21.735 10.5817 21.5743 10.5817Z" fill="white"/>
<path d="M23.3159 24.0278C23.1555 24.0278 23.0254 23.9026 23.0254 23.7477C23.0254 23.5928 23.1555 23.4676 23.3159 23.4676C23.4759 23.4676 23.6064 23.3421 23.6064 23.1875C23.6064 23.0326 23.7365 22.9073 23.8968 22.9073C24.0572 22.9073 24.1873 23.0326 24.1873 23.1875C24.1873 23.6507 23.7966 24.0278 23.3159 24.0278Z" fill="white"/>
<path d="M23.8979 23.4664C23.7376 23.4664 23.6074 23.3412 23.6074 23.1863V12.5423C23.6074 12.3874 23.7376 12.2622 23.8979 12.2622C24.0582 12.2622 24.1884 12.3874 24.1884 12.5423V23.1863C24.1884 23.3412 24.0585 23.4664 23.8979 23.4664Z" fill="white"/>
<path d="M13.2906 20.6077C13.256 20.6077 13.2208 20.6018 13.1866 20.5892C13.0367 20.534 12.962 20.3721 13.0192 20.2276C13.1534 19.8892 13.2165 19.5152 13.283 19.1195C13.3896 18.4853 13.5 17.8298 13.9232 17.2803C14.0188 17.1565 14.2006 17.1301 14.3296 17.2223C14.4583 17.3145 14.4853 17.4898 14.3897 17.6139C14.0507 18.0545 13.9563 18.6153 13.8567 19.2088C13.7884 19.6152 13.7176 20.0357 13.5619 20.4278C13.5174 20.5393 13.4073 20.6077 13.2906 20.6077Z" fill="white"/>
<path d="M10.2842 20.8412C10.1436 20.8412 10.0202 20.7426 9.9978 20.6045C9.84936 19.6928 10.0736 18.7768 10.629 18.0253C10.722 17.899 10.9029 17.8699 11.0342 17.9598C11.1649 18.0494 11.1952 18.2245 11.1022 18.3505C10.6354 18.9822 10.4472 19.7519 10.5718 20.5177C10.5968 20.6706 10.4884 20.814 10.3298 20.8381C10.3144 20.8401 10.2993 20.8412 10.2842 20.8412Z" fill="white"/>
<path d="M10.8927 24.579C10.7521 24.579 10.6286 24.4804 10.6063 24.3423L9.99772 20.604C9.97274 20.4511 10.0811 20.3077 10.2397 20.2836C10.3986 20.2606 10.547 20.364 10.5717 20.5169L11.1803 24.2552C11.2052 24.4081 11.0969 24.5516 10.9383 24.5756C10.9229 24.5779 10.9078 24.579 10.8927 24.579Z" fill="white"/>
<path d="M11.5808 25.1488C11.091 25.1488 10.6809 24.8104 10.6051 24.344C10.5804 24.1911 10.6884 24.0477 10.847 24.0236C11.0036 24.0006 11.1544 24.104 11.1791 24.2569C11.2104 24.4491 11.3795 24.5886 11.5808 24.5886C11.7411 24.5886 11.8713 24.7138 11.8713 24.8687C11.8713 25.0236 11.7414 25.1488 11.5808 25.1488Z" fill="white"/>
<path d="M13.6309 25.1472H11.5795C11.4192 25.1472 11.2891 25.022 11.2891 24.8671C11.2891 24.7122 11.4192 24.587 11.5795 24.587H13.6309C13.7913 24.587 13.9214 24.7122 13.9214 24.8671C13.9214 25.022 13.7913 25.1472 13.6309 25.1472Z" fill="white"/>
<path d="M14.2964 24.6921C14.2653 24.6921 14.2339 24.6874 14.2029 24.677C14.0509 24.6272 13.9699 24.4681 14.0213 24.3216C14.1875 23.8513 14.4321 23.4686 14.6909 23.0636L14.7066 23.0392C14.8684 22.7866 15.0223 22.5121 15.0575 22.2174C15.0758 22.0636 15.2207 21.953 15.379 21.9712C15.5385 21.9888 15.6529 22.1278 15.6346 22.2813C15.5864 22.6857 15.3883 23.0398 15.201 23.3331L15.1853 23.3574C14.9439 23.735 14.7161 24.0916 14.5712 24.502C14.5302 24.6188 14.4172 24.6921 14.2964 24.6921Z" fill="white"/>
<path d="M13.6342 25.147C13.4739 25.147 13.3438 25.0218 13.3438 24.8669C13.3438 24.712 13.4739 24.5868 13.6342 24.5868C13.8085 24.5868 13.9631 24.48 14.0191 24.3212C14.0708 24.175 14.2364 24.0954 14.3877 24.1464C14.5397 24.1963 14.6207 24.3554 14.5693 24.5019C14.4328 24.8876 14.0572 25.147 13.6342 25.147Z" fill="white"/>
<path d="M10.8664 18.4681C10.808 18.4681 10.7493 18.451 10.6982 18.416C10.5675 18.3264 10.537 18.1513 10.6302 18.0253L12.6232 15.3276C12.7164 15.2012 12.8974 15.1721 13.0284 15.262C13.1594 15.3519 13.1896 15.5267 13.0964 15.6528L11.1034 18.3505C11.0465 18.4275 10.9573 18.4681 10.8664 18.4681Z" fill="white"/>
<path d="M12.8584 20.9636C12.7252 20.9636 12.6051 20.8747 12.5752 20.744C12.5407 20.5932 12.6396 20.4438 12.7963 20.4108C12.899 20.3889 12.9829 20.3198 13.0209 20.2255C13.0787 20.0814 13.2472 20.0092 13.3964 20.0663C13.5458 20.122 13.6198 20.2843 13.5618 20.4284C13.4533 20.6975 13.2139 20.8954 12.9211 20.9575C12.9002 20.9617 12.8793 20.9636 12.8584 20.9636Z" fill="white"/>
<path d="M18.9606 15.9797H17.7987C17.6383 15.9797 17.5082 15.8545 17.5082 15.6996V14.6682H16.4389C16.2786 14.6682 16.1484 14.543 16.1484 14.3881V13.2677C16.1484 13.1128 16.2786 12.9876 16.4389 12.9876H17.5085V11.9565C17.5085 11.8016 17.6386 11.6764 17.7989 11.6764H18.9609C19.1212 11.6764 19.2513 11.8016 19.2513 11.9565V12.9876H20.3209C20.4812 12.9876 20.6114 13.1128 20.6114 13.2677V14.3881C20.6114 14.543 20.4812 14.6682 20.3209 14.6682H19.2513V15.6996C19.2511 15.8542 19.1212 15.9797 18.9606 15.9797ZM18.0891 15.4194H18.6701V14.3881C18.6701 14.2332 18.8002 14.108 18.9606 14.108H20.0301V13.5478H18.9606C18.8002 13.5478 18.6701 13.4226 18.6701 13.2677V12.2366H18.0891V13.2677C18.0891 13.4226 17.959 13.5478 17.7987 13.5478H16.7294V14.108H17.7989C17.9593 14.108 18.0894 14.2332 18.0894 14.3881V15.4194H18.0891Z" fill="white"/>
<path d="M15.3411 22.5293C15.3304 22.5293 15.3193 22.5288 15.3086 22.5276C15.1491 22.5103 15.0344 22.3719 15.0521 22.2184C15.0649 22.1075 15.0794 21.9968 15.0939 21.8856C15.1267 21.6347 15.1604 21.3753 15.172 21.1257C15.1866 20.8089 15.1436 20.4927 15.098 20.158L15.0887 20.0888C14.9864 19.333 14.9998 18.6174 15.0262 17.8269C15.032 17.6499 14.9054 17.5437 14.7848 17.5034C14.6652 17.4628 14.4984 17.4712 14.3892 17.6132C14.2936 17.7376 14.1121 17.7636 13.9828 17.6712C13.8538 17.5793 13.8268 17.4037 13.9224 17.2796C14.167 16.9614 14.5809 16.8415 14.9757 16.9745C15.3719 17.1076 15.6197 17.449 15.6066 17.8451C15.5813 18.6104 15.568 19.3022 15.6647 20.0168L15.674 20.0851C15.7208 20.4294 15.7693 20.7851 15.7524 21.1506C15.7399 21.4232 15.7045 21.6938 15.6705 21.956C15.6563 22.0644 15.642 22.1725 15.6296 22.2803C15.613 22.4234 15.4872 22.5293 15.3411 22.5293Z" fill="white"/>
<path d="M22.1522 17.6607H16.4213C16.261 17.6607 16.1309 17.5355 16.1309 17.3806C16.1309 17.2257 16.261 17.1005 16.4213 17.1005H22.1522C22.3126 17.1005 22.4427 17.2257 22.4427 17.3806C22.4427 17.5355 22.3129 17.6607 22.1522 17.6607Z" fill="white"/>
<path d="M22.1551 19.3416H16.4428C16.2825 19.3416 16.1523 19.2164 16.1523 19.0615C16.1523 18.9066 16.2825 18.7814 16.4428 18.7814H22.1551C22.3155 18.7814 22.4456 18.9066 22.4456 19.0615C22.4456 19.2164 22.3158 19.3416 22.1551 19.3416Z" fill="white"/>
<path d="M22.1538 21.0213H16.6225C16.4622 21.0213 16.332 20.8961 16.332 20.7412C16.332 20.5863 16.4622 20.4611 16.6225 20.4611H22.1538C22.3142 20.4611 22.4443 20.5863 22.4443 20.7412C22.4443 20.8961 22.3145 21.0213 22.1538 21.0213Z" fill="white"/>
<path d="M12.8588 20.9652C12.6985 20.9652 12.5684 20.84 12.5684 20.6851V10.8626C12.5684 10.7077 12.6985 10.5825 12.8588 10.5825C13.0192 10.5825 13.1493 10.7077 13.1493 10.8626V20.6851C13.1493 20.84 13.0195 20.9652 12.8588 20.9652Z" fill="white"/>
<path d="M23.3166 24.0275H15.9584C15.7981 24.0275 15.668 23.9023 15.668 23.7474C15.668 23.5925 15.7981 23.4673 15.9584 23.4673H23.3169C23.4772 23.4673 23.6074 23.5925 23.6074 23.7474C23.6074 23.9023 23.4772 24.0275 23.3166 24.0275Z" fill="white"/>
</svg>
