<svg width="34" height="34" viewBox="0 0 34 34" fill="none" xmlns="http://www.w3.org/2000/svg">
<circle cx="17.0696" cy="16.767" r="16.5989" fill="#1E3565"/>
<g clip-path="url(#clip0_12680_84173)">
<path d="M17.4284 11.5707L18.3307 12.5159L19.5019 11.2889C19.7093 11.0544 19.9598 10.8661 20.2383 10.7354C20.5168 10.6046 20.8176 10.534 21.1228 10.5279C21.4279 10.5218 21.7311 10.5802 22.0142 10.6996C22.2973 10.8191 22.5544 10.9972 22.7703 11.2231C22.9862 11.4491 23.1564 11.7184 23.2706 12.0149C23.3848 12.3114 23.4408 12.629 23.4352 12.9487C23.4295 13.2683 23.3624 13.5835 23.2378 13.8754C23.1132 14.1673 22.9336 14.4298 22.7099 14.6473L22.7088 14.6485L21.537 15.8755L22.4392 16.8207L21.2965 18.0178L20.3303 17.0051L13.6307 24.0231L11.5084 23.8972L10.2675 25.1972L9.42513 24.3147L10.6661 23.0147L10.5458 20.7913L17.2449 13.7733L16.2781 12.7605L17.4284 11.5707ZM11.4445 23.1029L13.342 23.2161L19.7976 16.4531L17.7915 14.3515L11.3359 21.1145L11.4445 23.1029Z" fill="white"/>
<mask id="mask0_12680_84173" style="mask-type:alpha" maskUnits="userSpaceOnUse" x="11" y="14" width="9" height="9">
<path d="M13.2942 22.8456L11.7744 22.7568L11.6855 21.1652L17.7265 14.8363L19.334 16.5173L13.2942 22.8456Z" fill="#FF4D00"/>
</mask>
<g mask="url(#mask0_12680_84173)">
<rect width="0.686609" height="9.86634" transform="matrix(-0.719597 0.694392 0.660307 0.750996 10.7441 21.8488)" fill="#FF4D00"/>
</g>
</g>
<defs>
<clipPath id="clip0_12680_84173">
<rect width="17.9268" height="14.607" fill="white" transform="matrix(-1 0 0 1 27.3574 10.5929)"/>
</clipPath>
</defs>
</svg>
