<svg width="34" height="34" viewBox="0 0 34 34" fill="none" xmlns="http://www.w3.org/2000/svg">
<circle cx="17.0696" cy="17.3767" r="16.5989" fill="#1E3565"/>
<path d="M21.2583 12.1917H20.4018V10.8446C20.4018 10.7255 20.3567 10.6112 20.2764 10.527C20.1961 10.4428 20.0872 10.3955 19.9736 10.3955C19.86 10.3955 19.7511 10.4428 19.6708 10.527C19.5905 10.6112 19.5454 10.7255 19.5454 10.8446V12.1917H14.4067V10.8446C14.4067 10.7255 14.3616 10.6112 14.2813 10.527C14.201 10.4428 14.0921 10.3955 13.9785 10.3955C13.8649 10.3955 13.756 10.4428 13.6757 10.527C13.5954 10.6112 13.5503 10.7255 13.5503 10.8446V12.1917H12.6938C12.4127 12.1917 12.1342 12.2498 11.8745 12.3626C11.6147 12.4755 11.3787 12.6408 11.1799 12.8493C10.7783 13.2704 10.5527 13.8415 10.5527 14.437V15.3351C10.5527 15.4542 10.5979 15.5684 10.6782 15.6526C10.7585 15.7368 10.8674 15.7841 10.981 15.7841H22.9712C23.0847 15.7841 23.1936 15.7368 23.274 15.6526C23.3543 15.5684 23.3994 15.4542 23.3994 15.3351V14.437C23.3994 13.8415 23.1738 13.2704 22.7723 12.8493C22.3707 12.4283 21.8261 12.1917 21.2583 12.1917ZM22.5429 14.886H11.4092V14.437C11.4092 14.0797 11.5445 13.737 11.7854 13.4844C12.0264 13.2317 12.3531 13.0898 12.6938 13.0898H21.2583C21.599 13.0898 21.9257 13.2317 22.1667 13.4844C22.4076 13.737 22.5429 14.0797 22.5429 14.437V14.886Z" fill="white"/>
<path d="M22.9712 16.4974C22.8576 16.4974 22.7487 16.5447 22.6684 16.629C22.588 16.7132 22.5429 16.8274 22.5429 16.9465V21.8861C22.5429 22.2433 22.4076 22.586 22.1667 22.8386C21.9257 23.0913 21.599 23.2332 21.2583 23.2332H12.6938C12.3531 23.2332 12.0264 23.0913 11.7854 22.8386C11.5445 22.586 11.4092 22.2433 11.4092 21.8861V16.9465C11.4092 16.8274 11.3641 16.7132 11.2838 16.629C11.2034 16.5447 11.0945 16.4974 10.981 16.4974C10.8674 16.4974 10.7585 16.5447 10.6782 16.629C10.5979 16.7132 10.5527 16.8274 10.5527 16.9465V21.8861C10.5527 22.4815 10.7783 23.0526 11.1799 23.4737C11.3787 23.6822 11.6147 23.8476 11.8745 23.9604C12.1342 24.0732 12.4127 24.1313 12.6938 24.1313H21.2583C21.8261 24.1313 22.3707 23.8948 22.7723 23.4737C23.1738 23.0526 23.3994 22.4815 23.3994 21.8861V16.9465C23.3994 16.8274 23.3543 16.7132 23.274 16.629C23.1936 16.5447 23.0847 16.4974 22.9712 16.4974Z" fill="white"/>
</svg>
