<svg width="34" height="34" viewBox="0 0 34 34" fill="none" xmlns="http://www.w3.org/2000/svg">
<circle cx="17.0696" cy="16.9917" r="16.5989" fill="#1E3565"/>
<path d="M14.0497 14.0556H11.4564C11.3012 14.0556 11.1758 13.9299 11.1758 13.775C11.1758 13.6201 11.3012 13.4944 11.4564 13.4944H14.0497C14.2048 13.4944 14.3303 13.6201 14.3303 13.775C14.3303 13.9299 14.2048 14.0556 14.0497 14.0556Z" fill="white"/>
<path d="M17.5325 12.9335H11.4564C11.3012 12.9335 11.1758 12.8078 11.1758 12.6529C11.1758 12.498 11.3012 12.3723 11.4564 12.3723H17.5325C17.6876 12.3723 17.8131 12.498 17.8131 12.6529C17.8131 12.8078 17.6876 12.9335 17.5325 12.9335Z" fill="white"/>
<path d="M20.2031 19.4173H19.0807C18.9255 19.4173 18.8001 19.2916 18.8001 19.1367V18.1038H17.7669C17.6118 18.1038 17.4863 17.9781 17.4863 17.8232V16.7008C17.4863 16.5459 17.6118 16.4202 17.7669 16.4202H18.8001V15.387C18.8001 15.2322 18.9255 15.1064 19.0807 15.1064H20.2031C20.3583 15.1064 20.4837 15.2322 20.4837 15.387V16.4202H21.5169C21.672 16.4202 21.7975 16.5459 21.7975 16.7008V17.8232C21.7975 17.9781 21.672 18.1038 21.5169 18.1038H20.4837V19.1367C20.4837 19.2916 20.3583 19.4173 20.2031 19.4173ZM19.3613 18.8561H19.9225V17.8232C19.9225 17.6683 20.0479 17.5426 20.2031 17.5426H21.2363V16.9814H20.2031C20.0479 16.9814 19.9225 16.8557 19.9225 16.7008V15.6676H19.3613V16.7008C19.3613 16.8557 19.2359 16.9814 19.0807 16.9814H18.0475V17.5426H19.0807C19.2359 17.5426 19.3613 17.6683 19.3613 17.8232V18.8561Z" fill="white"/>
<path d="M11.2339 20.2862C11.1949 20.2862 11.1558 20.2781 11.1191 20.2615C11.0184 20.2164 10.9533 20.1159 10.9533 20.0056V18.0976H10.5043C9.94759 18.0976 9.49414 17.6444 9.49414 17.0874V11.9805C9.49414 11.4235 9.94731 10.9703 10.5043 10.9703H18.4887C19.0454 10.9703 19.4989 11.4235 19.4989 11.9805V12.8565C19.4989 13.0114 19.3735 13.1371 19.2183 13.1371C19.0631 13.1371 18.9377 13.0114 18.9377 12.8565V11.9805C18.9377 11.733 18.7362 11.5315 18.4887 11.5315H10.5043C10.2568 11.5315 10.0553 11.733 10.0553 11.9805V17.0874C10.0553 17.3349 10.2568 17.5364 10.5043 17.5364H11.2339C11.389 17.5364 11.5145 17.6621 11.5145 17.817V19.3807L13.5098 17.6071C13.5611 17.5613 13.6274 17.5364 13.6961 17.5364H14.9223C15.0775 17.5364 15.2029 17.6621 15.2029 17.817C15.2029 17.9718 15.0775 18.0976 14.9223 18.0976H13.8027L11.4202 20.2152C11.368 20.2621 11.3012 20.2862 11.2339 20.2862Z" fill="white"/>
<path d="M22.9057 23.0134C22.8383 23.0134 22.7715 22.9893 22.7194 22.9427L20.3368 20.8247H15.6508C15.0941 20.8247 14.6406 20.3716 14.6406 19.8146V14.7077C14.6406 14.1507 15.0938 13.6975 15.6508 13.6975H23.6352C24.1919 13.6975 24.6454 14.1507 24.6454 14.7077V19.8146C24.6454 20.3716 24.1922 20.8247 23.6352 20.8247H23.1863V22.7328C23.1863 22.8434 23.1215 22.9435 23.0204 22.9887C22.9837 23.0053 22.9444 23.0134 22.9057 23.0134ZM15.6508 14.2587C15.4033 14.2587 15.2018 14.4602 15.2018 14.7077V19.8146C15.2018 20.0621 15.4033 20.2635 15.6508 20.2635H20.4431C20.5119 20.2635 20.5781 20.2888 20.6295 20.3342L22.6248 22.1079V20.5441C22.6248 20.3892 22.7502 20.2635 22.9054 20.2635H23.6352C23.8827 20.2635 24.0842 20.0621 24.0842 19.8146V14.7077C24.0842 14.4602 23.8827 14.2587 23.6352 14.2587H15.6508Z" fill="white"/>
</svg>
