<svg width="979" height="289" viewBox="0 0 979 289" fill="none" xmlns="http://www.w3.org/2000/svg">
<path d="M319.063 133.738L318.924 134.218L319.063 133.738ZM879.769 28.4058L879.755 27.906L879.769 28.4058ZM978.284 0.842365C978.472 0.640483 978.461 0.324089 978.259 0.13568C978.057 -0.0527294 977.741 -0.0418068 977.552 0.160076L978.284 0.842365ZM32.7998 288.106C42.0409 252.035 67.5603 200.23 113.768 164.115C159.95 128.02 226.838 107.563 318.924 134.218L319.202 133.258C226.819 106.517 159.596 127.028 113.152 163.327C66.7342 199.606 41.1143 251.622 31.8311 287.858L32.7998 288.106ZM318.924 134.218C434.24 167.597 504.624 173.88 553.466 165.517C602.342 157.149 629.596 134.122 658.634 109.087L657.981 108.33C628.957 133.353 601.882 156.213 553.298 164.532C504.68 172.855 434.473 166.624 319.202 133.258L318.924 134.218ZM658.634 109.087C716.592 59.1173 802.706 31.1632 879.784 28.9056L879.755 27.906C802.495 30.169 716.145 58.1817 657.981 108.33L658.634 109.087ZM879.784 28.9056C920.317 27.7183 940.951 25.0084 953.449 20.4302C965.999 15.8328 970.356 9.33647 978.284 0.842365L977.552 0.160076C969.558 8.72655 965.379 14.9951 953.105 19.4912C940.779 24.0064 920.299 26.7184 879.755 27.906L879.784 28.9056Z" fill="#9ACF8C"/>
<path d="M0.776367 285.475C19.8615 233.305 104.784 127.251 294.838 165.776C532.406 213.933 584.534 183.835 644.354 147.717C704.173 111.6 793.016 91.4097 872.521 89.7789C956.053 88.0655 956.472 82.0754 972.876 69.7661" stroke="#9ACF8C" stroke-width="1.16429"/>
<path d="M301.58 130.434C134.275 88.5046 53.6003 214.431 34.1758 282.636L33.5449 288.575H977.724V1.62549C965.007 23.8339 911.685 28.467 889.72 28.2031C867.747 27.9392 737.804 35.8086 656.255 110.002C575.265 183.689 510.711 182.846 301.58 130.434Z" fill="url(#paint0_linear_12680_82593)" fill-opacity="0.12"/>
<path d="M276.826 165.992C104.455 134.565 21.3374 228.949 1.32483 280.069L0.674805 284.52H973.441L972.86 68.709C959.758 85.3544 910.548 88.1658 888.023 88.406C865.419 88.647 729.75 91.3175 644.548 146.799C571.007 194.688 492.289 205.275 276.826 165.992Z" fill="url(#paint1_linear_12680_82593)" fill-opacity="0.12"/>
<defs>
<linearGradient id="paint0_linear_12680_82593" x1="485.466" y1="107.937" x2="516.996" y2="286.569" gradientUnits="userSpaceOnUse">
<stop offset="0.364583" stop-color="#9ACF8C"/>
<stop offset="1" stop-color="#9ACF8C" stop-opacity="0"/>
</linearGradient>
<linearGradient id="paint1_linear_12680_82593" x1="466.279" y1="149.13" x2="483.719" y2="284.949" gradientUnits="userSpaceOnUse">
<stop offset="0.364583" stop-color="#9ACF8C"/>
<stop offset="1" stop-color="#9ACF8C" stop-opacity="0"/>
</linearGradient>
</defs>
</svg>
